<?xml version="1.0" encoding="UTF-8" standalone="no"?>
<!-- Created with Inkscape (http://www.inkscape.org/) -->

<svg
   width="128"
   height="128"
   viewBox="0 0 33.866665 33.866667"
   version="1.1"
   id="svg1"
   inkscape:version="1.4.4 (dcaf3e7d9e, 2026-05-05)"
   sodipodi:docname="import-logo-destroy.svg"
   xml:space="preserve"
   xmlns:inkscape="http://www.inkscape.org/namespaces/inkscape"
   xmlns:sodipodi="http://sodipodi.sourceforge.net/DTD/sodipodi-0.dtd"
   xmlns:xlink="http://www.w3.org/1999/xlink"
   xmlns="http://www.w3.org/2000/svg"
   xmlns:svg="http://www.w3.org/2000/svg"><sodipodi:namedview
     id="namedview1"
     pagecolor="#ffffff"
     bordercolor="#000000"
     borderopacity="0.25"
     inkscape:showpageshadow="false"
     inkscape:pageopacity="0.0"
     inkscape:pagecheckerboard="0"
     inkscape:deskcolor="#d1d1d1"
     inkscape:document-units="px"
     inkscape:zoom="4.6484375"
     inkscape:cx="24.954622"
     inkscape:cy="61.310924"
     inkscape:window-width="3394"
     inkscape:window-height="1404"
     inkscape:window-x="46"
     inkscape:window-y="0"
     inkscape:window-maximized="1"
     inkscape:current-layer="layer1"
     showgrid="false" /><defs
     id="defs1"><linearGradient
       id="linearGradient5"
       inkscape:collect="always"><stop
         style="stop-color:#ff4136;stop-opacity:1;"
         offset="0"
         id="stop5" /><stop
         style="stop-color:#ff746b;stop-opacity:1;"
         offset="1"
         id="stop6" /></linearGradient><linearGradient
       inkscape:collect="always"
       xlink:href="#linearGradient5"
       id="linearGradient6"
       x1="17.929411"
       y1="32.728291"
       x2="17.929411"
       y2="14.52417"
       gradientUnits="userSpaceOnUse" /></defs><g
     inkscape:label="Layer 1"
     inkscape:groupmode="layer"
     id="layer1"><path
       id="rect1"
       style="fill:#e00d00;fill-opacity:1;stroke-width:1.36826;stroke-linecap:round;stroke-linejoin:round;paint-order:stroke markers fill"
       d="M 2.6458333,29.51238 H 31.220832 c 1.465791,0 2.645833,-0.876602 2.645833,-1.965476 V 6.3197619 c 0,-1.0888732 -1.180042,-1.9654758 -2.645833,-1.9654758 H 2.6458333 C 1.1800416,4.3542861 0,5.2308887 0,6.3197619 V 27.546904 c 0,1.088874 1.1800416,1.965476 2.6458333,1.965476 z" /><path
       id="rect4"
       style="fill:url(#linearGradient6);fill-opacity:1;stroke-width:1.5875;stroke-linecap:round;stroke-linejoin:round;paint-order:stroke markers fill"
       sodipodi:type="inkscape:offset"
       inkscape:radius="-1.0245378"
       inkscape:original="M 2.6464844 0 C 1.1806928 0 0 1.1806928 0 2.6464844 L 0 31.220703 C 0 32.686495 1.1806928 33.867188 2.6464844 33.867188 L 31.220703 33.867188 C 32.686495 33.867188 33.867188 32.686495 33.867188 31.220703 L 33.867188 2.6464844 C 33.867188 1.1806928 32.686495 0 31.220703 0 L 2.6464844 0 z "
       d="m 2.6464844,1.0253906 c -0.9156159,0 -1.6210938,0.7054779 -1.6210938,1.6210938 V 31.220703 c 0,0.915617 0.705478,1.621094 1.6210938,1.621094 H 31.220703 c 0.915616,0 1.621094,-0.705478 1.621094,-1.621094 V 2.6464844 c 0,-0.9156158 -0.705477,-1.6210938 -1.621094,-1.6210938 z"
       transform="matrix(1.0483209,0,0,0.7230679,-0.81850724,4.6891949)" /><g
       style="fill:#ffffff"
       id="g1"
       transform="matrix(1.1039458,0,0,1.1039458,8.1017666,8.1574572)"><path
         d="M 0.5,9.9 A 0.5,0.5 0 0 1 1,10.4 v 2.5 a 1,1 0 0 0 1,1 h 12 a 1,1 0 0 0 1,-1 v -2.5 a 0.5,0.5 0 0 1 1,0 v 2.5 a 2,2 0 0 1 -2,2 H 2 a 2,2 0 0 1 -2,-2 V 10.4 A 0.5,0.5 0 0 1 0.5,9.9"
         id="path1-3"
         style="fill:#ffffff" /><path
         d="m 7.646,1.146 a 0.5,0.5 0 0 1 0.708,0 l 3,3 A 0.5006316,0.5006316 0 0 1 10.646,4.854 L 8.5,2.707 V 11.5 a 0.5,0.5 0 0 1 -1,0 V 2.707 L 5.354,4.854 A 0.5006316,0.5006316 0 1 1 4.646,4.146 Z"
         id="path2-6"
         style="fill:#ffffff" /></g></g></svg>
