<?xml version="1.0" encoding="UTF-8" standalone="no"?>
<!-- Created with Inkscape (http://www.inkscape.org/) -->

<svg
   width="16"
   height="16"
   viewBox="0 0 4.2333333 4.2333333"
   version="1.1"
   id="svg1"
   inkscape:version="1.4.4 (dcaf3e7d9e, 2026-05-05)"
   sodipodi:docname="fillea.svg"
   xml:space="preserve"
   inkscape:export-filename="Png/fillea.png"
   inkscape:export-xdpi="96"
   inkscape:export-ydpi="96"
   xmlns:inkscape="http://www.inkscape.org/namespaces/inkscape"
   xmlns:sodipodi="http://sodipodi.sourceforge.net/DTD/sodipodi-0.dtd"
   xmlns="http://www.w3.org/2000/svg"
   xmlns:svg="http://www.w3.org/2000/svg"><sodipodi:namedview
     id="namedview1"
     pagecolor="#ffffff"
     bordercolor="#000000"
     borderopacity="0.25"
     inkscape:showpageshadow="false"
     inkscape:pageopacity="0.0"
     inkscape:pagecheckerboard="0"
     inkscape:deskcolor="#d1d1d1"
     inkscape:document-units="px"
     inkscape:zoom="4.0934854"
     inkscape:cx="68.645658"
     inkscape:cy="62.294103"
     inkscape:window-width="3394"
     inkscape:window-height="1404"
     inkscape:window-x="2606"
     inkscape:window-y="0"
     inkscape:window-maximized="1"
     inkscape:current-layer="layer1"
     showgrid="true" /><defs
     id="defs1" /><g
     inkscape:label="Livello 1"
     inkscape:groupmode="layer"
     id="layer1"><g
       id="g2"
       transform="scale(0.12500001)"><rect
         style="fill:#d40000;fill-opacity:1;stroke:none;stroke-width:1.5875;stroke-linecap:round;stroke-linejoin:round;paint-order:stroke markers fill"
         id="rect1"
         width="33.866665"
         height="33.866665"
         x="0"
         y="0"
         rx="3.96875"
         ry="3.96875" /><g
         id="g1"><g
           id="g47"
           transform="matrix(1.4284281,0,0,1.4284281,56.622375,-21.801588)"><text
             xml:space="preserve"
             style="font-style:normal;font-weight:normal;font-size:4.28064px;line-height:1.25;font-family:sans-serif;letter-spacing:0px;word-spacing:0px;fill:#ffffff;fill-opacity:1;stroke:none;stroke-width:0.321048"
             x="-35.405827"
             y="34.833683"
             id="text1394"><tspan
               sodipodi:role="line"
               id="tspan1392"
               x="-35.405827"
               y="34.833683"
               style="font-style:normal;font-variant:normal;font-weight:normal;font-stretch:normal;font-family:'Futura XBlk BT';-inkscape-font-specification:'Futura XBlk BT';fill:#ffffff;fill-opacity:1;stroke-width:0.321048">FILLEA</tspan></text><g
             id="g1874"
             transform="matrix(1.0086806,0,0,1.0086806,14.240581,-262.34081)"><path
               sodipodi:nodetypes="ccccc"
               inkscape:connector-curvature="0"
               id="path1839"
               d="m -45.499447,279.46759 v 4.89276 l 9.540885,4.86558 v -1.52219 z"
               style="fill:#ffffff;stroke:none;stroke-width:0.264583px;stroke-linecap:butt;stroke-linejoin:miter;stroke-opacity:1" /><path
               inkscape:connector-curvature="0"
               id="path1841"
               d="m -45.662539,279.50836 v 4.89276 l -1.114462,1.04651 v -5.20536 z"
               style="fill:#ffffff;fill-opacity:1;stroke:none;stroke-width:0.264583px;stroke-linecap:butt;stroke-linejoin:miter;stroke-opacity:1" /><path
               inkscape:connector-curvature="0"
               id="path1843"
               d="m -45.513038,284.49626 9.500112,4.78403 -0.339775,0.57083 -10.315572,-4.30835 z"
               style="fill:#ffffff;fill-opacity:1;stroke:none;stroke-width:0.264583px;stroke-linecap:butt;stroke-linejoin:miter;stroke-opacity:1" /><path
               inkscape:connector-curvature="0"
               id="path1845"
               d="m -42.573422,279.31682 a 5.4009839,5.4009839 0 0 0 -0.291971,0.0145 l 0.167431,0.62426 a 4.7667046,4.7667046 0 0 1 0.124024,-0.004 4.7667046,4.7667046 0 0 1 4.767151,4.76664 4.7667046,4.7667046 0 0 1 -4.767151,4.76663 4.7667046,4.7667046 0 0 1 -4.166153,-2.46083 l -0.62942,0.16846 a 5.4009839,5.4009839 0 0 0 4.796089,2.92696 5.4009839,5.4009839 0 0 0 5.400704,-5.40122 5.4009839,5.4009839 0 0 0 -5.400704,-5.40123 z"
               style="fill:#000080;fill-opacity:1;stroke:none;stroke-width:0.0026648;stroke-miterlimit:4;stroke-dasharray:none" /><path
               inkscape:connector-curvature="0"
               id="circle1851"
               d="m -41.725928,280.28472 0.197403,0.73691 c 1.614324,0.45583 2.798875,1.93616 2.798797,3.69642 9.1e-5,2.12319 -1.721016,3.8443 -3.84421,3.84421 -1.277986,-9e-5 -2.40692,-0.62639 -3.105754,-1.58595 l -0.687813,0.18448 a 4.5168371,4.5168371 0 0 0 3.793567,2.07429 4.5168371,4.5168371 0 0 0 4.517037,-4.51703 4.5168371,4.5168371 0 0 0 -3.669027,-4.43333 z"
               style="fill:#000080;fill-opacity:1;stroke:none;stroke-width:0.00222857;stroke-miterlimit:4;stroke-dasharray:none" /></g></g></g></g></g></svg>
