<?xml version="1.0" encoding="UTF-8" standalone="no"?>
<!-- Created with Inkscape (http://www.inkscape.org/) -->

<svg
   version="1.1"
   id="svg1"
   width="1254"
   height="1254"
   viewBox="0 0 1254 1254"
   sodipodi:docname="icon.svg"
   inkscape:version="1.4.4 (dcaf3e7d9e, 2026-05-05)"
   xml:space="preserve"
   inkscape:export-filename="main-logo.png"
   inkscape:export-xdpi="96"
   inkscape:export-ydpi="96"
   xmlns:inkscape="http://www.inkscape.org/namespaces/inkscape"
   xmlns:sodipodi="http://sodipodi.sourceforge.net/DTD/sodipodi-0.dtd"
   xmlns="http://www.w3.org/2000/svg"
   xmlns:svg="http://www.w3.org/2000/svg"><defs
     id="defs1" /><sodipodi:namedview
     id="namedview1"
     pagecolor="#ffffff"
     bordercolor="#000000"
     borderopacity="0.25"
     inkscape:showpageshadow="2"
     inkscape:pageopacity="0.0"
     inkscape:pagecheckerboard="0"
     inkscape:deskcolor="#d1d1d1"
     inkscape:zoom="0.47448166"
     inkscape:cx="1342.5176"
     inkscape:cy="680.74286"
     inkscape:window-width="3394"
     inkscape:window-height="1404"
     inkscape:window-x="2606"
     inkscape:window-y="0"
     inkscape:window-maximized="1"
     inkscape:current-layer="g1" /><g
     inkscape:groupmode="layer"
     inkscape:label="Image"
     id="g1"><path
       style="fill:#70cef0;fill-opacity:1;stroke-width:3.08942"
       d="m 472.58161,1123.9862 c 139.02044,-20.0558 -99.64085,14.3748 0,0 z m -179.64969,-22.9986 c 6.53629,-6.5363 41.04262,-16.4322 94.56031,-27.1185 20.31818,-4.057 38.28902,-8.7232 39.93506,-10.3693 1.93089,-1.9307 -5.54489,-6.8835 -21.06675,-13.957 C 375.33135,1035.4022 325.70633,1001.548 290.80362,970.7095 213.02535,901.98814 152.47552,792.89681 133.93747,688.08674 125.77893,641.96126 126.42276,565.7888 135.35396,520.4691 176.63014,311.02402 337.05624,156.52773 548.27237,122.81331 c 108.03975,-17.24533 207.32656,-2.16763 305.85244,46.44663 50.93556,25.13239 90.38527,53.29889 129.66445,92.57807 54.29774,54.29761 96.36484,123.55018 120.05014,197.63175 18.3435,57.3732 22.022,82.22958 21.9457,148.2921 -0.077,67.26764 -3.8849,92.1192 -23.056,150.50155 -39.4145,120.03071 -128.15589,224.85224 -241.6531,285.44169 -14.86782,7.937 -27.03241,15.5283 -27.03241,16.8694 0,2.1639 17.26645,6.3587 44.79657,10.8833 5.09754,0.8378 25.95112,5.0707 46.34128,9.4066 29.42548,6.2571 38.50682,9.4521 44.02421,15.4885 7.66207,8.3828 8.80207,18.3548 3.44347,30.116 -37.40884,24.8082 -127.23153,-12.2865 -172.58913,-18.5465 -25.30667,-3.3209 -71.6291,-5.5785 -134.38971,-6.5495 -311.72666,-4.823 -458.31,85.1841 -372.73836,-0.3853 z m 459.2084,-104.35333 c 138.86875,-45.63402 240.88784,-159.5179 272.25038,-303.9134 8.0825,-37.2131 8.1088,-118.43438 0.049,-152.92622 C 987.67142,382.4395 871.8142,267.13272 716.64476,233.46167 677.39647,224.94498 580.78634,225.59517 541.87357,234.6379 376.28536,273.11819 258.05424,395.21783 229.8151,556.90725 c -7.30493,41.82578 -4.64432,110.9644 5.8251,151.37446 39.78831,153.57377 159.43779,267.51156 315.72066,300.64939 23.87596,5.0627 101.41048,20.3574 200.77946,-12.29683 z"
       id="path17"
       sodipodi:nodetypes="sssssssssssssssssssssssssssssssss" /><path
       style="font-size:274.56px;font-family:esint10;-inkscape-font-specification:esint10;letter-spacing:0px;fill:#1e425d;stroke-width:102.446;stroke-linecap:round;stroke-linejoin:round;paint-order:stroke markers fill;fill-opacity:1"
       d="m 609.9418,466.80145 c -37.43232,0 -66.24548,13.54453 -86.43884,40.63367 -21.1792,28.32048 -31.76849,65.87589 -31.76849,112.66621 0,49.49926 10.46633,88.53227 31.39899,117.09898 21.17889,28.32045 50.1147,42.48068 86.80834,42.48068 36.20088,0 64.89077,-14.28337 86.06935,-42.85008 21.17889,-28.56674 31.76818,-67.47661 31.76818,-116.72958 0,-45.06646 -10.58929,-82.62186 -31.76818,-112.66621 -19.455,-27.08914 -48.14488,-40.63367 -86.06935,-40.63367 z m 0,-53.93204 h 225.7018 c 24.9588,46.25384 11.60139,56.28136 0,67.96912 h -76.09609 c 26.84303,38.41732 40.2644,84.83828 40.2644,139.2628 0,67.72287 -16.86916,120.79294 -50.60746,159.21029 -33.73831,38.66358 -80.15898,57.99537 -139.26265,57.99537 -59.34989,0 -105.77088,-19.33179 -139.26296,-57.99537 -33.73799,-38.41735 -50.60715,-91.48742 -50.60715,-159.21029 0,-68.21538 16.86916,-121.40859 50.60715,-159.57968 27.82794,-31.76815 74.24893,-47.65224 139.26296,-47.65224 z"
       id="text9"
       aria-label="σ"
       sodipodi:nodetypes="scscssscsscccscscscs" /></g></svg>
