<?xml version="1.0" encoding="UTF-8" standalone="no"?>
<!-- Created with Inkscape (http://www.inkscape.org/) -->

<svg
   width="72"
   height="24"
   viewBox="0 0 19.049999 6.3500002"
   version="1.1"
   id="svg1"
   xml:space="preserve"
   inkscape:version="1.4.4 (dcaf3e7d9e, 2026-05-05)"
   sodipodi:docname="davo-logo.svg"
   xmlns:inkscape="http://www.inkscape.org/namespaces/inkscape"
   xmlns:sodipodi="http://sodipodi.sourceforge.net/DTD/sodipodi-0.dtd"
   xmlns="http://www.w3.org/2000/svg"
   xmlns:svg="http://www.w3.org/2000/svg"><sodipodi:namedview
     id="namedview1"
     pagecolor="#ffffff"
     bordercolor="#000000"
     borderopacity="0.25"
     inkscape:showpageshadow="false"
     inkscape:pageopacity="0.0"
     inkscape:pagecheckerboard="0"
     inkscape:deskcolor="#d1d1d1"
     inkscape:document-units="px"
     showguides="false"
     inkscape:zoom="1.6517572"
     inkscape:cx="213.10638"
     inkscape:cy="107.76402"
     inkscape:window-width="3394"
     inkscape:window-height="1404"
     inkscape:window-x="2606"
     inkscape:window-y="0"
     inkscape:window-maximized="1"
     inkscape:current-layer="layer1"><inkscape:page
       x="0"
       y="0"
       width="19.049999"
       height="6.3500004"
       id="page1"
       margin="0"
       bleed="0" /></sodipodi:namedview><defs
     id="defs1"><inkscape:path-effect
       effect="powerstroke"
       id="path-effect26927"
       is_visible="true"
       lpeversion="1"
       offset_points="0,1"
       not_jump="false"
       sort_points="true"
       interpolator_type="CubicBezierJohan"
       interpolator_beta="0.2"
       start_linecap_type="zerowidth"
       linejoin_type="extrp_arc"
       miter_limit="4"
       scale_width="1"
       end_linecap_type="zerowidth"
       message="" /><inkscape:path-effect
       effect="powerstroke"
       id="path-effect26144"
       is_visible="true"
       lpeversion="1"
       offset_points="0,1"
       not_jump="false"
       sort_points="true"
       interpolator_type="CubicBezierJohan"
       interpolator_beta="0.2"
       start_linecap_type="zerowidth"
       linejoin_type="extrp_arc"
       miter_limit="4"
       scale_width="1"
       end_linecap_type="zerowidth"
       message="" /><inkscape:path-effect
       effect="powerstroke"
       id="path-effect26927-3"
       is_visible="true"
       lpeversion="1"
       offset_points="0,1"
       not_jump="false"
       sort_points="true"
       interpolator_type="CubicBezierJohan"
       interpolator_beta="0.2"
       start_linecap_type="zerowidth"
       linejoin_type="extrp_arc"
       miter_limit="4"
       scale_width="1"
       end_linecap_type="zerowidth"
       message="" /><inkscape:path-effect
       effect="powerstroke"
       id="path-effect26144-6"
       is_visible="true"
       lpeversion="1"
       offset_points="0,1"
       not_jump="false"
       sort_points="true"
       interpolator_type="CubicBezierJohan"
       interpolator_beta="0.2"
       start_linecap_type="zerowidth"
       linejoin_type="extrp_arc"
       miter_limit="4"
       scale_width="1"
       end_linecap_type="zerowidth"
       message="" /></defs><g
     inkscape:label="Layer 1"
     inkscape:groupmode="layer"
     id="layer1"><path
       id="path25952"
       style="color:#000000;fill:#d9230f;fill-opacity:1;stroke-width:0.748839;stroke-linecap:round;stroke-linejoin:bevel;-inkscape-stroke:none"
       d="m 15.946505,6.3199529e-4 c -0.0393,-0.0015 -0.0781,-2.82e-4 -0.11652,0.003500005 -0.23047,0.02243 -0.44464,0.137227 -0.6249,0.310492 -0.24035,0.231019 -0.43628,0.564287 -0.59746,0.96064 -0.22619,0.556211 -0.37755,1.240815 -0.45225,1.944175 -0.0293,-0.06173 -0.05,-0.134977 -0.0845,-0.190058 a 0.15172658,0.15172659 0 0 0 -0.20919,-0.04799 0.15172658,0.15172659 0 0 0 -0.0703,0.145053 c -0.0756,-0.09979 -0.17438,-0.174322 -0.28838,-0.212325 -0.0618,-0.02061 -0.12927,-0.02819 -0.19634,-0.02086 -0.0671,0.0073 -0.1338,0.02955 -0.19413,0.06806 -0.12066,0.07702 -0.21214,0.20896 -0.27223,0.387643 a 0.15174175,0.15174176 0 0 0 -0.007,0.02932 c -0.0254,0.201421 -0.0194,0.355604 0.0268,0.48283 0.0191,0.05262 0.0522,0.09536 0.087,0.135016 -5.6e-4,0.01525 -0.008,0.03068 -0.007,0.04579 0.009,0.128737 0.0868,0.256448 0.2142,0.305159 a 0.15174175,0.15174176 0 0 0 0.039,0.0093 c 0.12409,0.01244 0.22582,-0.0033 0.31645,-0.03434 l -0.0137,0.08374 a 0.15172658,0.15172659 0 0 0 0.12529,0.174219 0.15172658,0.15172659 0 0 0 0.17422,-0.125293 l 0.13219,-0.81057 a 0.15174175,0.15174176 0 0 0 0.0212,-0.08217 c -0.004,-0.05377 -0.0128,-0.105916 -0.0256,-0.155716 0.0818,0.195876 0.14235,0.439331 0.17752,0.730595 a 0.15174175,0.15174176 0 0 0 0.30233,-0.01756 c 10e-4,-0.212219 0.0104,-0.427303 0.0278,-0.641682 0.0867,0.451621 0.47276,0.681825 0.81983,0.616592 0.31897,-0.05995 0.57312,-0.373949 0.5708,-0.826252 0.14943,0.01581 0.29974,0.03118 0.46072,0.04125 0.84487,0.05281 1.8221,0.03888 2.59872,0.07511 a 0.15172658,0.15172659 0 0 0 0.15869,-0.144582 0.15172658,0.15172659 0 0 0 -0.14458,-0.158539 c -0.79191,-0.03695 -1.76702,-0.02312 -2.59386,-0.0748 -0.20062,-0.01254 -0.39142,-0.02944 -0.56907,-0.05112 -0.0952,-0.142463 -0.22276,-0.261435 -0.39502,-0.328682 -0.2121,-0.0828 -0.47025,-0.110381 -0.77717,-0.09393 0.0814,-0.417371 0.19229,-0.808762 0.32821,-1.143014 0.15088,-0.371005 0.33328,-0.670242 0.52659,-0.856046 0.19189,-0.184456 0.37891,-0.257928 0.59165,-0.221265 0.37038,0.09365 0.46558,0.235165 0.50933,0.435942 0.044,0.201938 -0.002,0.481024 -0.0158,0.768388 a 0.15172658,0.15172659 0 0 0 0.14411,0.159008 0.15172658,0.15172659 0 0 0 0.15901,-0.143954 c 0.0127,-0.258884 0.0726,-0.557423 0.009,-0.848048 -0.0633,-0.290623 -0.28868,-0.555792 -0.73781,-0.667711 a 0.15174175,0.15174176 0 0 0 -0.01,-0.0022 c -0.0399,-0.0072 -0.0795,-0.01148 -0.11872,-0.0130100047 z M 5.6681483,0.153054 c -0.714436,-0.01617 -1.47435,0.120721 -2.207464,0.415243 -1.46623,0.589047 -2.82880103,1.838822 -3.43531703,3.812297 a 0.34800047,0.34800047 0 0 0 0.230516,0.434687 0.34800047,0.34800047 0 0 0 0.434688,-0.230359 C 1.2359333,2.810429 2.4289673,1.732864 3.7203673,1.214056 c 1.2914,-0.518812 2.677694,-0.448888 3.53521,0.04501 0.432596,0.249172 0.75549,0.558201 0.986825,0.896661 -0.28179,0.06682 -0.585983,0.147506 -0.918928,0.243374 a 0.15174165,0.15174166 0 0 0 -0.01758,0.0061 c -0.212393,0.09036 -0.355544,0.208038 -0.411162,0.365218 -0.0556,0.157181 5.6e-4,0.321882 0.09753,0.442059 0.193971,0.240351 0.549039,0.396662 0.917988,0.431237 A 0.15172648,0.1517265 0 0 0 8.0753733,3.506817 0.15172648,0.1517265 0 0 0 7.9384763,3.341692 c -0.293689,-0.02752 -0.599539,-0.182959 -0.710052,-0.3199 -0.05527,-0.06847 -0.06211,-0.108814 -0.04754,-0.150071 0.01439,-0.04067 0.07524,-0.11337 0.23867,-0.184256 0.362745,-0.104261 0.688579,-0.190047 0.986674,-0.259213 0.146534,0.279442 0.238368,0.572412 0.284618,0.863416 0.119752,0.753537 -0.09465,1.484601 -0.441745,1.859653 C 7.8763953,5.553834 7.4390063,5.677656 7.0394403,5.65093 6.6398743,5.6242 6.2944873,5.421545 6.1619123,5.227533 6.0081893,5.002559 6.0006973,4.791275 6.0555873,4.608119 c 0.02189,-0.0731 0.06146,-0.130336 0.100362,-0.184099 -0.03292,0.153642 0.0011,0.2844 0.07856,0.395797 0.08491,0.122458 0.240002,0.222223 0.415871,0.235221 h 4.92e-4 c 0.213317,0.01574 0.377975,-0.07526 0.505567,-0.214992 0.127591,-0.139737 0.208047,-0.356498 0.173595,-0.583347 -0.04003,-0.263935 -0.20695,-0.460253 -0.432177,-0.587894 -0.225231,-0.127641 -0.53429,-0.170712 -0.833309,-0.053 -0.333903,0.131453 -0.566571,0.428749 -0.675554,0.792379 -0.108985,0.363631 -0.07326,0.815005 0.1979,1.211856 0.292334,0.42781 0.818589,0.685962 1.406146,0.725263 0.587557,0.0393 1.25268,-0.16562 1.766819,-0.720872 0.539604,-0.582772 0.767664,-1.502153 0.618319,-2.441902 -0.04759,-0.299431 -0.136309,-0.602074 -0.26988,-0.895249 0.848407,-0.139709 1.4805267,-0.116842 2.2240867,0.0011 l -0.64215,1.6329 c -0.0105,-0.0021 -0.0144,-0.0024 -0.0247,-0.0045 -0.0502,-0.01022 -0.0504,-0.01062 -0.0957,-0.02007 l 0.0216,-0.684805 a 0.15174165,0.15174166 0 0 0 -0.28431,-0.07841 c -0.0408,0.07361 -0.21849,0.229392 -0.3351097,0.400659 -0.0583,0.08563 -0.11394,0.197801 -0.0771,0.3268 0.0368,0.128999 0.1526497,0.211864 0.3053197,0.26674 a 0.15174165,0.15174166 0 0 0 0.0191,0.0055 c 0,0 0.0356,0.0074 0.0392,0.0082 l -0.0311,0.981026 a 0.15174165,0.15174166 0 0 0 0.29277,0.06037 l 0.36145,-0.919085 c 0.0817,0.01498 0.18829,0.03869 0.23882,0.04266 a 0.15174165,0.15174166 0 0 0 0.003,1.55e-4 c 0.90422,0.05326 1.51466,-0.337997 1.66208,-0.865455 0.0737,-0.263729 0.0238,-0.553559 -0.14788,-0.801945 -0.17172,-0.248385 -0.46033,-0.456825 -0.86185,-0.59056 a 0.15174165,0.15174166 0 0 0 -0.0198,-0.0052 c -3.9e-4,-7.4e-5 -5.5e-4,-7.6e-5 -10e-4,-1.55e-4 l 0.39972,-1.016464 a 0.15172648,0.1517265 0 0 0 -0.0856,-0.196644 0.15172648,0.1517265 0 0 0 -0.0582,-0.01051 0.15172648,0.1517265 0 0 0 -0.13862,0.09613 L 11.446105,1.9993 C 10.622655,1.864985 9.9183753,1.840935 8.9643553,2.0062 8.6687123,1.487466 8.2220113,1.012703 7.6030593,0.656191 7.0516123,0.338579 6.3825753,0.169285 5.6681323,0.153133 Z m 5.9728767,2.180024 c 0.0162,0.003 0.0294,0.0035 0.0458,0.0066 0.34854,0.117592 0.57606,0.290903 0.70127,0.472009 0.12618,0.182509 0.15476,0.370895 0.10538,0.547593 -0.0987,0.353244 -0.54047,0.691618 -1.35111,0.64419 -0.0135,-0.0011 -0.10417,-0.01958 -0.14771,-0.02697 z m 2.86107,0.536302 c 0.073,0.06525 0.16209,0.117192 0.26078,0.161989 -0.0525,-0.01599 -0.11563,-0.0101 -0.16309,0.01365 -0.0477,0.02386 -0.0806,0.05962 -0.1046,0.09722 -0.0161,0.02526 -0.0291,0.05192 -0.0394,0.08013 0.0131,-0.118529 0.0285,-0.236441 0.0463,-0.352988 z m 0.31519,0.185668 c 0.10089,0.04215 0.21053,0.07815 0.3326,0.107574 0.11406,0.02749 0.2456,0.04599 0.37525,0.06555 0.0262,0.36778 -0.14581,0.533245 -0.32977,0.567822 -0.0892,0.01676 -0.18183,6.71e-4 -0.26298,-0.04767 a 0.15172658,0.15172659 0 0 0 0.1035,-0.144425 c -0.0116,-0.152632 -0.0367,-0.270693 -0.0757,-0.364278 -0.0318,-0.076 -0.0723,-0.144185 -0.14286,-0.18457 z m -1.46119,0.136742 c 0.0161,4.22e-4 0.0327,0.0039 0.051,0.01003 0.091,0.03033 0.20013,0.165003 0.22801,0.34891 l -0.0235,0.08734 c -0.0162,0.04711 -0.0395,0.09015 -0.0486,0.132508 -0.0943,0.02837 -0.17263,0.04527 -0.24008,0.05253 a 0.15172658,0.15172659 0 0 0 -0.0285,-0.183001 0.15172658,0.15172659 0 0 0 -0.16921,-0.0045 c -0.003,-0.05313 -4e-4,-0.121562 0.009,-0.202446 0.0439,-0.122564 0.0983,-0.188222 0.14192,-0.216089 0.0285,-0.01815 0.0535,-0.02595 0.0803,-0.02525 z m -3.08202,0.455387 -0.006,0.175945 c -0.0372,-0.02035 -0.0757,-0.04429 -0.0812,-0.04563 10e-4,-0.0046 0.006,-0.02843 0.0354,-0.07261 0.0114,-0.01672 0.0356,-0.03946 0.0513,-0.05771 z m 0.28603,0.557472 c 0.009,0.0018 0.008,0.0018 0.0173,0.0036 l -0.019,0.04814 z m -4.2247107,0.05582 c 0.014,2.59e-4 0.02318,0.0086 0.03892,0.0058 a 0.34800047,0.34800047 0 0 0 -0.162621,0.08656 c 0.03925,-0.03986 0.08022,-0.07839 0.107736,-0.08923 0.0062,-0.0024 0.01131,-0.0032 0.01601,-0.0031 z" /></g><g
     id="g1"
     inkscape:groupmode="layer"
     inkscape:label="1"
     transform="matrix(0.26458332,0,0,0.26458334,145.46666,0)"><g
       inkscape:groupmode="layer"
       id="layer2"
       inkscape:label="main"
       transform="matrix(3.7795277,0,0,3.7795275,-549.79528,0)" /></g></svg>
