<?xml version="1.0" encoding="UTF-8" standalone="no"?>
<!-- Created with Inkscape (http://www.inkscape.org/) -->

<svg
   version="1.1"
   id="svg1"
   width="1254"
   height="1254"
   viewBox="0 0 1254 1254"
   sodipodi:docname="main-logo.svg"
   inkscape:version="1.4.4 (dcaf3e7d9e, 2026-05-05)"
   xml:space="preserve"
   inkscape:export-filename="main-logo.png"
   inkscape:export-xdpi="96"
   inkscape:export-ydpi="96"
   xmlns:inkscape="http://www.inkscape.org/namespaces/inkscape"
   xmlns:sodipodi="http://sodipodi.sourceforge.net/DTD/sodipodi-0.dtd"
   xmlns="http://www.w3.org/2000/svg"
   xmlns:svg="http://www.w3.org/2000/svg"><defs
     id="defs1" /><sodipodi:namedview
     id="namedview1"
     pagecolor="#ffffff"
     bordercolor="#000000"
     borderopacity="0.25"
     inkscape:showpageshadow="2"
     inkscape:pageopacity="0.0"
     inkscape:pagecheckerboard="0"
     inkscape:deskcolor="#d1d1d1"
     inkscape:zoom="0.23724083"
     inkscape:cx="2014.8302"
     inkscape:cy="590.11765"
     inkscape:window-width="3394"
     inkscape:window-height="1404"
     inkscape:window-x="2606"
     inkscape:window-y="0"
     inkscape:window-maximized="1"
     inkscape:current-layer="g1" /><g
     inkscape:groupmode="layer"
     inkscape:label="Image"
     id="g1"><g
       id="g347"
       transform="matrix(0.98433763,0,0,0.98433763,-1526.3802,-21.492294)"><path
         style="fill:#bc9456;fill-opacity:1"
         d="m 2203.5028,907.41608 c -5.5,-0.4913 -14.6726,-1.6241 -20.3835,-2.5175 -5.7109,-0.8933 -10.9984,-1.8602 -11.75,-2.1486 -1.0684,-0.41 -1.3665,-3.6876 -1.3665,-15.0244 0,-13.4003 0.1327,-14.4487 1.75,-13.8242 0.9625,0.3716 8.1984,1.7698 16.0798,3.107 8.2382,1.3978 20.9912,2.6994 30,3.062 9.7208,0.3912 19.8465,0.1821 26.6702,-0.5509 6.05,-0.6498 15.5,-2.0798 21,-3.1776 5.5,-1.0979 15.4,-3.8267 22,-6.064 6.6,-2.2373 16.95,-6.5468 23,-9.5767 6.05,-3.0299 14.15,-7.5403 18,-10.0232 3.85,-2.4829 9.7,-6.5795 13,-9.1035 3.3,-2.5241 10.2143,-8.6495 15.3652,-13.6121 5.1508,-4.9625 12.1788,-12.3978 15.6178,-16.5228 3.439,-4.125 8.7273,-11.325 11.7519,-16 3.0246,-4.675 7.4359,-12.1 9.8029,-16.5 2.367,-4.4 4.4443,-8.18 4.6163,-8.4 0.1719,-0.22 5.8326,1.7396 12.5792,4.3547 6.7467,2.6151 12.8292,5.2127 13.5167,5.7725 0.6875,0.5597 1.2437,1.9751 1.2359,3.1452 -0.01,1.1702 -1.8436,5.5026 -4.0798,9.6276 -2.2361,4.125 -7.3524,12.45 -11.3694,18.5 -4.017,6.05 -10.6559,14.825 -14.7531,19.5 -4.0973,4.675 -11.3933,12.2255 -16.2135,16.7788 -4.8201,4.5534 -12.2277,10.9156 -16.4612,14.1383 -4.2336,3.2228 -11.6263,8.4205 -16.4282,11.5506 -4.802,3.13 -14.6821,8.5433 -21.9558,12.0294 -7.2737,3.4862 -17.7249,7.89 -23.2249,9.7864 -5.5,1.8964 -14.9688,4.6304 -21.0418,6.0755 -6.073,1.445 -15.523,3.308 -21,4.14 -5.477,0.8319 -18.0582,1.7056 -27.9582,1.9416 -9.9,0.236 -22.5,0.027 -28,-0.4641 z m -52.5,-8.4794 c -4.675,-1.296 -13.9,-4.2269 -20.5,-6.5132 -6.6,-2.2863 -18.9194,-7.2498 -27.3764,-11.0301 -8.4569,-3.7802 -15.6154,-7.1122 -15.9076,-7.4044 -0.2922,-0.2922 -0.6437,-22.9229 -0.7812,-50.2903 -0.2108,-41.9653 -0.5119,-51.0121 -1.9221,-57.7591 -0.9835,-4.7054 -3.6879,-12.1916 -6.5668,-18.178 -3.7601,-7.8186 -6.365,-11.6775 -11.2376,-16.6469 -4.493,-4.5824 -8.7198,-7.6641 -14.493,-10.5668 -4.4826,-2.2538 -12.4659,-5.2192 -17.7406,-6.5897 -5.2748,-1.3705 -13.7269,-3.0314 -18.7826,-3.6909 -5.0556,-0.6595 -18.8671,-1.2101 -30.6921,-1.2236 -11.825,-0.013 -24.6959,0.3158 -28.602,0.7317 l -7.1019,0.7561 2.2811,-10.7959 c 1.2545,-5.9378 6.3593,-26.771 11.3438,-46.296 4.9845,-19.525 10.6661,-40.9 12.6259,-47.5 1.9597,-6.6 4.6513,-16.275 5.9812,-21.5 1.3299,-5.225 3.73,-13.325 5.3336,-18 1.6036,-4.675 6.2833,-18.4 10.3993,-30.5 4.1161,-12.1 8.0202,-23.3432 8.676,-24.985 0.6557,-1.6417 1.8171,-4.3417 2.581,-6 0.7638,-1.6582 4.9657,-10.9855 9.3376,-20.7272 4.3718,-9.7417 10.0596,-21.189 12.6395,-25.4385 2.5799,-4.2494 7.5455,-11.3823 11.0348,-15.8508 3.4893,-4.4685 9.6357,-11.2462 13.6587,-15.0615 4.023,-3.8154 9.9602,-8.6876 13.1938,-10.8273 3.2336,-2.1396 10.7855,-6.0866 16.782,-8.771 5.9965,-2.6844 14.2859,-5.9852 18.4209,-7.335 4.135,-1.3498 13.0074,-3.7978 19.7164,-5.4401 6.7091,-1.6423 17.3733,-3.8993 23.6983,-5.0154 6.325,-1.1162 18.6598,-2.7086 27.4106,-3.5388 8.7508,-0.8302 25.654,-1.5094 37.5626,-1.5094 11.9086,0 29.0489,0.696 38.0894,1.5468 9.0406,0.8507 22.5124,2.458 29.9374,3.5717 7.425,1.1137 18.225,3.1348 24,4.4914 5.775,1.3565 11.85,2.649 13.5,2.8722 1.65,0.2232 5.6544,1.3298 8.8986,2.4591 3.2442,1.1293 7.8139,3.517 10.155,5.3061 2.3411,1.789 5.9867,5.6138 8.1014,8.4995 2.1148,2.8858 5.7463,8.9608 8.0701,13.5 2.3237,4.5393 5.6208,12.6394 7.3267,18.0002 1.7059,5.3609 3.8957,10.3109 4.8662,11 0.9705,0.6892 2.286,2.2359 2.9233,3.4373 0.6373,1.2013 1.1587,4.2164 1.1587,6.7003 0,2.9181 -0.5162,4.8049 -1.459,5.3325 -1.2483,0.6986 -1.0517,2.4869 1.3612,12.3816 2.5012,10.257 3.4934,12.5738 8.7724,20.4832 3.2738,4.905 12.0591,18.5931 19.5229,30.4181 7.4638,11.825 13.8851,22.5345 14.2695,23.799 0.4419,1.4537 0.1179,3.1856 -0.8814,4.7107 -0.8986,1.3714 -3.2868,2.8713 -5.5366,3.4771 -2.1759,0.5859 -9.0396,1.4586 -15.2526,1.9394 -6.213,0.4807 -12.1216,1.2066 -13.1303,1.6131 -1.4403,0.5804 -1.5476,0.9205 -0.5,1.5846 0.7337,0.465 3.4714,0.8524 6.0839,0.8608 l 4.75,0.015 v 4.75 c 0,2.9814 0.747,5.9691 2,8.0242 1.0979,1.8008 1.9963,4.3185 1.9963,5.595 0,1.2764 -0.9473,3.1781 -2.105,4.2258 -1.916,1.734 -3.9081,1.9122 -22.1996,1.9856 l -20.0946,0.081 -0.7674,2.8691 c -0.422,1.5781 -0.5957,3.0408 -0.386,3.2505 0.2097,0.2097 1.3087,-0.1151 2.4423,-0.7217 1.1336,-0.6067 6.9227,-1.3812 12.8648,-1.7212 5.942,-0.34 13.8422,-0.2928 17.5559,0.1049 5.5608,0.5955 7.0269,1.1424 8.3092,3.0995 1.0532,1.6073 1.3367,3.3801 0.876,5.4775 -0.4867,2.2158 -1.6626,3.5691 -4.1195,4.7407 -1.8912,0.9018 -3.6655,2.5621 -3.9431,3.6896 -0.2776,1.1275 0.6365,5.3913 2.0312,9.4751 1.3947,4.0838 2.5358,8.8158 2.5358,10.5156 0,1.6997 -0.8488,4.6584 -1.8862,6.5748 -1.6973,3.1355 -2.223,3.4344 -5.25,2.9844 -1.8501,-0.275 -9.6638,-0.4594 -17.3638,-0.4098 -12.6351,0.081 -14.7313,0.3571 -21.5,2.8274 -5.1128,1.866 -9.2507,2.6982 -13,2.6145 -3.025,-0.068 -10.0824,-0.7913 -15.6831,-1.6085 -5.6007,-0.8171 -15.1963,-3.0732 -21.3236,-5.0134 -6.1273,-1.9403 -14.4626,-5.0416 -18.5228,-6.8919 -4.0602,-1.8503 -10.6036,-5.4481 -14.5409,-7.9951 -3.9373,-2.5471 -10.6829,-8.1552 -14.9902,-12.4626 -4.3074,-4.3073 -9.8239,-10.9206 -12.2589,-14.6961 -2.435,-3.7754 -6.003,-10.0145 -7.929,-13.8645 -1.9259,-3.85 -5.1834,-11.5 -7.2387,-17 -2.0554,-5.5 -5.2317,-15.85 -7.0585,-23 -1.8269,-7.15 -0.1935,-19.82014 -1.3793,-27.24514 -1.1858,-7.425 -6.4223,-13.66686 -6.6277,-14.78166 -0.2054,-1.1147 -2.0047,-3.9326 -3.9986,-6.262 -1.9938,-2.3294 -4.598,-4.7453 -5.787,-5.3687 -2.0921,-1.097 -2.1054,-1.0699 -0.4117,0.8408 0.9625,1.0858 1.75,2.5171 1.75,3.1807 0,0.6635 0.7081,2.2871 1.5735,3.608 0.8655,1.3208 1.4392,3.2175 1.275,4.2148 -0.1642,0.9973 0,2.2925 0.3712,2.8784 0.3684,0.5858 1.6233,6.6538 2.7887,13.4845 1.1655,6.8307 3.0188,16.2514 4.1185,20.9349 1.0997,4.6835 2.3751,10.3154 2.8341,12.5154 0.4591,2.2 2.8507,9.4473 5.3148,16.105 2.4641,6.6577 6.6594,16.3243 9.3229,21.4814 2.6636,5.1571 7.4419,12.8258 10.6187,17.0416 3.1767,4.2159 8.322,9.9923 11.4341,12.8366 3.1121,2.8442 7.1616,8.81404 11.4826,9.1265 3.8621,0.27927 7.9083,9.22501 12.7322,11.56761 4.824,2.3426 14.2059,6.18737 20.3934,8.08867 8.0691,2.4794 12.7403,0.17372 12.7403,1.29632 0,0.8608 -2.0121,6.5134 -4.4712,12.5612 -2.4592,6.0478 -5.592,15.6983 -6.9619,21.4456 -1.3698,5.7472 -2.8669,14.1304 -3.3268,18.6293 -0.4599,4.4989 -0.5284,9.0119 -0.1521,10.029 0.3762,1.0172 2.8728,3.0193 5.548,4.4493 2.6752,1.43 10.939,5.2018 18.364,8.3818 7.425,3.18 14.3725,6.5945 15.439,7.5877 1.9097,1.7787 1.8693,1.9464 -2.6701,11.0907 -2.5351,5.1065 -7.2486,12.4272 -10.4746,16.2683 -3.2259,3.841 -9.2244,9.8079 -13.3298,13.2597 -4.5692,3.8417 -11.7312,8.4108 -18.4645,11.7795 -6.071,3.0374 -15.4809,6.7291 -21,8.2388 -9.3772,2.5651 -11.2146,2.7302 -29.5,2.6515 -17.6527,-0.076 -20.4139,-0.3286 -29.1467,-2.6662 -5.3057,-1.4202 -13.4057,-4.0825 -18,-5.9161 l -8.3496,-3.3338 -0.5883,-81.5 c -0.4965,-68.7951 -0.8495,-83.2927 -2.2641,-93 -0.9217,-6.325 -2.1586,-13.975 -2.7486,-17 -0.5899,-3.025 -2.5943,-11.575 -4.454,-19 -1.8598,-7.425 -5.5821,-20.025 -8.2719,-28 -2.6897,-7.975 -6.9257,-19.4537 -9.4134,-25.5083 -2.4876,-6.0545 -8.8962,-20.2295 -14.2414,-31.5 -5.3451,-11.2704 -12.6466,-26.031 -16.2254,-32.8013 -3.5789,-6.7703 -6.6944,-12.1223 -6.9233,-11.8933 -0.229,0.229 0.7137,2.3933 2.095,4.8096 1.3812,2.4163 2.5167,4.7167 2.5233,5.1119 0.01,0.3953 -0.7367,0.4313 -1.6519,0.08 -1.2206,-0.4684 -1.464,-0.2601 -0.9133,0.7814 0.413,0.781 -0.2114,0.2949 -1.3875,-1.0801 -1.4925,-1.7448 -1.0754,-0.3855 1.3809,4.5 1.9356,3.85 4.357,8.575 5.3808,10.5 1.0238,1.925 3.0144,5.75 4.4234,8.5 1.4091,2.75 3.7965,8.15 5.3054,12 1.5089,3.85 3.0934,7.45 3.521,8 0.4276,0.55 3.6816,7.75 7.2312,16 3.5495,8.25 8.2598,19.95 10.4674,26 2.2076,6.05 4.9363,14.375 6.0637,18.5 1.1275,4.125 3.1967,11.55 4.5982,16.5 1.4016,4.95 3.6738,15.75 5.0493,24 1.3754,8.25 2.8845,20.4 3.3533,27 0.4689,6.6 0.7531,65.1 0.6316,130 -0.1215,64.9 -0.2705,122.8375 -0.3311,128.75 -0.081,7.9175 -0.4397,10.7307 -1.3603,10.6768 -0.6875,-0.04 -5.075,-1.1337 -9.75,-2.4297 z m 47.5,-29.0049 c -4.95,-0.7126 -11.475,-1.7859 -14.5,-2.3851 -3.025,-0.5992 -7.6795,-1.5984 -10.3433,-2.2204 l -4.8432,-1.1309 0.3432,-31.7953 c 0.1888,-17.4874 0.639,-32.0907 1.0004,-32.4516 0.3614,-0.361 2.0521,0.065 3.7571,0.9467 1.705,0.8817 8.6569,3.1261 15.4486,4.9875 6.9584,1.9071 17.3221,3.8822 23.7429,4.5248 6.2669,0.6273 15.4443,0.8517 20.3943,0.4989 4.95,-0.3529 13.725,-1.6883 19.5,-2.9675 5.775,-1.2793 13.7725,-3.6699 17.7722,-5.3125 3.9997,-1.6426 10.5702,-4.8735 14.6012,-7.1798 4.0309,-2.3064 10.6584,-6.9785 14.7278,-10.3826 4.0693,-3.4041 10.3802,-9.9006 14.0242,-14.4366 3.7475,-4.665 8.713,-12.5275 11.4316,-18.1012 l 4.8062,-9.8539 5.0684,1.767 c 5.7824,2.0161 50.5688,19.8206 52.4509,21.5594 1.1674,1.0786 0.8929,2.3236 -1.7641,8.0015 -1.7306,3.6983 -4.7922,9.4726 -6.8034,12.8318 -2.0113,3.3592 -7.2874,10.78 -11.7247,16.4907 -4.4373,5.7107 -12.8805,14.9623 -18.7627,20.5592 -5.8823,5.5969 -15.2628,13.2562 -20.8456,17.0206 -5.5828,3.7644 -14.9501,9.2198 -20.8163,12.1232 -5.8661,2.9034 -16.0657,7.0679 -22.6657,9.2545 -6.6,2.1867 -15.6,4.72 -20,5.6297 -4.4,0.9096 -12.5,2.0608 -18,2.5581 -5.5,0.4974 -16.525,0.8717 -24.5,0.8318 -7.975,-0.04 -18.55,-0.6555 -23.5,-1.368 z m -127.9244,-7.52 c -3.7909,-2.2153 -10.5338,-6.5705 -14.9841,-9.6783 -4.4503,-3.1077 -11.2415,-8.1366 -15.0915,-11.1754 -3.85,-3.0387 -12.5587,-10.946 -19.3527,-17.5718 -6.794,-6.6257 -15.6041,-16.0967 -19.578,-21.0467 -3.974,-4.95 -9.7273,-12.6 -12.7853,-17 -3.0579,-4.4 -8.0853,-12.497 -11.1719,-17.9933 -3.4968,-6.2266 -5.6121,-11.1747 -5.6121,-13.1275 0,-1.7239 0.5625,-3.5797 1.25,-4.1241 0.6875,-0.5443 6.2891,-2.0993 12.4479,-3.4554 l 11.1979,-2.4656 1.1826,2.8552 c 0.6505,1.5704 3.5433,6.85 6.4285,11.7326 2.8852,4.8825 8.3704,13.085 12.1894,18.2277 3.819,5.1427 11.8621,14.4874 17.8737,20.766 6.0115,6.2786 14.98,14.6364 19.93,18.5729 4.95,3.9364 12.7125,9.7494 17.25,12.9176 l 8.25,5.7604 -0.01,10.1667 c -0.01,5.5918 -0.2925,12.5293 -0.6393,15.4168 -0.3468,2.8875 -0.9125,5.25 -1.2572,5.25 -0.3446,0 -3.7282,-1.8125 -7.5192,-4.0278 z m -3.9438,-46.1255 c -5.9776,-4.4674 -15.3768,-12.4479 -20.8871,-17.7346 -5.5103,-5.2866 -13.8172,-14.3371 -18.4598,-20.1121 -4.6426,-5.775 -11.0976,-14.775 -14.3445,-20 -3.2468,-5.225 -5.9117,-10.6824 -5.9219,-12.1276 -0.01,-1.4451 0.5589,-3.1067 1.2646,-3.6924 0.7057,-0.5857 12.4649,-3.2207 26.1315,-5.8556 l 24.8483,-4.7907 3.9094,4.4832 c 2.1502,2.4657 5.6888,8.0831 7.8635,12.4831 2.1747,4.4 4.6227,10.7 5.44,14 0.8174,3.3 1.9358,9.15 2.4853,13 0.5496,3.85 1.0082,16.3375 1.0191,27.75 0.015,15.952 -0.2692,20.7464 -1.2302,20.7345 -0.6875,-0.01 -6.1407,-3.6705 -12.1182,-8.1378 z"
         id="path340"
         sodipodi:nodetypes="sssssssssssssssssssscssssssssssssssssssssssssscsssssssssssssssssssssssssssssssssssssssssscssssscssssssssssssssssssssssssssssssssscsssssssssssssssssssssssssccsssssssssscssssssssssssssssssssscsssssssssssscssssssssssssscssssssssscssssssccssccssssssscssssscs" /><path
         style="fill:#132435;stroke:none"
         d="m 2082.9962,417 c 2.1603,8.39661 9.3459,15.7348 13.9468,23 7.7633,12.25873 14.4111,25.1778 21.1644,38 23.5248,44.66553 43.3348,93.61353 49.6041,144 5.112,41.08423 2.2847,83.62762 2.2847,125 v 34 c 0,3.84271 -1.192,10.2262 1.0278,13.58179 5.8048,8.77502 29.4049,11.21551 38.9722,12.54858 41.7753,5.82092 97.4068,-12.8584 111.4884,-57.12964 2.1384,-6.72259 -4.5009,-8.70752 -9.4884,-10.85028 -7.6765,-3.29803 -27.4165,-8.33362 -30.0879,-17.19055 -6.2833,-20.83142 14.0775,-43.27142 15.0879,-62.9599 -47.1256,-9.75305 -76.7294,-42.38599 -91,-87 -6.7593,3.00745 -11.0305,7.52344 -19,6.90588 -14.5898,-1.13055 -31.1408,-26.60394 -36.6867,-38.90588 -6.5578,-14.54669 -4.6624,-36.8584 12.6867,-42.89124 13.1329,-4.56671 29.3995,3.25922 34.9113,15.89124 4.4273,10.14648 4.1079,24.11023 6.5131,35 6.5918,29.8443 18.0602,62.36975 42.5756,82.19519 21.233,17.17096 55.1686,30.25293 83,27.99072 5.4709,-0.4447 10.5754,-3.83789 16,-4.87494 11.6692,-2.23083 23.4592,-1.69183 35,0.68903 6.4187,-11.29156 0.088,-16.71558 -0.2538,-27.99536 -0.1872,-6.16986 8.7822,-7.38892 7.5725,-13.98535 -0.8936,-4.87311 -6.2482,-5.4538 -10.3187,-5.84955 -9.9692,-0.9693 -22.5897,-0.59943 -32,2.83026 4.1805,-15.78082 34.6925,0.69189 43.6822,-8.31787 4.6525,-4.6629 -1.6779,-16.37738 -1.6822,-22.68213 l -12,-1 v -1 c 8.262,-1.88861 31.4458,0.45709 35.7809,-8.10876 2.9897,-5.90748 -4.8042,-14.27308 -7.7276,-18.89124 -10.1521,-16.03711 -23.9884,-32.61475 -31.5216,-50 -2.8314,-6.53418 -1.7604,-19.19415 -8.6651,-22.94525 -32.2115,-17.49933 -79.1772,-13.70697 -113.8666,-7.97449 -11.8616,1.96021 -23.4904,4.74292 -35,8.19983 -4.3682,1.31201 -10.5139,4.64703 -14.7716,1.69525 -5.2706,-3.65405 -2.0946,-9.79675 2.7871,-11.71527 11.3785,-4.47168 24.9906,-6.40173 36.9845,-8.64899 43.0592,-8.06768 81.476,-6.4118 124,2.38892 -4.0574,-17.69812 -12.3359,-40.49567 -28,-51.08411 -16.5759,-11.20483 -41.9599,-16.56504 -61.3655,-19.26139 -48.8824,-6.79205 -104.928,-2.8312 -152.6345,11.25834 -13.48,3.9812 -26.0851,10.71015 -39,16.08716 m -60,64 c 28.3943,-4.53522 60.371,-1.22906 89,0 -1.2427,-6.88586 -8.2856,-23.22943 -15.1042,-26.10651 -9.2119,-3.8869 -24.9643,-0.89349 -34.8958,-0.89349 -6.632,0 -18.8602,-2.33887 -24.6713,1.17902 -6.4787,3.92205 -13.0447,18.6184 -14.3287,25.82098 m 335,25 c -6.2781,-1.21057 -11.2343,-5.53802 -17,-8.13501 -8.6628,-3.90198 -18.492,-6.1637 -28,-6.65588 -20.7773,-1.0755 -38.9244,10.867 -58,16.76538 -7.1875,2.22247 -14.5386,3.07397 -21.9992,3.72461 -2.0337,0.17736 -6.365,0.27771 -6.365,-2.77936 0,-3.03681 4.3401,-2.87354 6.365,-2.9151 8.4634,-0.17371 16.2698,-1.75 23.9992,-5.31409 25.7614,-11.87854 46.6298,-23.61304 76,-16.06091 10.7885,2.77411 24.8511,8.76117 25,21.37036 m -155,59 c -1.219,-9.43994 -4.1197,-18.61639 -5.75,-28 -1.0481,-6.03326 -1.2448,-13.23907 -3.8881,-18.83026 -6.4869,-13.72107 -30.1237,-20.21875 -36.6474,-3.16974 -6.4324,16.8103 5.4995,29.64282 14.676,42 4.7317,6.37183 7.6485,13.76001 16.6095,14.65894 6.1086,0.61273 10.315,-3.4715 15,-6.65894 m 160,-27 -1,1 c -18.083,-3.35724 -36.1514,7.79327 -55,6.96063 -17.4434,-0.77057 -30.5932,-12.77221 -47,-16.44671 -8.773,-1.96485 -17.1694,-1.36646 -25.9992,-0.6883 -2.1497,0.1651 -6.5994,0.25299 -6.6551,-2.9151 -0.066,-3.78039 5.0998,-3.86981 7.6543,-3.62036 9.9916,0.97571 21.3679,0.0424 31,-3.03631 30.6055,-9.78248 61.8815,-25.51642 87.2462,4.74615 3.6791,4.38947 7.6711,8.61493 9.7538,14 m -362,-4 h 136 c -2.1253,-6.28223 -5.7798,-21.24243 -11.4182,-24.97223 -4.8694,-3.22107 -14.904,-0.64337 -20.5818,-1.31329 -22.2231,-2.62213 -45.617,-0.71594 -68,-0.71448 -6.2075,4.3e-4 -21.4189,-1.47272 -26.5008,2.02777 -5.3801,3.70587 -8.5879,18.80164 -9.4992,24.97223 m 311,-20.48615 c -2.9463,0.18531 -7.1177,1.13421 -8.2576,4.08954 -4.1728,10.81884 3.5034,22.12952 13.2576,21.28785 8.8568,-0.76423 14.257,-12.9823 9.142,-21.03321 -2.2804,-3.5893 -10.1564,-4.59479 -14.142,-4.34418 m -41,10.48615 c 5.3849,9.48859 24.046,12.94543 34,15 -4.331,-8.50415 -8.4322,-12.78363 -6,-23 l -28,8 m 61,-7 c 0.3823,9.51636 -2.2634,13.56207 -6,22 l 26,-6 c -3.65,-7.82703 -11.8105,-13.63629 -20,-16 m -350,73 c 16.4766,4.87036 37.9254,0 55,0 39.3754,0 78.6789,1 118,1 -0.5006,-6.12836 -3.1675,-25.57343 -9.2777,-28.39661 C 2137.2558,558.69324 2120.3146,562 2110.9962,562 h -83 c -8.4608,0 -29.5368,-3.85468 -36.49,1.02777 -5.8381,4.09943 -7.6332,20.35889 -9.51,26.97223 m -9,31 -7,27 h 197 l -2,-27 h -188 m 379,36.42822 c -3.9863,0.57111 -14.078,1.10712 -14.2916,6.6767 -0.3291,8.57873 10.1774,21.44336 14.0332,28.89508 13.104,25.32544 22.8369,56.79163 54.2584,61.27087 4.4309,0.6316 10.3854,1.76441 14.7709,0.41126 4.1883,-1.29242 2.4308,-5.90344 0,-8.0448 -8.4854,-7.47479 -19.7731,-8.85266 -24.6382,-20.63733 -6.2932,-15.24402 -8.7642,-33.02014 -12.7592,-49 -1.1784,-4.71387 -1.7751,-14.92639 -5.8866,-17.98688 -5.4903,-4.08685 -19.1195,-2.49713 -25.4869,-1.5849 m -400,47.57178 c 7.9987,2.36438 17.6877,1 26,1 18.6987,0 37.2755,-1 56,-1 19.0151,0 38.0613,0.9079 57,0.99921 15.9992,0.0771 32.0007,7.9e-4 48,7.9e-4 6.6058,0 15.5043,1.56665 21.8519,-0.31787 4.7669,-1.41522 5.2245,-23.73999 1.5448,-26.65436 -2.94,-2.32849 -9.8655,-1.02777 -13.3967,-1.02777 h -35 -109 -31 c -3.9508,0 -10.054,-1.13147 -13.6968,0.60339 -5.684,2.70703 -6.8199,20.66602 -8.3032,26.39661 m 115,29 c 3.999,6.05151 10.4183,21.34216 16.2747,24.97223 4.2833,2.65497 12.8482,1.02777 17.7253,1.02777 h 43 c 4.5132,0 14.7062,1.89508 18.3967,-1.02777 4.2686,-3.3808 1.6033,-19.82892 1.6033,-24.97223 h -97 m 14,95 c -2.6992,-21.56547 -3.3333,-69.10898 -21.0393,-91.35724 -4.0944,-5.14478 -17.6258,2.29028 -23.9607,3.55707 -6.0063,1.20105 -23.5219,1.6828 -26.9676,7.1142 -4.0642,6.40643 7.9351,19.72674 11.3117,24.68597 13.4973,19.82336 36.9319,48.44012 60.6559,56 m 257,-79 -9,21 c 15.6907,7.42273 29.9986,24.10052 47,28 3.2734,-7.00281 13.9907,-18.7688 12.5772,-26.86731 -0.7509,-4.30206 -8.1395,-5.79675 -11.5772,-7.08252 -12.6071,-4.71558 -25.7553,-12.69647 -39,-15.05017 m -32,45 c 6.5398,15.44568 23.4362,29.0174 34,42 l 22.1304,-21 5.7022,-8.90973 -8.8326,-8.42053 -24,-16.24536 -9.9853,-4.54322 L 2305.9962,795 m -142,17 c 0,-5.0022 2.5672,-20.66907 -1.6033,-23.97223 C 2159.146,785.45618 2150.9254,787 2146.9962,787 h -42 c -4.1252,0 -13,-1.66235 -16.3966,1.02777 -3.2441,2.5694 -3.1312,21.4765 0.7145,23.36884 5.1204,2.51959 15.0393,0.60339 20.6821,0.60339 h 21 33 m 111,2 20,49 29,-14.05322 8.1181,-8.04016 -8.1149,-11.90662 -22.0032,-28 -27,13 m -105,-2 v 57 l 13,2 10,-52 -23,-7 m 69,11 5,52 c 14.5037,-0.002 30.6946,-3.10938 44,-9 l -19,-49 -30,6 m -3,53 c -0.035,-12.85638 -1.7583,-26.22961 -3.2855,-39 -0.3861,-3.2287 0.4145,-10.80823 -2.3178,-12.97223 -2.8243,-2.23688 -9.0226,-0.95978 -12.3967,-1.04242 -4.1914,-0.10266 -12.7675,-3.21155 -16.4359,-0.86804 -5.5871,3.56934 -6.0166,23.65558 -7.1397,29.88269 -0.807,4.47437 -5.1681,16.47736 -2.3572,20.3974 2.0022,2.7923 8.8766,2.39325 11.9328,2.67743 10.6807,0.9931 21.2624,0.92517 32,0.92517 m -72,-11 v -25 h -51 c -6.8977,0 -16.2261,-1.64917 -22.8518,0.31787 -4.713,1.39929 -4.8506,19.63159 -2.1204,23.07874 2.8902,3.64917 14.7377,1.60339 18.9722,1.60339 h 57 m 129,-2 1,1 -1,-1 m -122,43 1,1 -1,-1"
         id="path1"
         sodipodi:nodetypes="cssssssssssccsssssssscssscscccssssssssscssscccsssccssssssssccssssscccssssssscccssssccsssccccccccccscsssscccccccssssssssccsssssssccssccsssscccssssccccssccccccccccssssssccccccccccccccccccccssssssscccssssccccccc" /><path
         style="fill:#bc9558;fill-opacity:1"
         d="m 2171.2016,384.59435 c 44.9989,-6.49179 -32.2523,4.65291 0,0 z m -58.15,-7.44432 c 2.1157,-2.11573 13.2849,-5.31889 30.6078,-8.77786 6.5767,-1.31322 12.3936,-2.8236 12.9264,-3.3564 0.625,-0.62495 -1.7948,-2.22811 -6.819,-4.5177 -10.0437,-4.57708 -26.1066,-15.53521 -37.4041,-25.51718 -25.1757,-22.24411 -44.7748,-57.55539 -50.7753,-91.48089 -2.6408,-14.93015 -2.4324,-39.58607 0.4585,-54.2554 13.3605,-67.79433 65.2881,-117.802541 133.6557,-128.715409 34.9709,-5.582062 67.1086,-0.701631 99,15.034099 16.4871,8.134992 29.2564,17.25208 41.9705,29.96618 17.5754,17.57535 31.1919,39.9914 38.8585,63.97053 5.9375,18.57087 7.1282,26.61652 7.1035,48 -0.025,21.77356 -1.2575,29.81765 -7.4629,48.71517 -12.7579,38.8522 -41.4822,72.78141 -78.2196,92.39332 -4.8125,2.5691 -8.75,5.02629 -8.75,5.46041 0,0.70041 5.5889,2.05822 14.5,3.52276 1.65,0.27118 8.4,1.64132 15,3.04476 9.5246,2.02535 12.4641,3.05951 14.25,5.01341 2.4801,2.71339 2.8491,5.94118 1.1146,9.74811 -12.1087,8.03006 -41.183,-3.97695 -55.8646,-6.00321 -8.1914,-1.07495 -23.1853,-1.80569 -43.5,-2.11999 -100.9014,-1.56113 -148.3483,27.57284 -120.65,-0.12471 z m 148.6391,-33.77767 c 44.9498,-14.77107 77.9719,-51.63363 88.1235,-98.37236 2.6162,-12.04534 2.6247,-38.33549 0.016,-49.5 -11.9015,-50.93358 -49.4028,-88.25671 -99.6289,-99.15554 -12.7041,-2.75673 -43.9754,-2.54627 -56.5709,0.38073 -53.5985,12.45551 -91.8682,51.97739 -101.0088,104.31391 -2.3645,13.5384 -1.5033,35.91757 1.8855,48.99772 12.8789,49.7096 51.6077,86.58961 102.1942,97.31586 7.7283,1.63871 32.8251,6.58939 64.9894,-3.98032 z"
         id="path17"
         sodipodi:nodetypes="sssssssssssssssssssssssssssssssss" /><path
         style="fill:none;stroke:#000000;stroke-width:26;stroke-linecap:square;stroke-dasharray:none;paint-order:stroke markers fill"
         d="M 2187.6439,417 Z"
         id="path7" /><path
         style="font-size:274.56px;font-family:esint10;-inkscape-font-specification:esint10;letter-spacing:0px;fill:#132435;stroke-width:33.1604;stroke-linecap:round;stroke-linejoin:round;paint-order:stroke markers fill"
         d="m 2215.6631,171.87316 c -12.1163,0 -21.4427,4.38417 -27.979,13.15253 -6.8554,9.16693 -10.283,21.32307 -10.283,36.46842 0,16.02219 3.3878,28.65661 10.1634,37.90324 6.8553,9.16692 16.2214,13.75038 28.0986,13.75038 11.7177,0 21.0042,-4.62332 27.8594,-13.86995 6.8553,-9.24664 10.2829,-21.8412 10.2829,-37.78367 0,-14.58736 -3.4276,-26.7435 -10.2829,-36.46842 -6.2973,-8.76836 -15.5838,-13.15253 -27.8594,-13.15253 z m 0,-17.45702 h 73.0564 c 8.0788,14.9717 3.7552,18.21746 0,22.00062 h -24.6312 c 8.6887,12.43513 13.033,27.46092 13.033,45.07735 0,21.92091 -5.4603,39.09892 -16.3809,51.53406 -10.9206,12.51484 -25.9463,18.77226 -45.0773,18.77226 -19.2107,0 -34.2365,-6.25742 -45.0774,-18.77226 -10.9205,-12.43514 -16.3808,-29.61315 -16.3808,-51.53406 0,-22.08033 5.4603,-39.2982 16.3808,-51.65363 9.0075,-10.28289 24.0333,-15.42434 45.0774,-15.42434 z"
         id="text9"
         aria-label="σ"
         sodipodi:nodetypes="scscssscsscccscscscs" /><g
         id="g346"
         transform="translate(1.3981021e-4,-72)"><text
           xml:space="preserve"
           style="font-style:normal;font-variant:normal;font-weight:normal;font-stretch:normal;font-size:192px;font-family:esint10;-inkscape-font-specification:esint10;letter-spacing:0px;writing-mode:lr-tb;direction:ltr;fill:#bc9457;fill-opacity:1;stroke:none;stroke-width:26;stroke-linecap:round;stroke-linejoin:round;stroke-dasharray:none;paint-order:stroke markers fill"
           x="2187.6438"
           y="1331.3187"
           id="text10"><tspan
             sodipodi:role="line"
             id="tspan10"
             x="2187.6438"
             y="1331.3187">FiTuPe</tspan></text><path
           style="font-stretch:condensed;font-size:296.107px;font-family:'Asap Condensed';-inkscape-font-specification:'Asap Condensed,  Condensed';letter-spacing:0px;fill:#bf985a;fill-opacity:1;stroke-width:40.0978;stroke-linecap:round;stroke-linejoin:round;paint-order:stroke markers fill"
           d="m 2480.6415,1216.8227 q -29.6107,0 -44.7122,-19.247 -15.1015,-19.2469 -15.1015,-58.9253 0,-39.3822 14.8054,-59.8136 14.8053,-20.4314 43.5277,-20.4314 25.7613,0 38.79,19.8392 13.0287,19.8392 13.0287,57.7409 0,11.8442 -10.3637,11.8442 h -73.7306 q 0.8883,24.5769 9.1793,36.1251 8.291,11.5482 26.3535,11.5482 10.3637,0 18.3586,-2.9611 7.9949,-2.9611 13.0287,-5.626 5.33,-2.9611 6.8105,-2.9611 2.9611,0 4.7377,5.3299 2.0728,5.0338 2.0728,8.5871 0,2.665 -6.2183,7.4027 -6.2182,4.4416 -16.8781,7.9949 -10.3637,3.5533 -23.6885,3.5533 z m -33.4601,-90.3127 h 58.6291 q 0,-46.7849 -27.5379,-46.7849 -30.2029,0 -31.0912,46.7849 z"
           id="path346" /><path
           style="font-stretch:condensed;font-size:296.107px;font-family:'Asap Condensed';-inkscape-font-specification:'Asap Condensed,  Condensed';letter-spacing:0px;fill:#132435;stroke-width:40.0978;stroke-linecap:round;stroke-linejoin:round;paint-order:stroke markers fill"
           d="m 2302.089,1215.6382 q -6.5143,0 -9.4754,-1.7766 -2.6649,-1.7766 -2.6649,-4.7377 v -192.4696 q 0,-8.8832 9.1793,-8.8832 h 43.5277 q 55.372,0 55.372,59.5175 0,59.5175 -55.372,59.5175 h -26.0574 v 82.3178 q 0,2.9611 -2.665,4.7377 -2.6649,1.7766 -9.4754,1.7766 z m 14.5093,-111.3362 h 26.0574 q 15.1015,0 21.6158,-8.5871 6.8105,-8.8832 6.8105,-28.4263 0,-19.543 -6.8105,-28.1301 -6.5143,-8.8832 -21.6158,-8.8832 h -26.0574 z"
           id="path345" /><path
           style="font-stretch:condensed;font-size:296.107px;font-family:'Asap Condensed';-inkscape-font-specification:'Asap Condensed,  Condensed';letter-spacing:0px;fill:#bf985a;fill-opacity:1;stroke-width:40.0978;stroke-linecap:round;stroke-linejoin:round;paint-order:stroke markers fill"
           d="m 2182.4619,1217.1188 q -18.3587,0 -29.0185,-10.6599 -10.3638,-10.6598 -10.3638,-29.3146 v -110.744 q 0,-6.5143 11.2521,-6.5143 h 2.9611 q 11.252,0 11.252,6.5143 v 106.8946 q 0,10.956 4.4416,16.582 4.7378,5.6261 15.3976,5.6261 10.3638,0 18.0625,-5.6261 7.6988,-5.9221 12.4365,-15.1014 v -108.3752 q 0,-6.5143 11.2521,-6.5143 h 2.9611 q 11.252,0 11.252,6.5143 v 104.5258 q 0,18.0625 1.4806,26.6496 1.4805,8.291 1.4805,10.3638 0,3.5532 -6.2182,5.3299 -6.2183,1.7766 -10.956,1.7766 -3.8494,0 -5.626,-4.4416 -1.4806,-4.4416 -3.8494,-15.6937 -6.8105,10.3638 -16.8781,16.2859 -10.0677,5.9222 -21.3197,5.9222 z"
           id="path344" /><path
           style="font-stretch:condensed;font-size:296.107px;font-family:'Asap Condensed';-inkscape-font-specification:'Asap Condensed,  Condensed';letter-spacing:0px;fill:#132435;stroke-width:40.0978;stroke-linecap:round;stroke-linejoin:round;paint-order:stroke markers fill"
           d="m 2070.5335,1215.6382 q -11.2521,0 -11.2521,-6.5143 v -178.8486 h -42.6394 q -5.6261,0 -5.6261,-8.8833 v -4.7377 q 0,-8.8832 5.6261,-8.8832 h 111.3362 q 5.9221,0 5.9221,8.8832 v 4.7377 q 0,8.8833 -5.9221,8.8833 h -42.0472 v 178.8486 q 0,6.5143 -11.2521,6.5143 z"
           id="path343" /><path
           style="font-stretch:condensed;font-size:296.107px;font-family:'Asap Condensed';-inkscape-font-specification:'Asap Condensed,  Condensed';letter-spacing:0px;fill:#bf985a;fill-opacity:1;stroke-width:40.0978;stroke-linecap:round;stroke-linejoin:round;paint-order:stroke markers fill"
           d="m 1973.4105,1038.8624 q -7.1066,0 -10.0676,-1.7767 -2.9611,-1.7766 -2.9611,-4.7377 v -17.7664 q 0,-2.9611 2.9611,-4.7377 2.961,-1.7767 10.0676,-1.7767 7.1066,0 10.0676,1.7767 2.9611,1.4805 2.9611,4.7377 v 17.7664 q 0,2.9611 -2.9611,4.7377 -2.961,1.7767 -10.0676,1.7767 z"
           id="path342" /><path
           style="font-stretch:condensed;font-size:296.107px;font-family:'Asap Condensed';-inkscape-font-specification:'Asap Condensed,  Condensed';letter-spacing:0px;fill:#bf985a;fill-opacity:1;stroke-width:40.0978;stroke-linecap:round;stroke-linejoin:round;paint-order:stroke markers fill"
           d="m 1972.2261,1215.6382 q -6.5144,0 -9.1794,-1.7766 -2.3688,-1.7766 -2.3688,-4.7377 v -143.0197 q 0,-3.2572 2.3688,-4.7377 2.665,-1.7767 9.1794,-1.7767 h 2.3688 q 6.5144,0 8.8832,1.7767 2.665,1.4805 2.665,4.7377 v 143.0197 q 0,2.9611 -2.665,4.7377 -2.3688,1.7766 -8.8832,1.7766 z"
           id="path341" /><path
           style="font-stretch:condensed;font-size:296.107px;font-family:'Asap Condensed';-inkscape-font-specification:'Asap Condensed,  Condensed';letter-spacing:0px;fill:#132435;stroke-width:40.0978;stroke-linecap:round;stroke-linejoin:round;paint-order:stroke markers fill"
           d="m 1856.4483,1215.6382 q -6.5144,0 -9.4755,-1.7766 -2.6649,-1.7766 -2.6649,-4.7377 v -192.4696 q 0,-8.8832 9.1793,-8.8832 h 77.2839 q 5.626,0 5.626,8.8832 v 4.7377 q 0,8.8833 -5.626,8.8833 h -59.8136 v 73.4345 h 55.0759 q 5.9221,0 5.9221,8.8832 v 4.7377 q 0,8.8832 -5.9221,8.8832 h -55.0759 v 82.91 q 0,2.9611 -2.665,4.7377 -2.6649,1.7766 -9.4754,1.7766 z"
           id="text11" /><path
           style="font-size:274.56px;font-family:esint10;-inkscape-font-specification:esint10;letter-spacing:0px;fill:#bc9457;fill-opacity:1;stroke-width:13.8297;stroke-linecap:round;stroke-linejoin:round;paint-order:stroke markers fill"
           d="m 2184.2709,1257.2647 c -5.0532,0 -8.9428,1.8285 -11.6688,5.4854 -2.8591,3.8231 -4.2886,8.8929 -4.2886,15.2093 0,6.6822 1.4129,11.9515 4.2387,15.8078 2.859,3.8231 6.7652,5.7347 11.7187,5.7347 4.8869,0 8.7599,-1.9282 11.6189,-5.7846 2.859,-3.8563 4.2885,-9.109 4.2885,-15.7579 0,-6.0837 -1.4295,-11.1535 -4.2885,-15.2093 -2.6263,-3.6569 -6.4993,-5.4854 -11.6189,-5.4854 z m 0,-7.2805 h 30.4686 c 3.3693,6.244 1.5661,7.5977 0,9.1755 h -10.2726 c 3.6237,5.1861 5.4355,11.4527 5.4355,18.7997 0,9.1423 -2.2773,16.3065 -6.8318,21.4926 -4.5545,5.2194 -10.821,7.8291 -18.7997,7.8291 -8.012,0 -14.2785,-2.6097 -18.7998,-7.8291 -4.5545,-5.1861 -6.8317,-12.3503 -6.8317,-21.4926 0,-9.2087 2.2772,-16.3895 6.8317,-21.5424 3.7566,-4.2886 10.0232,-6.4328 18.7998,-6.4328 z"
           id="path18"
           aria-label="σ"
           sodipodi:nodetypes="scscssscsscccscscscs" /><g
           id="path19"
           style="opacity:1;fill:#bc9457;fill-opacity:1"
           transform="translate(0,88.431932)"><path
             style="baseline-shift:baseline;display:inline;overflow:visible;vector-effect:none;fill:#bc9457;fill-opacity:1;stroke-linecap:round;stroke-linejoin:round;paint-order:stroke markers fill;enable-background:accumulate;stop-color:#000000;stop-opacity:1"
             d="m 1896.3711,1186.5273 a 3,3 0 0 0 -3,3 3,3 0 0 0 3,3 h 218.5371 a 3,3 0 0 0 3,-3 3,3 0 0 0 -3,-3 z"
             id="path24" /><path
             style="baseline-shift:baseline;display:inline;overflow:visible;vector-effect:none;fill:#bc9457;fill-opacity:1;stroke-linecap:round;stroke-linejoin:round;paint-order:stroke markers fill;enable-background:accumulate;stop-color:#000000;stop-opacity:1"
             d="M 2114.9075,1189.5275 H 1896.3712"
             id="path25" /></g><g
           id="path21"
           style="opacity:1;fill:#bc9457;fill-opacity:1"
           transform="translate(0,88.431932)"><path
             style="baseline-shift:baseline;display:inline;overflow:visible;vector-effect:none;fill:#bc9457;fill-opacity:1;stroke-linecap:round;stroke-linejoin:round;paint-order:stroke markers fill;enable-background:accumulate;stop-color:#000000;stop-opacity:1"
             d="m 2253.6348,1186.5273 a 3,3 0 0 0 -3,3 3,3 0 0 0 3,3 h 218.5351 a 3,3 0 0 0 3,-3 3,3 0 0 0 -3,-3 z"
             id="path22" /><path
             style="baseline-shift:baseline;display:inline;overflow:visible;vector-effect:none;fill:#bc9457;fill-opacity:1;stroke-linecap:round;stroke-linejoin:round;paint-order:stroke markers fill;enable-background:accumulate;stop-color:#000000;stop-opacity:1"
             d="m 2253.6343,1189.5275 h 218.5363"
             id="path23" /></g></g></g></g></svg>
