<?xml version="1.0" encoding="UTF-8" standalone="no"?>
<!-- Created with Inkscape (http://www.inkscape.org/) -->

<svg
   version="1.1"
   id="svg1"
   width="1254"
   height="1254"
   viewBox="0 0 1254 1254"
   sodipodi:docname="main-logo.svg"
   inkscape:version="1.4.4 (dcaf3e7d9e, 2026-05-05)"
   xml:space="preserve"
   inkscape:export-filename="main-logo.png"
   inkscape:export-xdpi="96"
   inkscape:export-ydpi="96"
   xmlns:inkscape="http://www.inkscape.org/namespaces/inkscape"
   xmlns:sodipodi="http://sodipodi.sourceforge.net/DTD/sodipodi-0.dtd"
   xmlns="http://www.w3.org/2000/svg"
   xmlns:svg="http://www.w3.org/2000/svg"><defs
     id="defs1" /><sodipodi:namedview
     id="namedview1"
     pagecolor="#ffffff"
     bordercolor="#000000"
     borderopacity="0.25"
     inkscape:showpageshadow="2"
     inkscape:pageopacity="0.0"
     inkscape:pagecheckerboard="0"
     inkscape:deskcolor="#d1d1d1"
     inkscape:zoom="0.94896332"
     inkscape:cx="935.75798"
     inkscape:cy="706.03361"
     inkscape:window-width="3394"
     inkscape:window-height="1404"
     inkscape:window-x="2606"
     inkscape:window-y="0"
     inkscape:window-maximized="1"
     inkscape:current-layer="g1" /><g
     inkscape:groupmode="layer"
     inkscape:label="Image"
     id="g1"><path
       style="fill:#70cef0;fill-opacity:1;stroke-width:0.984338"
       d="m 642.61052,871.7115 c -5.41385,-0.48361 -14.44279,-1.59866 -20.06424,-2.47807 -5.62146,-0.87931 -10.82614,-1.83107 -11.56597,-2.11495 -1.05167,-0.40358 -1.3451,-3.62984 -1.3451,-14.78908 0,-13.19042 0.13062,-14.2224 1.72259,-13.60768 0.94743,0.36578 8.07,1.74208 15.82796,3.05834 8.10917,1.3759 20.66242,2.65712 29.53013,3.01404 9.56854,0.38507 19.53565,0.17925 26.25248,-0.54227 5.95524,-0.63963 15.25723,-2.04723 20.67109,-3.12783 5.41385,-1.08071 15.1588,-3.76677 21.65542,-5.96903 6.49663,-2.20226 16.68453,-6.44426 22.63977,-9.4267 5.95524,-2.98245 13.92838,-7.42221 17.71808,-9.86622 3.7897,-2.44401 9.54807,-6.47645 12.79639,-8.96091 3.24831,-2.48457 10.05432,-8.51403 15.12454,-13.39891 5.07013,-4.88477 11.98805,-12.20362 15.37319,-16.26401 3.38514,-4.06039 8.59061,-11.14762 11.56784,-15.7494 2.97722,-4.60178 7.31943,-11.91049 9.64936,-16.24157 2.32993,-4.33109 4.37469,-8.05189 4.544,-8.26844 0.16921,-0.21655 5.74125,1.71235 12.38218,4.2865 6.64103,2.57414 12.62826,5.13105 13.30499,5.68208 0.67674,0.55094 1.22423,1.94417 1.21655,3.09594 -0.01,1.15187 -1.81473,5.41642 -4.0159,9.47681 -2.20108,4.06039 -7.23725,12.25501 -11.19133,18.21025 -3.95409,5.95524 -10.489,14.5928 -14.52203,19.19458 -4.03313,4.60178 -11.21486,12.03402 -15.95956,16.51601 -4.74461,4.48208 -12.03619,10.74463 -16.20338,13.91686 -4.16729,3.17232 -11.4442,8.28861 -16.1709,11.36969 -4.72678,3.08097 -14.45214,8.40949 -21.61192,11.84099 -7.15977,3.4316 -17.44728,7.76642 -22.86114,9.63312 -5.41386,1.8667 -14.73435,4.55788 -20.71223,5.98034 -5.97789,1.42237 -15.27988,3.25619 -20.67109,4.07516 -5.39122,0.81887 -17.77537,1.67889 -27.52031,1.91119 -9.74495,0.2323 -22.1476,0.0266 -27.56146,-0.45683 z m -51.67772,-8.34659 c -4.60178,-1.2757 -13.68229,-4.1607 -20.17892,-6.41119 -6.49663,-2.25049 -18.62308,-7.13625 -26.94762,-10.85734 -8.32445,-3.721 -15.37083,-7.00081 -15.65845,-7.28843 -0.28763,-0.28763 -0.63362,-22.56388 -0.76897,-49.50264 -0.2075,-41.30802 -0.50388,-50.21313 -1.89199,-56.85445 -0.9681,-4.63171 -3.63014,-12.00065 -6.46395,-17.89329 -3.70121,-7.69614 -6.26531,-11.49461 -11.06159,-16.38617 -4.42263,-4.51063 -8.58323,-7.54406 -14.26601,-10.4013 -4.41239,-2.2185 -12.27065,-5.13746 -17.46274,-6.48649 -5.19218,-1.34904 -13.5119,-2.98392 -18.48842,-3.63309 -4.97642,-0.64917 -18.5716,-1.19115 -30.21139,-1.20444 -11.63979,-0.0128 -24.3091,0.31086 -28.15402,0.72024 l -6.99067,0.74426 2.24537,-10.62681 c 1.23485,-5.8448 6.2597,-26.3517 11.16613,-45.5709 4.90643,-19.21919 10.49904,-40.25941 12.42815,-46.75603 1.92901,-6.49663 4.57845,-16.0201 5.88752,-21.16326 1.30907,-5.14317 3.67158,-13.1163 5.25006,-17.71808 1.57849,-4.60178 6.18489,-18.11181 10.23643,-30.0223 4.05163,-11.91048 7.89458,-22.97759 8.54011,-24.59367 0.64543,-1.61599 1.78864,-4.2737 2.54057,-5.90603 0.75184,-1.63223 4.88793,-10.81344 9.19136,-20.40256 4.30332,-9.58912 9.90204,-20.85713 12.44153,-25.04008 2.53949,-4.18284 7.42732,-11.20402 10.86197,-15.60253 3.43465,-4.39852 9.48478,-11.07006 13.44477,-14.82561 3.95999,-3.75564 9.8042,-8.55153 12.98716,-10.65771 3.18295,-2.10609 10.61657,-5.99127 16.51915,-8.63363 5.90258,-2.64236 14.06215,-5.89146 18.13238,-7.22012 4.07024,-1.32865 12.80368,-3.73831 19.4076,-5.35489 6.60402,-1.61658 17.10119,-3.83823 23.32713,-4.93685 6.22593,-1.09872 18.36754,-2.66617 26.98128,-3.48337 8.61374,-0.8172 25.2522,-1.48576 36.97428,-1.48576 11.72209,0 28.59393,0.6851 37.49283,1.52257 8.89901,0.83738 22.15981,2.4195 29.46851,3.51576 7.30871,1.09626 17.93956,3.0857 23.62411,4.42105 5.68455,1.33526 11.6644,2.60752 13.28855,2.82722 1.62416,0.2197 5.56584,1.30897 8.75923,2.42058 3.19339,1.11162 7.69152,3.46192 9.99595,5.223 2.30443,1.76098 5.89293,5.52587 7.97451,8.36638 2.08168,2.8406 5.6563,8.82045 7.94371,13.28855 2.2873,4.46821 5.53276,12.44144 7.21194,17.71828 1.67918,5.27693 3.83469,10.1494 4.78999,10.82771 0.9553,0.67841 2.25019,2.20088 2.87751,3.38347 0.62732,1.18248 1.14055,4.15036 1.14055,6.59535 0,2.8724 -0.50811,4.72965 -1.43615,5.24898 -1.22875,0.68766 -1.03522,2.44795 1.33988,12.18768 2.46203,10.09635 3.43869,12.37686 8.63501,20.16238 3.22252,4.82818 11.87022,18.30189 19.21712,29.94168 7.3469,11.6398 13.66763,22.18156 14.04601,23.42625 0.43498,1.43094 0.11605,3.13571 -0.8676,4.63692 -0.88452,1.34992 -3.23532,2.82633 -5.44988,3.42264 -2.14182,0.57673 -8.89802,1.43576 -15.01371,1.90903 -6.11569,0.47317 -11.93175,1.1877 -12.92465,1.58783 -1.41774,0.57131 -1.52336,0.90609 -0.49217,1.55978 0.72221,0.45772 3.41703,0.83905 5.98862,0.84732 l 4.6756,0.0148 v 4.6756 c 0,2.93471 0.7353,5.87561 1.96867,7.89852 1.08071,1.7726 1.96504,4.25087 1.96504,5.50737 0,1.25641 -0.93247,3.12833 -2.07203,4.15962 -1.88599,1.70684 -3.84689,1.88225 -21.8519,1.9545 l -19.77988,0.0797 -0.75538,2.82416 c -0.41539,1.55339 -0.58637,2.99318 -0.37995,3.19959 0.20641,0.20642 1.2882,-0.1133 2.40405,-0.7104 1.11584,-0.59719 6.81427,-1.35956 12.6633,-1.69424 5.84894,-0.33467 13.6254,-0.28821 17.28094,0.10326 5.4737,0.58617 6.91684,1.12451 8.17905,3.05095 1.03671,1.58213 1.31577,3.32716 0.86228,5.39171 -0.47907,2.1811 -1.63656,3.5132 -4.05497,4.66645 -1.86158,0.88768 -3.60809,2.52197 -3.88135,3.63182 -0.27325,1.10984 0.62653,5.30685 1.99939,9.32669 1.37286,4.01984 2.49608,8.67773 2.49608,10.3509 0,1.67308 -0.8355,4.58544 -1.85665,6.47183 -1.67072,3.08639 -2.18819,3.38061 -5.16778,2.93765 -1.82112,-0.27069 -9.51244,-0.4522 -17.09184,-0.40338 -12.4372,0.0797 -14.50057,0.35151 -21.16326,2.78312 -5.03272,1.83677 -9.10581,2.65594 -12.79639,2.57355 -2.97762,-0.0669 -9.92448,-0.77891 -15.43746,-1.58331 -5.51298,-0.8043 -14.95829,-3.02506 -20.98962,-4.93488 -6.03134,-1.90991 -14.23608,-4.96263 -18.23269,-6.78395 -3.99661,-1.82132 -10.43753,-5.36277 -14.31316,-7.86988 -3.87563,-2.50721 -10.51558,-8.02747 -14.75542,-12.26741 -4.23993,-4.23983 -9.67003,-10.74955 -12.06689,-14.46592 -2.39686,-3.71627 -5.90898,-9.85765 -7.80482,-13.64735 -1.89573,-3.7897 -5.10221,-11.31988 -7.12532,-16.73374 -2.02321,-5.41386 -5.14976,-15.60175 -6.94795,-22.63977 -1.79828,-7.03801 -0.19047,-19.5097 -1.35769,-26.81841 -1.16723,-7.30871 -6.32172,-13.45281 -6.5239,-14.55015 -0.20218,-1.09724 -1.9733,-3.871 -3.93597,-6.16392 -1.96257,-2.29291 -4.52599,-4.67098 -5.69636,-5.28461 -2.05934,-1.07982 -2.07243,-1.05314 -0.40525,0.82763 0.94742,1.06879 1.72259,2.47768 1.72259,3.13088 0,0.65311 0.69701,2.25128 1.54885,3.55149 0.85195,1.30012 1.41666,3.16711 1.25503,4.14879 -0.16163,0.98168 0,2.25659 0.36539,2.83332 0.36263,0.57662 1.59787,6.54958 2.74502,13.2733 1.14725,6.72371 2.97152,15.99686 4.05399,20.60701 1.08248,4.61014 2.33791,10.15383 2.78972,12.31938 0.45191,2.16554 2.80605,9.29933 5.23155,15.85275 2.42551,6.55343 6.5551,16.06863 9.17689,21.14495 2.62188,5.07633 7.32534,12.62492 10.45238,16.77469 3.12695,4.14987 8.19166,9.8358 11.25502,12.63555 3.06335,2.79965 7.04943,8.67599 11.30275,8.98356 3.80161,0.27489 7.78444,9.08052 12.53278,11.38643 4.74845,2.30591 13.98341,6.09046 20.074,7.96198 7.94271,2.44057 12.54075,0.171 12.54075,1.27602 0,0.84732 -1.98058,6.41139 -4.40117,12.36446 -2.42068,5.95308 -5.50441,15.45243 -6.85286,21.10971 -1.34834,5.65719 -2.822,13.90909 -3.27469,18.33752 -0.4527,4.42844 -0.52013,8.87076 -0.14972,9.87193 0.37031,1.00126 2.8278,2.97201 5.46111,4.37961 2.6333,1.4076 10.76766,5.12033 18.07637,8.25052 7.30871,3.13019 14.14739,6.49122 15.19719,7.46886 1.87979,1.75084 1.84002,1.91591 -2.62828,10.91699 -2.49539,5.02652 -7.13507,12.23256 -10.31054,16.0135 -3.17538,3.78084 -9.07993,9.65429 -13.12103,13.05202 -4.49763,3.78153 -11.54746,8.27907 -18.1753,11.59501 -5.97591,2.98983 -15.23843,6.62371 -20.67109,8.10976 -9.23033,2.52492 -11.03895,2.68744 -29.03796,2.60997 -17.37622,-0.0748 -20.09417,-0.32345 -28.69019,-2.62444 -5.2226,-1.39796 -13.19574,-4.01856 -17.71808,-5.82344 l -8.21883,-3.28158 -0.57908,-80.22352 c -0.48873,-67.71761 -0.8362,-81.98814 -2.22864,-91.5434 -0.90726,-6.22594 -2.12479,-13.75612 -2.70555,-16.73374 -0.58066,-2.97762 -2.55367,-11.39371 -4.38424,-18.70242 -1.83067,-7.3087 -5.49467,-19.71136 -8.14234,-27.56145 -2.64758,-7.85009 -6.81723,-19.14901 -9.26597,-25.10878 -2.44864,-5.95967 -8.75686,-19.91266 -14.01834,-31.00663 -5.26139,-11.09388 -12.44853,-25.6233 -15.97127,-32.28756 -3.52285,-6.66426 -6.58955,-11.93243 -6.81487,-11.70702 -0.22541,0.22541 0.70252,2.35582 2.06219,4.73427 1.35957,2.37846 2.47728,4.64283 2.48378,5.03184 0.01,0.3891 -0.72516,0.42454 -1.62603,0.0787 -1.20148,-0.46106 -1.44107,-0.25602 -0.899,0.76916 0.40654,0.76877 -0.20808,0.29029 -1.36576,-1.06318 -1.46913,-1.71747 -1.05856,-0.37946 1.35927,4.42952 1.90528,3.7897 4.28876,8.4407 5.29652,10.33555 1.00777,1.89485 2.96719,5.65994 4.35412,8.36687 1.38703,2.70692 3.73704,8.02235 5.22231,11.81205 1.48526,3.7897 3.04495,7.33331 3.46585,7.8747 0.4209,0.54138 3.62394,7.62861 7.11794,15.7494 3.49391,8.12079 8.13043,19.63754 10.30346,25.59278 2.17302,5.95524 4.85898,14.14985 5.96872,18.21024 1.10985,4.0604 3.14664,11.3691 4.52619,16.24158 1.37964,4.87247 3.61626,15.50331 4.97021,23.6241 1.35386,8.12078 2.83932,20.08049 3.30078,26.57711 0.46156,6.49663 0.74131,64.08038 0.62171,127.9639 -0.1196,63.88351 -0.26626,120.91357 -0.32592,126.73347 -0.0797,7.79349 -0.43281,10.56263 -1.33899,10.50957 -0.67673,-0.0394 -4.99551,-1.11594 -9.59729,-2.39164 z m 46.75604,-28.55062 c -4.87248,-0.70144 -11.29528,-1.75793 -14.2729,-2.34774 -2.97762,-0.58982 -7.55922,-1.57337 -10.1813,-2.18562 l -4.76734,-1.11319 0.33782,-31.29731 c 0.18584,-17.21351 0.62899,-31.58809 0.98473,-31.94333 0.35574,-0.35535 2.01996,0.064 3.69826,0.93187 1.67829,0.86789 8.52131,3.07714 15.20664,4.90938 6.84941,1.87723 17.05079,3.8214 23.37103,4.45393 6.16874,0.61748 15.2024,0.83836 20.07487,0.49109 4.87247,-0.34737 13.51004,-1.66186 19.19459,-2.92102 5.68455,-1.25926 13.55679,-3.61242 17.49384,-5.2293 3.93706,-1.61687 10.40465,-4.79716 14.37251,-7.06734 3.96777,-2.27028 10.49147,-6.8692 14.49713,-10.21999 4.00557,-3.35078 10.21762,-9.74553 13.80455,-14.21049 3.6888,-4.59193 8.57653,-12.33128 11.25255,-17.81769 l 4.73093,-9.69956 4.98901,1.73932 c 5.69184,1.98453 49.77678,19.51016 51.6294,21.22173 1.14911,1.06171 0.87891,2.28721 -1.73647,7.87618 -1.7035,3.64037 -4.71715,9.32424 -6.69685,12.63082 -1.97979,3.30659 -7.17326,10.61116 -11.54106,16.23242 -4.3678,5.62126 -12.67876,14.72795 -18.46883,20.23719 -5.79017,5.50924 -15.02375,13.04858 -20.51911,16.75402 -5.49536,3.70544 -14.71595,9.0754 -20.49027,11.93332 -5.77422,2.85793 -15.81407,6.9572 -22.3107,9.10955 -6.49663,2.15246 -15.35567,4.64608 -19.68675,5.54153 -4.33109,0.89535 -12.30422,2.02852 -17.71808,2.51803 -5.41386,0.48961 -16.26618,0.85805 -24.11627,0.81878 -7.85009,-0.0394 -18.25946,-0.64524 -23.13193,-1.34658 z m -125.92081,-7.40222 c -3.73152,-2.1806 -10.36881,-6.46759 -14.74941,-9.52671 -4.3806,-3.05903 -11.06543,-8.00916 -14.85513,-11.00037 -3.7897,-2.9911 -12.362,-10.77456 -19.04959,-17.29658 -6.68759,-6.52193 -15.3597,-15.84459 -19.27136,-20.71706 -3.91176,-4.87247 -9.57495,-12.40265 -12.58505,-16.73374 -3.01001,-4.33109 -7.95867,-12.30127 -10.99693,-17.71148 -3.44203,-6.12908 -5.5242,-10.99968 -5.5242,-12.9219 0,-1.69689 0.55369,-3.52363 1.23042,-4.0595 0.67674,-0.53578 6.1906,-2.06642 12.25294,-3.40128 l 11.02252,-2.42698 1.16407,2.81048 c 0.64031,1.5458 3.48781,6.74271 6.32782,11.54884 2.84001,4.80602 8.2393,12.88005 11.99848,17.94221 3.75919,5.06215 11.67631,14.26049 17.59376,20.44075 5.91734,6.18026 14.74538,14.40716 19.61785,18.28201 4.87247,3.87474 12.51339,9.5967 16.97982,12.71528 l 8.12079,5.67017 -0.01,10.00747 c -0.01,5.50422 -0.28792,12.33306 -0.62928,15.17534 -0.34137,2.84227 -0.89821,5.16777 -1.23751,5.16777 -0.33921,0 -3.66981,-1.78411 -7.40143,-3.96472 z M 507.886,782.00901 c -5.88397,-4.39743 -15.13596,-12.25294 -20.55995,-17.45684 -5.424,-5.2038 -13.60079,-14.11254 -18.17068,-19.79709 -4.56989,-5.68455 -10.92379,-14.54359 -14.11983,-19.68676 -3.19595,-5.14316 -5.81911,-10.51508 -5.82915,-11.93765 -0.01,-1.42246 0.55015,-3.05804 1.24479,-3.63457 0.69465,-0.57652 12.26967,-3.17025 25.72222,-5.76388 l 24.45912,-4.71567 3.84817,4.41298 c 2.11652,2.42708 5.5997,7.9565 7.74034,12.28759 2.14064,4.33108 4.55029,10.53241 5.35479,13.78072 0.8046,3.24832 1.90548,9.00669 2.44638,12.79639 0.54099,3.7897 0.99241,16.08162 1.00314,27.31537 0.0148,15.70216 -0.26499,20.42146 -1.21094,20.40975 -0.67673,-0.01 -6.04452,-3.61301 -11.9284,-8.01034 z"
       id="path340"
       sodipodi:nodetypes="sssssssssssssssssssscssssssssssssssssssssssssscsssssssssssssssssssssssssssssssssssssssssscssssscssssssssssssssssssssssssssssssssscsssssssssssssssssssssssssccsssssssssscssssssssssssssssssssscsssssssssssscssssssssssssscssssssssscssssssccssccssssssscssssscs" /><path
       style="fill:#1e425d;stroke:none;stroke-width:0.984338;fill-opacity:1"
       d="m 523.99134,388.9765 c 2.12647,8.2651 9.19952,15.48835 13.72836,22.63976 7.64171,12.06673 14.18539,24.78346 20.83292,37.40483 23.15634,43.96597 42.65607,92.14732 48.82718,141.74462 5.03193,40.44076 2.24892,82.31782 2.24892,123.04221 v 33.46748 c 0,3.78252 -1.17333,10.06603 1.0117,13.36906 5.71388,8.63758 28.94435,11.03985 38.3618,12.35204 41.121,5.72975 95.88118,-12.65701 109.74223,-56.23485 2.10491,-6.6173 -4.43041,-8.57114 -9.33979,-10.68034 -7.55627,-3.24638 -26.98709,-8.2031 -29.61665,-16.92131 -6.18489,-20.50515 13.85701,-42.59368 14.85159,-61.9738 -46.38751,-9.60029 -75.52764,-41.72212 -89.57473,-85.63737 -6.65343,2.96035 -10.85773,7.40561 -18.70241,6.79772 -14.36129,-1.11284 -30.65306,-26.18726 -36.1121,-38.29652 -6.45509,-14.31886 -4.58938,-36.28111 12.48799,-42.21947 12.92721,-4.49518 28.93904,3.20818 34.36451,15.64235 4.35796,9.98756 4.04356,23.73261 6.41109,34.45182 6.48856,29.37686 17.77733,61.39289 41.90876,80.90782 20.90045,16.90202 54.30453,29.77909 81.70003,27.55231 5.38521,-0.43773 10.40976,-3.77777 15.7494,-4.79858 11.48643,-2.19589 23.09177,-1.66533 34.45182,0.67824 6.31816,-11.11471 0.0866,-16.45378 -0.24983,-27.55689 -0.18427,-6.07323 8.64465,-7.27319 7.4539,-13.76631 -0.87961,-4.79678 -6.15034,-5.36838 -10.15709,-5.75793 -9.81306,-0.95412 -22.23589,-0.59004 -31.4988,2.78593 4.11502,-15.53365 34.14913,0.68106 42.99803,-8.18759 4.57963,-4.58987 -1.65162,-16.12087 -1.65585,-22.32687 l -11.81205,-0.98434 v -0.98434 c 8.1326,-1.85903 30.95328,0.44993 35.22048,-7.98176 2.94288,-5.81495 -4.72895,-14.04953 -7.60656,-18.59536 -9.9931,-15.78593 -23.61269,-32.10392 -31.0279,-49.21688 -2.78705,-6.43184 -1.73283,-18.89352 -8.52938,-22.58587 -31.707,-17.22525 -77.9371,-13.49229 -112.08318,-7.84959 -11.67582,1.92951 -23.12249,4.66863 -34.45182,8.0714 -4.29978,1.29146 -10.34923,4.57425 -14.54024,1.6687 -5.18805,-3.59682 -2.0618,-9.64331 2.74345,-11.53178 11.20028,-4.40164 24.59918,-6.30147 36.40523,-8.51353 42.38479,-7.94132 80.19989,-6.31137 122.05787,2.35151 -3.99385,-17.42093 -12.14269,-39.86142 -27.56146,-50.28402 -16.31628,-11.02933 -41.30271,-16.30559 -60.40437,-18.95971 -48.11678,-6.68567 -103.28458,-2.78685 -150.24388,11.08201 -13.26887,3.91885 -25.67655,10.5424 -38.38917,15.8352 m -59.06025,62.99761 c 27.94957,-4.46419 59.42544,-1.20981 87.60604,0 -1.22323,-6.77802 -8.15582,-22.86561 -14.86763,-25.69762 -9.06762,-3.82603 -24.5733,-0.8795 -34.34925,-0.8795 -6.52812,0 -18.5648,-2.30224 -24.28489,1.16055 -6.37722,3.86063 -12.84039,18.3268 -14.10427,25.41657 m 329.7531,24.60844 c -6.17977,-1.19161 -11.05834,-5.45128 -16.73374,-8.0076 -8.52712,-3.84087 -18.20237,-6.06716 -27.56145,-6.55163 -20.45188,-1.05866 -38.31475,10.69679 -57.09158,16.50279 -7.07493,2.18766 -14.3109,3.02583 -21.65465,3.66628 -2.00184,0.17458 -6.2653,0.27336 -6.2653,-2.73583 0,-2.98925 4.27212,-2.82854 6.2653,-2.86945 8.33085,-0.17099 16.01498,-1.72259 23.62332,-5.23085 25.35792,-11.6925 45.89947,-23.24321 74.80966,-15.80936 10.61953,2.73066 24.46187,8.62395 24.60844,21.03565 m -152.57233,58.07592 c -1.19991,-9.29209 -4.05518,-18.32482 -5.65994,-27.56146 -1.03169,-5.93876 -1.22531,-13.03171 -3.82721,-18.53533 -6.3853,-13.50617 -29.65189,-19.90208 -36.07341,-3.12009 -6.33165,16.54701 5.41336,29.17854 14.44614,41.34218 4.65759,6.27203 7.5287,13.54449 16.34935,14.42934 6.01293,0.60314 10.15345,-3.41713 14.76507,-6.55464 m 157.49402,-26.57712 -0.98434,0.98434 c -17.79978,-3.30466 -35.58518,7.67121 -54.13857,6.85161 -17.17019,-0.7585 -30.11404,-12.57217 -46.26387,-16.18912 -8.63559,-1.93407 -16.90048,-1.34505 -25.59199,-0.67752 -2.11603,0.16252 -6.49604,0.24903 -6.55086,-2.86944 -0.065,-3.72118 5.01992,-3.8092 7.53441,-3.56366 9.83511,0.96043 21.03323,0.0417 30.51447,-2.98875 30.12614,-9.62926 60.91229,-25.11677 85.87972,4.67181 3.62147,4.32072 7.55095,8.48 9.60103,13.78073 M 443.27566,504.144 h 133.86991 c -2.09201,-6.18383 -5.68927,-20.90972 -11.23936,-24.58111 -4.79313,-3.17062 -14.67057,-0.63329 -20.25944,-1.29272 -21.87503,-2.58106 -44.90253,-0.70472 -66.93496,-0.70329 -6.11027,4.3e-4 -21.08343,-1.44965 -26.08573,1.99601 -5.29584,3.64783 -8.4534,18.50717 -9.35042,24.58111 m 306.129,-20.16529 c -2.90015,0.18241 -7.00622,1.11645 -8.12827,4.02549 -4.10744,10.64939 3.44853,21.78292 13.04996,20.95443 8.71808,-0.75226 14.0337,-12.77896 8.99881,-20.70378 -2.24468,-3.53308 -9.99732,-4.52282 -13.9205,-4.27614 m -40.35784,10.32191 c 5.30056,9.33998 23.66938,12.74268 33.46748,14.76507 -4.26317,-8.37096 -8.30014,-12.58341 -5.90603,-22.63977 l -27.56145,7.8747 m 60.04459,-6.89036 c 0.37631,9.36731 -2.22795,13.34966 -5.90602,21.65543 l 25.59278,-5.90603 c -3.59284,-7.70444 -11.62552,-13.42271 -19.68676,-15.7494 m -344.51817,71.85665 c 16.21854,4.79408 37.3314,0 54.13857,0 38.75869,0 77.4466,0.98434 116.15184,0.98434 -0.49276,-6.03238 -3.11789,-25.17289 -9.13239,-27.95186 -8.33015,-3.8489 -25.00601,-0.59394 -34.17846,-0.59394 h -81.70003 c -8.32828,0 -29.07418,-3.7943 -35.91848,1.01168 -5.74666,4.03522 -7.51364,20.04002 -9.36105,26.54978 m -8.85904,30.51446 -6.89036,26.57712 h 193.91451 l -1.96867,-26.57712 H 415.7142 m 373.06397,35.85767 c -3.92387,0.56217 -13.85751,1.08978 -14.06776,6.57213 -0.32395,8.44437 10.01799,21.10751 13.8134,28.44251 12.89876,24.92879 22.47922,55.90214 53.40859,60.31123 4.3615,0.6217 10.22274,1.73677 14.53955,0.40482 4.1227,-1.27218 2.39273,-5.81098 0,-7.9188 -8.3525,-7.35772 -19.46341,-8.71401 -24.25231,-20.3141 -6.19463,-15.00527 -8.62693,-32.50297 -12.55936,-48.23255 -1.15994,-4.64004 -1.7473,-14.69261 -5.7944,-17.70516 -5.40431,-4.02284 -18.82004,-2.45802 -25.08771,-1.56008 m -393.73506,46.8267 c 7.87342,2.32734 17.41067,0.98433 25.59278,0.98433 18.40584,0 36.69168,-0.98433 55.12291,-0.98433 18.71728,0 37.46517,0.89368 56.10724,0.98356 15.74862,0.0759 31.4995,7.7e-4 47.24821,7.7e-4 6.50234,0 15.26147,1.54212 21.50965,-0.31289 4.69224,-1.39305 5.14267,-23.36816 1.5206,-26.23689 -2.89395,-2.29202 -9.71098,-1.01167 -13.18687,-1.01167 h -34.45182 -107.2928 -30.51447 c -3.88892,0 -9.89653,-1.11375 -13.48227,0.59394 -5.59498,2.66463 -6.71309,20.34234 -8.17316,25.98318 m 113.19883,28.54579 c 3.93637,5.95673 10.25513,21.00789 16.0198,24.5811 4.21621,2.61339 12.64697,1.01167 17.44768,1.01167 h 42.32652 c 4.44251,0 14.47586,1.8654 18.10856,-1.01167 4.20175,-3.32785 1.57819,-19.51835 1.57819,-24.5811 h -95.48075 m 13.78073,93.51207 c -2.65693,-21.2277 -3.2811,-68.02657 -20.70978,-89.92637 -4.03027,-5.0642 -17.34974,2.25441 -23.58542,3.50136 -5.91222,1.18224 -23.15349,1.65644 -26.54522,7.00277 -4.00054,6.30609 7.81082,19.41778 11.13453,24.29933 13.2859,19.51288 36.35346,47.68144 59.70589,55.12291 m 252.97477,-77.76267 -8.85904,20.67109 c 15.44495,7.30647 29.52875,23.72305 46.26387,27.56145 3.22213,-6.89313 13.77157,-18.47483 12.38021,-26.4465 -0.73914,-4.23468 -8.01202,-5.70596 -11.39587,-6.97159 -12.40965,-4.64173 -25.35191,-12.49762 -38.38917,-14.81445 m -31.49881,44.29519 c 6.43738,15.20377 23.06914,28.56292 33.46748,41.34218 l 21.78379,-20.67109 5.61289,-8.77018 -8.69426,-8.28864 -23.6241,-15.99092 -9.82891,-4.47207 -18.71689,16.85072 m -139.77594,16.73374 c 0,-4.92385 2.52699,-20.34534 -1.57819,-23.59677 -3.19604,-2.53131 -11.28789,-1.01167 -15.15555,-1.01167 h -41.34218 c -4.06059,0 -12.79639,-1.63631 -16.13979,1.01167 -3.19329,2.52916 -3.08216,21.14013 0.70331,23.00283 5.0402,2.48013 14.80375,0.59394 20.35817,0.59394 h 20.67109 32.48314 m 109.26148,1.96868 19.68675,48.23254 28.54579,-13.83311 7.99095,-7.91423 -7.9878,-11.72014 -21.65858,-27.56145 -26.57711,12.79639 m -103.35545,-1.96868 v 56.10725 l 12.79639,1.96867 9.84337,-51.18556 -22.63976,-6.89036 m 67.91929,10.82772 4.92169,51.18555 c 14.27654,-0.002 30.21385,-3.06068 43.31086,-8.85904 l -18.70242,-48.23254 -29.53013,5.90603 m -2.95301,52.16989 c -0.0344,-12.65502 -1.73076,-25.81879 -3.23404,-38.38917 -0.38005,-3.17813 0.40801,-10.63895 -2.2815,-12.76905 -2.78006,-2.20185 -8.88128,-0.94475 -12.20254,-1.0261 -4.12575,-0.10105 -12.56753,-3.16124 -16.17847,-0.85444 -5.49959,3.51344 -5.92237,23.28508 -7.02788,29.41466 -0.79436,4.40429 -5.08715,16.21928 -2.32028,20.07793 1.97084,2.74856 8.73757,2.35576 11.74591,2.63549 10.51341,0.97755 20.92938,0.91068 31.4988,0.91068 m -70.87231,-10.82771 v -24.60844 h -50.20122 c -6.78966,0 -15.97196,-1.62334 -22.49388,0.31289 -4.63919,1.37737 -4.77463,19.32411 -2.08719,22.71727 2.84493,3.59201 14.50687,1.57828 18.67505,1.57828 h 56.10724 m 126.97956,-1.96868 0.98433,0.98434 -0.98433,-0.98434 m -120.0892,42.32652 0.98434,0.98434 -0.98434,-0.98434"
       id="path1"
       sodipodi:nodetypes="cssssssssssccsssssssscssscscccssssssssscssscccsssccssssssssccssssscccssssssscccssssccsssccccccccccscsssscccccccssssssssccsssssssccssccsssscccssssccccssccccccccccssssssccccccccccccccccccccssssssscccssssccccccc" /><path
       style="fill:#70cef0;fill-opacity:1;stroke-width:0.984338"
       d="m 610.81524,357.0784 c 44.29411,-6.39012 -31.74716,4.58003 0,0 z M 553.576,349.75067 c 2.08257,-2.08259 13.07683,-5.23558 30.12841,-8.64038 6.4737,-1.29265 12.19949,-2.77937 12.72395,-3.30383 0.61521,-0.61516 -1.76669,-2.19321 -6.7122,-4.44694 -9.88639,-4.50539 -25.69771,-15.29189 -36.81827,-25.11752 -24.78139,-21.89571 -44.07352,-56.65393 -49.98003,-90.04808 -2.59944,-14.69631 -2.39431,-38.96606 0.45131,-53.40563 13.15125,-66.732513 64.26554,-115.957477 131.56234,-126.699424 34.42317,-5.494633 66.05752,-0.690641 97.44942,14.79863 16.22888,8.007579 28.79818,16.981871 41.31315,29.496838 17.30012,17.300079 30.70336,39.365036 38.24988,62.968596 5.84451,18.28001 7.01656,26.19965 6.99224,47.24821 -0.0246,21.43253 -1.2378,29.35064 -7.34601,47.95218 -12.55808,38.24368 -40.83249,71.64148 -76.9945,90.94622 -4.73712,2.52886 -8.61295,4.94756 -8.61295,5.37488 0,0.68944 5.50136,2.02599 14.2729,3.46759 1.62415,0.26693 8.26843,1.61561 14.76506,2.99707 9.37542,1.99363 12.26888,3.01159 14.02681,4.93489 2.44126,2.67089 2.80448,5.84813 1.09714,9.59543 -11.91905,7.90429 -40.53797,-3.91466 -54.98962,-5.90918 -8.06311,-1.05812 -22.82217,-1.77741 -42.81869,-2.08679 -99.32105,-1.53668 -146.02481,27.14098 -118.76034,-0.12276 z m 146.31106,-33.24863 c 44.24578,-14.53972 76.75068,-50.82492 86.74328,-96.83161 2.57522,-11.85669 2.58359,-37.73507 0.0157,-48.72472 C 774.931,120.80987 738.01705,84.071312 688.57761,73.343183 676.07249,70.62963 645.29097,70.836794 632.89275,73.71795 c -52.75902,12.260427 -90.42933,51.1633 -99.42676,102.68011 -2.32747,13.32635 -1.47976,35.35501 1.85596,48.2303 12.67719,48.93103 50.79941,85.23341 100.5936,95.79166 7.60726,1.61304 32.31098,6.48618 63.97151,-3.91798 z"
       id="path17"
       sodipodi:nodetypes="sssssssssssssssssssssssssssssssss" /><path
       style="font-size:274.56px;font-family:esint10;-inkscape-font-specification:esint10;letter-spacing:0px;fill:#1e425d;stroke-width:32.641;stroke-linecap:round;stroke-linejoin:round;paint-order:stroke markers fill;fill-opacity:1"
       d="m 654.58036,147.68892 c -11.92653,0 -21.10685,4.31551 -27.54078,12.94654 -6.74803,9.02335 -10.12194,20.9891 -10.12194,35.89723 0,15.77125 3.33474,28.20778 10.00422,37.30959 6.74793,9.02334 15.96733,13.53502 27.6585,13.53502 11.53418,0 20.67523,-4.55091 27.42306,-13.65272 6.74793,-9.10181 10.12185,-21.49911 10.12185,-37.19189 0,-14.35888 -3.37392,-26.32463 -10.12185,-35.89723 -6.19867,-8.63103 -15.33972,-12.94654 -27.42306,-12.94654 z m 0,-17.1836 h 71.91217 c 7.95227,14.73721 3.69638,17.93213 0,21.65604 h -24.24542 c 8.55262,12.24037 12.82887,27.03082 12.82887,44.37133 0,21.57758 -5.37478,38.48654 -16.12433,50.72692 -10.74956,12.31883 -25.53992,18.47824 -44.37129,18.47824 -18.90981,0 -33.70027,-6.15941 -44.37138,-18.47824 -10.74946,-12.24038 -16.12423,-29.14934 -16.12423,-50.72692 0,-21.7345 5.37477,-38.68269 16.12423,-50.84461 8.86642,-10.12183 23.65689,-15.18276 44.37138,-15.18276 z"
       id="text9"
       aria-label="σ"
       sodipodi:nodetypes="scscssscsscccscscscs" /><text
       xml:space="preserve"
       style="font-style:normal;font-variant:normal;font-weight:normal;font-stretch:normal;font-size:188.993px;font-family:esint10;-inkscape-font-specification:esint10;letter-spacing:0px;writing-mode:lr-tb;direction:ltr;fill:#158cba;fill-opacity:1;stroke:none;stroke-width:25.5928;stroke-linecap:round;stroke-linejoin:round;stroke-dasharray:none;paint-order:stroke markers fill"
       x="627"
       y="1218.1025"
       id="text10"><tspan
         sodipodi:role="line"
         id="tspan10"
         x="627"
         y="1218.1025"
         style="stroke-width:25.5928;fill:#158cba;fill-opacity:1">FiTuPe</tspan></text><path
       style="font-stretch:condensed;font-size:296.107px;font-family:'Asap Condensed';-inkscape-font-specification:'Asap Condensed,  Condensed';letter-spacing:0px;fill:#70cef0;fill-opacity:1;stroke-width:39.4698;stroke-linecap:round;stroke-linejoin:round;paint-order:stroke markers fill"
       d="m 915.40867,1105.3998 q -29.14692,0 -44.0119,-18.9456 -14.86497,-18.9454 -14.86497,-58.0024 0,-38.76535 14.57351,-58.87674 14.57342,-20.1114 42.84595,-20.1114 25.35782,0 38.18246,19.52847 12.82464,19.52847 12.82464,56.83657 0,11.6587 -10.20138,11.6587 h -72.5758 q 0.87438,24.1919 9.03553,35.5593 8.16114,11.3673 25.94074,11.3673 10.20138,0 18.07106,-2.9147 7.86968,-2.9148 12.82464,-5.5379 5.24652,-2.9147 6.70383,-2.9147 2.91472,0 4.6635,5.2464 2.04033,4.9549 2.04033,8.4526 0,2.6232 -6.1209,7.2867 -6.12081,4.3721 -16.61375,7.8697 -10.20138,3.4977 -23.31749,3.4977 z m -32.93603,-88.8982 h 57.71083 q 0,-46.05216 -27.10659,-46.05216 -29.72985,0 -30.60424,46.05216 z"
       id="path346" /><path
       style="font-stretch:condensed;font-size:296.107px;font-family:'Asap Condensed';-inkscape-font-specification:'Asap Condensed,  Condensed';letter-spacing:0px;fill:#1e425d;stroke-width:39.4698;stroke-linecap:round;stroke-linejoin:round;paint-order:stroke markers fill;fill-opacity:1"
       d="m 739.65273,1104.2338 q -6.41227,0 -9.32699,-1.7488 -2.62316,-1.7487 -2.62316,-4.6634 V 908.36648 q 0,-8.74407 9.03553,-8.74407 h 42.84595 q 54.50474,0 54.50474,58.58532 0,58.58527 -54.50474,58.58527 h -25.64928 v 81.0286 q 0,2.9147 -2.62326,4.6634 -2.62316,1.7488 -9.32699,1.7488 z m 14.28205,-109.59239 h 25.64928 q 14.86497,0 21.27724,-8.45261 6.70384,-8.74406 6.70384,-27.98107 0,-19.23691 -6.70384,-27.68952 -6.41227,-8.74407 -21.27724,-8.74407 h -25.64928 z"
       id="path345" /><path
       style="font-stretch:condensed;font-size:296.107px;font-family:'Asap Condensed';-inkscape-font-specification:'Asap Condensed,  Condensed';letter-spacing:0px;fill:#70cef0;fill-opacity:1;stroke-width:39.4698;stroke-linecap:round;stroke-linejoin:round;paint-order:stroke markers fill"
       d="m 621.89927,1105.6912 q -18.07116,0 -28.564,-10.4929 -10.20148,-10.4929 -10.20148,-28.8555 V 957.33334 q 0,-6.41227 11.07587,-6.41227 h 2.91472 q 11.07577,0 11.07577,6.41227 v 105.22036 q 0,10.7844 4.37203,16.3223 4.6636,5.538 15.15644,5.538 10.20148,0 17.7796,-5.538 7.57822,-5.8293 12.24171,-14.8649 V 957.33334 q 0,-6.41227 11.07587,-6.41227 h 2.91472 q 11.07577,0 11.07577,6.41227 V 1060.222 q 0,17.7796 1.45741,26.2322 1.45731,8.1612 1.45731,10.2015 0,3.4976 -6.12081,5.2464 -6.1209,1.7488 -10.7844,1.7488 -3.78911,0 -5.53788,-4.372 -1.45741,-4.3721 -3.78911,-15.4479 -6.70384,10.2014 -16.61375,16.0308 -9.91002,5.8294 -20.98579,5.8294 z"
       id="path344" /><path
       style="font-stretch:condensed;font-size:296.107px;font-family:'Asap Condensed';-inkscape-font-specification:'Asap Condensed,  Condensed';letter-spacing:0px;fill:#1e425d;stroke-width:39.4698;stroke-linecap:round;stroke-linejoin:round;paint-order:stroke markers fill;fill-opacity:1"
       d="m 511.72394,1104.2338 q -11.07587,0 -11.07587,-6.4122 V 921.77414 h -41.97156 q -5.53799,0 -5.53799,-8.74416 v -4.6635 q 0,-8.74407 5.53799,-8.74407 h 109.59241 q 5.82934,0 5.82934,8.74407 v 4.6635 q 0,8.74416 -5.82934,8.74416 h -41.38864 v 176.04746 q 0,6.4122 -11.07587,6.4122 z"
       id="path343" /><path
       style="font-stretch:condensed;font-size:296.107px;font-family:'Asap Condensed';-inkscape-font-specification:'Asap Condensed,  Condensed';letter-spacing:0px;fill:#70cef0;fill-opacity:1;stroke-width:39.4698;stroke-linecap:round;stroke-linejoin:round;paint-order:stroke markers fill"
       d="m 416.12211,930.22675 q -6.99529,0 -9.90991,-1.74887 -2.91473,-1.74878 -2.91473,-4.6635 v -17.48814 q 0,-2.91472 2.91473,-4.66349 2.91462,-1.74887 9.90991,-1.74887 6.9953,0 9.90992,1.74887 2.91472,1.45731 2.91472,4.66349 v 17.48814 q 0,2.91472 -2.91472,4.6635 -2.91462,1.74887 -9.90992,1.74887 z"
       id="path342" /><path
       style="font-stretch:condensed;font-size:296.107px;font-family:'Asap Condensed';-inkscape-font-specification:'Asap Condensed,  Condensed';letter-spacing:0px;fill:#70cef0;fill-opacity:1;stroke-width:39.4698;stroke-linecap:round;stroke-linejoin:round;paint-order:stroke markers fill"
       d="m 414.95627,1104.2338 q -6.41237,0 -9.03563,-1.7488 -2.3317,-1.7487 -2.3317,-4.6634 V 957.04188 q 0,-3.20619 2.3317,-4.6635 2.62326,-1.74887 9.03563,-1.74887 h 2.33169 q 6.41237,0 8.74407,1.74887 2.62326,1.45731 2.62326,4.6635 v 140.77972 q 0,2.9147 -2.62326,4.6634 -2.3317,1.7488 -8.74407,1.7488 z"
       id="path341" /><path
       style="font-stretch:condensed;font-size:296.107px;font-family:'Asap Condensed';-inkscape-font-specification:'Asap Condensed,  Condensed';letter-spacing:0px;fill:#1e425d;stroke-width:39.4698;stroke-linecap:round;stroke-linejoin:round;paint-order:stroke markers fill;fill-opacity:1"
       d="m 300.99182,1104.2338 q -6.41237,0 -9.32709,-1.7488 -2.62316,-1.7487 -2.62316,-4.6634 V 908.36648 q 0,-8.74407 9.03553,-8.74407 h 76.07345 q 5.53788,0 5.53788,8.74407 v 4.6635 q 0,8.74416 -5.53788,8.74416 h -58.87678 v 72.28435 h 54.21328 q 5.82935,0 5.82935,8.74411 v 4.6635 q 0,8.744 -5.82935,8.744 h -54.21328 v 81.6115 q 0,2.9147 -2.62326,4.6634 -2.62316,1.7488 -9.32699,1.7488 z"
       id="text11" /><path
       style="font-size:274.56px;font-family:esint10;-inkscape-font-specification:esint10;letter-spacing:0px;fill:#70cef0;fill-opacity:1;stroke-width:13.6131;stroke-linecap:round;stroke-linejoin:round;paint-order:stroke markers fill"
       d="m 623.67994,1145.2084 c -4.97405,0 -8.80273,1.7998 -11.48604,5.3994 -2.81432,3.7633 -4.22143,8.7537 -4.22143,14.9711 0,6.5776 1.39077,11.7643 4.17231,15.5602 2.81422,3.7633 6.65924,5.6449 11.53516,5.6449 4.81036,0 8.6227,-1.898 11.43692,-5.694 2.81422,-3.7959 4.22133,-8.9663 4.22133,-15.5111 0,-5.9884 -1.40711,-10.9788 -4.22133,-14.9711 -2.58516,-3.5996 -6.3975,-5.3994 -11.43692,-5.3994 z m 0,-7.1665 h 29.99139 c 3.31653,6.1462 1.54157,7.4787 0,9.0318 h -10.11171 c 3.56695,5.1048 5.35037,11.2733 5.35037,18.5052 0,8.9991 -2.24163,16.0511 -6.7248,21.156 -4.48316,5.1377 -10.65151,7.7065 -18.50525,7.7065 -7.88651,0 -14.05486,-2.5688 -18.50535,-7.7065 -4.48317,-5.1049 -6.7247,-12.1569 -6.7247,-21.156 0,-9.0644 2.24153,-16.1328 6.7247,-21.205 3.69776,-4.2214 9.86621,-6.332 18.50535,-6.332 z"
       id="path18"
       aria-label="σ"
       sodipodi:nodetypes="scscssscsscccscscscs" /><path
       style="baseline-shift:baseline;display:inline;overflow:visible;vector-effect:none;fill:#70cef0;fill-opacity:1;stroke-width:0.984338;stroke-linecap:round;stroke-linejoin:round;paint-order:stroke markers fill;enable-background:accumulate;stop-color:#000000"
       d="m 340.28933,1162.6257 a 2.9530129,2.9530129 0 0 0 -2.95301,2.9531 2.9530129,2.9530129 0 0 0 2.95301,2.953 h 215.1143 a 2.9530129,2.9530129 0 0 0 2.95301,-2.953 2.9530129,2.9530129 0 0 0 -2.95301,-2.9531 z"
       id="path24" /><path
       style="baseline-shift:baseline;display:inline;overflow:visible;vector-effect:none;fill:#70cef0;fill-opacity:1;stroke-width:0.984338;stroke-linecap:round;stroke-linejoin:round;paint-order:stroke markers fill;enable-background:accumulate;stop-color:#000000"
       d="M 555.40294,1165.579 H 340.28943"
       id="path25" /><path
       style="baseline-shift:baseline;display:inline;overflow:visible;vector-effect:none;fill:#70cef0;fill-opacity:1;stroke-width:0.984338;stroke-linecap:round;stroke-linejoin:round;paint-order:stroke markers fill;enable-background:accumulate;stop-color:#000000"
       d="m 691.95744,1162.6257 a 2.9530129,2.9530129 0 0 0 -2.95301,2.9531 2.9530129,2.9530129 0 0 0 2.95301,2.953 h 215.11232 a 2.9530129,2.9530129 0 0 0 2.95301,-2.953 2.9530129,2.9530129 0 0 0 -2.95301,-2.9531 z"
       id="path22" /><path
       style="baseline-shift:baseline;display:inline;overflow:visible;vector-effect:none;fill:#70cef0;fill-opacity:1;stroke-width:0.984338;stroke-linecap:round;stroke-linejoin:round;paint-order:stroke markers fill;enable-background:accumulate;stop-color:#000000"
       d="m 691.95695,1165.579 h 215.1135"
       id="path23" /></g></svg>
