<?xml version="1.0" encoding="UTF-8" standalone="no"?>
<!-- Created with Inkscape (http://www.inkscape.org/) -->

<svg
   version="1.1"
   id="svg1"
   width="90"
   height="24"
   viewBox="0 0 90 24"
   sodipodi:docname="navbar-logo.svg"
   inkscape:version="1.4.4 (dcaf3e7d9e, 2026-05-05)"
   xml:space="preserve"
   inkscape:export-filename="main-logo.png"
   inkscape:export-xdpi="96"
   inkscape:export-ydpi="96"
   xmlns:inkscape="http://www.inkscape.org/namespaces/inkscape"
   xmlns:sodipodi="http://sodipodi.sourceforge.net/DTD/sodipodi-0.dtd"
   xmlns="http://www.w3.org/2000/svg"
   xmlns:svg="http://www.w3.org/2000/svg"><defs
     id="defs1" /><sodipodi:namedview
     id="namedview1"
     pagecolor="#ffffff"
     bordercolor="#000000"
     borderopacity="0.25"
     inkscape:showpageshadow="2"
     inkscape:pageopacity="0.0"
     inkscape:pagecheckerboard="0"
     inkscape:deskcolor="#d1d1d1"
     inkscape:zoom="10.234375"
     inkscape:cx="31.462595"
     inkscape:cy="11.920611"
     inkscape:window-width="3394"
     inkscape:window-height="1404"
     inkscape:window-x="2606"
     inkscape:window-y="0"
     inkscape:window-maximized="1"
     inkscape:current-layer="g1" /><g
     inkscape:groupmode="layer"
     inkscape:label="Image"
     id="g1"><text
       xml:space="preserve"
       style="font-style:normal;font-variant:normal;font-weight:normal;font-stretch:normal;font-size:192px;font-family:esint10;-inkscape-font-specification:esint10;letter-spacing:0px;writing-mode:lr-tb;direction:ltr;fill:#bc9457;fill-opacity:1;stroke:none;stroke-width:26;stroke-linecap:round;stroke-linejoin:round;stroke-dasharray:none;paint-order:stroke markers fill"
       x="627"
       y="1227.5079"
       id="text10"><tspan
         sodipodi:role="line"
         id="tspan10"
         x="627"
         y="1227.5079">FiTuPe</tspan></text><g
       id="g4"
       transform="matrix(0.85714288,0,0,0.85714288,-1.5147013,-3.0877192e-7)"><g
         id="g2"
         transform="matrix(0.08463092,0,0,0.08463092,-40.238516,-2.2420512)"><path
           style="fill:#bc9558;fill-opacity:1"
           d="m 610.5577,352.78352 c 44.9989,-6.49179 -32.2523,4.65291 0,0 z m -58.15,-7.44432 c 2.1157,-2.11573 13.2849,-5.31889 30.6078,-8.77786 6.5767,-1.31322 12.3936,-2.8236 12.9264,-3.3564 0.625,-0.62495 -1.7948,-2.22811 -6.819,-4.5177 -10.0437,-4.57708 -26.1066,-15.53521 -37.4041,-25.51718 -25.1757,-22.24411 -44.7748,-57.55539 -50.7753,-91.48089 -2.6408,-14.93015 -2.4324,-39.58607 0.4585,-54.2554 13.3605,-67.794333 65.2881,-117.802544 133.6557,-128.715412 34.9709,-5.582062 67.1086,-0.701631 99,15.034099 16.4871,8.134992 29.2564,17.25208 41.9705,29.96618 17.5754,17.57535 31.1919,39.991403 38.8585,63.970533 5.9375,18.57087 7.1282,26.61652 7.1035,48 -0.025,21.77356 -1.2575,29.81765 -7.4629,48.71517 -12.7579,38.8522 -41.4822,72.78141 -78.2196,92.39332 -4.8125,2.5691 -8.75,5.02629 -8.75,5.46041 0,0.70041 5.5889,2.05822 14.5,3.52276 1.65,0.27118 8.4,1.64132 15,3.04476 9.5246,2.02535 12.4641,3.05951 14.25,5.01341 2.4801,2.71339 2.8491,5.94118 1.1146,9.74811 -12.1087,8.03006 -41.183,-3.97695 -55.8646,-6.00321 -8.1914,-1.07495 -23.1853,-1.80569 -43.5,-2.11999 -100.9014,-1.56113 -148.3483,27.57284 -120.65,-0.12471 z m 148.6391,-33.77767 c 44.9498,-14.77107 77.9719,-51.63363 88.1235,-98.37236 2.6162,-12.04534 2.6247,-38.33549 0.016,-49.5 -11.9015,-50.93358 -49.4028,-88.256713 -99.6289,-99.155543 -12.7041,-2.75673 -43.9754,-2.54627 -56.5709,0.38073 -53.5985,12.45551 -91.8682,51.977393 -101.0088,104.313913 -2.3645,13.5384 -1.5033,35.91757 1.8855,48.99772 12.8789,49.7096 51.6077,86.58961 102.1942,97.31586 7.7283,1.63871 32.8251,6.58939 64.9894,-3.98032 z"
           id="path17"
           sodipodi:nodetypes="sssssssssssssssssssssssssssssssss" /><path
           style="font-size:274.56px;font-family:esint10;-inkscape-font-specification:esint10;letter-spacing:0px;fill:#132435;stroke-width:33.1604;stroke-linecap:round;stroke-linejoin:round;paint-order:stroke markers fill"
           d="m 655.0192,140.06233 c -12.1163,0 -21.4427,4.38417 -27.979,13.15253 -6.8554,9.16693 -10.283,21.32307 -10.283,36.46842 0,16.02219 3.3878,28.65661 10.1634,37.90324 6.8553,9.16692 16.2214,13.75038 28.0986,13.75038 11.7177,0 21.0042,-4.62332 27.8594,-13.86995 6.8553,-9.24664 10.2829,-21.8412 10.2829,-37.78367 0,-14.58736 -3.4276,-26.7435 -10.2829,-36.46842 -6.2973,-8.76836 -15.5838,-13.15253 -27.8594,-13.15253 z m 0,-17.45702 h 73.0564 c 8.0788,14.9717 3.7552,18.21746 0,22.00062 h -24.6312 c 8.6887,12.43513 13.033,27.46092 13.033,45.07735 0,21.92091 -5.4603,39.09892 -16.3809,51.53406 -10.9206,12.51484 -25.9463,18.77226 -45.0773,18.77226 -19.2107,0 -34.2365,-6.25742 -45.0774,-18.77226 -10.9205,-12.43514 -16.3808,-29.61315 -16.3808,-51.53406 0,-22.08033 5.4603,-39.2982 16.3808,-51.65363 9.0075,-10.28289 24.0333,-15.42434 45.0774,-15.42434 z"
           id="text9"
           aria-label="σ"
           sodipodi:nodetypes="scscssscsscccscscscs" /></g><g
         id="g3"
         transform="matrix(0.10508831,0,0,0.10508831,4.5633507,-91.995657)"><path
           style="font-stretch:condensed;font-size:296.107px;font-family:'Asap Condensed';-inkscape-font-specification:'Asap Condensed,  Condensed';letter-spacing:0px;fill:#bf985a;fill-opacity:1;stroke-width:40.0978;stroke-linecap:round;stroke-linejoin:round;paint-order:stroke markers fill"
           d="m 919.9977,1113.0119 q -29.6107,0 -44.7122,-19.247 -15.1015,-19.2469 -15.1015,-58.9253 0,-39.38223 14.8054,-59.81363 14.8053,-20.4314 43.5277,-20.4314 25.7613,0 38.79,19.8392 13.0287,19.8392 13.0287,57.74093 0,11.8442 -10.3637,11.8442 h -73.7306 q 0.8883,24.5769 9.1793,36.1251 8.291,11.5482 26.3535,11.5482 10.3637,0 18.3586,-2.9611 7.9949,-2.9611 13.0287,-5.626 5.33,-2.9611 6.8105,-2.9611 2.9611,0 4.7377,5.3299 2.0728,5.0338 2.0728,8.5871 0,2.665 -6.2183,7.4027 -6.2182,4.4416 -16.8781,7.9949 -10.3637,3.5533 -23.6885,3.5533 z m -33.4601,-90.3127 h 58.6291 q 0,-46.78493 -27.5379,-46.78493 -30.2029,0 -31.0912,46.78493 z"
           id="path346" /><path
           style="font-stretch:condensed;font-size:296.107px;font-family:'Asap Condensed';-inkscape-font-specification:'Asap Condensed,  Condensed';letter-spacing:0px;fill:#132435;stroke-width:40.0978;stroke-linecap:round;stroke-linejoin:round;paint-order:stroke markers fill"
           d="m 741.4452,1111.8274 q -6.5143,0 -9.4754,-1.7766 -2.6649,-1.7766 -2.6649,-4.7377 V 912.84347 q 0,-8.8832 9.1793,-8.8832 h 43.5277 q 55.372,0 55.372,59.5175 0,59.51753 -55.372,59.51753 h -26.0574 v 82.3178 q 0,2.9611 -2.665,4.7377 -2.6649,1.7766 -9.4754,1.7766 z m 14.5093,-111.3362 h 26.0574 q 15.1015,0 21.6158,-8.58713 6.8105,-8.8832 6.8105,-28.4263 0,-19.543 -6.8105,-28.1301 -6.5143,-8.8832 -21.6158,-8.8832 h -26.0574 z"
           id="path345" /><path
           style="font-stretch:condensed;font-size:296.107px;font-family:'Asap Condensed';-inkscape-font-specification:'Asap Condensed,  Condensed';letter-spacing:0px;fill:#bf985a;fill-opacity:1;stroke-width:40.0978;stroke-linecap:round;stroke-linejoin:round;paint-order:stroke markers fill"
           d="m 621.8181,1113.308 q -18.3587,0 -29.0185,-10.6599 -10.3638,-10.6598 -10.3638,-29.3146 V 962.58947 q 0,-6.5143 11.2521,-6.5143 h 2.9611 q 11.252,0 11.252,6.5143 v 106.89463 q 0,10.956 4.4416,16.582 4.7378,5.6261 15.3976,5.6261 10.3638,0 18.0625,-5.6261 7.6988,-5.9221 12.4365,-15.1014 V 962.58947 q 0,-6.5143 11.2521,-6.5143 h 2.9611 q 11.252,0 11.252,6.5143 v 104.52583 q 0,18.0625 1.4806,26.6496 1.4805,8.291 1.4805,10.3638 0,3.5532 -6.2182,5.3299 -6.2183,1.7766 -10.956,1.7766 -3.8494,0 -5.626,-4.4416 -1.4806,-4.4416 -3.8494,-15.6937 -6.8105,10.3638 -16.8781,16.2859 -10.0677,5.9222 -21.3197,5.9222 z"
           id="path344" /><path
           style="font-stretch:condensed;font-size:296.107px;font-family:'Asap Condensed';-inkscape-font-specification:'Asap Condensed,  Condensed';letter-spacing:0px;fill:#132435;stroke-width:40.0978;stroke-linecap:round;stroke-linejoin:round;paint-order:stroke markers fill"
           d="m 509.8897,1111.8274 q -11.2521,0 -11.2521,-6.5143 V 926.46447 h -42.6394 q -5.6261,0 -5.6261,-8.8833 v -4.7377 q 0,-8.8832 5.6261,-8.8832 h 111.3362 q 5.9221,0 5.9221,8.8832 v 4.7377 q 0,8.8833 -5.9221,8.8833 h -42.0472 v 178.84863 q 0,6.5143 -11.2521,6.5143 z"
           id="path343" /><path
           style="font-stretch:condensed;font-size:296.107px;font-family:'Asap Condensed';-inkscape-font-specification:'Asap Condensed,  Condensed';letter-spacing:0px;fill:#bf985a;fill-opacity:1;stroke-width:40.0978;stroke-linecap:round;stroke-linejoin:round;paint-order:stroke markers fill"
           d="m 411.5823,1111.8274 q -6.5144,0 -9.1794,-1.7766 -2.3688,-1.7766 -2.3688,-4.7377 V 962.29337 q 0,-3.2572 2.3688,-4.7377 2.665,-1.7767 9.1794,-1.7767 h 2.3688 q 6.5144,0 8.8832,1.7767 2.665,1.4805 2.665,4.7377 v 143.01973 q 0,2.9611 -2.665,4.7377 -2.3688,1.7766 -8.8832,1.7766 z"
           id="path341" /><path
           style="font-stretch:condensed;font-size:296.107px;font-family:'Asap Condensed';-inkscape-font-specification:'Asap Condensed,  Condensed';letter-spacing:0px;fill:#132435;stroke-width:40.0978;stroke-linecap:round;stroke-linejoin:round;paint-order:stroke markers fill"
           d="m 295.8045,1111.8274 q -6.5144,0 -9.4755,-1.7766 -2.6649,-1.7766 -2.6649,-4.7377 V 912.84347 q 0,-8.8832 9.1793,-8.8832 h 77.2839 q 5.626,0 5.626,8.8832 v 4.7377 q 0,8.8833 -5.626,8.8833 h -59.8136 v 73.4345 h 55.0759 q 5.9221,0 5.9221,8.88323 v 4.7377 q 0,8.8832 -5.9221,8.8832 h -55.0759 v 82.91 q 0,2.9611 -2.665,4.7377 -2.6649,1.7766 -9.4754,1.7766 z"
           id="text11" /></g></g></g></svg>
