<?xml version="1.0" encoding="UTF-8" standalone="no"?>
<!-- Created with Inkscape (http://www.inkscape.org/) -->

<svg
   version="1.1"
   id="svg1"
   width="90"
   height="24"
   viewBox="0 0 90 24"
   sodipodi:docname="navbar-logo.svg"
   inkscape:version="1.4.4 (dcaf3e7d9e, 2026-05-05)"
   xml:space="preserve"
   inkscape:export-filename="main-logo.png"
   inkscape:export-xdpi="96"
   inkscape:export-ydpi="96"
   xmlns:inkscape="http://www.inkscape.org/namespaces/inkscape"
   xmlns:sodipodi="http://sodipodi.sourceforge.net/DTD/sodipodi-0.dtd"
   xmlns="http://www.w3.org/2000/svg"
   xmlns:svg="http://www.w3.org/2000/svg"><defs
     id="defs1" /><sodipodi:namedview
     id="namedview1"
     pagecolor="#ffffff"
     bordercolor="#000000"
     borderopacity="0.25"
     inkscape:showpageshadow="2"
     inkscape:pageopacity="0.0"
     inkscape:pagecheckerboard="0"
     inkscape:deskcolor="#d1d1d1"
     inkscape:zoom="0.22614987"
     inkscape:cx="-1242.5388"
     inkscape:cy="-349.32586"
     inkscape:window-width="3394"
     inkscape:window-height="1404"
     inkscape:window-x="2606"
     inkscape:window-y="0"
     inkscape:window-maximized="1"
     inkscape:current-layer="g1" /><g
     inkscape:groupmode="layer"
     inkscape:label="Image"
     id="g1"><path
       style="fill:#70cef0;fill-opacity:1;stroke-width:0.0725408"
       d="m 8.2854789,23.669437 c 3.2642561,-0.47092 -2.3396073,0.337526 0,0 z M 4.067232,23.12942 C 4.2207065,22.975943 5.0309291,22.743583 6.287546,22.492667 6.764625,22.397405 7.1865875,22.287841 7.2252372,22.249191 7.2705752,22.203857 7.095041,22.087562 6.7305816,21.921474 6.0020036,21.589449 4.8367882,20.794537 4.0172586,20.070437 2.1909934,18.456832 0.76925925,15.895324 0.33397824,13.434341 0.14241252,12.351296 0.15753002,10.562736 0.36723819,9.4986115 1.3364194,4.5807571 5.1032885,0.95312194 10.062728,0.16149388 c 2.536817,-0.40492719 4.868111,-0.0508969 7.181538,1.09058542 1.195988,0.5901187 2.122283,1.2514795 3.044574,2.1737704 1.274933,1.2749297 2.262685,2.9010079 2.818826,4.640473 0.430711,1.3471455 0.517085,1.9307834 0.515293,3.4819583 -0.0018,1.579471 -0.09122,2.162995 -0.541364,3.533837 -0.925468,2.818369 -3.009152,5.27962 -5.674112,6.702284 -0.349102,0.186364 -0.634732,0.364611 -0.634732,0.396102 0,0.05081 0.405424,0.149305 1.051842,0.255544 0.119692,0.01967 0.609342,0.119063 1.088112,0.220869 0.690922,0.146921 0.904155,0.22194 1.033706,0.363677 0.179908,0.196832 0.206676,0.430978 0.08085,0.707136 -0.878375,0.582507 -2.987447,-0.288491 -4.052462,-0.435478 -0.594211,-0.07798 -1.68188,-0.130986 -3.155525,-0.153786 -7.319467,-0.113245 -10.7613026,2.000156 -8.752046,-0.009 z M 14.84963,20.679161 c 3.260694,-1.071505 5.656143,-3.745544 6.392548,-7.136009 0.189781,-0.873778 0.190398,-2.780886 0.0012,-3.5907688 C 20.379994,6.2576211 17.659621,3.5501715 14.01618,2.7595618 13.094614,2.5595864 10.826169,2.5748533 9.9124818,2.7871802 6.0244042,3.6907128 3.24829,6.5576614 2.5852236,10.354194 c -0.1715227,0.982086 -0.1090505,2.605489 0.1367757,3.554333 0.9342456,3.605974 3.7436633,6.281279 7.4132477,7.05937 0.560617,0.118873 2.381159,0.477999 4.714383,-0.288736 z"
       id="path17"
       sodipodi:nodetypes="sssssssssssssssssssssssssssssssss" /><path
       style="font-size:274.56px;font-family:esint10;-inkscape-font-specification:esint10;letter-spacing:0px;fill:#1e425d;stroke-width:2.40548;stroke-linecap:round;stroke-linejoin:round;paint-order:stroke markers fill;fill-opacity:1"
       d="m 11.510751,8.2384736 c -0.878926,0 -1.5554702,0.3180311 -2.0296185,0.9540949 -0.4972962,0.6649763 -0.745937,1.5467925 -0.745937,2.6454475 0,1.162263 0.2457537,2.078774 0.7372611,2.749531 0.4972889,0.664976 1.1767134,0.997464 2.0382944,0.997464 0.850011,0 1.523661,-0.335379 2.020943,-1.006137 0.497289,-0.670759 0.74593,-1.584378 0.74593,-2.740858 0,-1.058178 -0.248641,-1.9399941 -0.74593,-2.6454475 C 13.074883,8.5565047 12.401233,8.2384736 11.510751,8.2384736 Z m 0,-1.2663461 h 5.299569 c 0.586043,1.086059 0.272405,1.321509 0,1.5959424 h -1.786767 c 0.630286,0.9020542 0.945425,1.9920371 0.945425,3.2699461 0,1.590161 -0.396095,2.836267 -1.188284,3.738322 -0.792189,0.907836 -1.882165,1.361754 -3.269943,1.361754 -1.393559,0 -2.4835425,-0.453918 -3.26995,-1.361754 -0.7921817,-0.902055 -1.1882761,-2.148161 -1.1882761,-3.738322 0,-1.601724 0.3960944,-2.850722 1.1882761,-3.7469946 0.6534112,-0.745929 1.7433946,-1.1188939 3.26995,-1.1188939 z"
       id="text9"
       aria-label="σ"
       sodipodi:nodetypes="scscssscsscccscscscs" /><path
       style="font-stretch:condensed;font-size:296.107px;font-family:'Asap Condensed';-inkscape-font-specification:'Asap Condensed,  Condensed';letter-spacing:0px;fill:#70cef0;fill-opacity:1;stroke-width:3.61184;stroke-linecap:round;stroke-linejoin:round;paint-order:stroke markers fill"
       d="m 85.266179,21.401903 q -2.667204,0 -4.027483,-1.733687 -1.360278,-1.733678 -1.360278,-5.307738 0,-3.547382 1.333607,-5.3877542 1.333598,-1.8403727 3.920788,-1.8403727 2.320467,0 3.494036,1.7870298 1.17357,1.7870301 1.17357,5.2010551 0,1.066874 -0.933518,1.066874 h -6.641335 q 0.08001,2.213782 0.826832,3.253994 0.746817,1.040212 2.37381,1.040212 0.933517,0 1.653663,-0.266723 0.720147,-0.266723 1.17357,-0.506766 0.480103,-0.266723 0.61346,-0.266723 0.266723,0 0.426752,0.480094 0.186709,0.453423 0.186709,0.773489 0,0.240052 -0.560118,0.666804 -0.560109,0.40008 -1.520307,0.720146 -0.933517,0.320066 -2.133758,0.320066 z m -3.013942,-8.13498 h 5.281057 q 0,-4.214185 -2.480495,-4.214185 -2.720548,0 -2.800562,4.214185 z"
       id="path346" /><path
       style="font-stretch:condensed;font-size:296.107px;font-family:'Asap Condensed';-inkscape-font-specification:'Asap Condensed,  Condensed';letter-spacing:0px;fill:#1e425d;stroke-width:3.61184;stroke-linecap:round;stroke-linejoin:round;paint-order:stroke markers fill;fill-opacity:1"
       d="m 69.182938,21.295208 q -0.58678,0 -0.853504,-0.160028 -0.240042,-0.160029 -0.240042,-0.426752 V 3.3715916 q 0,-0.8001605 0.826832,-0.8001605 h 3.920788 q 4.987671,0 4.987671,5.3610805 0,5.3610834 -4.987671,5.3610834 h -2.347139 v 7.414833 q 0,0.266723 -0.240052,0.426752 -0.240042,0.160028 -0.853503,0.160028 z m 1.306935,-10.028686 h 2.347139 q 1.360278,0 1.947058,-0.773492 0.61346,-0.80016 0.61346,-2.5605184 0,-1.7603494 -0.61346,-2.5338385 -0.58678,-0.8001604 -1.947058,-0.8001604 h -2.347139 z"
       id="path345" /><path
       style="font-stretch:condensed;font-size:296.107px;font-family:'Asap Condensed';-inkscape-font-specification:'Asap Condensed,  Condensed';letter-spacing:0px;fill:#70cef0;fill-opacity:1;stroke-width:3.61184;stroke-linecap:round;stroke-linejoin:round;paint-order:stroke markers fill"
       d="m 58.407443,21.428574 q -1.653673,0 -2.613862,-0.960198 -0.933526,-0.960188 -0.933526,-2.640533 V 7.8524973 q 0,-0.5867801 1.01354,-0.5867801 h 0.266724 q 1.013531,0 1.013531,0.5867801 v 9.6286087 q 0,0.986869 0.400081,1.493635 0.42676,0.506775 1.386949,0.506775 0.933527,0 1.626993,-0.506775 0.693474,-0.533437 1.120226,-1.360269 V 7.8524973 q 0,-0.5867801 1.013541,-0.5867801 h 0.266723 q 1.013532,0 1.013532,0.5867801 v 9.4152377 q 0,1.626992 0.133366,2.400481 0.133357,0.746818 0.133357,0.933527 0,0.320057 -0.560109,0.480094 -0.560118,0.160029 -0.986869,0.160029 -0.346738,0 -0.506766,-0.400081 -0.133366,-0.40008 -0.346737,-1.413621 -0.613461,0.933527 -1.520307,1.466964 -0.906855,0.533446 -1.920387,0.533446 z"
       id="path344" /><path
       style="font-stretch:condensed;font-size:296.107px;font-family:'Asap Condensed';-inkscape-font-specification:'Asap Condensed,  Condensed';letter-spacing:0px;fill:#1e425d;stroke-width:3.61184;stroke-linecap:round;stroke-linejoin:round;paint-order:stroke markers fill;fill-opacity:1"
       d="m 48.325414,21.295208 q -1.013541,0 -1.013541,-0.58678 V 4.5985127 h -3.840774 q -0.506775,0 -0.506775,-0.8001695 V 3.3715916 q 0,-0.8001605 0.506775,-0.8001605 h 10.028687 q 0.533437,0 0.533437,0.8001605 v 0.4267516 q 0,0.8001695 -0.533437,0.8001695 H 49.712355 V 20.708428 q 0,0.58678 -1.013541,0.58678 z"
       id="path343" /><path
       style="font-stretch:condensed;font-size:296.107px;font-family:'Asap Condensed';-inkscape-font-specification:'Asap Condensed,  Condensed';letter-spacing:0px;fill:#70cef0;fill-opacity:1;stroke-width:3.61184;stroke-linecap:round;stroke-linejoin:round;paint-order:stroke markers fill"
       d="m 39.470306,21.295208 q -0.586789,0 -0.826841,-0.160028 -0.213371,-0.160029 -0.213371,-0.426752 V 7.8258259 q 0,-0.2933946 0.213371,-0.4267516 0.240052,-0.1600375 0.826841,-0.1600375 h 0.213371 q 0.58679,0 0.800161,0.1600375 0.240052,0.133357 0.240052,0.4267516 V 20.708428 q 0,0.266723 -0.240052,0.426752 -0.213371,0.160028 -0.800161,0.160028 z"
       id="path341" /><path
       style="font-stretch:condensed;font-size:296.107px;font-family:'Asap Condensed';-inkscape-font-specification:'Asap Condensed,  Condensed';letter-spacing:0px;fill:#1e425d;stroke-width:3.61184;stroke-linecap:round;stroke-linejoin:round;paint-order:stroke markers fill;fill-opacity:1"
       d="m 29.04154,21.295208 q -0.586789,0 -0.853513,-0.160028 -0.240042,-0.160029 -0.240042,-0.426752 V 3.3715916 q 0,-0.8001605 0.826832,-0.8001605 h 6.961401 q 0.506766,0 0.506766,0.8001605 v 0.4267516 q 0,0.8001695 -0.506766,0.8001695 h -5.387752 v 6.6146643 h 4.961 q 0.533438,0 0.533438,0.800163 v 0.426751 q 0,0.800161 -0.533438,0.800161 h -4.961 v 7.468176 q 0,0.266723 -0.240052,0.426752 -0.240042,0.160028 -0.853503,0.160028 z"
       id="text11" /></g></svg>
