<?xml version="1.0" encoding="UTF-8" standalone="no"?>
<!-- Created with Inkscape (http://www.inkscape.org/) -->

<svg
   width="512"
   height="256"
   viewBox="0 0 135.46666 67.733335"
   version="1.1"
   id="svg1"
   xml:space="preserve"
   inkscape:version="1.4.4 (dcaf3e7d9e, 2026-05-05)"
   sodipodi:docname="home-davo-logo.svg"
   xmlns:inkscape="http://www.inkscape.org/namespaces/inkscape"
   xmlns:sodipodi="http://sodipodi.sourceforge.net/DTD/sodipodi-0.dtd"
   xmlns="http://www.w3.org/2000/svg"
   xmlns:svg="http://www.w3.org/2000/svg"><sodipodi:namedview
     id="namedview1"
     pagecolor="#ffffff"
     bordercolor="#000000"
     borderopacity="0.25"
     inkscape:showpageshadow="false"
     inkscape:pageopacity="0.0"
     inkscape:pagecheckerboard="0"
     inkscape:deskcolor="#d1d1d1"
     inkscape:document-units="px"
     showguides="false"
     inkscape:zoom="1.6517572"
     inkscape:cx="212.50097"
     inkscape:cy="107.76402"
     inkscape:window-width="3394"
     inkscape:window-height="1404"
     inkscape:window-x="2606"
     inkscape:window-y="0"
     inkscape:window-maximized="1"
     inkscape:current-layer="layer1"><inkscape:page
       x="0"
       y="0"
       width="135.46666"
       height="67.733337"
       id="page1"
       margin="0"
       bleed="0" /></sodipodi:namedview><defs
     id="defs1"><inkscape:path-effect
       effect="powerstroke"
       id="path-effect26927"
       is_visible="true"
       lpeversion="1"
       offset_points="0,1"
       not_jump="false"
       sort_points="true"
       interpolator_type="CubicBezierJohan"
       interpolator_beta="0.2"
       start_linecap_type="zerowidth"
       linejoin_type="extrp_arc"
       miter_limit="4"
       scale_width="1"
       end_linecap_type="zerowidth"
       message="" /><inkscape:path-effect
       effect="powerstroke"
       id="path-effect26144"
       is_visible="true"
       lpeversion="1"
       offset_points="0,1"
       not_jump="false"
       sort_points="true"
       interpolator_type="CubicBezierJohan"
       interpolator_beta="0.2"
       start_linecap_type="zerowidth"
       linejoin_type="extrp_arc"
       miter_limit="4"
       scale_width="1"
       end_linecap_type="zerowidth"
       message="" /><inkscape:path-effect
       effect="powerstroke"
       id="path-effect26927-3"
       is_visible="true"
       lpeversion="1"
       offset_points="0,1"
       not_jump="false"
       sort_points="true"
       interpolator_type="CubicBezierJohan"
       interpolator_beta="0.2"
       start_linecap_type="zerowidth"
       linejoin_type="extrp_arc"
       miter_limit="4"
       scale_width="1"
       end_linecap_type="zerowidth"
       message="" /><inkscape:path-effect
       effect="powerstroke"
       id="path-effect26144-6"
       is_visible="true"
       lpeversion="1"
       offset_points="0,1"
       not_jump="false"
       sort_points="true"
       interpolator_type="CubicBezierJohan"
       interpolator_beta="0.2"
       start_linecap_type="zerowidth"
       linejoin_type="extrp_arc"
       miter_limit="4"
       scale_width="1"
       end_linecap_type="zerowidth"
       message="" /></defs><g
     inkscape:label="Layer 1"
     inkscape:groupmode="layer"
     id="layer1"><path
       id="path25952"
       style="color:#000000;fill:#d9230f;fill-opacity:1;stroke-width:1.33738;stroke-linecap:round;stroke-linejoin:bevel;-inkscape-stroke:none"
       d="m 118.81854,46.137946 c -0.0701,-0.0027 -0.13949,-5.04e-4 -0.20809,0.0062 -0.41161,0.04006 -0.79411,0.245078 -1.11604,0.554518 -0.42924,0.412587 -0.77916,1.007783 -1.06702,1.715644 -0.40396,0.993359 -0.67429,2.21602 -0.8077,3.472178 -0.0524,-0.11025 -0.0893,-0.241061 -0.15095,-0.339432 a 0.27097432,0.27097434 0 0 0 -0.3736,-0.0857 0.27097432,0.27097434 0 0 0 -0.12546,0.259055 c -0.13507,-0.178226 -0.31142,-0.311329 -0.51503,-0.3792 -0.11043,-0.03681 -0.23086,-0.05034 -0.35064,-0.03725 -0.11977,0.01309 -0.23896,0.05277 -0.34671,0.121546 -0.21549,0.137557 -0.37886,0.373191 -0.48618,0.692307 a 0.2710014,0.27100142 0 0 0 -0.012,0.05237 c -0.0454,0.359725 -0.0347,0.635086 0.0479,0.862304 0.0341,0.09397 0.0932,0.170307 0.15543,0.241131 -0.001,0.02724 -0.0141,0.05479 -0.0123,0.08178 0.0155,0.229915 0.15503,0.458 0.38256,0.544995 a 0.2710014,0.27100142 0 0 0 0.0697,0.01653 c 0.22162,0.02222 0.40329,-0.0059 0.56516,-0.06133 l -0.0244,0.149551 a 0.27097432,0.27097434 0 0 0 0.22377,0.311146 0.27097432,0.27097434 0 0 0 0.31114,-0.223767 l 0.23609,-1.447628 a 0.2710014,0.27100142 0 0 0 0.0378,-0.146752 c -0.007,-0.09603 -0.0229,-0.18916 -0.0457,-0.278099 0.14611,0.349822 0.25422,0.784618 0.31703,1.304798 a 0.2710014,0.27100142 0 0 0 0.53995,-0.03137 c 0.002,-0.379011 0.0186,-0.763137 0.0496,-1.146004 0.15477,0.806567 0.84432,1.217696 1.46416,1.101195 0.56966,-0.107073 1.02356,-0.66785 1.01941,-1.475635 0.26688,0.02824 0.53533,0.05569 0.82282,0.07366 1.50889,0.09431 3.25416,0.06943 4.64115,0.134149 a 0.27097432,0.27097434 0 0 0 0.28342,-0.258215 0.27097432,0.27097434 0 0 0 -0.25822,-0.28314 c -1.41429,-0.06599 -3.15578,-0.04129 -4.63246,-0.133589 -0.35831,-0.0224 -0.69906,-0.05258 -1.01634,-0.0913 -0.17001,-0.254431 -0.39782,-0.466907 -0.70547,-0.587005 -0.37881,-0.147878 -0.83984,-0.197135 -1.38798,-0.167756 0.1453,-0.745398 0.34341,-1.444399 0.58617,-2.041353 0.26945,-0.662592 0.59521,-1.197011 0.94044,-1.528845 0.34272,-0.329426 0.67672,-0.460644 1.05666,-0.395165 0.66148,0.167248 0.8315,0.41999 0.90964,0.778566 0.0786,0.360648 -0.003,0.859078 -0.0283,1.372292 a 0.27097432,0.27097434 0 0 0 0.25737,0.28398 0.27097432,0.27097434 0 0 0 0.28398,-0.257094 c 0.0227,-0.46235 0.12963,-0.995522 0.0165,-1.514561 -0.11311,-0.519035 -0.51555,-0.99261 -1.31768,-1.19249 a 0.2710014,0.27100142 0 0 0 -0.0177,-0.0039 c -0.0712,-0.0128 -0.14195,-0.02051 -0.21202,-0.02324 z m -18.35651,0.272217 c -1.275939,-0.02887 -2.633098,0.2156 -3.942394,0.741598 -2.618596,1.052001 -5.052064,3.284022 -6.135265,6.808527 a 0.62150737,0.62150737 0 0 0 0.411688,0.776325 0.62150737,0.62150737 0 0 0 0.776325,-0.411407 c 0.973984,-3.169136 3.104669,-5.0936 5.41103,-6.02016 2.30636,-0.926566 4.782196,-0.801686 6.313666,0.08038 0.77259,0.445007 1.34926,0.996913 1.76241,1.601381 -0.50326,0.11934 -1.04653,0.263438 -1.64115,0.434652 a 0.27100122,0.27100125 0 0 0 -0.0314,0.01092 c -0.37932,0.161382 -0.63498,0.371544 -0.73431,0.652258 -0.0993,0.280715 0.001,0.574861 0.17419,0.789489 0.34642,0.429252 0.98055,0.708415 1.63947,0.770163 a 0.27097414,0.27097417 0 0 0 0.2949,-0.244492 0.27097414,0.27097417 0 0 0 -0.24449,-0.294903 c -0.52451,-0.04915 -1.07074,-0.326752 -1.26811,-0.571321 -0.0987,-0.122284 -0.11093,-0.194335 -0.0849,-0.268017 0.0257,-0.07263 0.13438,-0.202472 0.42625,-0.32907 0.64784,-0.186205 1.22976,-0.339413 1.76214,-0.462939 0.2617,0.499066 0.42571,1.022292 0.50831,1.542008 0.21387,1.345771 -0.16904,2.651406 -0.78893,3.321226 -0.66563,0.718862 -1.44678,0.940001 -2.16038,0.89227 -0.7136,-0.04773 -1.33044,-0.409667 -1.56721,-0.75616 -0.27454,-0.401791 -0.28792,-0.77913 -0.18989,-1.106236 0.0391,-0.130553 0.10976,-0.232772 0.17924,-0.32879 -0.0588,0.274395 0.002,0.507921 0.14031,0.70687 0.15165,0.218702 0.42863,0.396876 0.74272,0.42009 h 8.8e-4 c 0.38097,0.02811 0.67504,-0.134405 0.90291,-0.383962 0.22787,-0.249562 0.37156,-0.636684 0.31003,-1.041822 -0.0715,-0.471372 -0.3696,-0.821984 -0.77184,-1.049943 -0.40225,-0.227958 -0.95421,-0.304881 -1.48824,-0.09466 -0.59633,0.234768 -1.01186,0.76572 -1.206497,1.415141 -0.194641,0.649421 -0.130846,1.455548 0.353437,2.1643 0.52209,0.764041 1.46195,1.225086 2.51129,1.295275 1.04934,0.07019 2.23721,-0.295788 3.15543,-1.287433 0.9637,-1.040795 1.371,-2.682753 1.10428,-4.361087 -0.085,-0.534766 -0.24344,-1.075267 -0.48199,-1.59886 1.5152,-0.249511 2.64413,-0.208672 3.97209,0.002 l -1.14684,2.91626 c -0.0188,-0.0038 -0.0257,-0.0043 -0.0442,-0.0081 -0.0896,-0.01826 -0.09,-0.01897 -0.17084,-0.03585 l 0.0386,-1.223021 A 0.27100122,0.27100125 0 0 0 108.747,51.733025 c -0.0729,0.131457 -0.39022,0.409679 -0.59849,0.715552 -0.10414,0.152937 -0.20349,0.35326 -0.13779,0.583645 0.0657,0.230384 0.27263,0.378375 0.54528,0.476381 a 0.27100122,0.27100125 0 0 0 0.0342,0.0098 c 0,0 0.0636,0.01317 0.07,0.01456 l -0.0555,1.752052 a 0.27100122,0.27100125 0 0 0 0.52287,0.107823 l 0.64553,-1.641429 c 0.14593,0.02676 0.33628,0.06909 0.42653,0.07618 a 0.27100122,0.27100125 0 0 0 0.005,2.77e-4 c 1.61487,0.09511 2.70509,-0.603641 2.96836,-1.545649 0.13163,-0.471004 0.0426,-0.988623 -0.2641,-1.432224 -0.30669,-0.443601 -0.82212,-0.815862 -1.53921,-1.054704 a 0.27100122,0.27100125 0 0 0 -0.0353,-0.0092 c -7.1e-4,-1.31e-4 -10e-4,-1.36e-4 -0.002,-2.77e-4 l 0.71388,-1.815342 a 0.27097414,0.27097417 0 0 0 -0.15291,-0.351194 0.27097414,0.27097417 0 0 0 -0.1039,-0.01877 0.27097414,0.27097417 0 0 0 -0.24757,0.171677 l -0.76121,1.935212 c -1.47062,-0.239877 -2.72842,-0.28283 -4.43225,0.01232 -0.528,-0.926426 -1.32578,-1.774324 -2.43119,-2.411032 -0.98485,-0.567236 -2.17971,-0.869584 -3.45566,-0.898431 z m 10.66719,3.893388 c 0.0289,0.0054 0.0526,0.0063 0.0818,0.01176 0.62246,0.210012 1.02881,0.519535 1.25243,0.842979 0.22534,0.32595 0.27639,0.662395 0.1882,0.977968 -0.17632,0.630871 -0.96525,1.235186 -2.413,1.150484 -0.0242,-0.002 -0.18604,-0.03497 -0.26381,-0.04817 z m 5.10969,0.957803 c 0.13036,0.116526 0.28948,0.209297 0.46574,0.289302 -0.0938,-0.02855 -0.20651,-0.01804 -0.29127,0.02437 -0.0852,0.04261 -0.14385,0.10648 -0.1868,0.173637 -0.0288,0.04512 -0.052,0.09273 -0.0703,0.14311 0.0233,-0.211686 0.0509,-0.422268 0.0826,-0.630415 z m 0.56292,0.331591 c 0.18018,0.07528 0.37598,0.139578 0.594,0.192121 0.2037,0.04909 0.43862,0.08214 0.67018,0.117065 0.0467,0.656834 -0.26042,0.952344 -0.58896,1.014095 -0.1593,0.02994 -0.32474,0.0012 -0.46966,-0.08514 a 0.27097432,0.27097434 0 0 0 0.18484,-0.257935 c -0.0207,-0.27259 -0.0655,-0.483441 -0.13527,-0.650578 -0.0567,-0.135735 -0.12919,-0.257505 -0.25513,-0.32963 z m -2.6096,0.244212 c 0.0287,7.55e-4 0.0584,0.007 0.091,0.01792 0.1625,0.05417 0.35741,0.294686 0.40721,0.623133 l -0.042,0.155993 c -0.0289,0.08414 -0.0705,0.160994 -0.0868,0.23665 -0.16842,0.05067 -0.30832,0.08085 -0.42877,0.09382 a 0.27097432,0.27097434 0 0 0 -0.051,-0.32683 0.27097432,0.27097434 0 0 0 -0.30219,-0.0081 c -0.006,-0.09489 -7.1e-4,-0.217103 0.0157,-0.361556 0.0784,-0.218892 0.17549,-0.336153 0.25346,-0.385922 0.0508,-0.03242 0.0956,-0.04635 0.14339,-0.04509 z m -5.50429,0.813293 -0.01,0.314227 c -0.0665,-0.03635 -0.13523,-0.07909 -0.14507,-0.0815 0.002,-0.0082 0.01,-0.05078 0.0633,-0.129668 0.0203,-0.02986 0.0635,-0.07048 0.0916,-0.103061 z m 0.51083,0.995611 c 0.0156,0.0033 0.0149,0.0032 0.0308,0.0064 l -0.0339,0.08598 z m -7.54508,0.0997 c 0.025,4.62e-4 0.0414,0.01541 0.0695,0.01036 a 0.62150737,0.62150737 0 0 0 -0.29043,0.154593 c 0.0701,-0.07118 0.14326,-0.140003 0.19241,-0.159354 0.011,-0.0043 0.0202,-0.0057 0.0286,-0.0056 z" /><path
       d="m 59.198105,13.940352 c 0,0.565428 0,1.050956 -0.03073,1.309082 -0.01846,0.178232 -0.05529,0.313443 -0.178235,0.33803 -0.0553,0.01229 -0.129066,0.02455 -0.221248,0.02455 -0.07371,0 -0.09835,0.01846 -0.09835,0.04918 0,0.04301 0.04307,0.06146 0.122925,0.06146 0.245839,0 0.633027,-0.01846 0.774397,-0.01846 0.172084,0 0.559276,0.01846 0.964904,0.01846 0.0676,0 0.116778,-0.01846 0.116778,-0.06146 0,-0.03073 -0.03073,-0.04918 -0.09834,-0.04918 -0.09218,0 -0.227396,-0.01229 -0.313437,-0.02455 -0.184382,-0.02457 -0.221255,-0.159798 -0.239695,-0.331883 -0.03073,-0.264273 -0.03073,-0.749801 -0.03073,-1.315229 v -2.519829 l 0.774385,0.01847 c 0.546991,0.01229 0.712935,0.184378 0.725229,0.344176 l 0.0062,0.0676 c 0.0062,0.09219 0.01846,0.122922 0.06759,0.122922 0.03684,0 0.04918,-0.03684 0.0553,-0.09833 0,-0.159792 0.01846,-0.583863 0.01846,-0.712929 0,-0.09219 -0.0062,-0.129061 -0.04918,-0.129061 -0.02457,0 -0.07371,0.01229 -0.165933,0.03073 -0.09219,0.01229 -0.227396,0.03073 -0.424066,0.03073 h -2.4338 c -0.202812,0 -0.436365,-0.01229 -0.614589,-0.03073 -0.153651,-0.01229 -0.215119,-0.07376 -0.264279,-0.07376 -0.03684,0 -0.05529,0.0369 -0.07371,0.116775 -0.01235,0.04918 -0.129067,0.608447 -0.129067,0.706782 0,0.0676 0.01235,0.09834 0.0553,0.09834 0.03684,0 0.05529,-0.02457 0.06759,-0.07376 0.01235,-0.04918 0.04307,-0.12292 0.104485,-0.215108 0.09219,-0.135213 0.239695,-0.165938 0.596157,-0.178232 l 0.915749,-0.02457 z"
       style="font-weight:bold;font-size:6.93716px;line-height:1.25;font-family:'Trajan Pro';-inkscape-font-specification:'Trajan Pro Bold';fill:#ececec;stroke-width:1.62051"
       id="path761" /><path
       d="m 63.383483,13.473261 c -0.01846,0 -0.03684,-0.0061 -0.03684,-0.0369 v -0.110626 c 0,-0.792824 0,-0.983349 0.01235,-1.149286 0.01235,-0.184384 0.05529,-0.258132 0.202812,-0.282713 0.06149,-0.01229 0.110625,-0.01846 0.153645,-0.01846 0.06759,0 0.09834,-0.01846 0.09834,-0.05529 0,-0.03684 -0.03684,-0.04918 -0.110628,-0.04918 -0.215102,0 -0.590013,0.01229 -0.719073,0.01229 -0.147501,0 -0.503969,-0.01229 -0.792821,-0.01229 -0.0737,0 -0.116779,0.01229 -0.116779,0.04918 0,0.03684 0.03684,0.05529 0.0922,0.05529 0.07991,0 0.172085,0.0061 0.215095,0.01846 0.172092,0.04918 0.221261,0.104476 0.233548,0.282713 0.0062,0.165937 0.0062,0.313437 0.0062,1.106267 v 0.921886 c 0,0.479382 0,0.891159 -0.02457,1.112414 -0.01846,0.153645 -0.04918,0.251979 -0.159798,0.276564 -0.04918,0.01229 -0.110623,0.01846 -0.190523,0.01846 -0.0676,0 -0.08603,0.03073 -0.08603,0.0553 0,0.03684 0.03684,0.05529 0.104482,0.05529 0.215107,0 0.571575,-0.01846 0.694489,-0.01846 0.153653,0 0.528553,0.01846 0.878873,0.01846 0.06759,0 0.110629,-0.01846 0.110629,-0.05529 0,-0.02457 -0.02457,-0.0553 -0.08603,-0.0553 -0.07991,0 -0.202814,-0.0061 -0.276571,-0.01846 -0.159792,-0.02455 -0.190522,-0.122919 -0.208963,-0.270417 -0.02455,-0.227402 -0.03073,-0.626889 -0.03073,-1.106269 V 13.81741 c 0,-0.02457 0.01846,-0.03073 0.03684,-0.03073 h 2.040447 c 0.01235,0 0.03074,0.01229 0.03074,0.03073 v 0.399484 c 0,0.47938 0,0.878867 -0.02455,1.100122 -0.01846,0.153645 -0.04918,0.251979 -0.159792,0.276564 -0.04918,0.01229 -0.110628,0.01846 -0.196669,0.01846 -0.06149,0 -0.08603,0.03073 -0.08603,0.0553 0,0.03684 0.04307,0.05529 0.11677,0.05529 0.208967,0 0.590008,-0.01846 0.712929,-0.01846 0.147499,0 0.503966,0.01846 0.854287,0.01846 0.06759,0 0.110629,-0.01846 0.110629,-0.05529 0,-0.02457 -0.03073,-0.0553 -0.08603,-0.0553 -0.08602,0 -0.20282,-0.0061 -0.276577,-0.01846 -0.165933,-0.02455 -0.196658,-0.122919 -0.215101,-0.270417 -0.02457,-0.227402 -0.02457,-0.639179 -0.02457,-1.118561 v -0.921886 c 0,-0.79283 0,-0.94033 0.01235,-1.106267 0.01235,-0.184384 0.05529,-0.258132 0.19667,-0.282713 0.06759,-0.01229 0.116767,-0.01846 0.159786,-0.01846 0.06149,0 0.09834,-0.01846 0.09834,-0.05529 0,-0.03684 -0.03684,-0.04918 -0.116773,-0.04918 -0.208964,0 -0.565431,0.01229 -0.694497,0.01229 -0.141346,0 -0.522395,-0.01229 -0.811259,-0.01229 -0.07991,0 -0.116772,0.01229 -0.116772,0.04918 0,0.03684 0.03073,0.05529 0.09219,0.05529 0.0738,0 0.165933,0.0061 0.208959,0.01846 0.172082,0.04918 0.221254,0.104476 0.23355,0.282713 0.0062,0.165937 0.01235,0.356462 0.01235,1.149286 v 0.110626 c 0,0.03073 -0.01846,0.0369 -0.03073,0.0369 z"
       style="font-weight:bold;font-size:6.93716px;line-height:1.25;font-family:'Trajan Pro';-inkscape-font-specification:'Trajan Pro Bold';fill:#ececec;stroke-width:1.62051"
       id="path758" /><path
       d="m 67.949901,14.204631 c 0,0.479381 0,0.891158 -0.02457,1.112412 -0.01846,0.153645 -0.04918,0.251981 -0.159786,0.276565 -0.04918,0.01229 -0.110629,0.01846 -0.190529,0.01846 -0.06759,0 -0.08603,0.03073 -0.08603,0.05529 0,0.03684 0.03684,0.05529 0.104487,0.05529 0.110617,0 0.245827,-0.0061 0.374894,-0.01229 0.129066,0 0.245842,-0.0061 0.307298,-0.0061 0.159798,0 0.362609,0.0061 0.626885,0.01229 0.264274,0.01229 0.59001,0.01846 0.99564,0.01846 0.202818,0 0.251983,0 0.288858,-0.135208 0.03073,-0.104481 0.07371,-0.460948 0.07371,-0.577721 0,-0.05529 -0.0062,-0.122914 -0.04918,-0.122914 -0.03684,0 -0.04918,0.02457 -0.06149,0.07989 -0.03684,0.215111 -0.09833,0.325737 -0.233539,0.387194 -0.141354,0.06146 -0.368762,0.06761 -0.510113,0.06761 -0.553137,0 -0.719076,-0.0799 -0.731364,-0.436363 -0.0062,-0.153645 0,-0.596156 0,-0.774385 V 13.80519 c 0,-0.03073 0.0062,-0.05529 0.03074,-0.05529 0.135213,0 0.749807,0.01229 0.848142,0.02457 0.202817,0.01846 0.270426,0.09834 0.301146,0.202814 0.01235,0.06761 0.01235,0.135213 0.01846,0.190523 0,0.02455 0.01229,0.04301 0.04918,0.04301 0.04918,0 0.05529,-0.07376 0.05529,-0.116773 0,-0.03684 0.01235,-0.245836 0.02455,-0.350314 0.03073,-0.26428 0.04307,-0.350324 0.04307,-0.381049 0,-0.03073 -0.01846,-0.05529 -0.04307,-0.05529 -0.02455,0 -0.04307,0.03073 -0.08602,0.0676 -0.04918,0.05529 -0.129066,0.06761 -0.258133,0.0799 -0.122913,0.01229 -0.823552,0.01229 -0.946471,0.01229 -0.03073,0 -0.03684,-0.02455 -0.03684,-0.0553 v -1.290645 c 0,-0.03073 0.01235,-0.04918 0.03684,-0.04918 0.110629,0 0.755955,0.01229 0.848142,0.02457 0.270418,0.02457 0.313437,0.09834 0.356462,0.190524 0.03073,0.06146 0.03684,0.153645 0.03684,0.190523 0,0.04301 0.0062,0.0676 0.04306,0.0676 0.04307,0 0.0553,-0.06146 0.06148,-0.08604 0.01235,-0.06146 0.02457,-0.288858 0.03073,-0.344171 0.01235,-0.239692 0.04307,-0.301149 0.04307,-0.338026 0,-0.02457 -0.0062,-0.04918 -0.03684,-0.04918 -0.02455,0 -0.05529,0.01846 -0.08602,0.02457 -0.04307,0.0061 -0.129066,0.02455 -0.227395,0.03073 -0.104482,0.0061 -1.302937,0 -1.475016,0 -0.153651,0 -0.497819,-0.01229 -0.780539,-0.01229 -0.07991,0 -0.122919,0.01229 -0.122919,0.04918 0,0.03684 0.03684,0.05529 0.09219,0.05529 0.07992,0 0.172085,0.0061 0.215111,0.01846 0.172082,0.04918 0.221254,0.104476 0.233539,0.282711 0.0062,0.165939 0.0062,0.313445 0.0062,1.106269 z"
       style="font-weight:bold;font-size:6.93716px;line-height:1.25;font-family:'Trajan Pro';-inkscape-font-specification:'Trajan Pro Bold';fill:#ececec;stroke-width:1.62051"
       id="path755" /><path
       d="m 32.479851,26.069567 c 0,2.146539 0,3.989761 -0.116657,4.969707 -0.09333,0.67663 -0.209987,1.189932 -0.676624,1.283263 -0.209989,0.04661 -0.489972,0.09332 -0.839954,0.09332 -0.279983,0 -0.373309,0.07002 -0.373309,0.18666 0,0.163322 0.163324,0.233321 0.466638,0.233321 0.466641,0 1.073271,-0.04661 1.609905,-0.04661 0.559967,-0.02329 1.07327,-0.02329 1.32992,-0.02329 0.583301,0 1.39992,0.07001 2.286533,0.139981 0.886614,0.07001 1.843223,0.14 2.683173,0.14 4.316416,0 6.742952,-1.656576 7.816226,-2.753174 1.306599,-1.329921 2.543194,-3.569796 2.543194,-6.509619 0,-2.776505 -1.096609,-4.71305 -2.263208,-5.926312 -2.543201,-2.659851 -6.439642,-2.659851 -9.356138,-2.659851 -1.399916,0 -2.86983,0.07002 -3.593118,0.07002 -0.653295,0 -2.123208,-0.07002 -3.359801,-0.07002 -0.349979,0 -0.513304,0.04661 -0.513304,0.209996 0,0.163316 0.139992,0.209984 0.396643,0.209984 0.326646,0 0.723291,0.02335 0.909945,0.07002 0.769955,0.163322 0.956613,0.536634 1.003276,1.329916 0.04666,0.746624 0.04666,1.399916 0.04666,4.946372 z m 2.916495,-4.479733 c 0,-1.843229 0,-3.873108 0.02333,-4.666395 0,-0.256651 0.07,-0.373313 0.27998,-0.466636 0.186658,-0.09333 1.049941,-0.163324 1.516579,-0.163324 1.819895,0 4.479737,0.279989 6.626278,2.333201 1.003278,0.956604 2.239882,2.869821 2.239882,5.832986 0,2.403183 -0.466643,4.526392 -1.959898,5.809653 -1.39992,1.213256 -2.986495,1.679906 -5.366351,1.679906 -1.843228,0 -2.753173,-0.489976 -3.05649,-0.933282 -0.186655,-0.256653 -0.233315,-1.189929 -0.256648,-1.773232 -0.02333,-0.443308 -0.04667,-2.239867 -0.04667,-4.713054 z"
       style="font-weight:bold;font-size:19.1004px;line-height:1.25;font-family:'Trajan Pro';-inkscape-font-specification:'Trajan Pro Bold';fill:#ececec;stroke-width:6.15201"
       id="path752" /><path
       d="m 58.758708,26.025078 c 0.08461,0 0.135373,0.03382 0.16923,0.118451 l 1.353752,3.587435 c 0.08461,0.203061 -0.03381,0.355358 -0.152303,0.389204 -0.169218,0.01689 -0.236902,0.05079 -0.236902,0.152297 0,0.118454 0.203056,0.118454 0.507658,0.135375 1.353746,0.03381 2.589048,0.03381 3.198231,0.03381 0.626104,0 0.778403,-0.03381 0.778403,-0.169218 0,-0.118455 -0.08461,-0.135379 -0.219983,-0.135379 -0.203067,0 -0.45689,-0.01689 -0.710717,-0.06768 -0.35536,-0.08461 -0.846097,-0.321515 -1.489126,-1.844482 -1.083002,-2.572122 -3.7905,-9.476249 -4.196632,-10.406947 -0.169226,-0.389202 -0.270756,-0.541501 -0.423052,-0.541501 -0.169221,0 -0.27075,0.186142 -0.473811,0.676876 L 52.616043,28.58025 c -0.338439,0.846097 -0.65996,1.421434 -1.438365,1.522969 -0.135378,0.0169 -0.372286,0.03382 -0.524582,0.03382 -0.135379,0 -0.203067,0.03381 -0.203067,0.135378 0,0.135375 0.101532,0.169219 0.32152,0.169219 0.87994,0 1.810651,-0.05079 1.996793,-0.05079 0.524574,0 1.252223,0.05079 1.793724,0.05079 0.186148,0 0.287677,-0.03382 0.287677,-0.169219 0,-0.101532 -0.05078,-0.135378 -0.253837,-0.135378 h -0.25382 c -0.524588,0 -0.676885,-0.21998 -0.676885,-0.524576 0,-0.203062 0.08461,-0.609185 0.253838,-1.032231 l 0.91378,-2.419824 c 0.03387,-0.101535 0.06769,-0.135381 0.152297,-0.135381 z m -3.435153,-0.846092 c -0.06769,0 -0.08461,-0.05078 -0.06769,-0.118453 l 1.556825,-4.162779 c 0.01689,-0.06769 0.05079,-0.1523 0.101529,-0.1523 0.05079,0 0.06769,0.08461 0.08461,0.1523 l 1.522982,4.179697 c 0.01689,0.05079 0,0.101535 -0.08461,0.101535 z"
       style="font-weight:bold;font-size:19.1004px;line-height:1.25;font-family:'Trajan Pro';-inkscape-font-specification:'Trajan Pro Bold';fill:#ececec;stroke-width:4.46183"
       id="path749" /><path
       d="m 67.543515,29.646356 c 0.321514,0.795327 0.423044,1.032235 0.643035,1.032235 0.236902,0 0.338428,-0.270751 0.778408,-1.25222 0.372272,-0.846092 1.167599,-2.690577 2.250602,-5.161171 0.913772,-2.081384 1.370671,-2.995169 2.030625,-4.585823 0.456894,-1.082996 0.710714,-1.37067 0.9307,-1.522967 0.304601,-0.203062 0.659948,-0.203062 0.829175,-0.203062 0.169212,0 0.270739,-0.03381 0.270739,-0.152299 0,-0.118454 -0.135367,-0.152297 -0.355347,-0.152297 -0.507663,0 -1.302982,0.05078 -1.590659,0.05078 -0.219985,0 -0.930699,-0.05078 -1.776793,-0.05078 -0.321515,0 -0.473812,0.03381 -0.473812,0.169224 0,0.11845 0.135372,0.135372 0.287669,0.135372 0.219986,0 0.473806,0.0169 0.676874,0.08461 0.152296,0.05079 0.21998,0.186143 0.21998,0.321515 0,0.152297 -0.06768,0.406123 -0.152292,0.626108 -0.406123,1.116842 -2.605966,6.565684 -3.333609,8.427088 h -0.06768 l -2.910562,-7.682525 c -0.23691,-0.60919 -0.389201,-1.083002 -0.389201,-1.302982 0,-0.152299 0.05078,-0.27075 0.169215,-0.355361 0.135378,-0.101532 0.389204,-0.118451 0.659954,-0.118451 0.152291,0 0.253832,-0.03381 0.253832,-0.152299 0,-0.118454 -0.186143,-0.152297 -0.389204,-0.152297 -0.846091,0 -1.658342,0.05078 -2.081389,0.05078 -0.592271,0 -1.556817,-0.05078 -2.453669,-0.05078 -0.253832,0 -0.439975,0.01689 -0.439975,0.152297 0,0.101535 0.05078,0.152299 0.203061,0.152299 0.135379,0 0.406123,0 0.659955,0.06768 0.609184,0.169222 0.896862,0.355358 1.286065,1.286063 z"
       style="font-weight:bold;font-size:19.1004px;line-height:1.25;font-family:'Trajan Pro';-inkscape-font-specification:'Trajan Pro Bold';fill:#ececec;stroke-width:4.46183"
       id="path746" /><path
       d="m 82.062483,30.678591 c 4.29816,0 7.005652,-3.062862 7.005652,-6.937967 0,-3.875104 -2.622885,-6.328779 -6.836428,-6.328779 -5.07656,0 -6.988734,3.739732 -6.988734,6.633375 0,2.99517 1.962936,6.633371 6.81951,6.633371 z m 0.710719,-0.846092 c -3.249002,0 -5.195008,-2.792109 -5.195008,-6.311861 0,-4.213544 2.216763,-5.296539 4.162779,-5.296539 2.775179,0 4.958097,2.35214 4.958097,6.142636 0,4.890418 -2.741332,5.465764 -3.925868,5.465764 z"
       style="font-weight:bold;font-size:19.1004px;line-height:1.25;font-family:'Trajan Pro';-inkscape-font-specification:'Trajan Pro Bold';fill:#ececec;stroke-width:4.46183"
       id="path743" /><path
       d="m 94.313913,30.678591 c 0.896856,0 1.844485,-0.152297 2.690577,-0.693801 1.218373,-0.795327 1.590647,-1.96293 1.590647,-2.9444 0,-1.607578 -0.727627,-2.77519 -2.775173,-4.315079 l -0.47381,-0.355357 c -1.404526,-1.066077 -1.793725,-1.658343 -1.793725,-2.436751 0,-1.015307 0.76149,-1.74295 2.013702,-1.74295 1.099925,0 1.590655,0.507658 1.84448,0.829172 0.355362,0.439966 0.439971,0.964548 0.439971,1.116846 0,0.20306 0.05074,0.30459 0.169225,0.30459 0.135368,0 0.186136,-0.135373 0.186136,-0.507658 0,-1.319903 0.06771,-1.810639 0.06771,-2.030619 0,-0.118454 -0.0846,-0.169218 -0.236913,-0.203062 -0.439971,-0.118453 -1.150694,-0.287677 -2.250603,-0.287677 -2.352143,0 -3.908959,1.336827 -3.908959,3.198236 0,1.370668 0.643036,2.5552 2.50444,4.01048 l 0.778404,0.60919 c 1.404519,1.099921 1.658344,1.878322 1.658344,2.707498 0,0.896856 -0.744564,1.929093 -2.267527,1.929093 -1.049167,0 -2.047544,-0.456893 -2.419829,-1.70911 -0.08461,-0.287672 -0.152291,-0.64303 -0.152291,-0.863016 0,-0.135372 -0.0169,-0.287672 -0.16923,-0.287672 -0.135366,0 -0.186134,0.186143 -0.203056,0.439969 -0.01689,0.270751 -0.08461,1.286063 -0.08461,2.216762 0,0.372285 0.05079,0.456893 0.321509,0.575347 0.727644,0.321514 1.48913,0.439969 2.470594,0.439969 z"
       style="font-weight:bold;font-size:19.1004px;line-height:1.25;font-family:'Trajan Pro';-inkscape-font-specification:'Trajan Pro Bold';fill:#ececec;stroke-width:4.46183"
       id="path740" /><path
       d="m 104.68703,22.556096 c 0,-2.572123 0,-3.045934 0.0339,-3.587435 0.0339,-0.592265 0.16921,-0.879934 0.6261,-0.96455 0.20307,-0.03382 0.3046,-0.05078 0.47381,-0.05078 0.13538,0 0.23691,-0.03382 0.23691,-0.152294 0,-0.118454 -0.11845,-0.152296 -0.35536,-0.152296 -0.57534,0 -1.64143,0.05078 -2.04755,0.05078 -0.40613,0 -1.4722,-0.05078 -2.36905,-0.05078 -0.25384,0 -0.37229,0.03381 -0.37229,0.152296 0,0.118454 0.10153,0.152294 0.28767,0.152294 0.23691,0 0.52459,0.01689 0.65996,0.05078 0.55841,0.118453 0.6938,0.389203 0.72764,0.96455 0.0339,0.541501 0.0339,1.015312 0.0339,3.587435 v 2.978249 c 0,1.55681 0,2.893637 -0.0846,3.604353 -0.0677,0.49074 -0.15229,0.863016 -0.49073,0.930706 -0.1523,0.03381 -0.35535,0.06768 -0.60918,0.06768 -0.20307,0 -0.27076,0.05078 -0.27076,0.135377 0,0.118454 0.11847,0.169219 0.33844,0.169219 0.67688,0 1.74295,-0.05079 2.13216,-0.05079 0.42305,0 1.48912,0.05079 2.43675,0.05079 0.18614,0 0.32152,-0.05079 0.32152,-0.169219 0,-0.08461 -0.0846,-0.135377 -0.21999,-0.135377 -0.21998,0 -0.59227,-0.03382 -0.82917,-0.06768 -0.42306,-0.06769 -0.57534,-0.439966 -0.6092,-0.913778 -0.0507,-0.727644 -0.0507,-2.064471 -0.0507,-3.621281 v -1.539889 h 0.0846 l 0.18613,0.253826 c 0.35536,0.49073 3.68897,4.399686 4.43353,5.059635 0.72764,0.643032 1.18454,1.015313 2.09832,1.099923 0.35536,0.03381 0.65993,0.03381 1.1676,0.03381 h 1.4722 c 0.32151,0 0.40613,-0.05079 0.40613,-0.169218 0,-0.101533 -0.10153,-0.135379 -0.21999,-0.135379 -0.20305,0 -0.54149,-0.05078 -1.04916,-0.253826 -0.91377,-0.355357 -1.67526,-1.116838 -2.41983,-1.827563 -0.65994,-0.626103 -3.97663,-4.196619 -4.58581,-4.991946 0.57535,-0.60919 3.13054,-3.147467 3.65512,-3.655125 0.72764,-0.710716 1.30298,-1.066077 1.82756,-1.269138 0.32151,-0.118451 0.74456,-0.18614 0.98148,-0.18614 0.16921,0 0.25381,-0.03381 0.25381,-0.1523 0,-0.118453 -0.11844,-0.152297 -0.28766,-0.152297 -0.52459,0 -1.45529,0.05079 -1.97987,0.05079 -0.45688,0 -1.38758,-0.05079 -1.74295,-0.05079 -0.18614,0 -0.27074,0.03382 -0.27074,0.152297 0,0.101535 0.0677,0.135379 0.21998,0.169219 0.16922,0.03381 0.2369,0.152296 0.2369,0.338439 0,0.287669 -0.37228,0.710717 -0.84609,1.269139 -0.49073,0.575343 -2.96132,3.096701 -3.53666,3.722813 h -0.0846 z"
       style="font-weight:bold;font-size:19.1004px;line-height:1.25;font-family:'Trajan Pro';-inkscape-font-specification:'Trajan Pro Bold';fill:#ececec;stroke-width:4.46183"
       id="path737" /><path
       d="m 117.51379,27.446513 c 0,0.270751 0,0.981469 -0.0507,1.692185 -0.0339,0.49074 -0.18613,0.863016 -0.52457,0.930706 -0.1523,0.03381 -0.35536,0.06768 -0.59227,0.06768 -0.18614,0 -0.27075,0.05078 -0.27075,0.135377 0,0.135375 0.13538,0.169219 0.37227,0.169219 0.62612,0 1.6922,-0.05079 2.11524,-0.05079 0.4569,0 1.52297,0.05079 2.58905,0.05079 0.21999,0 0.35535,-0.05079 0.35535,-0.169219 0,-0.08461 -0.0846,-0.135377 -0.27074,-0.135377 -0.23691,0 -0.60919,-0.03382 -0.84608,-0.06768 -0.50766,-0.06769 -0.65997,-0.439966 -0.69382,-0.930706 -0.0507,-0.710716 -0.0507,-1.421434 -0.0507,-1.692185 v -1.387592 c 0,-0.55842 0,-1.083002 0.25383,-1.692186 0.30459,-0.727643 2.67366,-4.704276 3.23208,-5.381156 0.37228,-0.456887 0.55842,-0.659948 0.91378,-0.829169 0.25382,-0.135373 0.57534,-0.203062 0.74456,-0.203062 0.18614,0 0.32151,-0.05078 0.32151,-0.169218 0,-0.101535 -0.11845,-0.135378 -0.30459,-0.135378 -0.32151,0 -1.43836,0.05078 -1.81064,0.05078 -0.49073,0 -1.03223,-0.05078 -1.59066,-0.05078 -0.20305,0 -0.28766,0.03381 -0.28766,0.152297 0,0.101535 0.1523,0.135377 0.30458,0.169224 0.28769,0.06768 0.35537,0.253826 0.35537,0.423041 0,0.219986 -0.0677,0.507658 -0.23691,0.87994 -0.2369,0.524576 -2.36906,4.247384 -2.53828,4.653513 -0.27075,-0.473812 -2.63981,-4.551983 -2.87671,-5.059641 -0.11847,-0.236904 -0.20307,-0.439966 -0.20307,-0.575339 0,-0.135377 0.0846,-0.27075 0.23691,-0.304596 0.25382,-0.06769 0.37229,-0.08461 0.37229,-0.186142 0,-0.101527 -0.0846,-0.152297 -0.25384,-0.152297 -0.76149,0 -1.45528,0.05078 -1.81064,0.05078 -0.55842,0 -1.82756,-0.05078 -2.13215,-0.05078 -0.20307,0 -0.32151,0.05078 -0.32151,0.152297 0,0.118453 0.11844,0.152299 0.25383,0.152299 0.20305,0 0.49073,0.101533 0.71071,0.219986 0.32151,0.186137 0.74456,0.609184 1.16761,1.235293 0.59226,0.879937 2.8598,4.602747 2.97825,4.873498 0.21998,0.490733 0.3892,0.863015 0.3892,1.776796 z"
       style="font-weight:bold;font-size:19.1004px;line-height:1.25;font-family:'Trajan Pro';-inkscape-font-specification:'Trajan Pro Bold';fill:#ececec;stroke-width:4.46183"
       id="path734" /><path
       d="m 61.343307,39.726928 c 0.53741,0 1.169114,-0.04713 1.499111,-0.17914 0.141419,-0.05661 0.179136,-0.09428 0.216848,-0.235706 0.08487,-0.27343 0.17914,-0.971125 0.17914,-1.065409 0,-0.066 -0.03776,-0.141422 -0.09428,-0.141422 -0.06601,0 -0.08487,0.03776 -0.103711,0.160278 -0.02827,0.150857 -0.141426,0.377132 -0.282853,0.537422 -0.329997,0.367697 -0.735411,0.424275 -1.470824,0.424275 -1.112552,0 -2.583386,-0.905124 -2.583386,-2.809661 0,-0.782553 0.150857,-1.555681 0.763705,-2.083668 0.377138,-0.320568 0.839125,-0.452564 1.565113,-0.452564 0.763694,0 1.319966,0.197995 1.602825,0.471419 0.207428,0.207425 0.31113,0.490275 0.320568,0.744841 0,0.103711 0.01885,0.169711 0.08487,0.169711 0.07539,0 0.103705,-0.08486 0.113134,-0.197996 0.0094,-0.160283 0.0094,-0.603415 0.02827,-0.867407 0.01885,-0.282857 0.03776,-0.377141 0.03776,-0.443141 0,-0.04712 -0.02827,-0.08485 -0.122572,-0.09428 -0.245137,-0.02827 -0.518555,-0.08486 -0.829697,-0.132002 -0.377138,-0.04712 -0.688273,-0.08485 -1.206839,-0.08485 -1.235119,0 -2.027098,0.320565 -2.630519,0.848552 -0.791997,0.707129 -0.97113,1.649968 -0.97113,2.196814 0,0.773132 0.216851,1.678251 1.037129,2.366525 0.754279,0.631703 1.715971,0.867409 2.847379,0.867409 z"
       style="font-weight:bold;font-size:10.6422px;line-height:1.25;font-family:'Trajan Pro';-inkscape-font-specification:'Trajan Pro Bold';fill:#ececec;stroke-width:2.486"
       id="path731" /><path
       d="m 67.500041,39.726928 c 2.140238,0 3.47907,-1.442538 3.47907,-3.281075 0,-1.838532 -1.301121,-2.998225 -3.394221,-2.998225 -2.51737,0 -3.479077,1.772537 -3.479077,3.139653 0,1.423679 0.98055,3.139647 3.394228,3.139647 z m 0.339411,-0.433708 c -1.565105,0 -2.507947,-1.30111 -2.507947,-2.951078 0,-1.979966 1.084259,-2.470239 2.008246,-2.470239 1.338827,0 2.404235,1.093694 2.404235,2.866235 0,2.281663 -1.319977,2.555082 -1.904534,2.555082 z"
       style="font-weight:bold;font-size:10.6422px;line-height:1.25;font-family:'Trajan Pro';-inkscape-font-specification:'Trajan Pro Bold';fill:#ececec;stroke-width:2.486"
       id="path728" /><path
       d="m 72.949627,35.257877 h 0.02827 c 0.160284,0.141423 1.037124,1.112547 1.942254,1.979954 0.867408,0.839134 1.904531,1.829115 2.423086,2.309957 0.08488,0.08487 0.198001,0.169714 0.339423,0.169714 0.066,0 0.131997,-0.07539 0.131997,-0.254569 l 0.09428,-5.053613 c 0.0094,-0.452558 0.07539,-0.593984 0.301704,-0.659983 0.103722,-0.02827 0.169716,-0.02827 0.254568,-0.02827 0.09429,0 0.141434,-0.0377 0.141434,-0.08486 0,-0.06599 -0.07539,-0.07543 -0.188569,-0.07543 -0.40542,0 -0.716556,0.01886 -0.810846,0.01886 -0.179134,0 -0.622266,-0.01886 -1.055974,-0.01886 -0.122572,0 -0.207425,0.0094 -0.207425,0.07543 0,0.04713 0.02827,0.08486 0.131996,0.08486 0.113146,0 0.311136,0 0.433708,0.04712 0.197999,0.07544 0.273416,0.216852 0.282854,0.707133 l 0.08487,3.563923 h -0.03776 c -0.122573,-0.113148 -1.225693,-1.244548 -1.791397,-1.80082 -1.206831,-1.178546 -2.451379,-2.451377 -2.555093,-2.555088 -0.141423,-0.141428 -0.254569,-0.263994 -0.358273,-0.263994 -0.08488,0 -0.141426,0.113143 -0.141426,0.273418 l -0.07539,4.75191 c -0.0094,0.697694 -0.03776,0.914546 -0.254562,0.971113 -0.113147,0.02827 -0.263995,0.03776 -0.377142,0.03776 -0.07539,0 -0.131996,0.03776 -0.131996,0.08487 0,0.07539 0.07539,0.08487 0.188564,0.08487 0.424276,0 0.820278,-0.02827 0.895695,-0.02827 0.150864,0 0.537422,0.02827 1.074841,0.02827 0.11314,0 0.188569,-0.01886 0.188569,-0.08487 0,-0.04712 -0.04713,-0.08487 -0.141422,-0.08487 -0.132008,0 -0.292281,-0.0094 -0.433714,-0.05661 -0.16027,-0.05661 -0.263992,-0.245145 -0.282848,-0.867422 z"
       style="font-weight:bold;font-size:10.6422px;line-height:1.25;font-family:'Trajan Pro';-inkscape-font-specification:'Trajan Pro Bold';fill:#ececec;stroke-width:2.486"
       id="path725" /><path
       d="m 80.87889,35.257877 h 0.02827 c 0.160289,0.141423 1.037123,1.112547 1.942248,1.979954 0.867413,0.839134 1.904537,1.829115 2.423097,2.309957 0.08487,0.08487 0.19799,0.169714 0.339424,0.169714 0.06601,0 0.131996,-0.07539 0.131996,-0.254569 l 0.09428,-5.053613 c 0.0094,-0.452558 0.07539,-0.593984 0.301708,-0.659983 0.103712,-0.02827 0.169711,-0.02827 0.254569,-0.02827 0.09428,0 0.141422,-0.0377 0.141422,-0.08486 0,-0.06599 -0.07539,-0.07543 -0.188562,-0.07543 -0.405424,0 -0.716557,0.01886 -0.810844,0.01886 -0.179137,0 -0.622274,-0.01886 -1.055977,-0.01886 -0.122578,0 -0.20743,0.0094 -0.20743,0.07543 0,0.04713 0.02827,0.08486 0.132008,0.08486 0.113134,0 0.311129,0 0.433699,0.04712 0.19799,0.07544 0.273424,0.216852 0.28285,0.707133 l 0.08488,3.563923 h -0.0377 c -0.122559,-0.113148 -1.225685,-1.244548 -1.791383,-1.80082 -1.206842,-1.178546 -2.451391,-2.451377 -2.555093,-2.555088 -0.141433,-0.141428 -0.254574,-0.263994 -0.358279,-0.263994 -0.08488,0 -0.141431,0.113143 -0.141431,0.273418 l -0.07539,4.75191 c -0.0094,0.697694 -0.03776,0.914546 -0.254572,0.971113 -0.113148,0.02827 -0.264001,0.03776 -0.377135,0.03776 -0.07539,0 -0.131996,0.03776 -0.131996,0.08487 0,0.07539 0.07539,0.08487 0.188563,0.08487 0.424282,0 0.820273,-0.02827 0.895701,-0.02827 0.150858,0 0.537416,0.02827 1.074832,0.02827 0.113144,0 0.188572,-0.01886 0.188572,-0.08487 0,-0.04712 -0.04713,-0.08487 -0.141427,-0.08487 -0.131996,0 -0.292286,-0.0094 -0.433708,-0.05661 -0.160282,-0.05661 -0.263993,-0.245145 -0.282854,-0.867422 z"
       style="font-weight:bold;font-size:10.6422px;line-height:1.25;font-family:'Trajan Pro';-inkscape-font-specification:'Trajan Pro Bold';fill:#ececec;stroke-width:2.486"
       id="path722" /><path
       d="m 88.383875,37.29441 c 0,0.735412 0,1.367115 -0.03776,1.70653 -0.02827,0.235713 -0.07539,0.38657 -0.245137,0.424276 -0.07539,0.01886 -0.169713,0.02827 -0.292274,0.02827 -0.103717,0 -0.131996,0.04713 -0.131996,0.08487 0,0.05655 0.05661,0.08488 0.160278,0.08488 0.169708,0 0.377133,-0.0094 0.575134,-0.01886 0.19799,0 0.37714,-0.0095 0.47142,-0.0095 0.24513,0 0.556271,0.0095 0.961691,0.01886 0.405426,0.01885 0.90512,0.02827 1.527396,0.02827 0.311136,0 0.386565,0 0.443132,-0.207419 0.04713,-0.160285 0.113146,-0.707133 0.113146,-0.886273 0,-0.08487 -0.0094,-0.188562 -0.07539,-0.188562 -0.05661,0 -0.07539,0.03776 -0.09428,0.12256 -0.05661,0.329997 -0.150862,0.49971 -0.358287,0.593989 -0.216852,0.09428 -0.565698,0.103717 -0.78255,0.103717 -0.848558,0 -1.103126,-0.122567 -1.121976,-0.669421 -0.0094,-0.235701 0,-0.914545 0,-1.187972 v -0.641133 c 0,-0.04713 0.0094,-0.08487 0.04713,-0.08487 0.207424,0 1.150261,0.01886 1.301112,0.03776 0.311142,0.02827 0.414853,0.150858 0.46199,0.311141 0.01886,0.103712 0.01886,0.20742 0.02827,0.292275 0,0.03776 0.01885,0.06601 0.07539,0.06601 0.07539,0 0.08487,-0.113149 0.08487,-0.17914 0,-0.05661 0.01886,-0.377135 0.03776,-0.537422 0.04713,-0.405423 0.06601,-0.537419 0.06601,-0.584559 0,-0.04713 -0.02827,-0.08486 -0.06601,-0.08486 -0.03776,0 -0.06601,0.04713 -0.132002,0.103717 -0.07539,0.08485 -0.19799,0.103707 -0.395991,0.122564 -0.188563,0.01885 -1.263398,0.01885 -1.451973,0.01885 -0.04713,0 -0.05655,-0.0377 -0.05655,-0.08486 v -1.97996 c 0,-0.04713 0.01886,-0.07543 0.05655,-0.07543 0.169713,0 1.159688,0.01885 1.301116,0.0377 0.414846,0.0377 0.480854,0.150852 0.546848,0.29228 0.04712,0.09428 0.05661,0.235707 0.05661,0.29228 0,0.066 0.0094,0.103708 0.06601,0.103708 0.066,0 0.08487,-0.09429 0.09428,-0.131996 0.01886,-0.09428 0.03776,-0.443132 0.04713,-0.527987 0.01886,-0.367708 0.066,-0.461993 0.066,-0.51856 0,-0.0377 -0.0094,-0.07543 -0.05661,-0.07543 -0.03776,0 -0.08488,0.02827 -0.131999,0.0377 -0.066,0.0094 -0.197998,0.0377 -0.348854,0.04713 -0.16028,0.0094 -1.998818,0 -2.262812,0 -0.235713,0 -0.763697,-0.01886 -1.197405,-0.01886 -0.122567,0 -0.188569,0.01886 -0.188569,0.07543 0,0.05655 0.05661,0.08486 0.141431,0.08486 0.122567,0 0.263995,0.0094 0.329986,0.02827 0.264006,0.07543 0.339424,0.160282 0.358285,0.433705 0.0094,0.254569 0.0094,0.480853 0.0094,1.697113 z"
       style="font-weight:bold;font-size:10.6422px;line-height:1.25;font-family:'Trajan Pro';-inkscape-font-specification:'Trajan Pro Bold';fill:#ececec;stroke-width:2.486"
       id="path719" /><path
       d="m 96.794,39.726928 c 0.537417,0 1.169115,-0.04713 1.499114,-0.17914 0.141427,-0.05661 0.179145,-0.09428 0.216854,-0.235706 0.08487,-0.27343 0.179136,-0.971125 0.179136,-1.065409 0,-0.066 -0.03776,-0.141422 -0.09428,-0.141422 -0.06602,0 -0.08487,0.03776 -0.103718,0.160278 -0.02826,0.150857 -0.141427,0.377132 -0.282845,0.537422 -0.32999,0.367697 -0.735425,0.424275 -1.470833,0.424275 -1.112551,0 -2.583374,-0.905124 -2.583374,-2.809661 0,-0.782553 0.150846,-1.555681 0.763697,-2.083668 0.377144,-0.320568 0.839125,-0.452564 1.565114,-0.452564 0.76369,0 1.31997,0.197995 1.602824,0.471419 0.207426,0.207425 0.311135,0.490275 0.320563,0.744841 0,0.103711 0.01884,0.169711 0.08488,0.169711 0.07543,0 0.103717,-0.08486 0.113144,-0.197996 0.0093,-0.160283 0.0093,-0.603415 0.02826,-0.867407 0.01884,-0.282857 0.03776,-0.377141 0.03776,-0.443141 0,-0.04712 -0.02826,-0.08485 -0.122564,-0.09428 -0.245127,-0.02827 -0.518562,-0.08486 -0.829698,-0.132002 -0.377135,-0.04712 -0.688271,-0.08485 -1.206825,-0.08485 -1.235124,0 -2.02711,0.320565 -2.63052,0.848552 -0.791984,0.707129 -0.971124,1.649968 -0.971124,2.196814 0,0.773132 0.216852,1.678251 1.037118,2.366525 0.75428,0.631703 1.715965,0.867409 2.84738,0.867409 z"
       style="font-weight:bold;font-size:10.6422px;line-height:1.25;font-family:'Trajan Pro';-inkscape-font-specification:'Trajan Pro Bold';fill:#ececec;stroke-width:2.486"
       id="path716" /><path
       d="m 101.51762,37.29441 c 0,0.735412 0,1.367115 -0.0378,1.70653 -0.0283,0.235713 -0.0754,0.38657 -0.24515,0.424276 -0.066,0.01886 -0.16971,0.02827 -0.29228,0.02827 -0.10371,0 -0.132,0.04713 -0.132,0.08487 0,0.05655 0.0566,0.08488 0.16029,0.08488 0.32998,0 0.8957,-0.02827 1.08426,-0.02827 0.23571,0 0.79198,0.02827 1.33883,0.02827 0.0943,0 0.16028,-0.02827 0.16028,-0.08488 0,-0.03776 -0.0378,-0.08487 -0.132,-0.08487 -0.12256,0 -0.31113,-0.0094 -0.42427,-0.02827 -0.24514,-0.03776 -0.29228,-0.188563 -0.32057,-0.414838 -0.0378,-0.348853 -0.0471,-0.980556 -0.0471,-1.715968 v -3.24337 l 1.04656,0.01886 c 0.74484,0.0094 0.96169,0.254568 0.98055,0.461987 l 0.009,0.08486 c 0.009,0.122567 0.0282,0.160278 0.0943,0.160278 0.0471,0 0.066,-0.04713 0.0754,-0.131995 0,-0.207423 0.0188,-0.801411 0.0188,-0.971119 0,-0.122573 -0.009,-0.169716 -0.066,-0.169716 -0.0283,0 -0.0943,0.01886 -0.2263,0.0377 -0.12256,0.01885 -0.3017,0.0377 -0.56569,0.0377 h -3.36593 c -0.27344,0 -0.58456,-0.0094 -0.829708,-0.0377 -0.207418,-0.02827 -0.292273,-0.09429 -0.358272,-0.09429 -0.04709,0 -0.07535,0.04713 -0.09428,0.150854 -0.01884,0.066 -0.179136,0.839126 -0.179136,0.971122 0,0.08485 0.01884,0.131998 0.07543,0.131998 0.0566,0 0.07535,-0.0377 0.09429,-0.10371 0.01884,-0.05655 0.0566,-0.160284 0.141418,-0.273424 0.122572,-0.17914 0.320563,-0.235713 0.801418,-0.245137 l 1.23512,-0.02827 z"
       style="font-weight:bold;font-size:10.6422px;line-height:1.25;font-family:'Trajan Pro';-inkscape-font-specification:'Trajan Pro Bold';fill:#ececec;stroke-width:2.486"
       id="path713" /><path
       d="m 106.38266,37.29441 c 0,0.773129 0,1.414256 -0.0378,1.744242 -0.0283,0.235718 -0.0754,0.348858 -0.24515,0.386564 -0.0754,0.01886 -0.1697,0.02827 -0.29228,0.02827 -0.1037,0 -0.132,0.04713 -0.132,0.08487 0,0.05655 0.0566,0.08488 0.16029,0.08488 0.32999,0 0.8957,-0.02827 1.08427,-0.02827 0.22628,0 0.79198,0.02827 1.33882,0.02827 0.0943,0 0.16029,-0.02827 0.16029,-0.08488 0,-0.03776 -0.0378,-0.08487 -0.132,-0.08487 -0.12257,0 -0.31113,-0.0094 -0.42428,-0.02827 -0.24514,-0.03776 -0.3017,-0.160278 -0.33,-0.377127 -0.0378,-0.339423 -0.0378,-0.98055 -0.0378,-1.753679 v -1.414261 c 0,-1.216261 0,-1.442544 0.0188,-1.697104 0.0188,-0.282856 0.0849,-0.395997 0.31113,-0.433708 0.0943,-0.01885 0.16029,-0.02827 0.24514,-0.02827 0.0849,0 0.132,-0.01885 0.132,-0.09428 0,-0.04713 -0.066,-0.06601 -0.16971,-0.06601 -0.32057,0 -0.85798,0.01886 -1.06541,0.01886 -0.2357,0 -0.80141,-0.01886 -1.11255,-0.01886 -0.132,0 -0.198,0.01886 -0.198,0.06601 0,0.07543 0.0471,0.09428 0.13201,0.09428 0.10371,0 0.20741,0.0094 0.3017,0.0377 0.17914,0.05655 0.264,0.150852 0.28286,0.424276 0.009,0.254568 0.009,0.480852 0.009,1.697112 z"
       style="font-weight:bold;font-size:10.6422px;line-height:1.25;font-family:'Trajan Pro';-inkscape-font-specification:'Trajan Pro Bold';fill:#ececec;stroke-width:2.486"
       id="path710" /><path
       d="m 112.61481,39.726928 c 2.14025,0 3.47908,-1.442538 3.47908,-3.281075 0,-1.838532 -1.30111,-2.998225 -3.39422,-2.998225 -2.51737,0 -3.47907,1.772537 -3.47907,3.139653 0,1.423679 0.98055,3.139647 3.39421,3.139647 z m 0.33943,-0.433708 c -1.56511,0 -2.50794,-1.30111 -2.50794,-2.951078 0,-1.979966 1.08426,-2.470239 2.00824,-2.470239 1.33883,0 2.40424,1.093694 2.40424,2.866235 0,2.281663 -1.31998,2.555082 -1.90454,2.555082 z"
       style="font-weight:bold;font-size:10.6422px;line-height:1.25;font-family:'Trajan Pro';-inkscape-font-specification:'Trajan Pro Bold';fill:#ececec;stroke-width:2.486"
       id="path707" /><path
       d="m 118.06442,35.257877 h 0.0282 c 0.16028,0.141423 1.03713,1.112547 1.94224,1.979954 0.86742,0.839134 1.90454,1.829115 2.42311,2.309957 0.0849,0.08487 0.19799,0.169714 0.33942,0.169714 0.066,0 0.13199,-0.07539 0.13199,-0.254569 l 0.0943,-5.053613 c 0.009,-0.452558 0.0754,-0.593984 0.30171,-0.659983 0.1037,-0.02827 0.16971,-0.02827 0.25457,-0.02827 0.0943,0 0.14142,-0.0377 0.14142,-0.08486 0,-0.06599 -0.0754,-0.07543 -0.18856,-0.07543 -0.40543,0 -0.71656,0.01886 -0.81084,0.01886 -0.17914,0 -0.62228,-0.01886 -1.05598,-0.01886 -0.12258,0 -0.20743,0.0094 -0.20743,0.07543 0,0.04713 0.0283,0.08486 0.13199,0.08486 0.11315,0 0.31115,0 0.43372,0.04712 0.19799,0.07544 0.27342,0.216852 0.28284,0.707133 l 0.0849,3.563923 h -0.0378 c -0.12257,-0.113148 -1.22569,-1.244548 -1.79139,-1.80082 -1.20684,-1.178546 -2.45139,-2.451377 -2.55509,-2.555088 -0.14143,-0.141428 -0.25456,-0.263994 -0.35829,-0.263994 -0.0849,0 -0.14142,0.113143 -0.14142,0.273418 l -0.0754,4.75191 c -0.009,0.697694 -0.0378,0.914546 -0.25456,0.971113 -0.11314,0.02827 -0.264,0.03776 -0.37713,0.03776 -0.0754,0 -0.132,0.03776 -0.132,0.08487 0,0.07539 0.0754,0.08487 0.18856,0.08487 0.42428,0 0.82027,-0.02827 0.89571,-0.02827 0.15084,0 0.53741,0.02827 1.07482,0.02827 0.11315,0 0.18858,-0.01886 0.18858,-0.08487 0,-0.04712 -0.0471,-0.08487 -0.14143,-0.08487 -0.13199,0 -0.29228,-0.0094 -0.43371,-0.05661 -0.16028,-0.05661 -0.26399,-0.245145 -0.28285,-0.867422 z"
       style="font-weight:bold;font-size:10.6422px;line-height:1.25;font-family:'Trajan Pro';-inkscape-font-specification:'Trajan Pro Bold';fill:#ececec;stroke-width:2.486"
       id="path704" /><path
       style="color:#000000;fill:#d9230f;fill-opacity:1;stroke-width:2.14406;stroke-linecap:round;stroke-linejoin:bevel;-inkscape-stroke:none"
       d="M 18.276269,10.25994 C 15.96856,10.207729 13.514154,10.64983 11.14612,11.601165 6.4100494,13.503844 2.0085906,17.540621 0.04948198,23.915148 a 1.1240771,1.1240771 0 0 0 0.74446093,1.404345 1.1240771,1.1240771 0 0 0 1.40435129,-0.74446 C 3.9598697,18.843238 7.8133266,15.362654 11.98468,13.68685 c 4.171353,-1.675813 8.649582,-1.450014 11.419435,0.145313 2.874776,1.655845 4.249017,4.131101 4.635909,6.565553 0.386817,2.434003 -0.305822,4.795447 -1.426985,6.006906 -1.203876,1.300155 -2.616286,1.700321 -3.906931,1.613992 -1.290645,-0.08633 -2.406677,-0.740742 -2.834907,-1.367422 -0.496534,-0.726691 -0.520363,-1.409503 -0.343047,-2.001117 0.07077,-0.236125 0.198329,-0.420711 0.323988,-0.594373 -0.106319,0.496277 0.0042,0.918257 0.253713,1.278084 0.27427,0.39555 0.775523,0.717967 1.343605,0.75995 h 0.0011 c 0.689036,0.05084 1.220916,-0.243073 1.63305,-0.694431 0.412132,-0.451364 0.672304,-1.15164 0.561024,-1.884384 -0.129356,-0.852539 -0.668504,-1.486379 -1.396011,-1.898671 -0.727508,-0.41229 -1.72611,-0.551741 -2.691971,-0.171529 -1.078548,0.424606 -1.830129,1.385198 -2.182165,2.559759 -0.352034,1.174563 -0.236243,2.632203 0.639642,3.914073 0.94427,1.381869 2.643937,2.216028 4.541807,2.342975 1.897869,0.126953 4.046023,-0.535155 5.70674,-2.328676 1.742962,-1.882413 2.479947,-4.852228 1.997536,-7.887712 -0.482347,-3.035493 -2.276642,-6.169033 -5.734076,-8.160488 -1.781231,-1.025918 -3.942189,-1.572536 -6.249897,-1.624712 z m 2.103548,13.277617 c 0.07933,-0.03124 0.109771,0.02051 0.177479,0.0083 a 1.1240771,1.1240771 0 0 0 -0.52529,0.279913 c 0.126843,-0.128728 0.258919,-0.253254 0.347811,-0.288252 z"
       id="path701" /><path
       style="color:#000000;fill:#ececec;stroke-width:0.281938;stroke-linecap:round;stroke-linejoin:round;-inkscape-stroke:none"
       d="m 133.27593,10.25655 c -0.41579,-0.0094 -0.85754,0.07045 -1.28375,0.241683 -0.85242,0.342453 -1.64496,1.069689 -1.99722,2.215871 a 0.22279266,0.22279266 0 0 0 0.14756,0.278334 0.22279266,0.22279266 0 0 0 0.27833,-0.147547 c 0.3131,-1.018791 0.99687,-1.63582 1.73736,-1.933305 0.74049,-0.297489 1.53557,-0.256125 2.02321,0.02474 0.50845,0.292858 0.75014,0.729074 0.8184,1.158604 0.0682,0.429529 -0.0551,0.845903 -0.24967,1.05601 -0.21086,0.227728 -0.45643,0.296672 -0.68134,0.281625 -0.22493,-0.01504 -0.41884,-0.130352 -0.49042,-0.235104 -0.0851,-0.124575 -0.0886,-0.239115 -0.0586,-0.339264 0.003,-0.0078 0.008,-0.01203 0.0106,-0.01942 0.007,0.05393 0.0237,0.103708 0.0542,0.147702 0.0524,0.07558 0.14848,0.137369 0.25656,0.145354 0.13207,0.0098 0.23199,-0.04619 0.30966,-0.131257 0.0776,-0.08507 0.12674,-0.217456 0.10588,-0.354928 -0.0244,-0.161212 -0.12509,-0.278604 -0.26032,-0.355239 -0.13523,-0.07664 -0.32149,-0.102177 -0.50028,-0.03179 -0.20113,0.07918 -0.33852,0.255925 -0.40317,0.471618 -0.0647,0.215694 -0.0428,0.484015 0.11747,0.718627 0.17386,0.254437 0.48331,0.405292 0.82859,0.428389 0.34527,0.0231 0.73658,-0.09802 1.038,-0.423533 0.31772,-0.343133 0.45011,-0.880137 0.36291,-1.428794 -0.0872,-0.548658 -0.41218,-1.115315 -1.03612,-1.474689 -0.32237,-0.185676 -0.71212,-0.284298 -1.12791,-0.293685 z"
       id="path1038" /><path
       id="path626"
       style="color:#000000;fill:#ececec;stroke-width:0.281936;stroke-linecap:round;stroke-linejoin:round"
       d="m 130.18819,14.563607 a 0.20313776,0.20314063 0 0 0 -0.10871,0.37468 l 2.26694,1.437379 -2.26694,1.437424 a 0.20313776,0.20314063 0 0 0 0.10871,0.374677 h 2.43465 0.20551 2.43465 a 0.20313776,0.20314063 0 0 0 0.10887,-0.374677 l -2.26707,-1.437424 2.26707,-1.437379 a 0.20313776,0.20314063 0 0 0 -0.10887,-0.37468 h -2.43465 -0.20551 z m 0.69953,0.406299 h 1.73512 0.20551 1.73515 l -1.83789,1.165354 z m 1.83789,1.646209 1.83789,1.165517 h -1.73515 -0.20551 -1.73512 z" /><path
       id="path651"
       style="color:#000000;fill:#ececec;stroke-width:0.282372;stroke-linecap:round;stroke-linejoin:round"
       d="m 135.27912,31.795543 a 0.20276972,0.20349999 0 0 0 -0.12392,0.03081 l -2.42947,1.539985 -2.42954,-1.539985 a 0.20276972,0.20349999 0 0 0 -0.20609,-0.0061 0.20276972,0.20349999 0 0 0 -0.10495,0.178215 v 1.543436 0.130275 1.543561 a 0.20276972,0.20349999 0 0 0 0.31104,0.171935 l 2.42954,-1.539983 2.42947,1.539983 a 0.20276972,0.20349999 0 0 0 0.31099,-0.171935 v -1.543564 -0.130272 -1.543439 a 0.20276972,0.20349999 0 0 0 -0.10474,-0.178215 0.20276972,0.20349999 0 0 0 -0.0823,-0.02469 z m -4.88851,0.57207 1.95548,1.239483 -1.95548,1.239482 v -1.174407 -0.130273 z m 4.67017,0 v 1.174285 0.130273 1.174407 l -1.95537,-1.239482 z" /><path
       style="color:#000000;fill:#ececec;stroke-width:0.273021;stroke-linecap:round;stroke-linejoin:round"
       d="m 130.86252,18.871453 c -0.0655,-5.7e-4 -0.13195,0.01439 -0.18969,0.04781 -0.11545,0.06682 -0.1949,0.176753 -0.26827,0.317959 -0.14672,0.28241 -0.27335,0.718652 -0.41449,1.389236 a 0.19750682,0.21376094 0 0 0 0.14871,0.255786 0.19750682,0.21376094 0 0 0 0.23634,-0.160952 c 0.13764,-0.653916 0.26775,-1.070358 0.37382,-1.274517 0.053,-0.102078 0.099,-0.144023 0.11022,-0.150536 0.0113,-0.0065 -0.0109,-0.0083 0.0127,0.0042 0.0472,0.02518 0.19364,0.198903 0.34335,0.467863 0.14971,0.268962 0.32112,0.625006 0.51933,1.009419 a 0.19750682,0.21376094 0 0 0 0.26871,0.08237 0.19750682,0.21376094 0 0 0 0.0763,-0.290817 c -0.19476,-0.377713 -0.36571,-0.733788 -0.52589,-1.02157 -0.16018,-0.287783 -0.29107,-0.515375 -0.50708,-0.630709 -0.054,-0.02883 -0.11851,-0.04501 -0.184,-0.0456 z"
       id="path636" /><path
       style="color:#000000;fill:#ececec;stroke-width:0.273021;stroke-linecap:round;stroke-linejoin:round"
       d="m 131.96008,20.467715 a 0.19752657,0.21378231 0 0 0 -0.22423,0.312438 c 0.46496,0.874396 0.90805,1.36383 1.34818,1.584428 0.44014,0.220597 0.86966,0.139826 1.20297,-0.07322 0.33332,-0.213045 0.58943,-0.542624 0.78192,-0.841998 0.19247,-0.299374 0.32519,-0.581658 0.37105,-0.668106 a 0.19750682,0.21376094 0 0 0 -0.0729,-0.291765 0.19750682,0.21376094 0 0 0 -0.26958,0.0789 c -0.0629,0.118533 -0.17804,0.365004 -0.35283,0.636864 -0.17479,0.271859 -0.4054,0.556155 -0.65857,0.717972 -0.25316,0.161814 -0.50987,0.217022 -0.83615,0.05349 -0.32402,-0.162403 -0.72438,-0.574695 -1.16288,-1.3946 a 0.19750682,0.21376094 0 0 0 -0.12261,-0.113141 z"
       id="path633" /><path
       id="path641"
       style="color:#000000;fill:#ececec;stroke-width:0.281938;stroke-linecap:round;stroke-linejoin:round"
       d="m 131.34581,23.183581 a 0.212184,0.212184 0 0 0 -0.21222,0.212062 v 1.821175 h -0.92288 a 0.212184,0.212184 0 0 0 -0.21222,0.212058 0.212184,0.212184 0 0 0 0.21222,0.212268 h 0.92238 l -0.003,0.945255 a 0.212184,0.212184 0 0 0 0.21161,0.21272 0.212184,0.212184 0 0 0 0.21268,-0.211767 l 0.003,-0.946208 h 0.95155 a 0.212184,0.212184 0 0 0 0.21206,-0.212268 0.212184,0.212184 0 0 0 -0.21206,-0.212058 h -0.95106 v -1.821175 a 0.212184,0.212184 0 0 0 -0.2121,-0.212062 z m 1.90245,2.033237 a 0.212184,0.212184 0 0 0 -0.21222,0.212058 0.212184,0.212184 0 0 0 0.21222,0.212268 h 1.99254 a 0.212184,0.212184 0 0 0 0.21206,-0.212268 0.212184,0.212184 0 0 0 -0.21206,-0.212058 z" /><path
       style="color:#000000;fill:#ececec;stroke-width:0.282637;stroke-linecap:round;stroke-linejoin:round"
       d="m 133.36641,27.487254 a 0.21250279,0.21296248 0 0 0 -0.18902,0.132983 l -1.11411,2.76813 -0.57548,-1.11621 a 0.21250279,0.21296248 0 0 0 -0.18885,-0.115223 h -1.10141 a 0.21248155,0.21294119 0 0 0 -0.21239,0.212994 0.21248155,0.21294119 0 0 0 0.21239,0.212836 h 0.972 l 0.72873,1.413303 a 0.21250279,0.21296248 0 0 0 0.38586,-0.01807 l 1.10988,-2.757125 0.60231,1.223101 a 0.21250279,0.21296248 0 0 0 0.18838,0.118837 l 1.0669,0.01052 a 0.21248155,0.21294119 0 0 0 0.21457,-0.210792 0.21248155,0.21294119 0 0 0 -0.21033,-0.215039 l -0.93625,-0.0093 -0.75461,-1.532453 a 0.21250279,0.21296248 0 0 0 -0.19857,-0.118522 z"
       id="path646" /><path
       id="path656"
       style="color:#000000;fill:#ececec;stroke-width:0.283252;stroke-linecap:round;stroke-linejoin:round;paint-order:stroke markers fill"
       d="m 135.14026,36.102814 a 0.21248164,0.21386615 0 0 0 -8.4e-4,7.9e-5 l -1.24658,8.49e-4 a 0.21248164,0.21386615 0 0 0 -0.2122,0.213907 0.21248164,0.21386615 0 0 0 0.21252,0.213785 l 0.0571,-4.3e-5 -1.28913,0.479069 c -0.1379,-0.175212 -0.35045,-0.288511 -0.58772,-0.288511 -0.41256,0 -0.75104,0.342168 -0.75104,0.757638 0,0.341454 0.22863,0.63325 0.53909,0.726391 l 0.002,0.468041 -1.66579,0.0033 a 0.21248164,0.21386615 0 0 0 -0.21206,0.214243 0.21248164,0.21386615 0 0 0 0.21285,0.213449 l 1.66632,-0.0032 0.002,0.411943 a 0.21248164,0.21386615 0 0 0 0.21315,0.213282 0.21248164,0.21386615 0 0 0 0.21177,-0.214534 l -0.002,-0.407891 1.68039,-0.0032 a 0.21248164,0.21386615 0 0 0 0.21202,-0.21424 0.21248164,0.21386615 0 0 0 -0.21281,-0.213575 l -1.68097,0.0033 -0.002,-0.471258 c 0.3099,-0.09348 0.53788,-0.384985 0.53788,-0.726056 0,-0.0244 -0.002,-0.04851 -0.003,-0.07235 l 2.21922,-0.824718 0.002,1.129938 a 0.21248164,0.21386615 0 0 0 0.21269,0.213574 0.21248164,0.21386615 0 0 0 0.21223,-0.214075 l -0.002,-1.395266 a 0.21248164,0.21386615 0 0 0 0,-4.3e-5 0.21248164,0.21386615 0 0 0 0,-4.3e-5 0.21248164,0.21386615 0 0 0 0,-4e-5 0.21248164,0.21386615 0 0 0 0,-4.2e-5 0.21248164,0.21386615 0 0 0 -0.008,-0.05518 0.21248164,0.21386615 0 0 0 0,-4.2e-5 0.21248164,0.21386615 0 0 0 -4e-5,-1.6e-4 0.21248164,0.21386615 0 0 0 -0.003,-0.007 0.21248164,0.21386615 0 0 0 -0.007,-0.01937 0.21248164,0.21386615 0 0 0 -0.0122,-0.02495 0.21248164,0.21386615 0 0 0 -8e-5,-1.59e-4 0.21248164,0.21386615 0 0 0 -0.0154,-0.0231 0.21248164,0.21386615 0 0 0 -8e-5,-1.59e-4 0.21248164,0.21386615 0 0 0 -0.0391,-0.03935 0.21248164,0.21386615 0 0 0 -1.6e-4,-8e-5 0.21248164,0.21386615 0 0 0 -0.023,-0.01542 0.21248164,0.21386615 0 0 0 -1.7e-4,-8e-5 0.21248164,0.21386615 0 0 0 -0.0511,-0.02125 0.21248164,0.21386615 0 0 0 -1.6e-4,-4.3e-5 0.21248164,0.21386615 0 0 0 -0.006,-0.0011 0.21248164,0.21386615 0 0 0 -0.0217,-0.0043 0.21248164,0.21386615 0 0 0 -0.0277,-0.0017 l -0.11089,8.2e-5 a 0.21248164,0.21386615 0 0 0 -8.5e-4,-8.2e-5 z m -3.06674,1.04686 c 0.13378,0 0.24676,0.07813 0.29738,0.192895 a 0.21248164,0.21386615 0 0 0 8.5e-4,0.0033 0.21248164,0.21386615 0 0 0 0.004,0.0093 c 0.015,0.03818 0.0233,0.08005 0.0233,0.124268 0,0.185042 -0.14379,0.329781 -0.32594,0.329781 -2.5e-4,0 -5.7e-4,0 -8.5e-4,0 -0.18178,-2.85e-4 -0.32515,-0.145006 -0.32515,-0.329781 0,-0.185045 0.14378,-0.329781 0.32595,-0.329781 z" /></g><g
     id="g1"
     inkscape:groupmode="layer"
     inkscape:label="1"
     transform="matrix(0.26458332,0,0,0.26458334,145.46666,0)"><g
       inkscape:groupmode="layer"
       id="layer2"
       inkscape:label="main"
       transform="matrix(3.7795277,0,0,3.7795275,-549.79528,0)" /></g></svg>
