<?xml version="1.0" encoding="UTF-8" standalone="no"?>
<!-- Created with Inkscape (http://www.inkscape.org/) -->

<svg
   width="128"
   height="128"
   viewBox="0 0 33.866665 33.866667"
   version="1.1"
   id="svg1"
   inkscape:version="1.4.4 (dcaf3e7d9e, 2026-05-05)"
   sodipodi:docname="attivipensionati.svg"
   xml:space="preserve"
   xmlns:inkscape="http://www.inkscape.org/namespaces/inkscape"
   xmlns:sodipodi="http://sodipodi.sourceforge.net/DTD/sodipodi-0.dtd"
   xmlns:xlink="http://www.w3.org/1999/xlink"
   xmlns="http://www.w3.org/2000/svg"
   xmlns:svg="http://www.w3.org/2000/svg"><sodipodi:namedview
     id="namedview1"
     pagecolor="#ffffff"
     bordercolor="#000000"
     borderopacity="0.25"
     inkscape:showpageshadow="false"
     inkscape:pageopacity="0.0"
     inkscape:pagecheckerboard="0"
     inkscape:deskcolor="#d1d1d1"
     inkscape:document-units="px"
     inkscape:zoom="3.2869417"
     inkscape:cx="167.02456"
     inkscape:cy="95.529531"
     inkscape:window-width="3394"
     inkscape:window-height="1404"
     inkscape:window-x="2606"
     inkscape:window-y="0"
     inkscape:window-maximized="1"
     inkscape:current-layer="layer1" /><defs
     id="defs1"><linearGradient
       id="linearGradient12"
       inkscape:collect="always"><stop
         style="stop-color:#28b62c;stop-opacity:1"
         offset="0"
         id="stop12" /><stop
         style="stop-color:#ff851b;stop-opacity:1"
         offset="1"
         id="stop13" /></linearGradient><linearGradient
       inkscape:collect="always"
       xlink:href="#linearGradient12"
       id="linearGradient13"
       x1="13.525632"
       y1="2.0242867"
       x2="38.285748"
       y2="2.0242867"
       gradientUnits="userSpaceOnUse" /><linearGradient
       inkscape:collect="always"
       xlink:href="#linearGradient12"
       id="linearGradient14"
       gradientUnits="userSpaceOnUse"
       x1="13.525632"
       y1="2.0242867"
       x2="38.285748"
       y2="2.0242867" /><linearGradient
       inkscape:collect="always"
       xlink:href="#linearGradient12"
       id="linearGradient15"
       gradientUnits="userSpaceOnUse"
       x1="13.525632"
       y1="2.0242867"
       x2="38.285748"
       y2="2.0242867" /><linearGradient
       inkscape:collect="always"
       xlink:href="#linearGradient12"
       id="linearGradient16"
       gradientUnits="userSpaceOnUse"
       x1="13.525632"
       y1="2.0242867"
       x2="38.285748"
       y2="2.0242867" /><linearGradient
       inkscape:collect="always"
       xlink:href="#linearGradient12"
       id="linearGradient17"
       gradientUnits="userSpaceOnUse"
       x1="13.525632"
       y1="2.0242867"
       x2="38.285748"
       y2="2.0242867" /><linearGradient
       inkscape:collect="always"
       xlink:href="#linearGradient12"
       id="linearGradient18"
       gradientUnits="userSpaceOnUse"
       x1="13.525632"
       y1="2.0242867"
       x2="38.285748"
       y2="2.0242867" /></defs><g
     inkscape:label="Layer 1"
     inkscape:groupmode="layer"
     id="layer1"><g
       id="g13"
       transform="matrix(0.63923766,0,0,0.63923766,-24.534702,6.1089089)"><path
         d="m 79.37049,7.408333 c 1.021953,0 1.852086,0.83013 1.852086,1.852083 0,1.021953 -0.830133,1.852083 -1.852086,1.852083 -1.021953,0 -1.85207,-0.83013 -1.85207,-1.852083 0,-1.021953 0.830117,-1.852083 1.85207,-1.852083 z m -2.910412,8.886693 -1.531267,2.06375 c -0.347268,0.469635 -1.012046,0.568855 -1.481679,0.218281 -0.469634,-0.350574 -0.568844,-1.01203 -0.218269,-1.481667 l 2.331628,-3.141926 c 0.833442,-1.121173 2.146441,-1.782631 3.545417,-1.782631 1.398994,0 2.711993,0.661458 3.545418,1.782631 l 2.331644,3.141926 c 0.347267,0.469637 0.251349,1.131093 -0.218285,1.481667 -0.469633,0.350574 -1.131087,0.251354 -1.481662,-0.218281 l -1.531284,-2.06375 V 25.4 c 0,0.585391 -0.472942,1.058333 -1.058326,1.058333 -0.585384,0 -1.058325,-0.472942 -1.058325,-1.058333 v -5.291667 c 0,-0.291041 -0.238133,-0.529166 -0.52918,-0.529166 -0.291029,0 -0.529162,0.238125 -0.529162,0.529166 V 25.4 c 0,0.585391 -0.472942,1.058333 -1.058326,1.058333 -0.5854,0 -1.058342,-0.472942 -1.058342,-1.058333 z m 8.202089,4.871641 c -0.145588,0 -0.264581,0.119058 -0.264581,0.264583 0,0.43987 -0.353883,0.79375 -0.793761,0.79375 -0.439861,0 -0.793744,-0.35388 -0.793744,-0.79375 0,-1.021953 0.830133,-1.852083 1.852086,-1.852083 1.021953,0 1.852087,0.83013 1.852087,1.852083 v 4.233333 c 0,0.43987 -0.353884,0.79375 -0.793761,0.79375 -0.439861,0 -0.793744,-0.35388 -0.793744,-0.79375 V 21.43125 c 0,-0.145523 -0.119059,-0.264583 -0.264582,-0.264583 z"
         id="path1"
         style="fill:#ff851b;fill-opacity:1;stroke-width:0.0330728" /><path
         d="m 50.731097,9.4287873 c 0,-1.1148573 0.905594,-2.0204541 2.020456,-2.0204541 1.114847,0 2.020441,0.9055968 2.020441,2.0204541 0,1.1148587 -0.905594,2.0204557 -2.020441,2.0204557 -1.114862,0 -2.020456,-0.905597 -2.020456,-2.0204557 z m -7.125716,5.0980397 c 0.21287,-0.429346 0.732414,-0.602529 1.161762,-0.386051 l 0.887556,0.443778 0.44017,-0.736023 c 0.681905,-1.136505 1.919433,-1.822016 3.232726,-1.822016 1.666875,0 3.164183,1.100426 3.626002,2.720398 l 1.161757,4.066165 3.351794,1.674091 0.930848,-1.551421 c 0.209253,-0.346363 0.584491,-0.559233 0.988579,-0.559233 0.404088,0 0.782923,0.21287 0.988578,0.559233 l 3.46363,5.772727 c 0.21288,0.357187 0.220089,0.800966 0.01445,1.161762 -0.205641,0.360794 -0.584475,0.588096 -0.999399,0.588096 h -6.927277 c -0.414909,0 -0.800968,-0.223693 -1.003012,-0.584489 -0.202044,-0.360796 -0.198432,-0.804573 0.01445,-1.161761 l 1.638007,-2.73483 -12.580934,-6.288664 c -0.429346,-0.21287 -0.602527,-0.732416 -0.38605,-1.161762 z m 3.023466,4.549631 4.040908,2.020454 c 0.389655,0.194829 0.638609,0.595312 0.638609,1.031875 v 3.175001 c 0,0.638608 -0.515938,1.154545 -1.154548,1.154545 -0.638609,0 -1.154548,-0.515937 -1.154548,-1.154545 V 22.843162 L 46.787597,21.73552 45.47791,25.668191 c -0.202045,0.606135 -0.855086,0.930852 -1.461223,0.728807 -0.606135,-0.202046 -0.930852,-0.855086 -0.728806,-1.457613 L 45.0197,19.74393 c 0.104627,-0.317501 0.342756,-0.573665 0.65304,-0.699944 0.310284,-0.126283 0.660254,-0.115448 0.959714,0.03248 z"
         id="path1-6"
         style="fill:#28b62c;fill-opacity:1;stroke-width:0.0360794" /><g
         id="path2"
         style="opacity:1;fill:url(#linearGradient13);fill-opacity:1"
         transform="matrix(0.32451178,0,0,0.32451178,58.859948,16.26723)"><path
           style="baseline-shift:baseline;display:inline;overflow:visible;vector-effect:none;fill:url(#linearGradient14);fill-opacity:1;stroke-linecap:round;stroke-linejoin:round;paint-order:stroke markers fill;enable-background:accumulate;stop-color:#000000;stop-opacity:1"
           d="m 19.601562,-0.19687497 c -0.365822,-3.5912e-4 -0.662468,1.88378787 -0.662109,2.24960937 -3.59e-4,0.3658215 0.296287,2.2499685 0.662109,2.2496094 h 12.420443 c 0.365822,3.591e-4 0.662468,-1.8837879 0.662109,-2.2496094 3.59e-4,-0.3658215 -0.296287,-2.24996849 -0.662109,-2.24960937 z"
           id="path11"
           sodipodi:nodetypes="ccccccc" /><g
           id="g5"
           style="fill:url(#linearGradient17);fill-opacity:1"><path
             d="M 19.796133,5.8545709 13.848809,2.8809088 c -0.682539,-0.3412697 -0.682539,-1.3152881 0,-1.6565578 l 5.947324,-2.9736621 c 0.761081,-0.3805408 1.656558,0.1728942 1.656558,1.02380907 V 4.8307618 c 0,0.8509148 -0.895477,1.4043499 -1.656558,1.0238091 z"
             style="baseline-shift:baseline;display:inline;overflow:visible;vector-effect:none;fill:url(#linearGradient15);fill-opacity:1;fill-rule:evenodd;enable-background:accumulate;stop-color:#000000;stop-opacity:1"
             id="path9"
             sodipodi:nodetypes="sssssss" /><path
             d="m 31.82652,-1.7493111 5.947324,2.9736621 c 0.68254,0.3412697 0.68254,1.3152881 0,1.6565578 L 31.82652,5.8545709 C 31.065439,6.2351116 30.169962,5.6816766 30.169962,4.8307618 v -5.55626383 c 0,-0.85091487 0.895477,-1.40434977 1.656558,-1.02380907 z"
             style="baseline-shift:baseline;display:inline;overflow:visible;vector-effect:none;fill:url(#linearGradient16);fill-opacity:1;fill-rule:evenodd;enable-background:accumulate;stop-color:#000000;stop-opacity:1"
             id="path10"
             sodipodi:nodetypes="sssssss" /></g><path
           style="baseline-shift:baseline;display:inline;overflow:visible;vector-effect:none;fill:url(#linearGradient18);fill-opacity:1;stroke-linecap:round;stroke-linejoin:round;paint-order:stroke markers fill;enable-background:accumulate;stop-color:#000000;stop-opacity:1"
           d="m 19.600603,2.0526299 h 6.600614"
           id="path12" /></g></g></g></svg>
