<?xml version="1.0" encoding="UTF-8" standalone="no"?>
<!-- Created with Inkscape (http://www.inkscape.org/) -->

<svg
   width="128"
   height="128"
   viewBox="0 0 33.866665 33.866667"
   version="1.1"
   id="svg1"
   inkscape:version="1.4.4 (dcaf3e7d9e, 2026-05-05)"
   sodipodi:docname="categorie.svg"
   xml:space="preserve"
   xmlns:inkscape="http://www.inkscape.org/namespaces/inkscape"
   xmlns:sodipodi="http://sodipodi.sourceforge.net/DTD/sodipodi-0.dtd"
   xmlns="http://www.w3.org/2000/svg"
   xmlns:svg="http://www.w3.org/2000/svg"><sodipodi:namedview
     id="namedview1"
     pagecolor="#ffffff"
     bordercolor="#000000"
     borderopacity="0.25"
     inkscape:showpageshadow="false"
     inkscape:pageopacity="0.0"
     inkscape:pagecheckerboard="0"
     inkscape:deskcolor="#d1d1d1"
     inkscape:document-units="px"
     inkscape:zoom="2.3242188"
     inkscape:cx="-97.236974"
     inkscape:cy="23.233613"
     inkscape:window-width="3394"
     inkscape:window-height="1404"
     inkscape:window-x="2606"
     inkscape:window-y="0"
     inkscape:window-maximized="1"
     inkscape:current-layer="layer1" /><defs
     id="defs1" /><g
     inkscape:label="Layer 1"
     inkscape:groupmode="layer"
     id="layer1"><g
       id="g11"
       transform="translate(65.261687,-1.4678176)"><path
         id="rect2"
         style="fill:#ff4136;fill-opacity:1;stroke-width:0.132292;stroke-linecap:round;stroke-linejoin:round;paint-order:stroke markers fill"
         d="m -44.003515,15.765962 v 9.13691 c 0,0.674666 -0.542831,1.218014 -1.217496,1.218014 h -5.543331 l 7.02386,1.882055 c 0.566338,0.15175 1.144295,-0.181936 1.296045,-0.748274 l 2.493905,-9.307442 c 0.151749,-0.566338 -0.181937,-1.144295 -0.748275,-1.296045 z" /><rect
         style="fill:#ff4136;fill-opacity:1;stroke-width:0.132292;stroke-linecap:round;stroke-linejoin:round;paint-order:stroke markers fill"
         id="rect5"
         width="11.752313"
         height="11.752313"
         x="-56.742779"
         y="13.482962"
         rx="1.0583333"
         ry="1.0583333" /><path
         style="font-size:4.87616px;font-family:'Futura XBlk BT';-inkscape-font-specification:'Futura XBlk BT';letter-spacing:0px;fill:#4d4d4d;stroke-width:0.126983;stroke-linecap:round;stroke-linejoin:round;paint-order:stroke markers fill"
         d="M -47.464266,12.331773 V 8.8460802 h 1.254754 v 2.3547468 h 1.21904 v 1.130946 z"
         id="path11" /><path
         style="font-size:4.87616px;font-family:'Futura XBlk BT';-inkscape-font-specification:'Futura XBlk BT';letter-spacing:0px;fill:#4d4d4d;stroke-width:0.126983;stroke-linecap:round;stroke-linejoin:round;paint-order:stroke markers fill"
         d="M -49.414254,12.331773 V 8.8460802 h 1.273802 v 3.4856928 z"
         id="path10" /><path
         style="font-size:4.87616px;font-family:'Futura XBlk BT';-inkscape-font-specification:'Futura XBlk BT';letter-spacing:0px;fill:#4d4d4d;stroke-width:0.126983;stroke-linecap:round;stroke-linejoin:round;paint-order:stroke markers fill"
         d="m -51.285671,11.084162 h -0.545234 v -0.819043 h 1.926178 q 0.0048,0.107142 0.0071,0.159523 0.0024,0.05238 0.0024,0.09286 0,0.299999 -0.05714,0.547616 -0.05714,0.247618 -0.166665,0.438093 -0.266665,0.447616 -0.688091,0.68571 -0.421426,0.235712 -0.957137,0.235712 -0.395236,0 -0.73571,-0.130951 -0.338093,-0.133333 -0.599996,-0.390474 -0.259522,-0.257141 -0.392855,-0.588092 -0.133332,-0.33095 -0.133332,-0.719043 0,-0.390473 0.133332,-0.7214238 0.135714,-0.3333312 0.392855,-0.5857106 0.259522,-0.2547603 0.599996,-0.3880928 0.340474,-0.1333325 0.73571,-0.1333325 0.535711,0 0.952375,0.2357128 0.416664,0.2333319 0.680948,0.68571 l -1.11666,0.4142829 q -0.08809,-0.145237 -0.211903,-0.2166651 -0.123809,-0.071428 -0.283332,-0.071428 -0.278569,0 -0.445235,0.2119031 -0.164285,0.211904 -0.164285,0.569044 0,0.369046 0.166666,0.573806 0.166665,0.20238 0.471425,0.20238 0.180952,0 0.292856,-0.07619 0.114285,-0.07619 0.135713,-0.211903 z"
         id="path9" /><path
         style="font-size:4.87616px;font-family:'Futura XBlk BT';-inkscape-font-specification:'Futura XBlk BT';letter-spacing:0px;fill:#4d4d4d;stroke-width:0.126983;stroke-linecap:round;stroke-linejoin:round;paint-order:stroke markers fill"
         d="m -54.057082,10.229405 q -0.171428,-0.164285 -0.349998,-0.2452366 -0.17857,-0.080952 -0.376188,-0.080952 -0.307141,0 -0.495235,0.1904746 -0.185713,0.188095 -0.185713,0.502378 0,0.307141 0.17857,0.490473 0.17857,0.183333 0.478569,0.183333 0.180951,0 0.366664,-0.07619 0.188094,-0.07857 0.409521,-0.247618 l -0.04048,1.311897 q -0.20476,0.08333 -0.409521,0.123808 -0.204761,0.04286 -0.409521,0.04286 -0.254761,0 -0.490473,-0.05714 -0.235713,-0.05714 -0.426188,-0.161904 -0.461902,-0.266665 -0.699996,-0.673805 -0.235713,-0.407141 -0.235713,-0.935709 0,-0.390473 0.133333,-0.7238048 0.135713,-0.3333313 0.392855,-0.5880916 0.259522,-0.2571412 0.599996,-0.3880928 0.342855,-0.1333325 0.740471,-0.1333325 0.211904,0 0.416664,0.045238 0.207142,0.042857 0.402379,0.1309516 z"
         id="text9" /></g></g></svg>
