<?xml version="1.0" encoding="UTF-8" standalone="no"?>
<!-- Created with Inkscape (http://www.inkscape.org/) -->

<svg
   width="128"
   height="128"
   viewBox="0 0 33.866665 33.866667"
   version="1.1"
   id="svg1"
   inkscape:version="1.4.4 (dcaf3e7d9e, 2026-05-05)"
   sodipodi:docname="comprensori.svg"
   xml:space="preserve"
   xmlns:inkscape="http://www.inkscape.org/namespaces/inkscape"
   xmlns:sodipodi="http://sodipodi.sourceforge.net/DTD/sodipodi-0.dtd"
   xmlns="http://www.w3.org/2000/svg"
   xmlns:svg="http://www.w3.org/2000/svg"><sodipodi:namedview
     id="namedview1"
     pagecolor="#ffffff"
     bordercolor="#000000"
     borderopacity="0.25"
     inkscape:showpageshadow="false"
     inkscape:pageopacity="0.0"
     inkscape:pagecheckerboard="0"
     inkscape:deskcolor="#d1d1d1"
     inkscape:document-units="px"
     inkscape:zoom="6.5738834"
     inkscape:cx="45.939361"
     inkscape:cy="81.53476"
     inkscape:window-width="3394"
     inkscape:window-height="1404"
     inkscape:window-x="2606"
     inkscape:window-y="0"
     inkscape:window-maximized="1"
     inkscape:current-layer="layer1" /><defs
     id="defs1" /><g
     inkscape:label="Layer 1"
     inkscape:groupmode="layer"
     id="layer1"><path
       d="m 8.890345,12.02993 -0.008,-0.04557 -0.00633,-0.057 -0.00677,-0.06023 -0.024057,-0.02235 -3.293e-4,-2.71e-4 -0.029514,-0.01573 -0.066717,-0.03505 -0.1412031,-0.147577 -0.018003,-0.03063 -0.046047,0.0033 -0.017445,0.01076 -0.038716,0.02864 -0.022385,0.01912 -0.1163868,0.11093 -0.033857,0.06353 -0.00805,0.01649 -0.1112492,0.142277 -0.059189,0.02745 -0.010039,0.0027 -0.097865,-0.04596 -0.025093,-0.01259 0.017007,0.09185 0.00319,0.01633 1.938e-4,4.46e-4 0.00669,0.018 0.011194,0.01625 0.00972,0.01287 0.025491,0.04505 0.00594,0.02474 0.026568,0.17458 -0.1742625,0.152674 -0.00984,0.008 -0.00741,9.88e-4 -0.1078222,0.02725 -0.1609593,0.126623 -0.1334754,-0.0511 -0.018282,-0.0072 0.025014,0.03633 0.020035,0.113878 0.00358,0.03704 0.00279,0.03207 -0.02143,0.03533 -0.018202,0.0296 -0.086832,0.133355 -0.030312,0.0149 -0.1392911,0.03605 -0.015056,0.0011 -0.1257477,-0.01382 -0.093564,-0.0231 -0.025132,-0.01498 -0.010556,-0.0056 -0.012706,0.0027 -0.016091,0.0092 -0.00239,0.0013 -0.012029,0.009 -0.011393,0.01095 -0.048075,0.06771 -0.088744,0.0096 -0.00745,0.0032 -0.1510018,0.117224 0.015335,0.02027 0.015176,0.01999 0.013263,0.02231 0.0096,0.03075 0.00534,0.01812 -7.943e-4,0.01382 -0.087549,0.32116 -0.036963,0.02601 -0.050865,0.03346 -0.1857737,0.113719 -0.010477,0.006 -0.00581,0.0078 -0.086634,0.180477 -0.025093,0.07763 1.938e-4,2.71e-4 0.00777,0.02011 1.937e-4,2.32e-4 0.00805,0.01565 -0.012189,0.0431 0.037283,0.170279 0.00705,0.0057 0.00279,0.0024 0.00757,0.0059 0.00825,0.0025 0.025572,0.002 0.071537,0.12276 0.024934,0.06891 0.00721,0.01689 0.00577,0.01131 0.023501,0.03756 0.00817,0.0092 0.00733,-0.0033 0.0088,-0.01115 0.00605,-0.0074 0.031267,-0.0057 0.010196,-9.88e-4 0.00398,0.0019 0.00478,0.0024 0.036446,0.01916 0.00749,0.0045 0.0664,0.05106 0.040667,0.05174 0.025731,0.03752 0.042143,0.03824 0.030072,0.0052 0.01187,-0.0063 0.01199,-0.0065 0.011711,-0.0024 0.011471,0.0045 0.028201,0.01812 0.014061,0.01004 0.046364,0.06724 -7.942e-4,0.0013 0.055605,0.01701 0.014299,-0.0046 0.01661,-0.0078 0.068988,-0.03418 0.071896,-0.03589 0.019359,-0.01 0.1618737,-0.002 0.053534,0.06369 0.027164,0.04147 -7.943e-4,0.02354 -0.00438,0.02705 -0.00737,0.01271 -0.00609,0.0057 -0.00968,0.0065 -0.012865,0.0041 -0.010794,2.71e-4 -0.00812,0.0069 -0.018402,0.02677 -0.034733,0.08424 0.00474,0.0051 0.018282,0.0184 0.026647,0.02585 0.017526,0.0149 0.013344,0.0068 0.013262,0.0045 0.1503238,-0.02362 0.1046374,-0.01649 0.012786,-0.0013 0.017805,-0.0015 0.012985,-6.39e-4 0.014896,5.62e-4 0.1462614,0.01828 0.066758,0.01163 -0.025892,0.02473 -0.027005,0.122602 -0.00319,0.01474 0.0012,0.01693 0.0012,0.01099 0.074445,0.261732 0.033935,0.07353 0.085559,0.137458 0.1085409,0.08894 0.011112,0.0045 0.060305,0.01303 0.1092964,0.05142 0.1754172,0.08775 0.034057,0.04517 0.023699,0.03238 4.068e-4,0.0056 -7.943e-4,0.01414 -0.00526,0.01685 -0.00279,0.006 -0.00594,0.01203 -0.00566,0.02207 0.023821,0.123039 0.012786,0.02764 0.013541,0.01494 0.00757,0.0095 0.00279,0.01322 -4.068e-4,0.01267 -0.00502,0.01693 -0.00609,0.01924 -0.012745,0.03764 0.00239,0.05549 -0.01179,0.0049 -0.015773,0.0067 -0.012865,0.01 -0.00398,0.0052 -1.938e-4,1.94e-4 -0.00526,0.008 -0.00359,0.0057 -0.017883,0.04182 -0.00239,0.01864 0.00697,0.01143 0.010078,0.0102 0.00936,0.007 0.00709,0.01705 -7.943e-4,0.0047 -7.943e-4,0.0064 -0.00279,0.0061 -0.033857,0.06951 -0.00239,0.0043 -0.018642,0.02625 -0.014977,0.01486 -0.053653,0.163788 -0.00319,0.0087 -0.014099,0.01868 -0.147815,0.132321 -0.019239,0.01199 -0.082171,0.04612 -0.1364219,0.07218 -0.090817,0.04684 -0.067992,0.03378 -0.0094,4.07e-4 -0.038517,-0.0059 -0.00992,-0.0024 -0.014099,-0.0033 -0.1294518,0.152037 -0.014181,0.03863 -0.01637,0.05238 -0.020396,0.05381 -0.023898,0.04394 -0.021748,0.03147 -0.046444,0.06226 -0.015295,0.01868 -0.026926,0.0065 -0.055285,-9.1e-4 -0.044811,0.13933 -0.017486,0.116228 2.325e-4,0.02541 -0.00319,0.01219 -0.00856,0.0043 -0.016769,0.0059 -0.019318,0.005 -0.037162,0.0082 0.017645,0.02557 0.02378,0.02995 0.00876,0.0093 0.043216,0.04521 0.0043,0.004 0.00701,0.0038 0.0049,0.0025 0.013462,0.0087 0.00952,0.0065 0.00713,0.0091 0.012745,0.01745 0.054888,0.07723 1.937e-4,3.1e-4 0.00482,0.0076 0.00621,0.01255 0.015095,0.07895 v 0.009 l -0.00414,0.01084 -0.00319,0.0069 -0.012269,0.01737 0.039394,0.122044 0.0012,0.02254 0.00948,0.0707 0.067434,0.127421 0.060146,0.08962 0.00358,0.04366 -0.00605,0.100535 -0.027125,0.15339 -0.031585,0.316938 -0.017844,0.09273 1.938e-4,0.002 2.712e-4,0.0015 0.045489,0.148969 0.0012,0.0034 4.068e-4,0.0012 1.938e-4,2.33e-4 0.00398,0.006 0.024894,0.0094 0.06162,0.01884 0.010355,0.0017 0.0088,0.0012 0.010237,3.69e-4 0.028083,-0.0039 0.016928,-0.0033 0.050706,-0.01824 0.00689,-0.0038 0.1491285,-0.0081 0.00992,0.0039 0.019438,0.01828 1.937e-4,0.0384 0.0084,0.02294 0.00398,0.0067 0.08719,0.138614 0.1455833,0.101609 0.010118,0.0064 0.057397,0.02661 0.049629,0.02298 0.029078,0.0046 0.0098,-0.0027 0.010116,-0.0037 0.069028,-0.0016 0.1001758,0.0061 0.015653,0.0023 0.010157,0.0035 0.00406,0.0021 0.00653,0.0034 0.020632,0.01095 0.019797,0.01151 0.00741,0.0044 0.010994,0.01227 0.011432,0.01494 0.013383,0.0327 7.943e-4,0.0028 v 0.0071 l -0.015576,0.02621 -0.00984,0.01597 -0.00621,0.0078 0.0012,0.0093 1.937e-4,8.33e-4 0.062335,0.122481 0.041227,0.05827 0.00832,0.0089 0.024615,0.02493 0.00888,0.0042 0.090617,0.0143 -0.010477,0.0099 -0.051899,0.04342 -0.00697,0.0041 -0.069426,0.02796 h -0.00239 l -0.018282,-0.0043 -0.021112,-0.0034 -0.029873,0.006 -0.00709,0.0099 0.1259879,0.139332 0.093403,0.06508 0.052897,0.02593 0.022226,0.0098 0.04445,0.04394 0.054251,0.190433 0.010516,0.04648 -0.00358,0.0044 -0.00414,0.0043 -0.014657,-0.0018 -0.00199,-2.32e-4 -0.017645,7.17e-4 -0.015097,0.0063 -0.00629,0.0066 -2.325e-4,2.71e-4 -0.037321,0.057 0.0041,0.01251 0.016571,0.0096 0.2486669,0.04254 0.037721,0.08313 0.088066,0.160202 0.00159,0.01936 -0.00319,0.02095 -0.00745,0.02135 -0.052019,0.06345 -0.00785,0.0061 -0.012747,0.0038 -0.02123,0.0027 -0.018999,-0.0025 0.031626,0.05975 0.023819,0.118696 3.681e-4,0.0015 0.070065,0.06234 0.011391,0.0041 0.017964,-0.0031 0.00498,-0.0019 0.00832,-0.0065 0.037083,-0.06429 0.0012,-0.0054 -0.00594,-0.0072 -0.00546,-0.0055 -0.00565,-0.0069 0.00199,-0.0076 0.00498,-0.0025 0.010037,0.0017 1.937e-4,1.94e-4 0.011949,0.0078 0.00864,0.0087 0.00721,0.0083 0.0041,0.008 0.00586,0.01797 0.00848,0.0284 7.943e-4,0.0058 0.054848,0.04804 0.0709,-0.02493 0.016132,-0.0048 0.012069,0.0045 0.012666,0.01171 0.010756,0.01585 0.00462,0.01498 0.00319,0.01267 0.024497,0.05616 0.043416,0.0756 0.00546,0.0036 0.017368,0.0018 0.053056,-0.0013 0.00753,-0.0018 0.00482,-0.0029 0.00928,-0.006 0.00522,-0.0048 0.00358,-0.004 0.0012,-0.01159 -0.0041,-0.01024 -0.010994,-0.01442 -0.015494,-0.0131 -0.012786,-0.0096 -0.00358,-0.0075 0.00319,-0.004 0.00538,-0.0037 0.048356,-0.03115 0.00534,-0.0021 0.00482,-2.71e-4 0.00319,0.0011 -0.021668,-0.0709 -0.00478,-0.01649 -0.013981,-0.06823 0.00916,-0.0098 0.05664,-0.05712 0.086155,-0.06493 0.009,0.01494 0.0048,0.01115 0.01223,0.0245 0.01,0.01502 0.04266,0.04772 0.0079,0.0075 0.0069,0.0056 0.04382,0.03015 0.0139,0.0055 0.05648,0.02231 0.02386,-0.0043 0.0096,-0.0079 0.0043,-0.0037 0.09512,0.05289 0.12519,0.102925 0.07843,-0.0088 0.0052,0.0017 0.006,0.0057 0.0032,0.0029 0.0036,0.0036 0.02087,0.04154 3.68e-4,0.0054 -0.01988,0.05059 -0.01334,0.02733 0.0989,0.05883 0.0028,0.01028 -0.0032,0.03728 -0.03266,0.03971 -0.01709,0.01701 0.09516,0.112642 0.01275,0.0094 0.01255,0.01414 0.0178,0.02083 0.01498,0.02083 0.0016,0.01 -7.94e-4,0.0095 -0.0012,0.0032 0.09922,0.0276 0.0085,0.0017 0.01151,-0.0011 0.04338,-0.01864 0.0084,-0.0044 0.0143,-0.0104 0.0044,-0.0035 0.04764,-0.04055 0.17016,-0.162114 0.04071,-0.03716 0.05202,-0.07827 0.114277,-0.118178 0.0068,-0.0037 0.0054,-0.0031 0.05636,-0.05477 0.03322,-0.03812 7.94e-4,-8.72e-4 0.04091,-0.05182 0.0076,-0.01163 0.0059,-0.01171 0.0024,-0.0062 0.05672,-0.07465 0.07257,-0.08707 0.01498,-0.01215 0.02856,0.007 0.02956,0.03294 0.002,0.0056 -0.0032,0.0073 -0.0028,0.0038 0.03792,0.05361 0.0049,0.0069 0.0095,0.01072 0.01287,0.0135 0.02967,0.02852 0.01334,0.01263 0.0082,0.0063 0.002,0.0015 0.01231,-0.0083 0.04617,-0.03286 0.0097,-0.0073 0.0043,-0.0033 0.0068,-0.0072 0.01087,-0.01235 0.01689,-0.02131 0.01462,-0.02087 0.03931,-0.05074 0.03477,-0.04111 0.01199,-0.01231 0.0096,-0.0084 0.07233,-0.05401 0.01386,-0.0082 0.04497,-0.04413 -1.94e-4,-2.33e-4 -7.94e-4,-0.0011 -0.03549,-0.03995 0.0378,-0.04302 0.0082,-0.0093 0.07432,-0.04672 0.02888,-0.01191 0.03545,-0.01211 0.0098,0.0024 0.01741,0.0061 0.02167,0.01924 0.06823,0.06317 0.112801,0.05959 0.04354,-0.0026 0.05318,0.02589 2.33e-4,1.93e-4 0.0016,0.0012 -0.0032,0.04816 -0.05529,0.142596 -0.0064,0.0094 -0.0093,0.0071 -0.002,0.0047 -3.49e-4,0.0067 0.018,0.118777 0.02203,0.04593 0.0028,0.0034 0.0012,0.0014 0.06843,0.04601 0.02195,0.0026 0.01028,-0.0034 0.127739,-0.07078 v -0.0043 -0.0074 l 3.1e-4,-0.09719 0.07747,-0.09488 0.0057,0.0029 0.02876,0.004 0.02091,-0.0023 0.06815,-0.04983 0.05134,-0.05449 -0.0069,-0.04338 -0.0032,-0.02007 -1.93e-4,-9.11e-4 -0.0024,-0.0078 0.0016,-0.03752 0.239544,-0.04605 0.08703,-0.01334 0.152314,0.04342 0.05047,0.04712 0.01271,0.04501 -0.08835,0.174421 0.0231,0.01494 0.24592,0.160601 0.0024,0.01044 -0.01083,0.04537 0.02175,0.0104 0.0184,0.0037 h 0.0028 l 0.08902,-0.05373 0.150323,-0.05995 0.0531,0.02561 0.05827,-0.09205 0.01549,-0.02792 0.01147,0.01514 0.03047,0.05636 0.0072,0.02832 0.0044,0.02573 0.009,0.01793 0.03027,0.0562 0.01749,0.0315 0.0104,0.01852 0.166734,-0.05326 0.04366,-0.01474 0.0077,-0.0025 0.114157,-0.0178 -0.029,-0.106548 -0.008,-0.0048 -0.0068,-0.01207 -0.0012,-0.101888 0.0067,-0.144309 0.04581,-0.05736 0.04027,-0.02059 0.04903,0.0088 0.0079,0.0099 0.0097,0.01215 0.004,0.0051 0.01,0.01569 0.01223,0.01916 0.0024,0.0041 0.0012,0.0021 0.0186,0.03433 0.102607,0.09018 0.06819,0.03628 0.0051,0.01115 0.0325,-0.0011 0.01155,-0.0017 0.01478,-0.0035 0.0065,-0.0035 -0.03266,-0.317655 -0.0294,-0.131883 -0.06787,-0.25492 -0.06393,-0.05262 -0.07381,-0.05951 -0.09253,-0.07305 -0.0093,-0.0038 -0.03465,-0.0073 -0.01514,-0.0032 -0.0133,-0.0014 -0.02728,-0.0014 -0.140326,-0.09679 -0.02095,-0.02473 -0.0615,-0.03884 -0.03557,-0.02163 -0.07209,-0.09532 -0.05326,-0.07122 -0.0102,-0.01761 -0.05186,-0.118816 -0.02422,-0.06023 -0.06668,-0.319766 -0.02728,-0.150006 -0.0094,-0.05222 -0.04696,-0.334941 -4.06e-4,-0.03115 0.01661,-0.151758 0.0095,-0.08225 0.0072,-0.03246 0.03927,-0.152914 0.03796,-0.219511 -0.004,-0.06078 v -0.01462 l 0.0012,-0.0194 0.002,-0.02111 0.03091,-0.287662 0.01036,-0.100534 0.01649,-0.235444 -0.0069,-0.112405 -0.0012,-0.102844 0.0032,-0.08588 0.0064,-0.03907 -0.004,-0.131802 0.0043,-0.04867 0.0061,-0.04816 0.0061,-0.0237 0.01167,-0.02999 0.03784,-0.08644 0.08165,-0.208397 0.02888,-0.196448 0.04668,-0.310884 0.01318,-0.05768 0.01701,-0.06246 0.02143,-0.05497 0.01394,0.0032 0.02374,-0.07978 0.0079,-0.02868 0.0036,-0.01868 0.002,-0.01262 -0.0028,-0.03083 0.0012,-0.01769 0.0057,-0.01912 0.04322,-0.05178 0.05325,-0.09313 -0.01044,-0.04318 0.002,-0.0176 0.01179,-0.0321 0.02151,-0.02143 0.01434,-0.02103 0.06608,-0.263685 0.02139,-0.162391 -0.0036,-0.02227 -0.0016,-0.02047 -2.32e-4,-0.02139 0.0061,-0.01956 0.02095,-0.0484 0.01123,-0.02151 0.02191,-0.02605 0.0278,-0.02107 0.02322,-0.01553 -0.0386,-0.0664 -0.01669,-0.0245 -0.0331,-0.04425 -4.07e-4,-5.62e-4 -0.0194,-0.02047 -0.0016,1.94e-4 -0.01797,0.0013 -0.02717,6.01e-4 -0.0509,-0.0093 -0.0081,-0.0016 -0.0049,-0.002 -0.05226,-0.04409 -0.002,-0.0075 -0.01171,-0.04537 -0.0016,-0.0055 -0.01346,-0.008 -0.05286,-0.02223 -0.01717,-0.0039 0.162473,-0.08663 0.08297,-0.103562 0.04154,-0.0717 0.004,-0.0039 0.0063,-0.0065 0.0028,-0.0029 0.07257,-0.05266 0.04864,-0.02947 0.04318,-0.01916 0.01203,-0.0064 0.02541,-0.04593 -0.0084,-0.08978 -0.0064,-0.01741 -0.0047,-0.15845 0.01912,-0.01717 0.0093,-0.01549 0.02143,-0.03896 0.0028,-0.01079 -0.01804,-0.07154 -0.0041,-0.0099 -0.01466,-0.0321 -0.01167,-0.03191 0.03625,-0.08018 0.01713,-0.01167 0.03529,-0.01115 0.0519,-0.01968 0.02226,-0.0089 0.01486,-0.0077 0.0069,-0.0036 0.01494,-0.0098 0.01039,-0.0074 0.0145,-0.01275 -0.06724,-0.04226 -0.251813,-0.146102 -0.01709,-0.01199 -0.120173,-0.132001 -0.007,-0.02187 -0.0335,-0.131246 7.95e-4,-0.01211 0.0041,-0.01653 0.02645,-0.03903 0.0153,-0.0082 0.01183,-0.0012 0.01107,-0.0032 0.02816,-0.0098 0.0024,-0.0017 0.0072,-0.0056 0.114316,-0.111726 0.04525,-0.04684 0.02175,-0.03346 0.0078,-0.01442 -0.0036,-0.01649 -0.02494,-0.101051 7.94e-4,-0.07532 -0.07903,-0.02143 -0.02246,-0.01155 -0.02294,-0.01553 -0.01792,-0.01546 -0.01095,-0.01135 -0.0028,-0.0089 -0.0098,-0.07214 -0.02493,-0.0039 -0.01119,-6.78e-4 -0.122681,0.018 -0.06023,0.03023 -0.01087,0.01083 h -0.06285 -0.04971 l -0.01609,-0.01247 -0.01848,-0.01788 -0.02896,-0.03661 -0.0036,-0.0061 -0.01091,-0.02039 -0.01577,-0.02091 -0.0065,-0.0074 -0.0061,-0.0061 -0.04246,-0.03932 -0.05007,-0.0288 -0.08189,-0.03692 -0.0048,0.01454 -0.03422,0.07206 -0.04505,0.09078 -0.0091,0.01677 -0.01924,0.0243 -0.183066,0.07182 -0.02015,0.0023 -0.105395,0.0078 -0.01876,-0.0042 -0.08608,-0.03704 -0.0016,-0.0063 0.0024,-0.009 0.0024,-0.0071 0.01394,-0.02944 0.02131,-0.05318 0.02231,-0.06138 -0.002,-0.0031 -0.0095,-0.0039 -0.0085,0.0069 -0.01135,0.0062 -0.0092,2.33e-4 -0.01828,-0.0042 -0.115829,-0.03398 -0.07604,-0.03274 -0.01338,-0.0052 -0.0094,-0.0027 -0.06724,0.01072 -0.05334,0.0088 -0.0507,0.009 -0.06959,0.01334 -0.02199,0.0065 -0.05178,-0.0045 -0.01832,-0.005 -0.01143,-0.0145 -0.0036,-0.01776 -0.0024,-0.0184 -0.01131,-0.01709 -0.08966,-0.108459 -0.05963,-0.05664 -0.02824,-0.01012 -0.01637,-0.0047 -0.0227,-0.006 -0.05967,-0.01569 -0.0094,-0.0059 -0.03286,-0.01295 -0.01924,0.02258 -0.01482,0.01761 -0.01219,0.01303 -0.0056,0.0059 -0.03525,0.0063 -0.0619,0.0083 -0.116308,-0.01984 -0.156418,0.01948 -7.95e-4,0.0068 0.0096,0.02701 0.0098,0.01828 0.01844,0.027 -0.03402,0.09695 -0.158648,0.05828 -0.08811,0.02418 -0.09671,0.02262 -0.06042,0.0092 -0.01701,-0.0016 -0.169044,0.05302 -0.121168,0.08851 -0.0086,0.01378 -0.04612,0.03174 -0.131804,0.05425 -0.04214,0.01334 -0.0186,-0.0088 -0.17235,-0.229549 -0.0059,-0.01048 -0.0028,-0.01071 -0.0036,-0.01342 -4.07e-4,-0.01103 0.002,-0.03589 -0.01219,-0.0054 -0.02744,-0.01155 -0.158886,-0.06202 -0.206088,0.02438 -0.02645,0.0084 -0.0192,0.01091 -0.04278,0.06397 -0.0057,0.01319 -0.004,0.01542 -0.0043,0.01163 -0.0085,0.01203 -0.0077,0.0047 -0.07923,0.02772 -0.01724,0.0014 -0.01804,-0.0021 -0.102446,-0.0433 -0.01243,-0.0011 -0.06138,-0.06297 -0.01139,-0.01653 -0.0073,-0.02155 -0.002,-0.01131 -0.0074,-0.0063 -0.04115,-0.02577 -0.01434,-0.0053 -0.109857,0.02486 -0.04298,0.01553 -0.02203,0.0093 -0.0092,0.01247 -0.01625,0.0098 -0.01717,0.0042 -0.01808,-0.0045 -0.03852,-0.01319 -0.1457442,-0.0793 0.059468,-0.039 0.00821,-0.0045 0.039671,-0.037 0.024018,-0.02243 0.0024,-0.0077 -0.0012,-0.01107 -0.0052,-0.01075 -0.2495838,-0.202105 -0.00753,-3.09e-4 -0.034536,0.01143 -0.015054,0.0092 -0.00841,0.01067 -0.010157,0.0086 -0.00876,0.0049 -0.033937,0.0093 -0.1610368,-0.04374 -0.1081825,-0.03485 -0.028718,0.05692 -0.00753,0.01398 -0.012069,0.01565 -0.015576,0.0147 -0.013542,0.01215 -0.032145,0.01553 -0.084362,0.03549 -0.01402,-0.0072 -0.068391,-0.04389 -0.011432,-0.0083 -0.012707,-0.01187 -0.0012,-0.0013 -0.0709,-0.07668 -0.014617,-0.02509 -0.013344,-0.02701 -0.017327,-0.03792 -0.00876,-0.03637 -0.021868,-0.09289 -0.033617,-0.151718 z"
       id="path5"
       style="fill:#75caeb;fill-opacity:1;stroke:#75caeb;stroke-width:0.0149368;stroke-linejoin:round;stroke-miterlimit:4;stroke-dasharray:none;stroke-opacity:1" /><path
       d="m 23.694835,22.578476 -0.268344,-0.107186 -0.09432,-0.06592 -0.17251,0.122999 0.002,0.0043 0.0102,0.02035 0.0057,0.03637 -0.0064,0.0077 -0.0063,0.0071 -7.96e-4,7.17e-4 -0.01171,0.0039 -0.01394,0.0017 -0.0016,-4e-5 -0.04035,0.08066 0.01685,0.130209 0.0083,0.037 0.0036,0.0145 0.0053,0.02215 0.126385,0.0895 0.119773,0.05377 0.04381,0.01569 0.308056,0.03824 0.08325,0.02254 0.02569,0.03955 0.05899,0.0887 0.01454,0.02127 0.03194,0.03856 0.01593,0.01306 0.0058,0.0043 0.01044,0.0051 0.01,0.0053 0.02916,0.01685 0.01976,0.0137 0.07934,0.06273 0.05465,0.04561 0.01135,0.0102 0.0049,0.01442 0.0072,0.01004 0.0474,0.04318 0.01,0.0075 0.03656,0.02545 0.01342,0.0088 0.0016,7.97e-4 0.03915,0.02673 0.05875,0.04186 0.01522,0.01143 0.0028,0.0024 0.02143,0.02135 0.445514,0.450812 0.0042,0.0045 0.002,0.0024 0.0072,0.01131 0.006,0.01294 0.0063,0.01593 -0.0032,0.01904 -0.002,0.0085 -0.01434,0.01474 0.140445,0.08819 0.137498,0.07397 0.004,0.002 0.01585,0.01294 0.0076,0.0067 0.02987,0.02824 0.0045,0.0046 0.113002,0.113678 0.09922,0.117463 0.0067,0.01315 0.0376,0.137736 0.02956,0.102248 0.01828,0.0474 0.03111,0.07126 0.03167,-0.01159 0.02091,0.0419 0.0051,0.01131 0.03111,0.07644 -0.004,0.0095 -0.0036,0.0064 -0.0028,0.0032 -0.107465,0.09898 -0.0028,0.0024 -0.0074,0.0061 -0.0073,0.004 -0.008,3.98e-4 -0.0055,-0.002 -0.0024,-0.0012 -0.02748,-0.01757 4e-5,-0.02115 0.0024,-0.01386 0.0072,-0.0055 -0.02063,-0.0047 -0.0885,0.08596 -7.97e-4,0.0082 -0.002,0.05234 0.0178,0.09954 0.108103,-0.01645 0.01219,0.002 0.05314,0.02593 0.0042,0.007 -1.99e-4,0.01976 -0.01549,0.0061 -0.08898,0.03334 0.01597,0.03704 0.0196,0.01876 0.01103,-0.004 0.101969,-0.03844 0.02266,-0.09141 0.107943,3.98e-4 7.96e-4,0.0012 0.01633,0.03796 7.97e-4,0.002 0.01573,0.03935 -0.057,0.02454 -0.0292,0.07472 -3.98e-4,0.002 2.39e-4,0.006 0.04732,0.08492 -0.05055,0.148133 1.2e-4,2.39e-4 0.124752,-0.0055 0.04577,-0.01892 0.02027,-0.0071 0.244645,0.04238 0.06369,0.07915 0.0028,0.0043 -0.05971,-0.04832 -0.03326,0.0075 -0.0089,0.002 -0.01342,0.0036 -0.01231,0.0053 -0.0225,0.01868 -0.145225,0.128894 -0.0094,0.01091 -0.116427,-0.05274 -0.01263,-0.01589 -0.01717,-0.01243 -0.0054,-0.0032 -0.127819,-0.03609 -0.228513,-0.0472 -0.102765,-0.0028 -0.121047,0.0036 -0.16303,0.05628 -0.002,7.96e-4 -0.0024,0.0028 -0.002,0.0071 3.98e-4,0.01346 0.0097,0.08345 0.01099,0.0294 0.02979,0.05967 0.01514,2.79e-4 0.01617,-0.002 0.102964,-0.01283 0.105234,-0.02768 0.08584,-0.018 0.01896,0.01215 0.133913,0.0754 0.213894,0.118857 0.03613,0.01856 0.05234,0.02422 0.0151,0.0051 0.06469,0.01673 0.03832,0.0054 0.277824,0.02971 0.05106,-0.0042 0.09854,-0.0098 0.214093,-0.01346 0.06234,-0.01175 0.119176,-0.03087 0.0028,-0.0012 -0.0028,-0.01888 -0.0051,-0.02219 -0.0051,-0.02107 0.002,-0.0092 0.03131,-0.047 0.0093,-0.01171 0.01581,-0.01163 0.05987,-0.03776 0.01195,-0.0069 0.02095,-0.0051 0.02007,-0.0028 0.01669,-0.0032 0.01143,-0.0053 0.0059,-0.0072 0.02171,-0.06584 0.0098,-0.04461 0.0042,-0.03963 -3.99e-4,-0.04302 0.0036,-0.0237 0.0032,-0.0076 0.01406,-0.0049 0.01852,-0.0063 0.03943,-0.0096 0.04262,-0.0094 0.02493,-0.01306 0.373937,-0.239586 0.14885,-0.107863 0.01059,-0.04334 -0.04031,-0.03262 -0.15351,-0.116307 -0.01741,-0.01171 -0.02358,-0.0078 -0.02091,-0.0059 -0.01948,-0.0028 -0.02095,-0.0016 -0.07456,-0.04099 -0.02872,-0.01876 -0.129372,-0.08767 -0.118897,-0.0983 -0.119853,-0.103163 -0.03354,-0.02948 -0.01454,-0.01601 -0.0071,-0.01036 -0.01872,-0.02864 -0.0024,-0.004 -0.04549,-0.06974 -0.08169,-0.121725 -0.02294,-0.03151 -0.01573,-0.01426 -0.01888,-0.01502 -0.09113,-0.07026 -0.03824,-0.06114 -0.0145,-0.03633 -0.007,-0.01972 0.0016,-0.0072 0.0075,-0.0278 0.004,-0.01159 0.0059,-0.0091 0.01976,-0.01589 0.02027,-0.01617 0.0044,-0.0052 0.0012,-0.0081 -0.004,-0.02577 -0.01964,-0.119653 -0.0047,-0.0133 -0.08225,-0.116148 -0.0068,-0.0092 -0.01561,-0.01318 -0.01084,-0.008 -0.04366,-0.03171 -0.01796,-0.01283 -0.06038,-0.04254 -0.06389,-0.04473 -0.02609,-0.03457 -0.03656,-0.05074 -0.03569,-0.06333 -0.02613,-0.06855 -0.01322,-0.03593 -0.0084,-0.02868 -0.0076,-0.01996 -0.02119,-0.02948 -0.02629,-0.02358 -0.04397,-0.03011 -0.05059,-0.02999 -0.01255,-0.0075 -0.02107,-0.01059 -0.04226,-0.02051 -0.126584,-0.01195 -0.09133,-0.02637 -0.01522,-0.0075 -0.004,-0.002 -0.0065,-0.0061 -0.08181,-0.07994 -0.05314,0.0048 -0.124593,0.0043 -0.0078,-0.0029 -0.146341,-0.08544 -0.01211,-0.01422 -7.96e-4,-8.76e-4 -0.0036,-0.0051 0.02306,-0.0039 0.01123,-0.0013 0.0143,-0.0025 -0.03234,-0.0325 -0.06313,-0.05517 -0.02856,-0.01211 -0.07265,-0.0282 -0.01585,-0.0057 -0.115471,-0.06656 -0.04824,-0.03031 -0.06003,-0.04306 -0.02609,-0.0225 -0.02127,-0.01924 -0.03394,-0.03306 -0.0098,-0.01111 -0.01665,-0.01884 -0.03501,-0.03617 -0.02513,-0.02438 -0.03828,-0.03398 -0.02035,-0.018 -0.04585,-0.03111 -0.05505,-0.03629 -0.05819,0.02294 -0.05122,-0.07062 -0.02681,-0.05931 -0.009,-0.01167 -0.06994,-0.0065 -0.04899,-0.0045 -0.03254,-0.0015 -0.02187,0.0037 -0.02394,0.0068 -0.02908,0.0049 -0.166575,0.02095 -0.172948,0.01466 -0.05349,-0.01378 z"
       id="path6"
       style="fill:#ff4136;fill-opacity:1;stroke:#ff4136;stroke-width:0.0149368;stroke-linejoin:round;stroke-miterlimit:4;stroke-dasharray:none;stroke-opacity:1" /><path
       d="m 20.388799,23.856558 0.0101,-0.01642 h 0.01642 l 0.0025,0.02273 0.01137,0.01263 0.0101,0.0101 0.0013,0.0088 -0.01137,0.0088 -0.0038,-0.01894 -0.0038,-0.0051 -0.01137,0.0076 -0.01516,0.0025 c 0,0 -0.0025,-0.0076 -0.0076,-0.0101 -0.0051,-0.0025 -0.01137,-0.01137 -0.01137,-0.01137 z m -0.526354,0.587082 0.02322,-0.025 0.01607,0.0125 0.01607,0.04108 0.04286,0.01786 0.02858,-0.01429 0.0036,-0.02143 0.0071,0.02858 -0.0071,0.02322 -0.02679,0.0071 -0.02679,0.0089 -0.02143,-0.01965 c 0,0 -0.01429,-0.02322 -0.02143,-0.025 -0.0071,-0.0018 -0.02858,-0.0125 -0.02858,-0.0125 z M 19.007183,23.9096 h 0.01768 l 0.03031,0.0101 0.0051,0.02021 -0.02526,-0.0076 c 0,0 -0.0051,-0.01263 -0.01516,-0.01263 -0.0101,0 -0.01516,-0.0076 -0.01263,-0.0101 z m -0.191961,-0.0101 0.01768,-0.0051 0.01263,-0.01263 0.01263,-0.0051 0.01263,0.02778 0.01263,0.02021 0.02273,0.01768 h 0.01768 l 0.02021,-0.01515 0.02778,-0.0051 0.0051,0.0051 -0.02273,0.01768 -0.0101,0.0076 -0.02021,0.01768 -0.01516,-0.0025 -0.0101,-0.02273 -0.02778,-0.0101 -0.01768,-0.01263 -0.0101,-0.0101 h -0.02273 -0.01516 z m 0.335932,-0.318252 0.02021,-0.0101 h 0.02021 v 0.02778 l -0.0076,0.01263 -0.01516,0.0076 h -0.01516 l -0.0101,-0.02021 z m 0.712277,0.123765 -0.01516,-0.03031 0.02021,-0.0025 0.02526,0.01263 0.0101,0.02778 -0.02526,-0.0051 z m -1.177025,0.242477 v 0.02273 l 0.01263,0.02778 0.01768,0.02526 0.01263,0.02526 0.01515,0.02273 v 0.03031 l -0.0025,0.02778 0.05052,0.01263 0.123764,0.0051 0.04041,0.01516 0.04294,0.02778 0.04294,0.02021 0.07577,0.01516 0.0884,0.02273 0.04041,0.01263 0.04546,0.0101 -0.01263,-0.0101 -0.05557,-0.01515 -0.0884,-0.02778 -0.0682,-0.02526 -0.04294,-0.01263 -0.02778,-0.0101 -0.0051,-0.01263 h 0.03031 l 0.05304,0.01263 0.04547,0.0101 0.06315,0.01516 0.02526,0.01768 0.03031,-0.02021 c 0,0 0,-0.0101 -0.01263,-0.0101 -0.01263,0 -0.03284,-0.0025 -0.03284,-0.0025 l -0.0051,-0.02021 -0.02526,-0.01263 -0.03283,0.0101 -0.02526,-0.0051 -0.0025,-0.03536 c 0,0 0.02526,0.0025 0.03536,0.0051 0.0101,0.0025 0.03284,0.01516 0.04294,0.02021 0.0101,0.0051 0.03031,0.01263 0.04041,0.01768 0.0101,0.0051 0.02273,0.0101 0.03789,0.0101 0.01516,0 0.05304,-0.0051 0.05304,-0.0051 0,0 0.02273,-0.0025 0.03284,-0.0025 0.0101,0 0.03536,0.01263 0.03536,0.01263 l 0.01768,0.03031 0.02273,0.02021 0.02778,0.0076 0.03283,0.01768 0.04041,0.02021 0.04547,0.02778 0.05557,0.01768 c 0,0 0.03284,0.02526 0.04547,0.03031 0.01263,0.0051 0.03031,0.01516 0.04041,0.02273 0.0101,0.0076 0.03789,0.03284 0.03789,0.03284 0,0 0.02778,0.02778 0.03789,0.02778 0.0101,0 0.03031,0.0101 0.03031,0.0101 0,0 0.01516,0.01516 0.01516,0.0051 0,-0.0101 0.01515,-0.02778 0.0025,-0.02778 -0.01263,0 -0.02273,0 -0.02273,0 0,0 -0.01768,-0.0025 -0.02273,-0.01515 -0.0051,-0.01263 -0.02273,-0.03536 -0.02273,-0.03536 l -0.02273,-0.0025 -0.03283,-0.0076 -0.02273,-0.01768 c 0,0 0.0051,-0.02526 -0.0051,-0.02526 -0.0101,0 -0.02526,-0.02021 -0.02526,-0.02021 l -0.02273,-0.03031 -0.01263,-0.01263 -0.0025,-0.03789 -0.01263,-0.04799 c 0,0 0.0025,-0.01768 0.0025,-0.03031 0,-0.01263 0.02526,-0.0051 0.02526,-0.0051 l 0.0076,-0.04799 v -0.02021 l -0.03031,-0.0051 -0.04294,0.02273 -0.03789,0.0076 -0.03284,-0.01263 c 0,0 -0.03031,0.0025 -0.03031,-0.0076 0,-0.0101 -0.0025,-0.02021 -0.0025,-0.02021 h -0.02273 l -0.02526,0.0101 -0.01515,0.02526 0.02526,0.01516 0.01515,0.01516 -0.0025,0.0076 -0.03031,0.01516 h -0.01768 l -0.01768,-0.02021 -0.01516,-0.02021 -0.02021,-0.02778 -0.01263,-0.0025 -0.03031,-0.0101 -0.0076,0.01263 -0.03031,-0.01515 -0.01516,-0.01263 v -0.02273 l 0.02273,-0.0025 0.01768,-0.0076 0.03284,-0.01263 0.02273,-0.0101 0.0076,-0.0076 0.03031,0.01516 0.02021,0.0076 0.01263,-0.0076 -0.0076,-0.01768 -0.02273,-0.01263 0.0025,-0.02021 0.03283,-0.0101 0.02273,-0.0076 0.0682,-0.0051 h 0.04041 l 0.01768,0.02273 0.0101,0.04294 -0.0076,0.01263 -0.03536,0.0076 -0.01768,0.0076 -0.01263,0.02273 0.01263,0.01516 0.01768,0.0076 0.0076,0.01263 h 0.01768 l 0.0101,-0.0076 0.0101,-0.01768 -0.0101,-0.0076 v -0.02021 l 0.01516,0.0051 0.02526,-0.0076 0.01516,-0.01515 0.0101,-0.02021 0.04041,-0.01768 0.0051,-0.02526 0.02273,-0.03031 -0.0076,-0.01263 -0.06062,-0.01768 -0.02526,0.0051 -0.06062,-0.0025 -0.03031,0.0051 c 0,0 -0.02526,-0.01263 -0.03789,-0.02021 -0.01263,-0.0076 -0.02021,-0.01263 -0.02021,-0.01263 l -0.02778,0.01263 -0.03031,-0.0051 0.02021,-0.02778 c 0,0 0.0076,-0.01768 0.01768,-0.01768 0.0101,0 0.04294,-0.01768 0.04294,-0.01768 l 0.01263,-0.01768 0.01263,-0.02778 0.01515,-0.01263 0.01263,-0.0051 0.02021,-0.03789 0.01263,-0.0101 0.0101,-0.03536 -0.0025,-0.02273 -0.0101,-0.03284 -0.02273,-0.02526 -0.02778,0.02778 -0.0051,0.02778 -0.01263,0.01768 -0.01768,0.01263 0.0076,0.02021 -0.02273,0.01516 -0.02021,0.0051 0.0051,0.02021 -0.0025,0.03536 -0.0025,0.0101 -0.02021,-0.0101 -0.01768,-0.0101 -0.0051,0.01263 -0.01768,0.0101 -0.03536,-0.01263 -0.01263,-0.01263 -0.0101,-0.01768 -0.02021,-0.0101 -0.01768,0.0101 -0.0101,-0.01516 -0.01263,-0.01516 -0.01516,-0.0076 -0.01516,0.01515 -0.02778,0.0025 -0.01768,0.0076 -0.02526,0.0025 -0.0051,-0.02021 -0.0101,-0.01516 0.0101,-0.02526 -0.0025,-0.0101 -0.0101,-0.0076 -0.0101,-0.0051 -0.0101,0.01768 c 0,0 0.0076,0.02273 -0.0076,0.0101 -0.01516,-0.01263 -0.02021,-0.02526 -0.02021,-0.02526 l -0.01263,-0.0025 0.0025,0.01516 v 0.0076 l -0.0101,0.0051 -0.01516,0.0076 -0.0025,0.0101 H 19.045 l 0.0051,0.01516 v 0.03031 0.0101 l -0.03031,0.01516 -0.0101,-0.01516 0.0051,0.01516 0.0076,0.02021 0.0051,0.01768 0.0076,0.02273 0.0076,0.02526 0.03283,0.0076 0.02526,0.0051 0.01263,0.02021 0.01263,0.04041 v 0.02021 l 0.0101,0.02778 -0.03789,0.0101 -0.05809,0.02778 -0.03789,0.0101 -0.04799,0.0101 -0.03789,0.01263 -0.0076,0.0076 -0.01516,0.0051 -0.0101,-0.01768 -0.01768,0.0076 h -0.03031 l -0.02778,-0.01516 -0.02778,-0.02021 -0.02526,-0.02526 -0.01768,-0.0051 -0.0076,-0.03283 -0.01263,-0.0025 h -0.02273 l -0.0051,0.0101 z m 1.534426,0.392763 0.03789,-0.0038 h 0.02021 l 0.0063,0.0101 v 0.01516 c 0,0 -0.0088,0.02526 -0.0051,0.03031 0.0038,0.0051 0.0076,0.01137 0.0076,0.01642 0,0.0051 0,0.02021 0,0.02021 l -0.01642,0.01263 -0.0063,0.01516 v 0.01768 l -0.0076,0.01516 -0.01263,0.0051 c 0,0 -0.01137,-0.0101 -0.01642,-0.01263 -0.0051,-0.0025 -0.02399,-0.01768 -0.02399,-0.01768 l -0.01894,-0.01263 -0.03031,-0.02399 -0.02147,-0.01516 -0.0063,-0.0088 0.01515,-0.01389 0.02273,-0.0088 0.02147,-0.01137 0.01516,-0.01642 z m -0.0051,-0.0783 0.03283,-0.0101 0.01263,0.01768 -0.01642,0.01642 c 0,0 -0.024,0.01263 -0.024,0.0076 0,-0.0051 -0.0038,-0.03662 -0.0051,-0.03157 z m 0.435189,0.175439 0.01429,-0.0036 0.01072,0.0036 0.01072,8.93e-4 0.0045,0.0054 -0.0027,0.0098 -0.0071,0.0098 -0.0054,0.0036 -0.0036,0.01339 -0.0089,0.0027 -0.01607,8.93e-4 -0.008,0.0054 -8.93e-4,0.01072 c 0,0 -0.0045,8.93e-4 -0.0054,-0.0036 -8.93e-4,-0.0045 -8.93e-4,-0.0125 -8.93e-4,-0.0125 l -0.01429,0.0027 -0.01339,-0.0089 c 0,0 -0.0018,-0.0018 -0.0063,-0.0054 -0.0045,-0.0036 -0.01072,-0.01161 -0.01072,-0.01161 l -0.0098,-8.94e-4 -0.0134,-0.0098 -0.01161,-0.0027 c 0,0 -0.01072,-0.0036 -0.0125,-0.0071 -0.0018,-0.0036 -0.0036,-0.01072 -0.0036,-0.01072 l -8.93e-4,-0.01697 c 0,0 0,-0.0098 0,-0.01339 0,-0.0036 0.0018,-0.01875 0.0018,-0.01875 l 8.93e-4,-0.01161 0.0054,-0.0036 0.025,8.93e-4 0.0089,-0.0063 0.008,-0.0089 0.0063,-0.008 8.93e-4,-0.0134 -8.93e-4,-0.0098 -0.0036,-0.01429 0.0027,-0.01161 0.01161,-0.0071 0.008,-8.93e-4 0.0071,0.0098 0.0036,0.0098 -8.92e-4,0.0071 -0.0054,0.008 -0.0063,0.0063 v 0.008 0.008 l -0.0027,0.01161 c 0,0 0,0.0018 -0.0036,0 -0.0036,-0.0018 -0.008,-0.0045 -0.008,-0.0045 l -0.0036,0.0063 0.0036,0.0089 0.0054,0.0018 0.0018,0.0089 8.92e-4,0.01339 v 0.01607 l 8.94e-4,0.01607 0.0071,0.0054 0.01072,0.0063 0.0071,0.0098 h 0.0054 l 0.0036,-0.0036 0.0063,-0.0027 z m 0.04822,0.02233 0.008,-0.0134 0.01161,-0.0018 0.01518,0.01697 0.0063,0.0089 -0.0054,0.02322 c 0,0 -0.0098,0.0063 -0.01429,0.0089 -0.0045,0.0027 -0.01518,0.0098 -0.01518,0.0098 l -0.01786,0.0018 -0.01607,-0.008 -8.93e-4,-0.0063 c 0,0 0,-0.0036 0.0045,-0.0063 0.0045,-0.0027 0.0125,-0.0098 0.0125,-0.0098 l 0.0045,-0.01161 z m 8.92e-4,0.09019 0.008,-0.0125 c 0,0 0.01072,-0.0063 0.01429,-0.0089 0.0036,-0.0027 0.02143,-0.0125 0.02143,-0.0125 l 0.01161,-8.93e-4 0.0063,0.0071 c 0,0 0.01339,0.0045 0.01697,0.0045 0.0036,0 0.01429,-0.0018 0.01429,-0.0018 l 0.0125,0.0054 c 0,0 0.0018,-0.0063 0.0089,-0.0063 0.0071,0 0.0098,-0.0071 0.0098,-0.0071 l 0.01161,0.0036 0.01697,8.93e-4 0.01429,0.008 0.01161,0.01161 0.0063,0.01161 -0.01072,-0.0018 -0.0045,0.0054 -0.0089,0.0063 -0.0018,0.0063 -0.0027,0.01161 -0.0089,0.01161 -0.0089,0.0027 -0.0089,8.94e-4 -0.0071,0.0036 -0.0134,0.0063 -0.0036,0.0045 -0.01161,0.0045 -0.0054,0.0036 -0.0071,0.0036 -0.0036,8.94e-4 -0.0125,-0.0036 -0.0098,-0.0027 -0.0071,0.0027 -0.0125,0.0045 -0.0036,-0.0089 c 0,0 -8.94e-4,-0.0098 -0.0018,-0.0134 -8.93e-4,-0.0036 -8.93e-4,-0.01072 -8.93e-4,-0.01072 0,0 -0.0063,-0.01339 -0.0098,-0.01429 -0.0036,-8.93e-4 -0.0098,-0.01072 -0.0098,-0.01072 l -0.0054,-0.0071 z m -0.314338,-0.509907 0.01429,-0.0071 0.02143,-0.01607 0.01786,0.0036 h 0.025 l -0.01072,0.01786 -0.01607,0.02143 -0.0089,0.02143 0.03393,0.0018 0.01429,0.0054 -0.0036,0.03215 -0.0125,0.01429 -0.01965,-0.0071 -0.02143,-0.01072 0.0018,0.0071 0.0054,0.03215 -0.01072,0.01965 -0.02322,0.0036 -0.01786,0.02858 -0.04286,0.0054 -0.02143,0.0036 -0.01965,-0.0018 c 0,0 0.0018,-0.0071 -0.0018,-0.01786 -0.0036,-0.01072 -0.0089,-0.02679 -0.0089,-0.02679 0,0 0.0036,-0.01965 -0.0036,-0.02143 -0.0071,-0.0018 -0.01965,-0.0089 -0.01965,-0.0089 l -0.01607,-0.01607 c 0,0 0.0089,-0.0125 0.01607,-0.01072 0.0071,0.0018 0.03572,-0.0036 0.03572,-0.0036 l 0.025,-0.0089 0.01429,-0.01429 0.01072,-0.0125 -0.0018,-0.02143 0.0089,-0.0125 h 0.01965 z m -0.190173,-0.228908 0.03157,0.0101 0.01894,0.01768 0.01137,0.02905 -0.03157,0.02147 -0.01137,0.02526 c 0,0 -0.01642,0.01515 -0.02147,0.01263 -0.0051,-0.0025 -0.01894,-0.02652 -0.02399,-0.02905 -0.0051,-0.0025 -0.02147,-0.01642 -0.02147,-0.01642 l -0.01263,-0.02778 0.02652,0.0025 0.02021,-0.0025 0.01263,-0.02526 z m 0.636503,0.519685 0.0063,-0.0069 0.01137,-0.0082 0.0095,-0.0069 0.01389,-0.0057 0.01073,-0.0025 0.0101,-0.0032 0.0025,0.0051 -0.01263,0.0063 -0.0088,0.0038 -0.01389,0.0044 -0.0057,0.0044 -0.0069,0.0051 -0.0069,0.0032 -0.0063,0.0044 z m 0.123133,-0.109241 0.0076,-0.0025 0.0063,0.0019 0.0013,0.0082 -0.0044,0.0051 -0.0082,0.0076 -0.0082,0.01074 -0.0044,0.0051 -0.0051,0.0069 -0.0095,0.0088 -0.0063,0.0044 -0.0069,0.0076 -0.0069,0.0069 -0.0088,0.0013 -0.0032,-0.0057 0.0057,-0.0051 0.0063,-0.0044 0.0069,-0.0063 0.0063,-0.0057 0.0076,-0.0044 c 0,0 0.0038,-0.0038 0.0038,-0.0063 0,-0.0025 6.31e-4,-0.0101 6.31e-4,-0.0101 l 0.0032,-0.0101 0.0082,-0.0088 z m 0.05207,-0.117239 0.01786,0.0018 c 0,0 0.0063,-0.0018 0.0063,0.0027 0,0.0045 0,0.01339 0,0.01339 l 0.0054,0.0125 0.0036,0.0036 0.0018,0.0125 -0.01697,-0.0036 -0.01072,-0.0045 -0.0045,0.0045 -0.0018,0.0089 -0.0098,0.0036 -0.0054,-0.01072 v -0.01607 l 0.0063,-0.0054 0.01072,-0.0036 0.0063,-0.0071 -0.0063,-0.0054 -0.0098,0.0018 -8.92e-4,-0.0098 z m -0.01161,0.09198 0.01339,0.0089 0.0018,0.0098 -0.0089,0.0036 h -0.01339 l -0.01072,-0.0054 -0.0018,-0.0063 0.0089,-0.0054 z m 0.02232,0.02322 0.008,-0.0027 0.0098,0.0089 0.0063,0.01786 -0.0089,0.0098 -0.0125,0.0045 -0.008,-0.01518 -0.0089,-0.01072 -0.01161,-0.0036 0.0071,-8.94e-4 z m -0.180867,-0.3642 0.03284,-0.01642 0.02526,0.0051 0.0063,0.01768 c 0,0 -0.0013,0.01389 -0.0063,0.01642 -0.0051,0.0025 -0.02147,0.0101 -0.02147,0.01642 0,0.0063 -0.01516,0.0341 -0.01516,0.0341 0,0 -0.01516,0.0025 -0.02273,-0.0025 -0.0076,-0.0051 -0.01389,-0.0076 -0.01642,-0.01389 -0.0025,-0.0063 -0.0051,-0.02273 -0.0051,-0.02273 l 0.0051,-0.01515 0.0076,-0.0013 c 0,0 0,-0.0076 0,-0.01263 0,-0.0051 -0.0038,-0.01389 0.0013,-0.01137 0.0051,0.0025 0.01137,0.0088 0.0088,0.0063 z m -0.271414,0.91568 -0.01653,0.01129 -0.02652,-0.0025 -0.03789,-0.0063 -0.0076,-0.01642 -0.01263,-0.03662 c 0,0 -0.01642,-0.01516 -0.024,-0.01516 -0.0076,0 -0.03157,-0.0076 -0.03789,-0.01137 -0.0063,-0.0038 -0.02021,-0.0038 -0.02021,-0.0038 l -0.02905,-0.0051 -0.0038,-0.01389 0.01768,-0.02273 0.02021,-0.02778 0.01768,-0.0076 0.0063,0.01263 0.03789,0.0025 0.02778,-0.0013 0.02147,0.0025 0.03662,0.01137 0.02778,-0.0025 0.03284,-0.0013 0.01894,0.0076 c 0,0 0.01389,0.01389 0.01894,0.01642 0.0051,0.0025 0.02778,0.01516 0.0341,0.01894 0.0063,0.0038 0.0341,-0.0013 0.0341,-0.0013 l 0.03031,-0.01137 0.02526,-0.01389 0.02273,-0.02021 0.02021,-0.0101 0.02273,-0.01515 0.01768,0.0038 0.01894,0.0076 0.01704,-0.01318 0.025,-0.04644 0.01072,-0.03572 0.0071,-0.02501 -0.0071,-0.04644 h 0.01072 l 0.03572,0.0036 h 0.04286 l 0.04286,0.01072 h 0.03572 l 0.03572,-0.0036 0.01786,-0.025 v -0.02858 l -0.025,-0.01429 -0.02858,0.01786 h -0.01072 v -0.02858 l 0.01786,0.01429 0.02143,-0.0071 0.025,-0.0071 v -0.02858 l -0.01429,-0.0071 -0.01786,-0.0071 0.01072,-0.03572 0.01072,-0.02858 v -0.02143 l -0.01429,-0.04286 -0.025,-0.025 -0.02858,-0.01786 -0.01072,-0.03572 -0.01072,-0.05001 -0.04644,-0.01786 -0.0036,-0.03215 v -0.02858 l 0.0071,-0.05715 -0.02143,-0.03572 -0.03215,-0.01072 -0.02143,-0.03572 v -0.03929 l -0.01786,-0.01072 -0.05001,-0.01072 -0.03979,-0.0011 -0.0013,-0.01829 8e-5,-0.02155 -0.002,-0.01294 -0.0045,-0.01131 -0.0094,-0.0056 -0.01047,-0.0064 -0.0075,-0.01163 -0.0282,-0.0766 0.116347,-0.04955 0.01127,-0.0047 0.07405,-0.01032 0.06146,-0.01725 0.227198,-0.04218 0.119136,-0.01757 0.0065,2.79e-4 0.0062,3.19e-4 0.0088,-0.002 0.114117,-0.03505 0.01434,-0.0077 0.01207,-0.009 0.0028,-0.0087 0.0063,-0.03712 -0.01354,-0.0041 -0.01661,0.03031 -0.0092,0.0085 -0.04071,0.01681 -0.05023,0.0198 -0.01617,0.0036 -0.01693,3.99e-4 -0.01287,-0.0054 -0.0068,-0.01143 -0.0024,-0.0094 -5e-5,-0.0087 -0.002,-0.02414 -7.97e-4,-0.01 -0.0012,-0.01171 -0.0093,-0.0151 -0.01036,-0.0078 -0.01553,-0.0066 -0.178883,-0.07194 -0.02629,0.02099 -0.02382,0.01749 -0.02493,0.0153 -0.02298,0.0052 -0.01784,-0.0023 -0.01972,-0.0086 -0.01159,-0.0096 -0.004,-0.0055 -0.0066,-0.0092 -0.004,-0.01171 0.06309,-0.209473 0.06907,-0.116825 0.08161,-0.08675 0.06289,-0.08954 -0.04075,-0.08066 -0.05417,-0.07783 -0.0076,-0.01438 -0.01681,-0.04405 -0.0088,-0.0239 0.01681,-0.0063 0.02023,-0.0078 0.0041,-0.0018 -0.02916,-0.06433 -0.03139,-0.06493 -0.01418,-0.02517 -0.02569,-0.08066 -8e-5,-0.03748 -0.0012,-0.157573 -7.96e-4,-0.08472 -0.0012,-0.03182 -7.97e-4,-0.04079 3.98e-4,-0.01796 0.0063,-0.0027 0.02127,-0.0088 0.01044,-0.08006 -0.0028,-0.0014 -0.05098,-0.02155 h -0.01884 l -0.04031,2.79e-4 -0.02641,0.0013 -0.04867,-0.05086 1.99e-4,-0.02298 0.0043,-0.01553 0.0076,-0.01056 0.007,-0.0094 0.0048,-0.01777 0.0036,-0.02079 -0.01263,-0.0147 -0.112603,-0.120729 0.22198,-0.187765 0.01099,-0.0035 0.0096,-0.007 0.0028,-0.01402 -0.01016,-0.02302 -0.01454,-0.02334 -0.0097,-0.0086 -0.0024,-0.002 -0.06847,-0.07429 0.0093,-0.03342 0.0091,-0.04214 0.0045,-0.02274 -0.100215,-0.130607 -0.14403,-0.09452 -0.02553,-0.03712 -0.04063,-0.231818 -0.134431,-0.07847 0.07417,-0.0064 0.06441,-0.01757 0.03003,-0.01131 0.03959,-0.01936 0.08166,-0.05361 0.03159,-0.03035 0.119693,-0.128218 0.0061,-0.01406 0.0082,-0.02231 0.0028,-0.0099 -0.0047,-0.147854 -0.0036,-0.03099 7.97e-4,-0.0182 0.11081,-0.1608 0.11109,-0.08998 0.01605,-0.003 0.05879,-0.02354 0.0063,-0.01534 1.19e-4,-0.01769 -0.002,-0.01426 -0.03127,-0.143632 -0.0045,-0.01629 -0.0052,-0.01537 -0.03963,-0.04521 0.0043,-0.01072 0.01422,-0.01613 0.190992,-0.168048 0.086,-0.04302 0.01346,0.01338 0.01175,0.0063 0.02039,0.0056 0.01561,5.58e-4 0.01725,-0.0048 0.0062,-0.01075 -7.96e-4,-0.0149 -7.97e-4,-0.0074 -0.0074,-0.07269 0.0036,-0.144269 -0.02099,-0.0077 -0.01597,-0.0082 -0.01581,-0.01103 -0.002,-0.01358 -0.0028,-0.08855 0.02004,-0.0039 0.01741,-0.0061 0.01792,-0.01287 0.08906,-0.08882 0.0086,-0.08532 0.0897,-0.362744 0.0079,-0.01398 0.07799,-0.115351 0.07986,-0.07544 0.0194,-0.0026 0.01948,-0.0068 0.01629,-0.0093 0.02948,-0.0366 -0.005,0.04457 0.01302,0.01645 0.007,0.0052 0.01585,0.0025 0.04561,0.0059 0.03553,0.0052 0.06325,0.01143 1.19e-4,0.005 3.98e-4,0.04593 -0.03103,0.163986 -0.0028,0.01307 -0.0051,0.01267 -0.04804,0.114874 -0.09133,0.166057 -0.0072,0.01235 -0.02641,0.0321 -0.0028,4.78e-4 -0.0321,0.0072 -0.03091,-7.57e-4 -0.01,-0.0029 -0.0106,3.98e-4 -0.104517,0.04692 -0.0056,0.0037 -0.04648,0.08476 -0.0028,0.0088 0.03876,0.06262 0.01354,0.01 0.0091,0.0042 0.0092,0.0027 0.0074,0.004 0.0331,0.02318 0.01024,0.0094 0.0098,0.01155 0.0077,0.01318 0.07122,0.13228 0.02912,0.05787 0.01028,0.02796 0.08233,0.09189 0.0106,0.0096 0.06692,0.0077 0.123876,0.04509 0.13702,0.08026 0.002,0.0073 -0.0012,0.01047 0.0062,0.05055 0.0028,0.01613 0.0055,0.01342 0.008,0.0085 0.01382,0.0055 0.02334,0.0064 0.0386,0.0078 0.101132,0.01948 0.02326,0.0021 0.01741,-0.0054 0.01442,-0.0076 0.01179,-0.0088 0.0058,-0.01358 2.39e-4,-0.01366 0.0012,-0.01529 0.004,-0.01482 0.0073,-0.0072 0.05935,-0.0042 0.13467,-0.0025 0.04366,0.01617 0.03712,0.01836 0.0059,-8.76e-4 0.08508,-0.135785 0.0081,-0.01334 0.01876,-0.0435 -0.0012,-0.01 -0.0016,-0.01255 3.18e-4,-0.0099 0.0032,-0.0075 0.01183,-0.02478 0.0059,-0.01083 0.08994,-0.09567 0.07066,-0.02175 0.0085,-0.0019 0.01374,0.0017 0.02573,0.0033 0.129054,0.03947 0.01016,0.0045 0.005,0.0056 0.02525,0.02465 0.01107,0.0078 0.01924,0.0097 0.11826,0.01705 0.02724,0.0018 0.01107,-0.0028 0.133117,-0.06843 0.128615,0.129252 0.0064,0.08361 -0.03318,0.213178 -0.05787,0.235563 -7.97e-4,0.01215 7.97e-4,0.0282 0.0045,0.02386 0.0088,0.02764 0.01135,0.03179 0.0093,0.02605 0.0092,0.02752 0.01522,0.04636 0.0012,0.0047 -7.97e-4,0.03692 -0.004,0.0069 -0.0071,0.01103 -0.09193,0.115272 -0.09894,0.119853 -0.04955,0.07393 -0.005,0.0095 -0.002,0.0042 -0.0078,0.01816 -0.05525,0.139768 -0.04314,0.111209 -0.007,0.01605 -0.0086,0.01944 -0.01032,0.0032 -0.0184,0.007 -0.03581,0.01972 -0.03421,0.02087 -0.01386,0.0098 -0.01314,0.0094 -0.08173,0.08153 0.0071,0.0081 0.0099,0.01235 0.01282,0.01892 0.0063,0.01087 0.0036,0.0068 0.002,0.0049 -3.98e-4,0.0025 -0.006,0.0044 -0.01414,0.0027 -0.01215,-0.002 -0.0012,-1.99e-4 -0.05377,-0.02565 0.03374,0.209553 0.0032,0.02374 -0.0024,0.0079 -0.164464,0.314668 -0.0078,0.01382 -0.01884,0.02951 -0.02008,0.02561 0.0016,-0.08122 -0.01888,0.05385 -0.02485,0.08699 0.0012,0.06588 0.0047,0.05748 0.027,0.0196 0.01653,0.01183 0.02063,0.01299 0.0145,0.0086 0.01442,0.01123 0.04194,0.04011 0.03541,0.04326 0.0087,0.01231 0.115073,0.251336 0.0062,0.01538 7.96e-4,0.0076 -0.01195,0.128058 0.0041,0.0652 -0.17251,0.122999 0.002,0.0043 0.0102,0.02035 0.0057,0.03637 -0.0064,0.0077 -0.0063,0.0071 -7.96e-4,7.17e-4 -0.01171,0.0039 -0.01394,0.0017 -0.0016,-5e-5 -0.04035,0.08066 0.01685,0.130209 0.0083,0.037 0.0036,0.0145 -0.0016,0.01036 -7.97e-4,0.0031 -3.98e-4,0.0019 -0.0016,0.002 -0.002,0.0016 -0.0032,0.002 -0.0024,0.0012 -0.0097,0.0027 -0.0054,0.0013 -0.0047,5e-5 -0.295509,-0.05839 -0.01303,-0.01717 -0.06003,-0.09086 -0.04186,-0.06477 -0.004,-0.0071 -0.03318,-0.05309 -0.03151,-0.04804 -0.0032,-0.0044 -0.0036,-0.0049 -0.0032,-0.0045 -0.0043,-0.0054 -0.0082,-0.0095 -0.0036,-0.0042 -0.0028,-0.0027 -0.02119,-0.01597 -0.0053,-0.0038 -0.01382,-0.0086 -0.0566,-0.03266 -0.008,0.01155 0.0046,0.0028 0.004,0.0023 0.0095,0.0049 0.0041,0.0015 0.002,1.59e-4 0.0016,-2.39e-4 0.004,1.2e-4 0.0028,8.76e-4 0.0106,0.0039 0.0055,0.0023 0.0077,0.0041 0.0024,0.0014 0.007,0.0045 0.0061,0.004 0.0036,0.0023 0.0028,0.0027 0.0032,0.003 0.0055,0.0063 0.0028,0.0035 0.03226,0.04286 0.037,0.05437 0.0016,0.0028 0.04565,0.09643 -0.0072,0.006 -0.01808,0.01279 -0.0053,-0.0057 -0.01051,-0.01267 -0.0044,-0.0054 -0.004,-0.0053 -0.01259,-0.01553 -0.0095,-0.01167 -0.008,-0.0088 -0.0089,0.0017 -0.125309,0.04573 -0.02151,0.02374 -0.008,0.01322 0.03099,0.04067 0.02533,0.02063 0.04162,0.0284 -0.01518,0.06325 -0.04692,0.04624 -0.01008,0.01243 -0.0049,0.007 -0.04875,0.07166 -0.01904,0.0081 -0.0028,0.0013 -0.002,0.0023 -0.0062,0.0086 -0.0036,0.0067 -0.05341,0.104437 -0.0086,0.02553 -0.002,0.0192 -1.99e-4,0.0032 7.96e-4,0.08436 3.99e-4,0.002 0.06732,0.16546 0.05274,0.06564 0.09305,0.113798 0.228154,0.150244 0.01263,0.02004 7.97e-4,0.0036 -0.0104,0.03473 -0.0051,-0.0016 -0.004,0.02705 -0.0047,0.0078 -0.0091,0.01044 -0.0087,0.004 -0.01394,0.0028 -0.112643,-0.006 -0.134709,-0.0036 -0.02007,0.0065 -0.10639,0.05644 -0.06851,0.03641 -0.02167,0.01163 -0.03218,0.02195 -0.03123,0.02752 -0.04859,0.03653 -0.03876,0.02222 -0.0186,0.0098 -0.213655,0.110293 -0.0239,0.0049 -0.108979,0.0076 -0.01004,1.59e-4 -0.01151,-3.98e-4 -0.04493,-0.0036 -0.0087,-0.0045 -0.01852,-0.02876 -0.0063,-0.01287 -0.0032,-0.0065 -0.0069,-0.0085 -0.01223,-0.01294 -0.01008,-0.01056 -0.0071,-0.0062 -0.02597,-0.01916 -0.01366,-0.0083 -0.0061,-0.0016 -0.0139,-0.0024 -0.01613,-0.0024 -0.0055,-1.19e-4 0.0054,0.0182 0.01051,0.03382 0.04011,0.02685 0.03876,0.03915 0.0045,0.0182 -0.0056,0.0089 -0.105154,0.159525 -0.0143,0.01709 -0.01171,0.01036 -0.05552,0.04816 -0.0072,-0.0028 -0.01936,7.97e-4 -0.0098,0.0036 -0.01689,0.0067 -0.08396,0.04075 -0.140486,0.08843 -0.01374,0.01008 -0.109895,0.07855 -0.0079,-0.0016 -0.185136,-0.0028 -0.09627,0.0084 -0.160043,0.0237 z"
       id="path7"
       style="display:inline;fill:#ff851b;fill-opacity:1;stroke:#ff851b;stroke-width:0.0149368;stroke-linecap:butt;stroke-linejoin:round;stroke-miterlimit:4;stroke-dasharray:none;stroke-opacity:1" /><path
       d="m 17.333631,24.342672 0.0033,0.01299 0.03071,0.01008 0.0092,0.0097 0.0049,0.0188 -3.98e-4,0.0061 -0.002,0.01067 -0.0036,0.0129 -0.01099,0.02485 -0.02143,0.03282 -0.02083,0.02573 -0.01171,0.0143 -0.04565,0.04393 -0.0235,0.0223 -0.05477,0.04481 -0.06202,0.05051 -0.05174,0.04134 -0.06652,0.05409 -0.02876,0.02462 -0.06998,0.06265 -0.01231,0.01131 -0.06923,0.07042 -0.01147,0.01243 -0.0089,0.01048 -0.0073,0.01024 -0.0092,0.01394 -0.03366,0.06397 -0.01581,0.03832 -0.01103,0.02912 -0.01494,0.04553 -0.01868,0.06855 -0.02039,0.102686 -0.02067,-0.01474 -0.01044,-0.0075 -0.152633,-0.116905 -0.03585,-0.08504 7.97e-4,-0.0032 7.97e-4,-0.0042 1.59e-4,-0.004 -2.39e-4,-0.0028 -0.0016,-0.0063 -0.0024,-0.0045 -0.0036,-0.004 -0.004,-0.0032 -0.0079,-0.0059 -0.02669,-0.0137 -0.0048,-0.0012 -0.0106,-0.0032 -0.0078,-0.0016 -0.01155,-0.0016 -0.01263,-7.97e-4 -0.01103,-3.98e-4 -0.007,1.19e-4 -0.0089,7.97e-4 -0.0089,0.0016 -0.0069,0.0016 -0.01047,0.0044 -0.02912,0.01386 -0.01653,0.0097 -0.0092,0.0063 -0.01717,0.01103 -0.01788,0.0093 -0.006,0.0028 -0.0097,0.0028 -0.0053,0.0016 -0.0032,1.19e-4 -0.0032,-3.18e-4 -0.0036,-0.0016 -0.0024,-0.0016 -0.007,-0.0058 -0.004,-0.0053 -0.0036,-0.0059 -0.0048,-0.0087 -0.0028,-0.0061 -0.0077,-0.02199 -0.004,-0.01267 -2.79e-4,-0.004 -3.98e-4,-0.0074 -7.97e-4,-0.02593 -4.9e-5,-0.01494 3.98e-4,-0.0083 0.0016,-0.0077 0.0088,-0.029 7.97e-4,-0.002 0.01119,-0.02414 0.04537,-0.07903 -0.002,-0.02645 -0.01976,-0.0576 -0.0056,-0.01545 -0.01868,-0.03493 -0.01346,-0.01398 -0.01466,-0.0061 -0.01522,-0.0016 -0.0186,0.0024 -0.02665,0.02139 -0.01434,0.01227 -0.0066,0.0036 -0.005,-0.0016 -0.0096,-0.0032 -0.01848,-0.0137 -0.100534,-0.09189 -0.01362,-0.0133 -0.0104,-0.02099 -3.98e-4,-0.01772 0.0052,-0.01374 0.0045,-0.0061 0.0024,-3.99e-4 0.0059,-0.0012 0.01661,0.0045 0.01848,0.004 0.01056,-0.0012 0.0081,-0.002 0.0098,-0.0073 0.01107,-0.01338 0.01032,-0.01952 0.009,-0.01856 0.0067,-0.02007 0.009,-0.03155 0.0024,-0.01677 -0.0041,-0.01709 -0.0087,-0.01641 -0.01784,-0.0092 -0.01625,-0.002 -0.01852,0.0042 -0.0074,0.0084 -0.0048,0.01366 -0.0044,0.01709 -0.0052,0.01255 -0.0084,0.0016 -0.0067,0.0012 -0.009,-0.0016 -0.0932,-0.08428 -0.01589,-0.0149 -0.0063,-0.01494 -1.6e-4,-3.98e-4 0.002,-0.01207 0.02896,-0.185614 0.0094,-0.147257 -0.0028,-0.01478 -0.0066,-0.01605 -0.01629,-0.01573 -0.02215,-0.01462 -0.03278,-0.01916 -0.01645,-0.009 -0.01625,-0.0064 -0.02103,-0.01299 -0.01844,-0.01773 -0.0091,-0.02485 3.98e-4,-0.03043 0.004,-0.03095 0.0036,-0.02015 0.0047,-0.0184 0.0012,-0.0053 0.0094,-0.02151 0.0024,-0.01852 -0.0024,-0.0024 -0.0065,-0.0071 -0.01338,-0.0036 -0.0086,7.96e-4 -0.0052,7.97e-4 -0.01637,0.0078 -0.02326,0.0145 -0.02477,0.02023 -0.02597,0.02167 -0.04521,0.04648 -0.0055,0.0095 7.97e-4,0.01482 0.0024,0.02015 -1.59e-4,0.02031 -3.98e-4,0.01541 -0.0028,0.0081 -0.0036,0.01115 -0.0099,0.01072 -0.0151,0.0095 -0.0094,0.0049 -0.01482,7.97e-4 -0.0071,-0.0024 -0.0084,-0.0028 -0.0067,-0.0024 -0.0084,-0.0032 -0.01374,-0.006 -0.0067,-0.0058 -0.0084,-0.02187 -0.0024,-0.02581 7.96e-4,-0.0235 0.0012,-0.0088 0.0041,-0.02975 0.01322,-0.02231 0.01741,-0.01275 0.02027,-0.01127 0.02251,-0.01064 0.01685,-0.0094 0.01287,-0.009 0.0056,-0.01187 -0.0055,-0.09679 -0.0045,-0.01195 -0.01422,-0.01 -0.01521,-0.0072 -0.01617,-0.0046 -0.01792,-0.0058 -0.02493,-0.0087 -0.02697,-0.01322 -0.02243,-0.01856 -0.03497,-0.03007 -0.01267,-0.01561 -0.0043,-0.01613 0.0012,-0.01302 0.03517,-0.112245 0.0413,-0.07668 0.0081,-0.08986 -0.141521,-0.0856 -0.122242,-0.102446 -0.0903,-0.191589 3.19e-4,-0.108182 0.10615,-0.05122 0.0133,-0.0071 0.01502,-0.01322 0.0061,-0.01537 -3.98e-4,-0.01972 -0.0047,-0.0192 -0.0096,-0.01506 -0.0141,-0.01143 -0.0085,0.002 -0.0045,0.0012 -0.0084,0.0058 -0.0016,0.0018 -0.0069,0.01394 -0.004,0.01697 -0.0028,0.01637 -0.0016,0.0188 -0.0052,0.01334 -0.01502,0.0135 -0.02087,0.0054 -0.01776,-0.0039 -0.01286,-0.008 -0.0012,-0.0017 -0.0073,-0.0096 -0.0844,-0.160122 -0.0077,-0.01804 0.0045,-0.01713 0.04895,-0.109298 0.01159,-0.01514 0.01263,-0.0037 0.0028,-7.96e-4 0.02016,-0.0057 0.0084,-0.0015 0.01992,0.0059 0.007,0.01529 0.0046,0.0235 0.0032,0.0196 0.0078,0.01956 0.01271,0.01434 0.01557,0.01406 0.01498,0.0035 0.01689,-0.0053 0.006,-0.0025 0.0075,-0.004 0.01255,-0.01573 0.0192,-0.04421 0.0054,-0.02553 -0.0024,-0.01482 -0.01569,-0.01191 -0.02135,-0.01569 -0.02529,-0.01717 -0.0036,-0.0025 -0.02286,-0.01223 -3.98e-4,-1.99e-4 -0.0186,-0.0053 -0.0076,-0.0011 -0.01271,-0.0019 -0.02346,0.0018 -0.0085,9.96e-4 -0.02023,0.0035 -0.0082,-8.37e-4 -0.01478,-0.0015 -0.01745,-0.0048 -0.0066,-0.0026 -0.01103,-0.0043 -0.02916,-0.01816 -0.004,-0.0072 0.0054,-0.02521 0.0063,-0.01087 0.01884,4.78e-4 0.01625,-0.0061 0.0081,-0.0032 0.01402,-0.01617 0.0078,-0.0047 0.0068,-0.0042 0.03804,-0.04804 -0.0658,0.02394 -0.002,0.03999 -0.0055,0.0015 -0.0012,3.58e-4 -0.0058,0.0016 -0.0082,0.0019 -0.01721,9.16e-4 -0.0085,-0.01326 -0.009,-0.01788 -0.02434,-0.05262 -0.0024,-0.01099 0.01621,-0.01561 0.09337,-0.08046 0.0051,0.01115 0.0325,-0.0011 0.01155,-0.0017 0.01478,-0.0035 0.0065,-0.0035 -0.03266,-0.317655 -0.02939,-0.131882 -0.06787,-0.254921 -0.06393,-0.05262 -0.07381,-0.05951 -0.09253,-0.07305 -0.0093,-0.0038 -0.03465,-0.0073 -0.01514,-0.0032 -0.0133,-0.0014 -0.02729,-0.0014 -0.140326,-0.09679 -0.02095,-0.02473 -0.0615,-0.03883 -0.03557,-0.02163 -0.07209,-0.09532 -0.05325,-0.07122 -0.0102,-0.0176 -0.05186,-0.118817 -0.02422,-0.06022 -0.06668,-0.319766 -0.02728,-0.150005 -0.0094,-0.05222 -0.04696,-0.334942 -3.99e-4,-0.03115 0.01661,-0.151758 0.0095,-0.08225 0.0072,-0.03246 0.03927,-0.152913 0.03796,-0.21951 -0.004,-0.06078 -8e-5,-0.01462 0.0012,-0.0194 0.002,-0.02111 0.03091,-0.287662 0.01036,-0.100534 0.01649,-0.235443 -0.0069,-0.112404 -0.0012,-0.102845 0.0032,-0.08588 0.0064,-0.03908 -0.004,-0.131802 0.0043,-0.04867 0.0061,-0.04816 0.0061,-0.0237 0.01167,-0.02999 0.03784,-0.08643 0.08165,-0.208398 0.02888,-0.196448 0.04668,-0.310884 0.01318,-0.05768 0.01701,-0.06246 0.02143,-0.05497 0.01394,0.0032 0.02374,-0.07978 0.0079,-0.02868 0.0036,-0.01868 0.002,-0.01263 -0.0028,-0.03083 0.0012,-0.01769 0.0057,-0.01912 0.04322,-0.05178 0.05326,-0.09313 -0.01044,-0.04318 0.002,-0.0176 0.01179,-0.0321 0.02151,-0.02143 0.01434,-0.02103 0.06608,-0.263683 0.02139,-0.162393 -0.0036,-0.02227 -0.0016,-0.02047 -2.39e-4,-0.02139 0.0061,-0.01956 0.02095,-0.0484 0.01123,-0.02151 0.02191,-0.02605 0.0278,-0.02107 0.02322,-0.01553 -0.0386,-0.0664 -0.01669,-0.0245 -0.0331,-0.04425 -3.99e-4,-5.58e-4 -0.0194,-0.02047 -0.0016,1.2e-4 -0.01796,0.0013 -0.02717,5.97e-4 -0.0509,-0.0093 -0.0081,-0.0016 -0.0049,-0.002 -0.05226,-0.04409 -0.002,-0.0075 -0.01171,-0.04537 -0.0016,-0.0055 -0.01346,-0.008 -0.05286,-0.02223 -0.01717,-0.0039 0.162473,-0.08663 0.08297,-0.103562 0.04154,-0.0717 0.004,-0.0039 0.0063,-0.0065 0.0028,-0.0029 0.07257,-0.05266 0.04863,-0.02947 0.04318,-0.01916 0.01203,-0.0064 0.02541,-0.04592 -0.0084,-0.08978 -0.0064,-0.01741 -0.0047,-0.15845 0.01912,-0.01717 0.0093,-0.01549 0.02143,-0.03895 0.0028,-0.01079 -0.01804,-0.07154 -0.0041,-0.0099 -0.01466,-0.0321 -0.01167,-0.03191 0.03625,-0.08018 0.01713,-0.01167 0.03529,-0.01115 0.0519,-0.01968 0.02227,-0.0089 0.01486,-0.0077 0.0069,-0.0036 0.01494,-0.0098 0.0104,-0.0074 0.0145,-0.01275 -0.06724,-0.04226 -0.251814,-0.146101 -0.01709,-0.01199 -0.120171,-0.132001 -0.0071,-0.02187 -0.0335,-0.131245 7.96e-4,-0.01211 0.0041,-0.01653 0.02645,-0.03904 0.0153,-0.0082 0.01183,-0.0012 0.01107,-0.0032 0.02816,-0.0098 0.0024,-0.0017 0.0072,-0.0056 0.114316,-0.111727 0.04525,-0.04684 0.02175,-0.03346 0.0078,-0.01442 -0.0036,-0.01649 -0.02493,-0.101052 7.96e-4,-0.07532 -0.07902,-0.02143 -0.02247,-0.01155 -0.02294,-0.01553 -0.01792,-0.01546 -0.01095,-0.01135 -0.0028,-0.0089 -0.0098,-0.07214 -0.02494,-0.0039 -0.01119,-6.77e-4 -0.122681,0.018 -0.06022,0.03023 -0.01087,0.01083 -0.06285,-8e-5 -0.04971,-8e-5 -0.01609,-0.01247 -0.01848,-0.01788 -0.02896,-0.0366 -0.0036,-0.0061 -0.01091,-0.02039 -0.01577,-0.02091 -0.0065,-0.0074 -0.0061,-0.0061 -0.04246,-0.03931 -0.05007,-0.0288 -0.08189,-0.03692 -0.0048,0.01454 -0.03421,0.07206 -0.04505,0.09078 -0.0091,0.01677 -0.01924,0.0243 -0.183065,0.07182 -0.02016,0.0023 -0.105394,0.0078 -0.01876,-0.0042 -0.08608,-0.03704 -0.0016,-0.0063 0.0024,-0.009 0.0024,-0.0071 0.01394,-0.02943 0.02131,-0.05317 0.0223,-0.06138 -0.002,-0.0031 -0.0095,-0.0039 -0.0085,0.0069 -0.01135,0.0062 -0.0092,2.39e-4 -0.01828,-0.0042 -0.11583,-0.03398 -0.07604,-0.03274 -0.01338,-0.0052 -0.0094,-0.0027 -0.06724,0.01071 -0.05333,0.0088 -0.05071,0.009 -0.06959,0.01334 -0.02199,0.0065 -0.05178,-0.0045 -0.01832,-0.005 -0.01143,-0.0145 -0.0036,-0.01777 -0.0024,-0.0184 -0.01131,-0.01709 -0.08966,-0.108461 -0.05963,-0.05664 -0.02824,-0.01012 -0.01637,-0.0047 -0.0227,-0.006 -0.05967,-0.01569 -0.0094,-0.0059 -0.03286,-0.01295 -0.01924,0.02258 -0.01482,0.01761 -0.01219,0.01303 -0.0056,0.0059 -0.03525,0.0063 -0.0619,0.0083 -0.116308,-0.01984 -0.156417,0.01948 -7.97e-4,0.0068 0.0096,0.02701 0.0098,0.01828 0.01844,0.02701 -0.03402,0.09695 -0.158648,0.05827 -0.08811,0.02418 -0.09671,0.02262 -0.06042,0.0092 -0.01701,-0.0016 -0.169044,0.05302 -0.121167,0.0885 -0.0086,0.01378 -0.04612,0.03175 -0.131802,0.05425 -0.04214,0.01334 -0.0186,-0.0088 -0.172351,-0.229549 -0.0059,-0.01047 -0.0028,-0.01072 -0.0036,-0.01342 -3.98e-4,-0.01103 0.002,-0.03589 -0.01219,-0.0054 -0.02744,-0.01155 -0.158887,-0.06202 -0.206087,0.02438 -0.02645,0.0084 -0.0192,0.01091 -0.04278,0.06397 -0.0057,0.01318 -0.004,0.01542 -0.0043,0.01163 -0.0085,0.01203 -0.0077,0.0047 -0.07922,0.02772 -0.01725,0.0014 -0.01804,-0.0021 -0.102446,-0.0433 -0.01243,-0.0011 -0.06138,-0.06297 -0.01139,-0.01653 -0.0073,-0.02155 -0.002,-0.01131 -0.0074,-0.0063 -0.04115,-0.02577 -0.01434,-0.0053 -0.109855,0.02485 -0.04298,0.01553 -0.02203,0.0093 -0.0092,0.01247 -0.01625,0.0098 -0.01717,0.0042 -0.01808,-0.0045 -0.03852,-0.01319 -0.1457426,-0.0793 0.059468,-0.03899 0.00821,-0.0045 0.039672,-0.037 0.024018,-0.02243 0.0024,-0.0077 -0.0012,-0.01107 -0.0052,-0.01076 -0.2495826,-0.202104 -0.00753,-3.19e-4 -0.034534,0.01143 -0.015056,0.0092 -0.0084,0.01068 -0.010157,0.0086 -0.00876,0.0049 -0.033936,0.0093 -0.1610382,-0.04373 -0.108182,-0.03485 -0.028718,0.05692 -0.00753,0.01398 -0.012069,0.01565 -0.015574,0.0147 -0.013543,0.01215 -0.032144,0.01553 -0.084363,0.03549 -0.014021,-0.0072 -0.06839,-0.04389 -0.011432,-0.0083 -0.012706,-0.01187 -0.00119,-0.0013 -0.0709,-0.07667 -0.014618,-0.02509 -0.013343,-0.027 -0.017327,-0.03792 -0.00876,-0.03637 -0.021867,-0.09289 -0.033618,-0.151717 -0.00801,-0.04557 -0.00633,-0.057 -0.00677,-0.06022 -0.024058,-0.02234 -3.187e-4,-2.79e-4 -0.029515,-0.01573 -0.066718,-0.03505 -0.1412022,-0.147575 -0.018004,-0.03063 -0.055963,-0.102327 -0.025054,-0.102685 -0.00239,-0.0104 0.00693,-0.01175 0.012388,-0.02035 0.033896,-0.04286 0.033299,-0.07265 -0.0012,-0.01685 0.00562,-0.01398 0.041504,-0.06469 0.013503,-0.01832 0.01649,-0.01984 0.017247,-0.01689 0.1061904,-0.08978 0.021031,-0.01067 0.074325,-0.02876 0.095157,-0.08735 -0.00924,-0.04617 -0.00279,-0.02334 1.594e-4,-0.02573 3.584e-4,-0.01864 0.00526,-0.01366 0.036964,-0.0766 0.00828,-0.0074 0.00239,5.58e-4 0.078109,0.09253 0.065562,0.0145 0.00358,-0.0073 0.053533,-0.05198 0.037919,-0.03306 0.102287,-0.08906 0.051741,-0.03716 0.093006,-0.06034 0.037402,-0.01709 0.2199089,0.04122 0.088864,0.03175 0.024735,0.01135 0.066678,0.05919 0.034693,0.0331 0.031387,0.01796 0.0188,0.0082 0.0097,-0.0028 0.0096,-0.01693 0.01649,-0.02641 0.108063,-0.123955 0.01107,-0.0085 0.0075,-0.0058 0.02043,-0.01127 0.01434,-0.0051 0.168725,0.01677 0.04784,0.01326 0.07357,0.02418 0.02027,0.02047 0.01418,0.0276 0.05549,0.05493 0.07695,0.01972 0.0225,0.0042 0.0392,-0.01346 0.04027,-0.03545 7.97e-4,-0.01155 2.39e-4,-0.01 -0.0746,-0.214133 -0.03792,-0.0576 -0.01195,-0.0076 -0.01486,-0.0047 -0.01693,-0.0082 -0.09591,-0.0715 -0.01788,-0.01649 -0.16542,-0.182906 7.97e-4,-0.0023 0.01099,-0.045646 0.0098,-0.063491 7.97e-4,-0.020155 -7.97e-4,-0.014738 -0.01334,-0.058273 0.05891,-0.028599 0.06791,-0.033857 0.04115,-0.021549 0.07349,-0.038676 0.02752,-0.010077 0.307936,-0.1071464 0.02772,-0.00912 0.065,-0.0378 0.01936,-0.013622 0.007,-0.010794 2.39e-4,-3.585e-4 0.0016,-0.012507 0.0065,-0.025253 0.0036,-0.00984 0.0153,-0.020473 0.08946,-0.083128 0.01892,-0.011551 0.08372,-0.038597 0.239108,-0.07783 0.08659,0.039592 0.0862,0.045687 0.234089,-0.039314 0.03816,-0.023341 -0.01466,-0.00856 -0.01518,-0.00928 -0.01629,-0.012109 -0.03003,-0.024297 -0.114873,-0.1187771 -0.03665,-0.068152 7.96e-4,-0.085637 0.0052,-0.1194144 0.03621,-0.057317 0.02462,-0.015335 0.04194,-0.026129 0.02107,-0.024616 7.97e-4,-0.00813 -0.0041,-0.028679 -0.0066,-0.037919 -0.0071,-0.030272 -0.0048,-0.018681 -7.96e-4,-1.991e-4 -0.01207,-0.00255 -0.01701,-0.087589 -0.0016,-0.016211 0.0028,-0.016928 0.0084,-0.026408 0.01561,-0.084164 -0.06094,-0.1545855 -0.02673,-0.032184 -0.01382,-0.012507 -0.01012,-0.011073 -1.59e-4,-1.593e-4 -0.04254,-0.04955 -0.0032,-0.047798 -0.006,-0.1179407 0.01175,-0.1188169 -0.02155,-0.07082 0.0016,-0.011591 0.01171,-0.012029 0.01601,-0.010077 0.03155,-0.027563 0.0044,-0.013543 0.246835,-0.1877252 0.01207,-0.00697 0.06572,-0.031108 0.04354,-0.00677 0.02884,-0.00382 0.170996,0.018283 0.03286,0.00717 0.07687,0.017088 0.164663,0.05186 0.0093,0.016809 1.99e-4,0.018004 0.01131,0.030551 0.0088,0.019438 0.05552,0.053653 0.02004,0.018163 0.08807,0.04481 -0.0012,-0.00151 0.129332,0.053454 0.02649,-0.00693 0.06369,-0.017167 0.03796,-0.020911 0.03115,0.00295 0.08628,0.056799 -7.97e-4,0.00621 -0.006,0.01653 -0.0196,0.048554 -0.01255,0.020911 -0.0059,0.025014 -0.0051,0.075401 -0.0012,0.084084 0.002,0.022744 0.02398,0.021708 0.03203,0.021549 0.06512,0.025253 0.05859,0.018123 0.06656,0.012945 0.04011,-0.0012 0.03055,-0.00474 0.04385,-0.022784 0.124234,-0.033299 0.06082,0.00315 0.0799,0.00932 0.108382,0.016889 0.08576,-0.029396 0.141242,0.012746 0.190275,-0.018402 0.03796,-0.00398 0.02951,-0.00522 0.124632,0.00956 0.01291,0.010316 0.08536,0.057636 0.05863,0.026886 0.02693,0.010157 0.02123,0.00629 0.0081,-0.00438 0.03637,-0.021788 0.01932,-0.012866 0.01418,-0.012029 0.02466,-0.015017 0.153072,0.048116 0.115511,0.034215 0.1322,0.036725 0.01693,0.00398 0.05098,-0.00251 0.0186,-0.024695 0.08388,-0.02366 0.0182,-0.00223 0.01888,0.0059 0.1512,0.019796 0.05027,-0.015295 0.06122,-0.00558 0.01187,0.00474 0.01251,0.00773 0.05744,0.055087 0.12053,0.032423 0.126663,0.021031 0.02016,3.186e-4 0.02055,-0.00522 0.102207,-0.032861 0.07066,-0.00729 0.05302,-0.024297 0.238789,-0.046324 0.01374,0.00211 0.01625,0.00366 0.0623,0.014698 0.0292,0.00976 0.02019,0.022106 0.02031,0.017645 0.02402,0.013622 0.0149,0.00673 0.08914,0.035689 0.01629,0.00609 0.02406,-0.012786 0.01633,-0.01191 0.108938,0.028918 0.01904,0.010316 0.03035,0.021071 0.01223,0.011113 0.01733,0.00542 0.02402,0.00558 0.377761,0.043894 0.171155,-0.00641 0.03234,0.00478 0.0032,0.012866 0.0071,0.03788 0.129213,0.1369402 0.01139,0.00713 0.184499,0.09436 0.02446,0.00968 0.02247,0.00844 0.02712,-0.00159 0.03951,-0.00303 0.02063,-0.00303 0.196568,0.031427 0.117941,0.1135592 0.07249,0.083208 0.0024,0.010237 0.0068,0.049351 -0.0044,0.041863 0.06516,0.00725 0.07058,-0.052617 0.09476,-0.058791 0.04071,-0.020394 0.226282,-0.012666 0.04003,0.00291 0.230663,0.024178 0.168487,0.038557 0.0292,0.021469 0.02924,0.02131 0.01534,0.00996 0.02342,0.012587 0.03477,0.011193 0.03812,0.011272 0.02274,-3.984e-4 0.04792,-0.00323 0.05839,-0.037959 0.1087,-0.095117 0.05333,-0.059189 0.105434,-0.1108905 0.01075,-0.00259 0.164862,0.01888 0.08544,-0.019756 0.09313,0.048993 0.0036,-0.023023 -0.0064,-0.034175 -0.01187,-0.029515 -0.01609,-0.029515 0.0462,-0.080499 0.01064,-0.018362 0.202582,0.044093 0.03852,0.012985 0.01378,0.00506 0.228751,0.087151 -0.0067,0.024098 -0.0059,0.029834 -0.007,0.04497 -0.0046,0.03079 7.9e-5,0.01888 0.01303,0.01892 0.03318,0.00964 0.201865,0.0566 0.02466,0.00498 0.178723,-3.585e-4 0.139888,-0.022146 0.300965,0.027762 0.01992,-0.00267 0.162153,-0.080101 0.157932,-0.066877 0.02306,-0.00231 0.04935,-0.0041 0.0077,0.015932 0.02175,0.051502 0.01386,0.05186 0.06863,0.1505227 0.01828,0.02828 0.02159,0.019995 0.03716,0.017247 0.0229,0.00601 0.03796,-0.012069 0.149487,-0.032144 0.02928,-0.017805 0.03609,-0.026568 0.01733,-0.017805 0.03302,-0.012547 0.07954,0.00661 0.169761,0.025492 0.01792,0.00319 0.01557,0.00685 0.06178,0.078348 0.01008,0.019916 0.01326,0.069824 0.0016,0.013822 -0.0058,0.00621 -0.0081,0.00848 -0.002,0.011312 0.0061,0.00964 0.009,0.00347 0.03007,0.00554 0.04286,0.00685 0.0233,0.00275 3.98e-4,3.98e-5 0.0862,-0.034295 -7.96e-4,-0.0235 0.0098,-0.017128 0.02565,-0.031825 0.0133,-0.00836 0.06564,-0.030511 0.06779,0.00773 0.325104,0.060305 0.07946,0.015455 0.02191,0.00944 0.0094,0.012866 0.02414,0.025173 0.11324,0.06134 0.0053,0.00235 0.248827,0.1170644 0.243648,0.097786 0.08799,0.021867 0.09651,0.012308 0.213615,0.00657 0.02956,-0.00223 0.02235,-0.00271 0.02211,-0.0188 0.02585,-0.013941 0.04027,0.1474159 0.0016,0.00629 0.0048,0.023501 -0.0074,0.1038005 -0.0052,0.013383 -0.01725,0.014738 -0.01776,0.00518 -0.01745,0.00339 -0.0186,0.00605 -0.01545,0.00825 -0.06011,0.036247 -0.0192,0.01267 -0.0074,0.0072 -0.01024,0.03421 -0.0028,0.01179 0.02326,0.135148 0.02772,0.133156 0.0059,0.0051 0.0388,0.03362 -0.0012,0.009 -0.0066,0.01454 -0.0077,0.0104 -0.0073,0.0095 -0.01681,0.02047 -0.107027,0.121206 -0.04393,0.04613 0.0076,0.100774 0.02458,0.06365 0.01147,0.04385 3.98e-4,0.0084 -0.06803,0.223334 -0.03633,0.04194 -0.01836,0.02071 -0.01135,0.01095 -0.0609,0.04369 -0.01123,-0.0021 -0.393055,-0.08436 -7.97e-4,-0.02039 -0.0051,-0.01024 -0.05656,-0.03143 -0.01482,-0.0059 -0.01235,0.0017 -0.147376,0.03979 -0.239785,0.05361 -0.249743,0.04274 -0.0096,8.76e-4 -0.0093,-0.01322 -0.009,-0.0037 -0.0056,-1.2e-4 -0.07178,0.0507 -0.165101,0.158768 -0.01625,0.01856 -0.006,0.08687 -0.02127,0.127301 -0.01884,0.100494 -0.04067,0.0744 -0.03617,0.05361 -0.02007,0.02689 -0.01725,0.02087 -0.01788,0.01442 -0.0081,-0.0025 -0.01012,-0.0086 -0.0077,-0.0023 -0.02031,-0.0021 -0.03238,0.0053 -0.01271,0.0029 -0.0323,0.03637 -0.08245,0.07174 -0.154665,0.109457 -0.03194,0.01119 -0.202941,0.02844 -0.05612,0.02147 0.0079,0.06445 0.0036,0.02744 -0.0056,0.0104 -0.0145,0.009 -0.239984,0.101172 -0.05369,0.01255 -0.07257,0.01235 -0.08046,0.01171 -0.01374,0.0012 -0.0028,0.01047 -0.0044,0.0147 -0.0074,0.0076 -0.05441,0.05429 -0.01478,0.01183 -0.0756,0.04146 -0.02708,0.0067 -0.01294,-0.0016 -0.01044,-0.0059 -0.0086,-0.01075 -0.06552,-0.01924 -0.01804,-0.0023 -0.09962,-0.0013 -0.04549,0.0022 -0.01024,0.0021 -0.120012,0.04676 -0.0073,0.0073 -0.01048,0.01641 -0.01119,0.08062 0.01757,0.02099 0.02302,0.03155 0.03569,0.05306 0.06532,0.215608 -0.02852,0.102446 -0.08373,0.149328 -0.0074,0.0066 -0.01856,0.0043 -0.02111,-4.78e-4 -0.01721,-0.0051 -0.06313,-0.0059 -0.05154,-0.0043 -0.101451,0.07819 -0.0057,0.0084 -0.02928,0.04935 -0.0024,0.01338 0.0052,0.08066 -0.122442,0.07182 -0.0073,0.0099 -0.01139,0.02211 -0.01561,0.03585 -0.01705,0.0331 -0.166933,0.0147 -0.199077,0.01705 0.01366,0.06114 0.01605,0.06317 0.008,0.01561 0.01303,0.02011 0.01111,0.0058 0.01864,-4.78e-4 0.01892,-0.02004 0.01044,-0.0097 0.0084,0.01084 0.02274,0.03473 0.07827,0.156856 0.005,0.04565 0.0016,0.0243 7.96e-4,0.02231 0.0012,0.01573 0.01565,0.132121 0.05477,0.192306 0.01075,0.02971 0.100933,0.177966 0.05134,0.06122 0.01864,0.01589 0.01095,-8e-5 0.06078,0.02378 0.07082,0.0521 0.0075,0.0087 -0.0071,0.04975 -0.09241,0.230065 -0.02904,0.01661 -0.01613,0.0041 -0.01788,0.0034 -0.0066,0.0093 -0.008,0.01494 -0.0032,0.0196 0.0081,0.01864 0.01506,0.02804 0.170279,0.106389 0.09217,-0.04772 0.203419,-0.06461 0.01131,-0.0038 0.0067,-0.01406 0.01434,-0.03485 0.0042,-0.01063 -0.0032,-0.01083 -0.02999,-0.09504 -0.0081,-0.02469 -0.0032,-0.0063 0.04565,-0.02482 0.117542,-0.02123 0.29292,0.02565 0.02721,0.0026 0.04732,0.0051 0.149566,0.04119 0.01852,0.0098 0.02872,0.04274 -0.0052,0.0035 -0.01131,0.0067 -0.0052,0.002 -0.0043,0.003 -7.97e-4,0.0031 -7.97e-4,0.0042 8e-5,0.002 0.002,0.0045 0.0067,0.0034 0.02645,0.01318 0.01992,0.0088 0.02553,0.0102 0.06477,0.0074 0.08126,0.0043 0.02557,-5.58e-4 0.01426,-0.01091 0.01143,-0.01179 0.01183,-0.0082 0.02087,-0.0089 0.02474,-0.01004 0.08536,-0.01597 0.0099,-1.2e-4 0.0077,0.01143 -0.0032,0.104518 0.05365,-0.0178 0.01737,-9.16e-4 0.05481,-0.0027 0.09344,0.02386 0.101371,0.06226 0.0196,0.0135 0.09711,0.06783 0.04967,0.181034 -0.0052,0.02047 -0.0024,0.0889 0.0049,0.02183 0.02,0.01649 0.08373,0.02621 0.06779,-0.02314 0.03398,-0.02462 0.01765,-0.01506 0.0098,-0.01243 0.01175,-0.01286 0.01386,-0.01291 0.01115,-0.0074 0.04262,-0.01083 0.01299,0.0061 0.01569,0.01048 -0.0092,0.03358 0.04071,-0.0088 0.02227,-7.57e-4 0.190991,0.0472 0.0292,0.0076 0.02473,0.01016 0.01952,0.01 0.03386,-0.01291 0.06851,-0.03103 0.02139,-0.0104 0.04533,-0.02489 0.02306,-0.01402 0.05027,-0.01988 0.07178,0.03047 0.01581,0.0081 0.03836,-0.0057 0.05047,0.01 0.0084,0.0045 0.07922,0.04824 0.147217,0.09416 0.0058,0.05158 0.0059,0.09233 0.0012,0.02075 -0.0047,0.01968 -0.02617,0.04461 -0.02848,0.03083 -0.01004,0.0051 -0.01255,0.006 -0.01239,0.0079 -0.04059,0.04577 -0.0043,0.01988 -0.0012,0.04983 -0.02223,0.172629 -0.0083,0.02406 -0.02748,0.05509 -0.0331,0.06258 -0.03469,0.05198 -0.0061,0.0079 -0.05811,0.04437 -0.01872,0.0041 -0.02091,-0.0043 -0.01765,-0.0027 -0.01247,0.0023 -0.05425,0.04664 -0.04712,0.05588 -0.02525,0.05266 -0.208677,0.173545 -0.05768,0.0382 -0.03457,0.01848 -0.03294,0.08727 -0.0574,0.07038 -0.01462,0.0088 -0.0652,0.02418 -0.08548,0.03127 -0.04186,0.04302 -0.01498,0.01776 -0.02804,0.04027 -0.0016,0.0032 -0.0032,0.0059 -0.0239,0.04959 -0.01462,0.01776 -0.04218,0.02709 -0.276907,0.126584 -0.01346,-0.0051 -0.01123,-0.0053 -0.01948,-0.01012 -0.01338,-6.37e-4 -0.02422,0.0051 -0.0093,0.01071 -0.0016,0.0019 -0.123716,0.165499 -0.0057,0.01283 -0.0036,0.0182 0.0012,0.01749 -0.0028,0.01151 -0.04481,0.03453 -0.196528,0.09779 -0.01382,0.0049 -0.01518,-0.0019 -0.01745,-0.0068 -0.01561,-0.007 -0.09715,0.0037 -0.01764,0.0051 -0.01589,0.01203 -0.06003,0.05437 -0.0043,0.01008 0.0053,0.01482 0.0028,0.0038 0.0074,0.01012 0.002,0.07751 -0.0069,0.0133 -0.02948,0.03661 -0.01629,0.0093 -0.01948,0.0068 -0.0194,0.0026 -0.07986,0.07544 -0.07799,0.115352 -0.0079,0.01398 -0.0897,0.362744 -0.0086,0.08532 -0.08906,0.08882 -0.01792,0.01287 -0.01741,0.0061 -0.02004,0.0039 0.0028,0.08854 0.002,0.01358 0.01581,0.01103 0.01597,0.0082 0.02099,0.0077 -0.0036,0.144269 0.0074,0.07269 7.96e-4,0.0074 7.97e-4,0.0149 -0.0062,0.01076 -0.01725,0.0048 -0.01561,-5.57e-4 -0.02039,-0.0056 -0.01175,-0.0063 -0.01346,-0.01338 -0.086,0.04302 -0.190992,0.168049 -0.01422,0.01613 -0.0043,0.01071 0.03963,0.04521 0.0052,0.01538 0.0045,0.01629 0.03127,0.143631 0.002,0.01426 -1.19e-4,0.01769 -0.0063,0.01534 -0.05879,0.02354 -0.01605,0.003 -0.11109,0.08998 -0.110811,0.160799 -7.96e-4,0.0182 0.0036,0.03099 0.0047,0.147854 -0.0028,0.0099 -0.0082,0.0223 -0.0061,0.01406 -0.119693,0.128217 -0.03159,0.03035 -0.08165,0.05361 -0.03959,0.01936 -0.03003,0.01131 -0.06441,0.01756 -0.07417,0.0064 0.13443,0.07847 0.04063,0.231818 0.02553,0.03712 0.14403,0.09452 0.100216,0.130607 -0.0045,0.02274 -0.0091,0.04214 -0.0093,0.03342 0.06847,0.07428 0.0024,0.002 0.0097,0.0086 0.01454,0.02334 0.01016,0.02302 -0.0028,0.01402 -0.0096,0.007 -0.01099,0.0035 -0.22198,0.187765 0.112603,0.120728 0.01263,0.0147 -0.0036,0.02079 -0.0048,0.01777 -0.007,0.0094 -0.0076,0.01056 -0.0043,0.01553 -1.99e-4,0.02298 0.04867,0.05086 0.02641,-0.0013 0.04031,-2.79e-4 h 0.01884 l 0.05098,0.02155 0.0028,0.0014 -0.01044,0.08006 -0.02127,0.0088 -0.0063,0.0027 -3.98e-4,0.01796 7.96e-4,0.04079 0.0012,0.03182 7.97e-4,0.08472 0.0012,0.157572 8e-5,0.03748 0.02569,0.08066 0.01418,0.02517 0.03139,0.06492 0.02916,0.06433 -0.0041,0.0018 -0.02023,0.0078 -0.01681,0.0063 0.0088,0.0239 0.01681,0.04405 0.0076,0.01438 0.05417,0.07783 0.04075,0.08066 -0.06289,0.08954 -0.08161,0.08675 -0.06907,0.116826 -0.06309,0.209473 0.004,0.01171 0.0066,0.0092 0.004,0.0055 0.01159,0.0096 0.01972,0.0086 0.01784,0.0023 0.02298,-0.0052 0.02493,-0.0153 0.02382,-0.01749 0.02629,-0.02099 0.178883,0.07194 0.01553,0.0066 0.01036,0.0078 0.0093,0.0151 0.0012,0.01171 7.96e-4,0.01 0.002,0.02414 5e-5,0.0087 0.0024,0.0094 0.0068,0.01143 0.01286,0.0054 0.01693,-3.98e-4 0.01617,-0.0036 0.05023,-0.0198 0.04071,-0.01681 0.0092,-0.0085 0.01661,-0.03031 0.01354,0.0041 -0.0063,0.03712 -0.0028,0.0087 -0.01207,0.009 -0.01434,0.0077 -0.114117,0.03505 -0.0088,0.002 -0.0062,-3.18e-4 -0.0065,-2.79e-4 -0.119135,0.01757 -0.227198,0.04218 -0.06146,0.01725 -0.07405,0.01032 -0.01127,0.0047 -0.116347,0.04955 0.0282,0.0766 0.0075,0.01163 0.01048,0.0064 0.0094,0.0056 0.0045,0.01131 0.002,0.01294 -7.9e-5,0.02155 -9.61e-4,0.01542 -0.01784,0.0077 -0.01768,0.01295 h -0.04294 -0.03157 l -0.0088,-0.01389 -0.0088,-0.0076 h -0.01389 l -0.0025,0.01894 -0.0088,0.0038 -0.01642,0.01389 -0.01894,-0.0025 c 0,0 -0.02021,0.0051 -0.02399,0.0101 -0.0038,0.0051 -0.01894,0.0063 -0.01894,0.0063 l -0.01515,-0.0088 -0.01389,-0.01642 -0.01516,-0.0051 -0.02526,0.0013 -0.02021,0.0038 -0.02021,-0.0051 -0.0101,-0.0088 -0.01263,-0.02273 -0.0025,-0.01642 -0.02147,-0.0038 -0.0038,-0.01768 -0.02021,-0.0051 -0.02526,-0.0088 -0.02273,-0.0063 -0.01516,-0.01516 c 0,0 -0.0051,0.01137 -0.0101,0.01137 -0.0051,0 -0.01516,-0.0025 -0.02021,-0.0038 -0.0051,-0.0013 -0.01894,-0.01263 -0.01894,-0.01263 l -0.01642,-0.01894 c 0,0 -0.01263,-0.0101 -0.02021,-0.0101 -0.0076,0 -0.01642,-0.01894 -0.01642,-0.01894 l -0.02399,-0.01137 -0.02778,-0.0051 -0.05178,-0.0076 -0.0442,-0.0063 c 0,0 -0.03157,-0.0088 -0.03789,-0.0101 -0.0063,-0.0013 -0.01516,0 -0.01516,0 l -0.02399,-0.0076 -0.01768,-0.0088 -0.01263,-0.0101 h -0.01768 l -0.01389,0.0051 -0.02147,-0.0038 -0.01389,-0.0038 -0.0076,-0.02147 -0.0013,-0.03157 -0.0051,-0.01389 -0.02778,-0.01389 -0.01894,-0.0063 -0.01516,-0.0051 -0.02147,0.0013 -0.02652,0.0088 -0.0101,-0.0063 -0.01263,-0.01516 -0.01263,-0.01894 h -0.01389 l -0.01894,0.0076 -0.024,0.0063 -0.0088,-0.0051 -0.0101,-0.01137 -0.01516,-0.0038 -0.01389,-0.0076 -0.0101,-0.01136 -0.02021,0.01136 -0.01389,-0.0076 -0.01389,-0.02147 v -0.02147 l -0.0063,-0.01894 -0.01894,-0.01263 -0.01137,-0.01137 -0.01768,-0.0038 c 0,0 -0.02021,0.01516 -0.02652,0.01768 -0.0063,0.0025 -0.01642,0.0025 -0.01642,0.0025 l -0.02778,-0.0063 c 0,0 -0.02905,0 -0.0341,0 -0.0051,0 -0.02399,0 -0.02399,0 l -0.01389,-0.01515 h -0.02021 l -0.02526,0.01137 -0.02021,0.0013 -0.0101,-0.01137 -0.02273,-0.01137 -0.024,-0.0013 -0.02147,-0.0088 -0.04546,-0.0088 -0.01768,0.0076 -0.0088,0.02021 -0.0076,-0.0051 -0.02905,-0.0013 -0.01894,0.0088 -0.02147,0.0063 -0.02021,-0.0063 -0.01389,0.0051 -0.03031,0.0088 -0.01389,-0.02273 -0.0063,-0.02273 c 0,0 -0.0038,-0.01516 -0.0038,-0.02021 0,-0.0051 -0.01768,-0.0076 -0.02273,-0.0088 -0.0051,-0.0013 -0.02273,-0.0101 -0.02273,-0.0101 l -0.01516,0.01389 c 0,0 -0.01137,0.0088 -0.01768,0.01137 -0.0063,0.0025 -0.01263,0.0101 -0.01263,0.0101 0,0 -0.0101,0.01768 -0.01515,0.01768 -0.0051,0 -0.02021,-0.0013 -0.02021,-0.0013 0,0 -0.0076,-0.0101 -0.0088,-0.01516 -0.0013,-0.0051 -0.0101,-0.01894 -0.0101,-0.01894 h -0.02526 l -0.02273,0.01263 -0.02147,0.01642 c 0,0 -0.01263,0.0025 -0.01768,0.0025 -0.0051,0 -0.03662,0.0025 -0.04673,0.0025 -0.0101,0 -0.01642,0.0013 -0.01642,0.0013 0,0 -0.02652,-0.0076 -0.03283,-0.0088 -0.0063,-0.0013 -0.02399,-0.0088 -0.02399,-0.0088 l -0.01894,-0.02021 -0.01642,-0.0051 -0.03157,-0.0063 -0.01768,0.0013 -0.02526,0.0038 -0.0101,-0.0063 -0.0088,-0.01768 -0.0025,-0.01263 -0.01321,0.0035 -0.01161,0.01429 -0.0134,0.0027 -0.02493,-0.0015 -0.01579,-0.0063 -0.02337,-0.0088 -0.01894,-0.0063 -0.02021,-0.0082 -0.0095,-0.01137 -0.0032,-0.01642 -0.0032,-0.02463 -0.0013,-0.01831 -0.0057,-0.012 -0.01389,-0.01768 -0.0076,-0.01389 -0.0088,-0.02084 -0.0051,-0.03157 -0.0013,-0.03284 -6.31e-4,-0.03284 v -0.03473 c 0,0 -0.0025,-0.02021 -0.0032,-0.02273 -6.32e-4,-0.0025 -0.0088,-0.01642 -0.0088,-0.01642 l -0.0095,-0.01389 -0.0101,-6.31e-4 -0.01768,-0.0019 -0.01579,-0.0038 h -0.02147 l -0.01074,0.0019 -0.0051,0.0063 -0.01263,0.0069 -0.0095,0.0063 -0.0019,0.01073 c 0,0 -0.0057,0.01074 -0.0063,0.01452 -6.31e-4,0.0038 -6.31e-4,0.0101 -6.31e-4,0.0101 0,0 -0.0069,0.0095 -0.0082,0.01263 -0.0013,0.0032 -0.0076,0.0095 -0.0076,0.0095 0,0 -0.0019,0.0101 -0.0013,0.01263 6.32e-4,0.0025 -0.0032,0.0051 -0.0032,0.0051 0,0 -0.01326,0 -0.01705,0 -0.0038,0 -0.0051,-0.0051 -0.0051,-0.0051 l -0.0069,-0.0025 -0.01073,0.0063 -0.01326,0.0095 -0.0057,0.0069 -0.04547,0.0032 -0.02399,-0.0013 -0.03031,-6.31e-4 -0.0076,-0.0019 -0.0038,-0.01137 -0.0038,-0.0101 6.31e-4,-0.02336 -0.0038,-0.012 -0.0051,-0.01389 -0.01496,-0.0078 -0.01429,-0.0089 -0.008,-0.0125 -0.008,-0.01161 -0.0018,-0.01072 -0.0063,-0.0054 -0.0054,0.0027 -0.0063,-0.0054 -0.0018,-0.0125 -0.008,-8.93e-4 -0.0054,0.008 -0.0027,0.01161 -8.92e-4,0.01161 -0.0089,0.01161 -0.01607,0.0045 -0.01518,8.94e-4 -0.01786,-0.0027 -0.0089,-0.0036 c 0,0 -0.0125,-0.01518 -0.01786,-0.01875 -0.0054,-0.0036 -0.01072,-0.0098 -0.01072,-0.0098 l -0.02143,0.0063 -0.0036,0.01339 0.0018,0.01875 0.0018,0.02411 v 0.01875 0.02322 l -0.0027,0.01518 -0.0071,0.01965 0.008,0.01518 c 0,0 0.008,0.0054 0.01161,0.0071 0.0036,0.0018 0.0036,0.0089 0.0036,0.0089 l -0.01072,0.0027 -0.0071,0.0036 c 0,0 0.0045,0.01161 0.0054,0.01608 8.92e-4,0.0045 0.0089,0.01607 0.0089,0.01607 l 0.0027,0.01429 -0.01072,0.01072 -0.0125,-0.0027 -0.01429,-0.0071 -0.01429,-0.008 -0.01072,-8.93e-4 -0.0134,0.0018 0.01518,0.008 -0.0089,0.0018 -0.025,-0.0089 -0.04376,-0.0071 -0.0384,-0.01339 -0.0027,0.01518 -0.0071,0.02768 -0.01429,0.01161 0.008,0.01429 -0.0071,0.0063 -0.01339,-0.0089 -0.0045,0.02054 -0.0063,0.03483 -0.01161,0.0125 -0.02054,0.0063 -0.01965,0.02233 -0.01072,0.01072 -0.01515,0.02114 -0.03789,-0.02526 -0.02778,-0.02021 -0.02526,-0.0025 -0.01516,0.03284 -0.02526,-0.0051 -0.02526,0.01263 -0.02273,0.02526 -0.0101,0.02021 -0.01515,0.02778 -0.01263,0.0076 -0.0025,0.02526 0.01263,0.0076 0.01263,0.0025 v 0.01516 0.01263 l -0.02021,-0.0025 -0.01768,0.0101 -0.01263,-0.02273 -0.0101,-0.02778 -0.01768,-0.01768 -0.01263,0.0051 -0.0025,0.0101 0.01263,0.02526 0.0076,0.02021 -0.0076,0.0051 -0.02526,-0.01768 -0.02021,-0.0025 -0.01516,-0.0025 -0.02021,0.03536 -0.0025,-0.02273 0.0025,-0.03031 -0.0025,-0.03031 -0.0025,-0.02021 0.01515,-0.01263 c 0,0 0.0051,0 0.01516,0 0.0101,0 0,-0.01263 0,-0.01263 l -0.0051,-0.02273 -0.0076,-0.02021 0.0076,-0.01768 v -0.02526 l 0.0051,-0.01768 -0.0051,-0.01263 -0.02526,-0.0101 -0.0051,-0.02273 0.0051,-0.01263 0.0101,-0.01263 -0.01263,-0.01263 -0.0051,0.01516 -0.01263,-0.0101 -0.0025,-0.02273 -0.02526,0.0076 0.0076,-0.01768 -0.01768,-0.0025 -0.01768,0.01768 -0.0076,-0.01263 0.01263,-0.02021 0.0051,-0.03031 -0.0076,-0.01516 -0.0101,0.01516 -0.03284,0.02778 0.0076,0.01768 0.0025,0.02273 -0.0101,0.0025 -0.02021,0.01263 -0.02021,0.0025 -0.03789,0.0101 h -0.02021 l -0.03284,0.01516 -0.01263,0.0076 0.01263,0.01768 -0.0076,0.01516 -0.0025,0.01263 0.01263,0.04041 0.02021,0.01263 0.01768,0.01515 -0.0051,0.01263 -0.0101,0.01263 -0.0025,0.02526 -0.02273,0.01515 -0.02778,0.0101 -0.01516,0.02778 v 0.02526 l -0.01515,0.01768 -0.02273,-0.0051 -0.02273,0.0101 -0.01516,0.03789 -0.0051,0.02273 h 0.02273 l 0.03536,-0.01768 0.0076,-0.0101 0.01263,-0.01516 0.0025,-0.02021 0.0076,0.0051 0.0076,0.0101 0.01768,0.02273 -0.01516,0.0076 -0.0101,0.01768 0.0025,0.03031 0.0101,0.03031 0.0101,0.01768 -0.0101,0.0101 0.0101,0.01516 0.02021,0.0076 0.02778,-0.01516 0.03031,-0.02021 0.02778,-0.0076 0.02778,-0.02021 h 0.01516 l -0.0076,0.02021 -0.02526,0.01768 v 0.01263 l 0.01768,0.04546 0.0025,0.02778 -0.0101,0.03283 -0.01263,0.03536 -0.0101,0.02021 0.0076,0.01516 -0.01516,0.0025 -0.02526,-0.0051 -0.01768,-0.01263 -0.02273,0.0101 -0.03031,-0.03283 -0.0101,-0.02273 -0.0051,-0.02021 -0.01768,-0.0101 -0.01263,0.02021 h -0.0101 l -0.0051,-0.01768 -0.01263,-0.02273 v -0.02273 h -0.01516 l -0.02273,0.0101 h -0.01263 l -0.02273,0.0076 -0.02021,-0.0076 -0.01768,0.02526 0.0076,0.02526 0.0076,0.02526 -0.0025,0.01263 0.0101,0.03031 -0.01263,-0.0051 -0.01263,-0.01768 -0.01515,-0.0076 -0.01516,-0.02778 -0.02273,-0.0076 -0.03031,-0.01263 h -0.02526 l -0.02021,0.01516 -0.01263,0.02526 0.01263,0.03536 0.0025,0.02526 -0.01263,0.01263 -0.01768,0.01263 0.01263,0.01516 0.01263,0.02526 -0.0076,0.0101 -0.03031,0.01516 -0.03031,0.01263 0.0101,0.03283 0.0101,0.02526 v 0.01516 l -0.02021,0.0025 h -0.02021 l -0.02021,-0.0101 -0.03536,0.01768 -0.03031,0.0051 -0.04041,0.01768 0.03536,0.0051 0.03031,0.0051 0.02273,0.02526 0.0051,0.03284 -0.0076,0.02778 -0.03031,-0.0101 -0.02273,-0.03283 h -0.06062 l -0.03031,-0.0076 -0.02778,0.04799 -0.02778,0.0076 0.04041,0.04799 0.03031,0.03031 0.01768,0.06062 0.0076,0.05557 0.02526,0.04799 0.02273,0.0076 h 0.03031 l 0.0051,0.0101 -0.01263,0.03789 -0.02021,0.02021 -0.0025,0.02021 -0.0076,0.02273 0.0025,0.02273 0.04041,-0.02021 -0.02021,0.03536 h -0.01768 l -0.0101,0.03536 0.0025,0.03536 0.01516,0.03031 0.05052,0.04041 0.05052,-0.01263 0.08588,-0.02526 0.02021,-0.02021 0.0025,-0.03031 0.0051,-0.03536 0.02526,-0.02021 0.02778,-0.01768 0.03789,-0.05557 0.02526,-0.03789 0.02273,-0.0101 -0.0076,0.02021 -0.0101,0.03031 -0.04546,0.07325 0.01516,0.02021 0.02778,0.01263 h 0.02526 l 0.03031,0.02273 0.0025,0.02778 0.02273,-0.0051 0.06567,-0.0025 0.06567,-0.03031 0.121239,-0.05052 0.06567,-0.02021 0.04041,-0.03031 0.04799,-0.04547 0.05052,-0.03789 0.02021,-0.03283 -0.0025,-0.02273 0.01768,0.01263 z m -0.08859,-0.817936 0.0089,-0.008 0.0063,-8.93e-4 0.0018,0.0125 v 0.01072 l 0.0071,0.0045 0.0027,0.0063 -0.0036,0.0054 v 0.0071 l 0.008,0.008 0.0027,0.0089 -0.0071,-0.0036 -0.0098,-0.0089 -0.0018,-0.0089 -0.0063,-0.0063 -0.0071,-0.0071 -0.0063,-0.008 -0.0027,-0.0063 z m -0.03126,-0.05537 0.0125,-0.008 0.0089,0.0027 0.008,0.0089 0.0071,0.0089 8.92e-4,0.02054 -0.0027,0.01161 -0.01339,0.0036 -0.0027,0.0036 -0.0027,0.008 -0.0054,0.0089 -0.01072,-0.0018 -0.008,-0.01429 -8.93e-4,-0.01339 v -0.01518 l -0.0036,-0.0089 0.0018,-0.0063 0.0063,-0.0063 z m 0.550093,0.584919 0.01429,-0.0063 0.02054,-0.008 0.01875,0.0063 0.01161,-0.0018 0.0089,-0.01965 0.0125,-0.0045 0.0259,0.0027 0.01607,-0.0098 0.02233,8.93e-4 0.01339,0.0071 c 0,0 0.02143,0 0.025,8.93e-4 0.0036,8.93e-4 0.04822,0.0018 0.04822,0.0018 h 0.0259 c 0,0 0.04376,8.93e-4 0.04733,0 0.0036,-8.93e-4 0.03215,-0.0098 0.03215,-0.0098 l 0.0098,-0.0054 0.0098,-0.0089 -0.0054,-0.01072 -0.0071,-0.01072 c 0,0 0.0063,-0.0036 0.01072,-0.0036 0.0045,0 0.01965,0.01339 0.01965,0.01339 l 0.0071,0.01518 -0.0036,0.01339 -0.01072,0.0071 0.0071,8.93e-4 0.01518,-0.0027 0.01339,-0.0098 0.01161,-0.01161 0.0125,-0.0098 -8.93e-4,-0.0098 c 0,0 0.0071,-0.0063 0.01072,-0.0063 0.0036,0 0.01161,0.008 0.01161,0.008 0,0 0.0071,0.0027 0.01161,0.0027 0.0045,0 0.0125,0.0054 0.0125,0.0054 l 0.01786,0.0045 0.01072,0.0045 0.0098,-0.008 0.008,-0.01786 0.0036,-0.0063 0.0134,0.0027 h 0.0098 l 0.0071,-0.01161 0.01429,-0.0036 0.0134,0.0027 0.02679,0.0036 0.01697,-0.0027 0.01875,-0.01429 0.01965,-0.01786 0.0125,-0.0063 0.02232,-0.0045 0.01607,-0.0018 0.01072,0.0018 0.0071,0.0098 0.0018,0.01965 v 0.0098 l 0.01518,-0.0018 0.0018,-0.01518 8.94e-4,-0.01161 0.01161,-0.0036 0.0036,-0.01072 8.94e-4,-0.01875 h 0.0054 l 0.0036,0.0054 0.02054,-8.93e-4 0.01697,0.0027 0.01429,0.0027 0.01161,0.01072 0.0045,0.0259 -0.0036,0.02054 -0.0063,0.0018 -0.0036,0.01607 -0.0036,0.0098 -0.025,-0.0027 -0.0054,-0.0063 -0.0134,0.0063 -0.01161,0.0089 -0.02679,0.0125 -0.0098,0.01429 -0.01697,0.0098 -0.02232,0.008 -0.04644,0.0027 -0.07769,0.0027 -0.07412,0.0071 -0.07948,0.0063 -0.05983,0.01072 h -0.03393 l -0.04376,0.0098 -0.04822,0.0071 -0.05537,0.01072 -0.05626,0.008 -0.03036,-8.94e-4 -0.01965,-0.0054 -0.02768,-0.0036 -0.02054,-0.01161 -0.01518,-0.01339 -0.01161,-0.008 z m -0.33785,0.213975 -0.02778,-0.03789 c 0,0 -0.0101,-0.04041 0,-0.04547 0.0101,-0.0051 0.02778,-0.0051 0.02778,-0.01516 0,-0.0101 0.01768,-0.04799 0.01768,-0.04799 0,0 0.01263,-0.0051 0.02526,-0.0051 0.01263,0 0.06062,-0.0025 0.06062,-0.0025 0,0 0.02778,-0.01263 0.03789,-0.01516 0.0101,-0.0025 0.04041,-0.02273 0.05052,-0.02021 0.0051,0.0013 0.01421,-3.13e-4 0.02115,0.0044 0.0069,0.0047 0.01168,0.01579 0.01168,0.01579 l 0.01768,-0.03536 0.02526,-0.03284 0.02273,-0.02273 0.01516,0.01516 -0.0076,0.03283 -0.0025,0.03031 0.0057,0.04168 0.012,0.03662 0.0038,0.04104 -0.0101,0.0057 -0.0221,0.0019 -0.09977,0.0562 -0.08461,0.0101 -0.08019,-0.0032 z"
       id="path8"
       style="display:inline;fill:#28b62c;fill-opacity:1;stroke:#28b62c;stroke-width:0.0149368;stroke-linecap:butt;stroke-linejoin:round;stroke-miterlimit:4;stroke-dasharray:none;stroke-opacity:1" /></g></svg>
