<?xml version="1.0" encoding="UTF-8" standalone="no"?>
<!-- Created with Inkscape (http://www.inkscape.org/) -->

<svg
   width="128"
   height="128"
   viewBox="0 0 33.866665 33.866667"
   version="1.1"
   id="svg1"
   inkscape:version="1.4.4 (dcaf3e7d9e, 2026-05-05)"
   sodipodi:docname="regionale.svg"
   xml:space="preserve"
   xmlns:inkscape="http://www.inkscape.org/namespaces/inkscape"
   xmlns:sodipodi="http://sodipodi.sourceforge.net/DTD/sodipodi-0.dtd"
   xmlns="http://www.w3.org/2000/svg"
   xmlns:svg="http://www.w3.org/2000/svg"><sodipodi:namedview
     id="namedview1"
     pagecolor="#ffffff"
     bordercolor="#000000"
     borderopacity="0.25"
     inkscape:showpageshadow="false"
     inkscape:pageopacity="0.0"
     inkscape:pagecheckerboard="0"
     inkscape:deskcolor="#d1d1d1"
     inkscape:document-units="px"
     inkscape:zoom="13.147767"
     inkscape:cx="51.415576"
     inkscape:cy="65.410348"
     inkscape:window-width="3394"
     inkscape:window-height="1404"
     inkscape:window-x="2606"
     inkscape:window-y="0"
     inkscape:window-maximized="1"
     inkscape:current-layer="layer1" /><defs
     id="defs1" /><g
     inkscape:label="Layer 1"
     inkscape:groupmode="layer"
     id="layer1"><path
       id="path5"
       style="fill:#158cba;fill-opacity:1;stroke:#158cba;stroke-width:0.132292;stroke-linejoin:round;stroke-miterlimit:4;stroke-dasharray:none;stroke-opacity:1"
       d="M 12.124324 7.4078164 L 12.095386 7.4114338 L 12.051977 7.4186685 L 11.985831 7.4496743 L 11.973946 7.4563923 L 11.726933 7.6444945 L 11.722798 7.6579304 L 11.691276 7.6853189 L 11.675256 7.6956541 L 11.663371 7.7075397 L 11.66182 7.7189085 L 11.683524 7.7897053 L 11.671639 7.908561 L 11.67784 8.0263833 L 11.680941 8.0744424 L 11.723315 8.1240518 L 11.723832 8.1240518 L 11.73365 8.1354206 L 11.747603 8.1478229 L 11.774475 8.1798623 L 11.835453 8.3343748 L 11.819433 8.4186074 L 11.811165 8.4449624 L 11.808581 8.4620156 L 11.810132 8.4780353 L 11.827185 8.5658852 L 11.83907 8.5684691 L 11.840104 8.5684691 L 11.844755 8.5870726 L 11.85199 8.6175617 L 11.858191 8.6552855 L 11.862325 8.6842243 L 11.861808 8.6919757 L 11.840621 8.7167804 L 11.798763 8.7431354 L 11.773958 8.7581216 L 11.737785 8.8154824 L 11.732617 8.934855 L 11.7321 9.0206378 L 11.768274 9.0888507 L 11.883512 9.2077065 L 11.913484 9.2319944 L 11.929504 9.24388 L 11.945007 9.2531818 L 11.959476 9.2619668 L 11.921236 9.2852212 L 11.687142 9.3244953 L 11.600842 9.27902 L 11.514542 9.2392291 L 11.275281 9.3172606 L 11.191565 9.3555011 L 11.172961 9.3673867 L 11.083044 9.450069 L 11.068058 9.4707396 L 11.064441 9.4805581 L 11.057723 9.5058795 L 11.056172 9.5182819 L 11.056172 9.5187986 L 11.048938 9.5296507 L 11.029817 9.5430866 L 10.964705 9.5808104 L 10.9368 9.5901121 L 10.628808 9.6970823 L 10.60142 9.7074176 L 10.528039 9.7461749 L 10.486698 9.7673623 L 10.419002 9.8014687 L 10.360091 9.8298908 L 10.373527 9.8882851 L 10.374044 9.9027545 L 10.373527 9.9229083 L 10.363708 9.9864703 L 10.352339 10.032462 L 10.351823 10.034529 L 10.517187 10.217464 L 10.535274 10.234 L 10.630875 10.305314 L 10.647929 10.313582 L 10.662915 10.318233 L 10.6748 10.325984 L 10.712524 10.383345 L 10.787455 10.597803 L 10.786938 10.607621 L 10.786421 10.619507 L 10.746114 10.654647 L 10.70684 10.668082 L 10.684102 10.663948 L 10.607104 10.644311 L 10.551811 10.589534 L 10.537858 10.561629 L 10.517187 10.541475 L 10.443807 10.517187 L 10.395748 10.503751 L 10.227283 10.487215 L 10.212813 10.492383 L 10.192659 10.503235 L 10.184908 10.509436 L 10.174056 10.517704 L 10.066052 10.641727 L 10.049516 10.668082 L 10.039697 10.685136 L 10.029879 10.68772 L 10.011275 10.679451 L 9.9797524 10.661881 L 9.9451292 10.628808 L 9.8784666 10.56938 L 9.8536619 10.558012 L 9.7647785 10.526489 L 9.5451536 10.485148 L 9.5074298 10.502201 L 9.4144122 10.562663 L 9.3627358 10.59987 L 9.2604165 10.688753 L 9.2226927 10.721826 L 9.1689492 10.773502 L 9.1653319 10.781254 L 9.0997028 10.766784 L 9.0216714 10.673767 L 9.0196043 10.67325 L 9.0113361 10.681002 L 8.9741291 10.757483 L 8.9689614 10.770919 L 8.9684446 10.789522 L 8.9684446 10.81536 L 8.9710285 10.838615 L 8.9803302 10.885123 L 8.8852456 10.972457 L 8.8108315 11.000879 L 8.790161 11.011731 L 8.6837075 11.101648 L 8.6666543 11.118184 L 8.6501178 11.138338 L 8.636682 11.156425 L 8.594824 11.221537 L 8.5891396 11.23549 L 8.5906899 11.252026 L 8.5571003 11.32489 L 8.5235106 11.367781 L 8.5111082 11.387935 L 8.5038735 11.399821 L 8.5064574 11.410156 L 8.5260944 11.488704 L 8.4759683 11.46545 L 8.4511636 11.453047 L 8.4677 11.545032 L 8.4713174 11.561051 L 8.4713174 11.561568 L 8.4780353 11.579655 L 8.4894041 11.595674 L 8.4987059 11.608594 L 8.5245441 11.653552 L 8.5302285 11.678357 L 8.5571003 11.853023 L 8.3824339 12.005985 L 8.3726154 12.013737 L 8.3653807 12.01477 L 8.257377 12.042159 L 8.0966633 12.168766 L 7.9633381 12.117606 L 7.9447345 12.110372 L 7.970056 12.146545 L 7.989693 12.26075 L 7.9933104 12.29744 L 7.996411 12.32948 L 7.9747069 12.365136 L 7.9566201 12.394592 L 7.8698037 12.527917 L 7.8393146 12.542903 L 7.700305 12.579077 L 7.6853189 12.58011 L 7.5592284 12.566158 L 7.465694 12.542903 L 7.4408893 12.527917 L 7.4300373 12.52275 L 7.4176349 12.525333 L 7.4010985 12.534635 L 7.3990314 12.535669 L 7.3871459 12.544454 L 7.3752603 12.555823 L 7.3272012 12.623519 L 7.2388345 12.63282 L 7.231083 12.635921 L 7.0801878 12.753226 L 7.0956908 12.773897 L 7.1106769 12.793534 L 7.1241128 12.815755 L 7.1334146 12.846761 L 7.139099 12.864848 L 7.1380655 12.8788 L 7.0507323 13.199711 L 7.0135253 13.226066 L 6.9628823 13.259139 L 6.7768472 13.372827 L 6.7665119 13.379028 L 6.7608275 13.38678 L 6.6740111 13.56713 L 6.6492064 13.645162 L 6.6569579 13.665315 L 6.6652261 13.681335 L 6.6528238 13.724227 L 6.6900308 13.894759 L 6.6972655 13.900443 L 6.7003661 13.90251 L 6.7076008 13.908711 L 6.715869 13.911295 L 6.7417072 13.912846 L 6.8130207 14.035835 L 6.8378254 14.104565 L 6.8450601 14.121618 L 6.8507445 14.132987 L 6.8745157 14.170711 L 6.8827839 14.179496 L 6.8900186 14.176395 L 6.8988036 14.165027 L 6.9050047 14.157792 L 6.9360106 14.152107 L 6.9463459 14.151074 L 6.95048 14.153141 L 6.9551309 14.155208 L 6.9913044 14.174845 L 6.9990559 14.178979 L 7.0652017 14.230139 L 7.1060261 14.281815 L 7.1318643 14.319539 L 7.1737222 14.35778 L 7.2042113 14.362947 L 7.2160969 14.356746 L 7.2279824 14.350028 L 7.2393513 14.347444 L 7.2512368 14.352095 L 7.2791421 14.370182 L 7.2930947 14.380517 L 7.3396035 14.447697 L 7.3390868 14.44873 L 7.3943806 14.465783 L 7.40885 14.461133 L 7.4253864 14.453381 L 7.4941161 14.419275 L 7.5664631 14.383618 L 7.5855833 14.373283 L 7.7473306 14.371216 L 7.8010741 14.435294 L 7.8279458 14.476635 L 7.827429 14.49989 L 7.8227782 14.527278 L 7.8155435 14.539681 L 7.8093423 14.545365 L 7.8000405 14.552083 L 7.7871214 14.556217 L 7.7762694 14.556217 L 7.7680011 14.563452 L 7.7499144 14.590324 L 7.7147744 14.674556 L 7.7199421 14.679207 L 7.7380288 14.697811 L 7.7643838 14.723649 L 7.7819538 14.738635 L 7.7953897 14.745353 L 7.8088255 14.750004 L 7.9592039 14.726233 L 8.0635903 14.709696 L 8.0765094 14.708663 L 8.0940794 14.707112 L 8.1075153 14.706596 L 8.1219847 14.707112 L 8.268229 14.725199 L 8.3354084 14.736568 L 8.3095701 14.761373 L 8.2821816 14.884362 L 8.2790811 14.898832 L 8.2801146 14.915885 L 8.2816649 14.926737 L 8.3560789 15.188737 L 8.3896686 15.262117 L 8.4754515 15.399577 L 8.583972 15.48846 L 8.5953408 15.493111 L 8.6552855 15.50603 L 8.7648395 15.55719 L 8.9400226 15.64504 L 8.9741291 15.690515 L 8.9979002 15.722554 L 8.998417 15.728239 L 8.9973834 15.742708 L 8.9922158 15.759244 L 8.989632 15.765446 L 8.9834308 15.777331 L 8.9777464 15.799552 L 9.0015176 15.922542 L 9.0144367 15.949931 L 9.0278725 15.964917 L 9.035624 15.974735 L 9.0382078 15.987654 L 9.0376911 16.000573 L 9.0330402 16.01711 L 9.026839 16.036747 L 9.0139199 16.074471 L 9.0165037 16.129764 L 9.0046181 16.134415 L 8.9891152 16.141133 L 8.9761961 16.151469 L 8.972062 16.156636 L 8.9663776 16.164904 L 8.9627602 16.170589 L 8.9451903 16.212447 L 8.9426064 16.23105 L 8.9498411 16.242419 L 8.9596597 16.252754 L 8.9689614 16.259472 L 8.9761961 16.276526 L 8.9756793 16.281176 L 8.9746458 16.287894 L 8.972062 16.293579 L 8.9379556 16.363342 L 8.9358885 16.367476 L 8.9167682 16.393831 L 8.9017821 16.408817 L 8.8485553 16.572632 L 8.844938 16.5809 L 8.8309853 16.60002 L 8.6831907 16.732312 L 8.6640705 16.744197 L 8.5819049 16.790189 L 8.4454792 16.862536 L 8.3545286 16.909045 L 8.2868325 16.943152 L 8.277014 16.943668 L 8.2387734 16.937467 L 8.2289549 16.9354 L 8.2144855 16.931783 L 8.0852944 17.083711 L 8.070825 17.122469 L 8.0548053 17.175179 L 8.0341348 17.228922 L 8.0103636 17.272847 L 7.9886595 17.30437 L 7.9421507 17.366381 L 7.9266478 17.384985 L 7.899776 17.391703 L 7.8444823 17.390669 L 7.8000405 17.530196 L 7.7824705 17.646468 L 7.7824705 17.671789 L 7.77937 17.683675 L 7.7711017 17.688326 L 7.7540485 17.69401 L 7.7349282 17.699178 L 7.6977212 17.707446 L 7.7152912 17.732767 L 7.7390623 17.76274 L 7.7478473 17.772041 L 7.7912555 17.817517 L 7.7953897 17.821134 L 7.8021076 17.825268 L 7.8072752 17.827335 L 7.8207111 17.83612 L 7.8300129 17.842838 L 7.8372476 17.851623 L 7.8501667 17.869193 L 7.9049437 17.946708 L 7.9101113 17.954459 L 7.9163125 17.966862 L 7.9312987 18.045927 L 7.9312987 18.054712 L 7.9271646 18.065564 L 7.924064 18.072798 L 7.9116616 18.089852 L 7.9509357 18.212325 L 7.952486 18.234546 L 7.9617878 18.305342 L 8.0289671 18.432983 L 8.0894286 18.522383 L 8.0930459 18.565791 L 8.0868447 18.666561 L 8.059973 18.82004 L 8.0279336 19.136816 L 8.0103636 19.229834 L 8.0103636 19.231384 L 8.0108804 19.232934 L 8.0563556 19.382279 L 8.0573892 19.38538 L 8.0579059 19.38693 L 8.06204 19.393131 L 8.0868447 19.402433 L 8.1483397 19.421036 L 8.158675 19.423103 L 8.1679767 19.424137 L 8.1777952 19.424654 L 8.2062173 19.42052 L 8.2227537 19.417419 L 8.2739134 19.398816 L 8.2806313 19.395198 L 8.4294595 19.38693 L 8.4397948 19.391064 L 8.458915 19.409151 L 8.4594318 19.447908 L 8.4677 19.470646 L 8.4718341 19.477364 L 8.5586505 19.615857 L 8.7043781 19.717659 L 8.7147134 19.72386 L 8.7720742 19.750732 L 8.8216836 19.77347 L 8.8506224 19.778121 L 8.8604409 19.775537 L 8.8707762 19.771919 L 8.9395058 19.770369 L 9.0397581 19.776053 L 9.0552611 19.778637 L 9.0655963 19.782255 L 9.0697305 19.784322 L 9.0759316 19.787422 L 9.0966022 19.798274 L 9.116756 19.81016 L 9.1239907 19.814294 L 9.1348428 19.826696 L 9.1462116 19.841683 L 9.1596474 19.874239 L 9.160681 19.877339 L 9.160681 19.884057 L 9.145178 19.910412 L 9.1353595 19.926432 L 9.1291583 19.934183 L 9.1301919 19.943485 L 9.1301919 19.944519 L 9.1927204 20.066992 L 9.2340615 20.124869 L 9.2423297 20.134171 L 9.2671344 20.158976 L 9.2759194 20.16311 L 9.3663532 20.177579 L 9.3560179 20.187398 L 9.3038247 20.230806 L 9.2971068 20.23494 L 9.2273436 20.262845 L 9.2252765 20.262845 L 9.206673 20.258711 L 9.1860024 20.255094 L 9.1560301 20.261295 L 9.1487954 20.271114 L 9.2748859 20.410123 L 9.3684202 20.475236 L 9.4211302 20.501074 L 9.4433511 20.510892 L 9.4877928 20.554817 L 9.542053 20.745503 L 9.5523883 20.792012 L 9.548771 20.796146 L 9.5446369 20.800797 L 9.5301675 20.79873 L 9.5281004 20.79873 L 9.5105304 20.799247 L 9.4955442 20.805448 L 9.4893431 20.812166 L 9.4888263 20.812683 L 9.4516193 20.869527 L 9.4557534 20.881929 L 9.4722899 20.891748 L 9.7208535 20.934122 L 9.7585773 21.017321 L 9.846944 21.177518 L 9.8484943 21.196639 L 9.8453937 21.217826 L 9.8376422 21.239013 L 9.785449 21.302575 L 9.7776976 21.308776 L 9.7647785 21.312394 L 9.7435911 21.314978 L 9.7249876 21.312911 L 9.7565102 21.372338 L 9.7802814 21.491194 L 9.7807981 21.492745 L 9.8505613 21.555273 L 9.8619301 21.55889 L 9.8800169 21.55579 L 9.8851845 21.554239 L 9.8934528 21.547522 L 9.930143 21.483443 L 9.9316933 21.477758 L 9.9254922 21.470524 L 9.9203245 21.465356 L 9.9146401 21.458121 L 9.9167072 21.450887 L 9.921358 21.448303 L 9.9316933 21.449853 L 9.9316933 21.45037 L 9.9435789 21.458121 L 9.9523639 21.46639 L 9.9595986 21.475175 L 9.9637327 21.482926 L 9.9694171 21.501013 L 9.9782021 21.529435 L 9.9787189 21.535119 L 10.033496 21.583178 L 10.104293 21.558374 L 10.120829 21.553206 L 10.132715 21.557857 L 10.145117 21.569742 L 10.155969 21.585245 L 10.16062 21.600232 L 10.163721 21.613151 L 10.188525 21.669478 L 10.231933 21.744926 L 10.237101 21.748543 L 10.254671 21.750093 L 10.307898 21.74906 L 10.315132 21.746993 L 10.3203 21.744409 L 10.329602 21.738208 L 10.334769 21.733557 L 10.338387 21.729423 L 10.33942 21.718054 L 10.335286 21.707718 L 10.324434 21.693249 L 10.308931 21.68033 L 10.296012 21.670511 L 10.292395 21.663277 L 10.295495 21.659143 L 10.30118 21.655525 L 10.349239 21.624003 L 10.354923 21.621936 L 10.359574 21.621936 L 10.362675 21.622969 L 10.340971 21.552172 L 10.33632 21.535636 L 10.322367 21.467423 L 10.331669 21.457605 L 10.387996 21.400244 L 10.474296 21.335648 L 10.483081 21.350118 L 10.488248 21.361486 L 10.500134 21.385774 L 10.510469 21.401277 L 10.552844 21.44882 L 10.560595 21.456054 L 10.56783 21.461739 L 10.611755 21.492228 L 10.625191 21.497395 L 10.682035 21.519616 L 10.705806 21.515482 L 10.715108 21.507731 L 10.719759 21.504113 L 10.814844 21.556823 L 10.939901 21.659659 L 11.018449 21.650874 L 11.023616 21.652425 L 11.029817 21.658109 L 11.032918 21.66121 L 11.036535 21.664827 L 11.057206 21.706168 L 11.057723 21.711853 L 11.037569 21.762496 L 11.02465 21.789884 L 11.123352 21.848278 L 11.125936 21.858614 L 11.122835 21.896337 L 11.090279 21.935612 L 11.073226 21.952665 L 11.16831 22.065319 L 11.181229 22.074621 L 11.193632 22.089091 L 11.211202 22.109761 L 11.226188 22.130432 L 11.228255 22.140767 L 11.227221 22.150069 L 11.226188 22.153169 L 11.325407 22.181075 L 11.333675 22.182625 L 11.345044 22.181591 L 11.388452 22.162988 L 11.397237 22.158337 L 11.41119 22.148002 L 11.41584 22.144384 L 11.463383 22.104077 L 11.633398 21.941813 L 11.674223 21.904606 L 11.726416 21.826574 L 11.840621 21.708235 L 11.847339 21.704618 L 11.852506 21.701517 L 11.908834 21.64674 L 11.942423 21.6085 L 11.94294 21.607983 L 11.983764 21.55579 L 11.991516 21.544421 L 11.997717 21.532535 L 11.999784 21.526334 L 12.056628 21.45192 L 12.128975 21.364587 L 12.143961 21.352701 L 12.1729 21.359419 L 12.202356 21.392492 L 12.204423 21.398177 L 12.201322 21.405411 L 12.198222 21.409029 L 12.236462 21.462772 L 12.241113 21.46949 L 12.250415 21.480342 L 12.263334 21.493778 L 12.293306 21.5222 L 12.306742 21.535119 L 12.314494 21.54132 L 12.316561 21.542871 L 12.328963 21.534602 L 12.374955 21.50153 L 12.384774 21.494295 L 12.389424 21.491194 L 12.396142 21.48396 L 12.406994 21.471557 L 12.423531 21.45037 L 12.438517 21.429183 L 12.477791 21.37854 L 12.512414 21.337715 L 12.5243 21.325313 L 12.534118 21.317045 L 12.606465 21.262784 L 12.620418 21.254516 L 12.665377 21.210591 L 12.66486 21.210074 L 12.664343 21.209041 L 12.628686 21.16925 L 12.66641 21.126359 L 12.674678 21.117057 L 12.749092 21.070031 L 12.778031 21.058146 L 12.813171 21.04626 L 12.82299 21.048327 L 12.84056 21.054528 L 12.862264 21.073649 L 12.930477 21.137211 L 13.043131 21.196639 L 13.087056 21.194055 L 13.139766 21.219893 L 13.140283 21.219893 L 13.141833 21.221443 L 13.138733 21.269502 L 13.083439 21.412129 L 13.076721 21.421431 L 13.067419 21.428666 L 13.065869 21.433317 L 13.065352 21.440035 L 13.083439 21.55889 L 13.105143 21.604882 L 13.108244 21.607983 L 13.109277 21.609533 L 13.178007 21.655525 L 13.199711 21.658109 L 13.210046 21.654492 L 13.337687 21.583695 L 13.337687 21.579561 L 13.337687 21.572326 L 13.338204 21.475175 L 13.415718 21.38009 L 13.421403 21.38319 L 13.449825 21.386808 L 13.471012 21.384741 L 13.539225 21.335131 L 13.590385 21.280354 L 13.583667 21.236946 L 13.580049 21.216792 L 13.580049 21.216276 L 13.577466 21.208007 L 13.579016 21.1708 L 13.818794 21.124808 L 13.905611 21.111372 L 14.058056 21.154781 L 14.108699 21.201806 L 14.121102 21.246765 L 14.032735 21.421431 L 14.055989 21.436417 L 14.301969 21.596614 L 14.304553 21.607466 L 14.293701 21.652425 L 14.315405 21.663277 L 14.333492 21.666894 L 14.336592 21.666894 L 14.425476 21.613151 L 14.575854 21.553206 L 14.629081 21.578527 L 14.687475 21.486543 L 14.702978 21.458638 L 14.714347 21.473624 L 14.744836 21.530468 L 14.752071 21.558374 L 14.756205 21.584212 L 14.765507 21.602299 L 14.795479 21.658626 L 14.813049 21.690148 L 14.823384 21.708235 L 14.990299 21.655009 L 15.033707 21.640539 L 15.041459 21.637955 L 15.078149 21.632271 L 15.109672 21.940262 L 15.102954 21.943363 L 15.088484 21.94698 L 15.076599 21.948531 L 15.044043 21.950081 L 15.038875 21.938712 L 14.945857 22.019327 L 14.929321 22.03483 L 14.931905 22.045682 L 14.956193 22.098392 L 14.965494 22.116479 L 14.973763 22.129398 L 14.990816 22.128881 L 14.999084 22.126814 L 15.004769 22.125264 L 15.006319 22.124747 L 15.011487 22.123197 L 15.013554 22.083406 L 15.079699 22.059118 L 15.041459 22.107177 L 15.034741 22.111828 L 15.026989 22.116479 L 15.013037 22.132499 L 15.004769 22.135599 L 14.988232 22.141801 L 14.969629 22.141284 L 14.963427 22.152136 L 14.957743 22.177457 L 14.961877 22.184692 L 14.991333 22.202779 L 15.002185 22.206913 L 15.008903 22.209497 L 15.025956 22.214664 L 15.040942 22.215698 L 15.04921 22.216731 L 15.069364 22.213114 L 15.077632 22.21208 L 15.101404 22.21053 L 15.113806 22.212597 L 15.121557 22.213631 L 15.140161 22.218798 L 15.140678 22.218798 L 15.163415 22.231201 L 15.167033 22.233785 L 15.192354 22.250838 L 15.213541 22.266341 L 15.229561 22.278226 L 15.231628 22.293212 L 15.22646 22.319051 L 15.20734 22.362976 L 15.194938 22.378995 L 15.187186 22.382613 L 15.180985 22.385196 L 15.164449 22.390364 L 15.149463 22.387264 L 15.13396 22.372794 L 15.121041 22.358842 L 15.113289 22.339204 L 15.110189 22.319567 L 15.105538 22.295796 L 15.098303 22.28081 L 15.078666 22.274609 L 15.069881 22.276159 L 15.049727 22.281844 L 15.047143 22.282877 L 15.034741 22.286495 L 15.022855 22.301481 L 14.973763 22.411035 L 14.969629 22.428088 L 14.97738 22.446175 L 15.061613 22.606372 L 15.068847 22.615673 L 15.069881 22.61774 L 15.0828 22.625492 L 15.100887 22.629626 L 15.121557 22.623942 L 15.136543 22.610506 L 15.141711 22.59707 L 15.143261 22.578466 L 15.146362 22.56193 L 15.149979 22.544877 L 15.157214 22.530924 L 15.158764 22.529374 L 15.167033 22.523689 L 15.171683 22.522139 L 15.179952 22.520072 L 15.194421 22.531958 L 15.203723 22.546944 L 15.208374 22.566064 L 15.20889 22.585701 L 15.202689 22.601204 L 15.187703 22.614123 L 15.174267 22.621358 L 15.068331 22.672517 L 15.067814 22.781038 L 15.158248 22.972241 L 15.280721 23.075077 L 15.422314 23.160343 L 15.414046 23.25026 L 15.372705 23.326741 L 15.337565 23.439396 L 15.336531 23.452315 L 15.340665 23.468334 L 15.353068 23.483837 L 15.388208 23.51381 L 15.410429 23.532413 L 15.437817 23.545849 L 15.462622 23.554634 L 15.480709 23.560319 L 15.496728 23.564969 L 15.511714 23.572204 L 15.526184 23.582023 L 15.530835 23.593908 L 15.536002 23.69106 L 15.530318 23.702945 L 15.517399 23.71173 L 15.500862 23.721032 L 15.478125 23.731884 L 15.457971 23.743253 L 15.440401 23.755655 L 15.427482 23.777876 L 15.423348 23.807849 L 15.422314 23.816634 L 15.421281 23.840405 L 15.423864 23.865726 L 15.432133 23.887947 L 15.438851 23.893632 L 15.452286 23.899833 L 15.461071 23.902933 L 15.467789 23.905 L 15.476058 23.908101 L 15.483292 23.910685 L 15.497762 23.909651 L 15.50758 23.905 L 15.522566 23.895182 L 15.532385 23.88433 L 15.536002 23.873478 L 15.538586 23.865209 L 15.539103 23.849707 L 15.539103 23.829553 L 15.537036 23.809399 L 15.536002 23.794413 L 15.541687 23.785111 L 15.586645 23.738602 L 15.613 23.716898 L 15.637288 23.696744 L 15.661059 23.682275 L 15.677079 23.674523 L 15.682247 23.67349 L 15.691032 23.672973 L 15.704467 23.676591 L 15.710669 23.683308 L 15.713252 23.685892 L 15.710669 23.704496 L 15.701367 23.7262 L 15.700333 23.731368 L 15.695682 23.749454 L 15.692065 23.769608 L 15.687931 23.800614 L 15.687414 23.831103 L 15.696716 23.855908 L 15.71532 23.873994 L 15.73599 23.886914 L 15.752527 23.893115 L 15.769063 23.9019 L 15.801619 23.921537 L 15.82384 23.936006 L 15.83986 23.951509 L 15.846578 23.967529 L 15.849678 23.982515 L 15.83986 24.129793 L 15.810921 24.315311 L 15.808854 24.327197 L 15.809371 24.327714 L 15.815572 24.3427 L 15.831591 24.357686 L 15.924609 24.441918 L 15.933394 24.443469 L 15.940112 24.442435 L 15.948897 24.440885 L 15.954065 24.427966 L 15.958199 24.410913 L 15.963366 24.397477 L 15.970601 24.389209 L 15.989205 24.385074 L 16.005224 24.386625 L 16.023311 24.395926 L 16.032096 24.412463 L 16.035713 24.429516 L 16.033646 24.446569 L 16.024345 24.478092 L 16.017627 24.497729 L 16.008842 24.516333 L 15.998506 24.53597 L 15.987654 24.549405 L 15.977836 24.55664 L 15.969568 24.558707 L 15.959232 24.559741 L 15.940629 24.556123 L 15.924092 24.551472 L 15.917891 24.552506 L 15.915824 24.553023 L 15.911173 24.559224 L 15.906006 24.57266 L 15.906522 24.590747 L 15.916858 24.611417 L 15.930293 24.624853 L 16.031063 24.716837 L 16.049149 24.730273 L 16.058968 24.73389 L 16.064135 24.735441 L 16.070337 24.731823 L 16.084806 24.719421 L 16.111678 24.697717 L 16.130281 24.69565 L 16.145267 24.6972 L 16.160254 24.703401 L 16.173689 24.717354 L 16.192293 24.751977 L 16.197977 24.76748 L 16.217614 24.825358 L 16.219681 24.851713 L 16.174206 24.930778 L 16.162837 24.955065 L 16.162321 24.956616 L 16.153536 24.986071 L 16.151985 24.993306 L 16.151469 25.002091 L 16.151469 25.01656 L 16.151985 25.042915 L 16.152502 25.05015 L 16.153019 25.054284 L 16.156636 25.066687 L 16.164388 25.088907 L 16.167488 25.095109 L 16.172139 25.103377 L 16.175757 25.109578 L 16.179891 25.114746 L 16.186609 25.12043 L 16.189192 25.12198 L 16.19281 25.123531 L 16.19591 25.124047 L 16.199011 25.124047 L 16.204695 25.122497 L 16.213997 25.119396 L 16.220198 25.116813 L 16.238285 25.107511 L 16.255338 25.096659 L 16.26464 25.089941 L 16.281176 25.080639 L 16.310115 25.066687 L 16.320451 25.062036 L 16.327685 25.060485 L 16.33647 25.058935 L 16.345255 25.058418 L 16.35249 25.057902 L 16.363342 25.058418 L 16.375744 25.059452 L 16.38763 25.061002 L 16.395381 25.062552 L 16.405717 25.065653 L 16.410884 25.066687 L 16.437239 25.080639 L 16.444991 25.086324 L 16.449125 25.089424 L 16.452742 25.093558 L 16.455326 25.098209 L 16.456876 25.10441 L 16.456876 25.107511 L 16.456876 25.111128 L 16.45636 25.115262 L 16.455326 25.11888 L 16.490983 25.203629 L 16.643945 25.320418 L 16.65428 25.328169 L 16.674951 25.342639 L 16.695105 25.240319 L 16.714225 25.17159 L 16.728694 25.126114 L 16.740063 25.097176 L 16.755566 25.058418 L 16.789673 24.994856 L 16.798458 24.980904 L 16.805692 24.970568 L 16.814994 24.960233 L 16.826363 24.947831 L 16.895609 24.877034 L 16.908012 24.865665 L 16.977775 24.803137 L 17.006714 24.778849 L 17.072859 24.724589 L 17.125053 24.683247 L 17.187064 24.632604 L 17.241841 24.587646 L 17.265096 24.565425 L 17.310571 24.5215 L 17.322457 24.507548 L 17.343127 24.481709 L 17.364831 24.448636 L 17.375683 24.423832 L 17.379301 24.410913 L 17.381368 24.400577 L 17.381884 24.394376 L 17.376717 24.375256 L 17.367415 24.365954 L 17.336926 24.355619 L 17.333825 24.3427 L 17.281632 24.323579 L 17.264062 24.311177 L 17.266646 24.333915 L 17.246492 24.366471 L 17.195849 24.404711 L 17.14779 24.450187 L 17.107483 24.480159 L 17.041854 24.500313 L 16.920414 24.550956 L 16.854785 24.581445 L 16.789156 24.584029 L 16.766418 24.589196 L 16.763834 24.561291 L 16.733345 24.538553 L 16.708541 24.538553 L 16.680635 24.525634 L 16.665132 24.50548 L 16.710608 24.4321 L 16.720943 24.402128 L 16.728694 24.381974 L 16.705957 24.391792 L 16.680635 24.430033 L 16.642395 24.485327 L 16.615006 24.502897 L 16.589685 24.52305 L 16.584517 24.558707 L 16.581933 24.589196 L 16.561779 24.60935 L 16.475997 24.634672 L 16.425354 24.647074 L 16.374711 24.606766 L 16.359725 24.576277 L 16.357141 24.541137 L 16.367476 24.50548 L 16.385046 24.50548 L 16.4052 24.470341 L 16.364892 24.490494 L 16.362308 24.467757 L 16.37006 24.445019 L 16.372644 24.424865 L 16.392798 24.404711 L 16.4052 24.366471 L 16.400032 24.356652 L 16.37006 24.356652 L 16.347322 24.348901 L 16.322001 24.300842 L 16.314249 24.245548 L 16.296679 24.18457 L 16.26619 24.154598 L 16.225883 24.106538 L 16.253788 24.098787 L 16.281176 24.050728 L 16.311666 24.058479 L 16.372127 24.058479 L 16.394865 24.091552 L 16.425354 24.101371 L 16.433105 24.073466 L 16.427938 24.040909 L 16.4052 24.015588 L 16.374711 24.01042 L 16.339571 24.005253 L 16.379878 23.987683 L 16.410368 23.982515 L 16.445507 23.964945 L 16.465661 23.974764 L 16.485815 23.974764 L 16.505969 23.972696 L 16.505969 23.957194 L 16.49615 23.931872 L 16.485815 23.899316 L 16.516304 23.886397 L 16.546793 23.871411 L 16.554028 23.861592 L 16.541626 23.836271 L 16.528707 23.820768 L 16.546793 23.808365 L 16.559196 23.795446 L 16.556612 23.770642 L 16.544209 23.734985 L 16.556612 23.709663 L 16.576766 23.694677 L 16.602087 23.694677 L 16.632576 23.70708 L 16.655314 23.714831 L 16.6703 23.742736 L 16.685803 23.750488 L 16.698205 23.768058 L 16.710608 23.773225 L 16.700789 23.742736 L 16.703373 23.730334 L 16.695621 23.705013 L 16.68787 23.679691 L 16.705957 23.65437 L 16.726111 23.662121 L 16.748848 23.65437 L 16.76125 23.65437 L 16.783988 23.644034 L 16.798974 23.644034 L 16.798974 23.666772 L 16.811893 23.68951 L 16.817061 23.707596 L 16.82688 23.707596 L 16.839799 23.686926 L 16.857369 23.697261 L 16.862536 23.717415 L 16.872355 23.740153 L 16.902844 23.773225 L 16.925582 23.76289 L 16.943152 23.775293 L 16.968473 23.78046 L 16.983459 23.778393 L 16.976224 23.76289 L 16.986043 23.742736 L 16.998962 23.707596 L 17.008781 23.674523 L 17.006197 23.646618 L 16.988627 23.601143 L 16.988627 23.588741 L 17.013948 23.571171 L 17.0217 23.551017 L 17.006197 23.551017 L 16.978808 23.571171 L 16.950903 23.578405 L 16.920414 23.599076 L 16.892509 23.614062 L 16.872355 23.606311 L 16.862536 23.591324 L 16.872355 23.580989 L 16.862536 23.563419 L 16.852201 23.53293 L 16.849617 23.502958 L 16.859952 23.485388 L 16.874939 23.477636 L 16.857369 23.454899 L 16.849617 23.444563 L 16.842382 23.439396 L 16.839799 23.460066 L 16.82688 23.475052 L 16.819645 23.484871 L 16.783988 23.502958 L 16.76125 23.502958 L 16.766418 23.48022 L 16.781404 23.44198 L 16.804142 23.432161 L 16.82688 23.437329 L 16.842382 23.419242 L 16.842382 23.394437 L 16.857369 23.366532 L 16.885274 23.356197 L 16.908012 23.34121 L 16.910595 23.315889 L 16.920414 23.303487 L 16.925582 23.290568 L 16.908012 23.275581 L 16.887858 23.262662 L 16.874939 23.222355 L 16.877522 23.209952 L 16.885274 23.194449 L 16.872355 23.176879 L 16.885274 23.169645 L 16.91783 23.154142 L 16.938501 23.154142 L 16.976224 23.144323 L 16.996378 23.141739 L 17.016532 23.12882 L 17.026867 23.126753 L 17.024284 23.104016 L 17.016532 23.085929 L 17.049605 23.05854 L 17.059423 23.043037 L 17.067175 23.05854 L 17.062007 23.088513 L 17.049605 23.108667 L 17.05684 23.121586 L 17.07441 23.104016 L 17.092496 23.106083 L 17.084745 23.124169 L 17.110066 23.116418 L 17.11265 23.139156 L 17.125053 23.148974 L 17.13022 23.133988 L 17.142623 23.146907 L 17.132804 23.159309 L 17.127636 23.171712 L 17.132804 23.194449 L 17.158125 23.204785 L 17.163293 23.217187 L 17.158125 23.235274 L 17.158125 23.260595 L 17.150374 23.278165 L 17.158125 23.298319 L 17.163293 23.321057 C 17.163293 23.321057 17.166934 23.326141 17.167427 23.329842 L 17.167427 23.330358 L 17.167427 23.330875 L 17.167427 23.331392 L 17.167427 23.331909 L 17.16691 23.331909 L 17.16691 23.332425 L 17.166394 23.332942 L 17.165877 23.332942 L 17.16536 23.333459 C 17.16512 23.333505 17.164087 23.333435 17.16381 23.333459 L 17.163293 23.333459 L 17.14779 23.333459 L 17.132804 23.346378 L 17.135388 23.366532 L 17.137972 23.396504 L 17.135388 23.426993 L 17.137972 23.449731 L 17.158125 23.414591 L 17.173112 23.417175 L 17.193265 23.419242 L 17.218587 23.437329 L 17.226338 23.432161 L 17.218587 23.412007 L 17.206185 23.386686 L 17.208768 23.37635 L 17.221171 23.371183 L 17.238741 23.38927 L 17.249076 23.416658 L 17.261478 23.439396 L 17.279048 23.429577 L 17.299202 23.432161 L 17.299202 23.419242 L 17.299202 23.404256 L 17.2868 23.401672 L 17.274397 23.39392 L 17.276465 23.368599 L 17.289384 23.361364 L 17.30437 23.333459 L 17.314705 23.313305 L 17.337443 23.287984 L 17.362764 23.275065 L 17.387569 23.280232 L 17.403072 23.247676 L 17.428393 23.25026 L 17.455782 23.270414 L 17.494022 23.295735 L 17.509008 23.274548 L 17.51986 23.263696 L 17.539498 23.241475 L 17.560168 23.235274 L 17.571537 23.222355 L 17.577738 23.187731 L 17.582389 23.167061 L 17.595825 23.175846 L 17.60306 23.169645 L 17.594791 23.155692 L 17.609261 23.143807 L 17.616495 23.116418 L 17.619079 23.100915 L 17.65732 23.114351 L 17.701245 23.121586 L 17.726049 23.130371 L 17.734834 23.12882 L 17.719848 23.120552 L 17.733284 23.119002 L 17.744136 23.119519 L 17.758089 23.127787 L 17.772558 23.135022 L 17.784961 23.137605 L 17.795813 23.126753 L 17.793229 23.112284 C 17.793229 23.112284 17.784819 23.100764 17.783927 23.096264 C 17.783027 23.091794 17.778759 23.080245 17.778759 23.080245 L 17.785994 23.076627 L 17.796329 23.074043 C 17.796329 23.074043 17.796466 23.070524 17.795296 23.067842 L 17.795296 23.067325 C 17.795147 23.067116 17.794435 23.065958 17.794262 23.065775 L 17.793746 23.065775 L 17.793229 23.065258 C 17.789619 23.063558 17.781343 23.058024 17.781343 23.058024 L 17.773592 23.043037 L 17.78031 23.0234 L 17.78341 23.007897 L 17.78341 22.984643 L 17.78341 22.96604 L 17.781343 22.941752 L 17.779793 22.923148 L 17.78341 22.909712 L 17.804598 22.903511 C 17.804598 22.903511 17.81005 22.90973 17.81545 22.91333 C 17.82081 22.9169 17.83302 22.931933 17.83302 22.931933 L 17.842321 22.93555 L 17.859891 22.938134 L 17.874878 22.937618 L 17.891414 22.932967 L 17.900199 22.921598 L 17.901233 22.909712 L 17.903816 22.898343 L 17.908984 22.890075 L 17.917252 22.891109 L 17.918803 22.903511 L 17.925004 22.908679 L 17.930688 22.906095 L 17.936889 22.911779 L 17.93844 22.922115 L 17.946708 22.934 L 17.954459 22.946403 L 17.968929 22.955188 L 17.983915 22.962939 L 17.989082 22.976892 L 17.9927 22.989294 L 17.992183 23.012548 L 17.9958 23.022367 L 17.999935 23.033736 L 18.007169 23.035803 L 18.037658 23.03632 L 18.061946 23.03787 L 18.107422 23.034252 L 18.113106 23.027535 L 18.126025 23.018233 L 18.136877 23.012032 L 18.143595 23.014099 L 18.143595 23.014615 C 18.143686 23.014854 18.144486 23.015867 18.144629 23.016166 L 18.144629 23.016682 L 18.145145 23.017199 L 18.145662 23.017716 L 18.146179 23.018233 L 18.146696 23.01875 L 18.147212 23.01875 L 18.147729 23.019266 L 18.148246 23.019266 L 18.148763 23.019266 L 18.165816 23.019266 L 18.166333 23.01875 C 18.166546 23.018553 18.167663 23.017957 18.167883 23.017716 L 18.1684 23.017199 L 18.1684 23.016682 L 18.168916 23.016166 L 18.168916 23.015649 L 18.168916 23.015132 L 18.169433 23.015132 L 18.169433 23.014615 L 18.168916 23.014615 L 18.168916 23.014099 L 18.168916 23.013582 C 18.168878 23.009954 18.170467 23.001696 18.170467 23.001696 C 18.170467 23.001696 18.175108 22.996778 18.177185 22.993428 L 18.177701 22.992911 L 18.178218 22.992395 C 18.179518 22.989265 18.18597 22.979475 18.18597 22.979475 C 18.18597 22.979475 18.186372 22.973457 18.187003 22.969657 C 18.187603 22.965877 18.193204 22.954671 18.193204 22.954671 L 18.195271 22.944335 L 18.204573 22.938134 L 18.216976 22.9309 L 18.222143 22.924698 L 18.232995 22.922631 L 18.254699 22.922631 L 18.270202 22.926765 L 18.287772 22.928316 L 18.298108 22.929349 L 18.307409 22.942785 C 18.307409 22.942785 18.314776 22.955216 18.316194 22.958805 L 18.316194 22.959322 C 18.316894 22.961842 18.319295 22.982059 18.319295 22.982059 L 18.319295 23.016682 L 18.320328 23.049755 L 18.321362 23.082312 L 18.32653 23.114351 L 18.335315 23.135022 L 18.343066 23.148974 L 18.357019 23.166544 L 18.362703 23.17843 L 18.363737 23.197033 L 18.366837 23.221321 L 18.370455 23.237858 L 18.379756 23.249226 L 18.39991 23.257495 L 18.41903 23.263696 L 18.442285 23.272481 L 18.458304 23.278682 L 18.483109 23.280232 L 18.496545 23.277648 L 18.507914 23.263179 L 18.52135 23.260078 L 18.523934 23.272481 L 18.532719 23.290051 L 18.542537 23.296252 L 18.567859 23.292635 L 18.585429 23.291601 L 18.616951 23.297802 L 18.633488 23.30297 L 18.652608 23.323124 C 18.652608 23.323124 18.670079 23.330609 18.676379 23.331909 C 18.682689 23.333109 18.709452 23.340694 18.709452 23.340694 C 18.709452 23.340694 18.715888 23.339143 18.725988 23.339143 C 18.736098 23.339143 18.767397 23.33656 18.772497 23.33656 C 18.777547 23.33656 18.790067 23.334493 18.790067 23.334493 L 18.811771 23.317956 L 18.834509 23.305037 L 18.85983 23.305037 C 18.85983 23.305037 18.868349 23.319057 18.869649 23.324157 C 18.870849 23.329217 18.878434 23.339143 18.878434 23.339143 C 18.878434 23.339143 18.893488 23.340694 18.898588 23.340694 L 18.899104 23.340694 L 18.899621 23.340694 L 18.900138 23.340177 C 18.905454 23.336793 18.914091 23.323124 18.914091 23.323124 C 18.914091 23.323124 18.920193 23.315288 18.926493 23.312788 C 18.932803 23.310218 18.944063 23.30142 18.944063 23.30142 L 18.959566 23.287467 C 18.959566 23.287467 18.977204 23.296502 18.982304 23.297802 C 18.986407 23.298777 18.998453 23.300615 19.002974 23.304003 L 19.003491 23.30452 L 19.004008 23.30452 L 19.004524 23.305037 L 19.004524 23.305554 L 19.004524 23.306071 L 19.005041 23.306071 L 19.005041 23.306587 C 19.005041 23.311637 19.008658 23.326741 19.008658 23.326741 L 19.01486 23.349479 L 19.028812 23.372216 L 19.059301 23.363431 L 19.072737 23.358264 L 19.093408 23.364465 L 19.114595 23.358264 L 19.133715 23.349479 L 19.162654 23.351029 L 19.170406 23.35568 L 19.179191 23.335526 L 19.196761 23.328291 L 19.242236 23.337076 L 19.263423 23.345861 L 19.287711 23.346895 L 19.310449 23.358264 L 19.320267 23.369633 L 19.340938 23.368599 L 19.365743 23.35723 L 19.386413 23.35723 L 19.399849 23.372216 L 19.424137 23.372216 L 19.458243 23.372216 L 19.486149 23.378418 C 19.486149 23.378418 19.495868 23.378334 19.502168 23.375834 C 19.508478 23.373314 19.52904 23.358264 19.52904 23.358264 L 19.54661 23.361881 L 19.557979 23.37325 L 19.577099 23.386169 L 19.5833 23.405289 L 19.5833 23.426477 L 19.597253 23.448181 L 19.611206 23.455415 L 19.631359 23.444047 L 19.641178 23.455415 L 19.655131 23.463167 L 19.670117 23.466784 L 19.680452 23.478153 L 19.689237 23.483321 L 19.713008 23.477119 L 19.732129 23.469368 L 19.746081 23.469368 L 19.758483 23.488488 L 19.771403 23.503474 L 19.781221 23.510192 L 19.808093 23.501407 L 19.82928 23.499857 L 19.844783 23.505025 L 19.863387 23.511226 L 19.891292 23.525179 L 19.89646 23.539131 L 19.897493 23.570654 L 19.905245 23.591841 L 19.919197 23.595975 L 19.940385 23.599593 L 19.954337 23.594425 L 19.972424 23.594425 L 19.984826 23.60476 L 20.002396 23.613545 L 20.026684 23.621297 C 20.026684 23.621297 20.03537 23.619997 20.04167 23.621297 C 20.04799 23.622597 20.079394 23.631115 20.079394 23.631115 L 20.123836 23.637316 L 20.175512 23.645068 L 20.203418 23.650236 L 20.227189 23.661604 C 20.227189 23.661604 20.234643 23.677291 20.241658 23.680208 C 20.241899 23.680277 20.242969 23.680172 20.243208 23.680208 L 20.243725 23.680725 C 20.251305 23.680725 20.263879 23.690543 20.263879 23.690543 L 20.280415 23.709663 C 20.280415 23.709663 20.294436 23.720766 20.299536 23.722066 C 20.304586 23.723366 20.31459 23.7262 20.31969 23.7262 L 20.320206 23.725683 L 20.320723 23.725683 C 20.325049 23.723507 20.329508 23.714831 20.329508 23.714831 L 20.345011 23.729817 L 20.367749 23.736018 L 20.392553 23.744803 L 20.412707 23.749971 L 20.416841 23.767541 L 20.438029 23.771675 L 20.440612 23.787695 L 20.453531 23.810432 L 20.46335 23.819217 L 20.483504 23.824385 L 20.503658 23.820768 L 20.528979 23.819217 L 20.544482 23.824385 L 20.558435 23.840922 L 20.573421 23.849707 C 20.573421 23.849707 20.586713 23.848873 20.591508 23.844539 L 20.592024 23.844022 L 20.592541 23.843505 L 20.592541 23.842989 C 20.597876 23.838308 20.616312 23.83317 20.616312 23.83317 L 20.635433 23.835754 L 20.651452 23.821801 L 20.660237 23.818184 L 20.662821 23.799064 L 20.676774 23.799064 L 20.685559 23.806815 L 20.694344 23.820768 L 20.725866 23.820768 L 20.768758 23.820768 L 20.786844 23.807849 L 20.804414 23.800097 L 20.805448 23.784594 L 20.805448 23.76289 L 20.803381 23.749971 L 20.799764 23.740153 L 20.800797 23.740669 L 20.804931 23.752038 L 20.806998 23.764957 L 20.806998 23.786661 L 20.808549 23.804748 L 20.848339 23.806298 L 20.897949 23.816634 L 20.916036 23.827486 L 20.916036 23.86676 L 20.937223 23.902417 L 20.969779 23.913269 L 20.990966 23.948925 L 20.983732 24.006286 L 20.983732 24.034708 L 20.987349 24.066748 L 21.033858 24.084834 L 21.04471 24.13496 L 21.055562 24.170617 L 21.083984 24.188187 L 21.108789 24.213509 L 21.123258 24.2564 L 21.123258 24.277587 L 21.112406 24.306009 L 21.101554 24.341666 L 21.119641 24.348901 L 21.13411 24.356136 L 21.13411 24.384558 L 21.108789 24.391792 L 21.087601 24.399027 L 21.069515 24.384558 L 21.069515 24.41298 L 21.080367 24.41298 L 21.108789 24.39541 L 21.13411 24.409362 L 21.13411 24.438301 L 21.116023 24.463106 L 21.080367 24.466723 L 21.04471 24.466723 L 21.001818 24.455871 L 20.958927 24.455871 L 20.92327 24.452254 L 20.912418 24.452254 L 20.919653 24.498763 L 20.912418 24.524084 L 20.901566 24.559741 L 20.876761 24.60625 L 20.859708 24.619169 L 20.840588 24.611417 L 20.823018 24.6078 L 20.80028 24.622786 L 20.780127 24.633121 L 20.757389 24.653275 L 20.732067 24.667228 L 20.702095 24.678597 C 20.702095 24.678597 20.677267 24.683234 20.669022 24.680664 L 20.668505 24.680147 L 20.667989 24.67963 C 20.661669 24.67585 20.638982 24.663527 20.633882 24.661027 C 20.628832 24.658497 20.614762 24.64449 20.614762 24.64449 L 20.595642 24.636739 L 20.563086 24.638289 L 20.53518 24.640873 L 20.49849 24.629504 L 20.477303 24.62692 L 20.449397 24.627954 L 20.411157 24.625887 L 20.404956 24.612967 L 20.387386 24.620719 L 20.367232 24.648624 L 20.349662 24.671362 L 20.353279 24.684798 L 20.382218 24.689965 C 20.382218 24.689965 20.396072 24.690299 20.402372 24.694099 C 20.408692 24.697869 20.433012 24.705468 20.440612 24.705468 C 20.448467 24.706357 20.464384 24.720454 20.464384 24.720454 L 20.477303 24.757145 L 20.484537 24.773681 L 20.522778 24.779882 L 20.549133 24.782466 L 20.565669 24.771097 L 20.571354 24.76748 L 20.731551 24.744226 L 20.827669 24.735441 L 21.013187 24.738541 L 21.020939 24.740091 L 21.13101 24.661543 L 21.144445 24.651208 L 21.285005 24.562841 L 21.369238 24.522017 L 21.385774 24.515299 L 21.395593 24.511682 L 21.41523 24.511165 L 21.422465 24.513749 L 21.477758 24.46569 L 21.489644 24.455354 L 21.503597 24.438301 L 21.609017 24.278621 L 21.614701 24.269836 L 21.61005 24.251749 L 21.571293 24.212475 L 21.530985 24.185603 L 21.52065 24.152014 L 21.515482 24.133927 L 21.52065 24.133927 L 21.536669 24.135994 L 21.550622 24.138578 L 21.556823 24.140128 L 21.570776 24.148396 L 21.596614 24.167517 L 21.603849 24.173718 L 21.613667 24.18457 L 21.62607 24.197489 L 21.632788 24.205757 L 21.635888 24.212475 L 21.642089 24.225394 L 21.660693 24.253816 L 21.669478 24.258467 L 21.714436 24.262084 L 21.725805 24.262601 L 21.736141 24.262084 L 21.845178 24.25485 L 21.868949 24.249682 L 22.082373 24.139611 L 22.100976 24.129793 L 22.139733 24.107572 L 22.188309 24.070882 L 22.219832 24.043493 L 22.251871 24.021272 L 22.273575 24.009903 L 22.342305 23.973213 L 22.448759 23.916886 L 22.468396 23.910685 L 22.603271 23.914302 L 22.715926 23.919987 L 22.729878 23.917403 L 22.738663 23.913269 L 22.747448 23.902933 L 22.752616 23.895182 L 22.756233 23.867793 L 22.761401 23.86986 L 22.771736 23.83472 L 22.771219 23.831103 L 22.7583 23.811466 L 22.530407 23.661088 L 22.43739 23.547399 L 22.38468 23.48177 L 22.316984 23.315889 L 22.316984 23.314339 L 22.31595 23.229589 L 22.31595 23.226489 L 22.318017 23.207369 L 22.326802 23.182047 L 22.380029 23.077144 L 22.383646 23.070943 L 22.389847 23.062158 L 22.391914 23.059574 L 22.395015 23.05854 L 22.413619 23.050272 L 22.462711 22.978959 L 22.467362 22.971724 L 22.477697 22.959322 L 22.524723 22.912813 L 22.539709 22.849768 L 22.497851 22.821346 L 22.47253 22.800675 L 22.441524 22.760367 L 22.449792 22.746932 L 22.470979 22.72316 L 22.596553 22.677685 L 22.605338 22.675618 L 22.613606 22.684403 L 22.622908 22.696289 L 22.63531 22.711792 L 22.639445 22.716959 L 22.644095 22.722644 L 22.654431 22.735046 L 22.659598 22.74073 L 22.677685 22.727811 L 22.68492 22.722127 L 22.639445 22.625492 L 22.637894 22.622908 L 22.600687 22.568648 L 22.568648 22.525756 L 22.565547 22.522139 L 22.56038 22.515938 L 22.556762 22.512837 L 22.554178 22.510253 L 22.550561 22.50767 L 22.54436 22.503536 L 22.537642 22.499401 L 22.535058 22.497851 L 22.527307 22.493717 L 22.522139 22.49165 L 22.511287 22.487516 L 22.508703 22.486482 L 22.504569 22.486482 L 22.503019 22.486999 L 22.500952 22.486482 L 22.496818 22.484932 L 22.487516 22.480281 L 22.483382 22.477697 L 22.478731 22.475113 L 22.486482 22.463745 L 22.543326 22.496301 L 22.557279 22.505086 L 22.562447 22.508703 L 22.583634 22.524723 L 22.586218 22.527307 L 22.589835 22.531441 L 22.598103 22.541259 L 22.602754 22.546427 L 22.605855 22.551078 L 22.609472 22.555729 L 22.612573 22.56038 L 22.644095 22.608439 L 22.677168 22.661149 L 22.681302 22.668383 L 22.72316 22.732979 L 22.783105 22.823929 L 22.796024 22.840983 L 23.091613 22.899377 L 23.096264 22.899377 L 23.101949 22.898343 L 23.11125 22.89576 L 23.113834 22.894209 L 23.116935 22.892142 L 23.119002 22.890592 L 23.120552 22.888525 L 23.121069 22.886975 L 23.121586 22.883874 L 23.123653 22.873539 L 23.120035 22.859069 L 23.111767 22.821862 L 23.094714 22.691638 L 23.135022 22.611023 L 23.136572 22.611023 L 23.096264 22.691121 L 23.113317 22.821346 L 23.121586 22.858553 L 23.125203 22.873022 L 23.130371 22.895243 L 23.256978 22.984643 L 23.376867 23.038387 L 23.420275 23.05389 L 23.728784 23.09213 L 23.811983 23.114868 L 23.837304 23.154142 L 23.896215 23.243025 L 23.911202 23.264213 L 23.942724 23.30297 L 23.958744 23.315889 L 23.964428 23.320023 L 23.97528 23.325191 L 23.985099 23.330358 L 24.014038 23.347412 L 24.034191 23.361364 L 24.113256 23.423893 L 24.168033 23.469368 L 24.179402 23.479703 L 24.184053 23.494173 L 24.191288 23.503991 L 24.23883 23.547399 L 24.248649 23.554634 L 24.285339 23.580472 L 24.298775 23.589257 L 24.300325 23.589774 L 24.339599 23.616646 L 24.39851 23.658504 L 24.413496 23.669873 L 24.416597 23.672456 L 24.437784 23.693644 L 24.883235 24.144262 L 24.887369 24.148913 L 24.889436 24.151497 L 24.896671 24.162866 L 24.902872 24.175785 L 24.909073 24.191288 L 24.905973 24.210408 L 24.903906 24.219193 L 24.889436 24.233662 L 25.029996 24.322029 L 25.167456 24.395926 L 25.17159 24.397993 L 25.187093 24.410913 L 25.194844 24.417631 L 25.224816 24.446053 L 25.229467 24.450187 L 25.342122 24.563875 L 25.441341 24.681697 L 25.448059 24.694616 L 25.485782 24.832592 L 25.515238 24.934912 L 25.533841 24.981937 L 25.564847 25.053251 L 25.59637 25.041882 L 25.617041 25.08374 L 25.622208 25.095109 L 25.653731 25.17159 L 25.649597 25.180891 L 25.645979 25.187093 L 25.642879 25.19071 L 25.535392 25.289412 L 25.532808 25.291996 L 25.525573 25.298197 L 25.518339 25.301814 L 25.51007 25.302331 L 25.504386 25.300264 L 25.502319 25.29923 L 25.47493 25.28166 L 25.47493 25.260473 L 25.476997 25.24652 L 25.484232 25.241353 L 25.463562 25.236185 L 25.375195 25.322485 L 25.374678 25.330753 L 25.372611 25.382946 L 25.390181 25.482682 L 25.498185 25.466145 L 25.510587 25.468212 L 25.563814 25.494051 L 25.567948 25.500769 L 25.567948 25.520922 L 25.552445 25.526607 L 25.463045 25.560196 L 25.479064 25.597403 L 25.498701 25.616007 L 25.51007 25.611873 L 25.611873 25.573632 L 25.63461 25.482165 L 25.742614 25.482682 L 25.743131 25.483715 L 25.759667 25.521439 L 25.760184 25.523506 L 25.776204 25.56278 L 25.718843 25.587585 L 25.689904 25.661999 L 25.689388 25.664066 L 25.689904 25.670267 L 25.73693 25.755017 L 25.686287 25.903328 L 25.686804 25.903328 L 25.811344 25.89816 L 25.857336 25.87904 L 25.87749 25.871805 L 26.121919 25.91418 L 26.185481 25.993762 L 26.188582 25.997896 L 26.128637 25.94932 L 26.095564 25.957071 L 26.086779 25.959138 L 26.073343 25.962756 L 26.060941 25.967923 L 26.038203 25.986527 L 25.892993 26.115718 L 25.883691 26.12657 L 25.767419 26.07386 L 25.7545 26.05784 L 25.737447 26.045438 L 25.732279 26.042338 L 25.604121 26.006164 L 25.375712 25.958622 L 25.272875 25.956038 L 25.151953 25.959655 L 24.989172 26.015983 L 24.987105 26.016499 L 24.984521 26.0196 L 24.982454 26.026835 L 24.982971 26.04027 L 24.992789 26.12347 L 25.003641 26.152925 L 25.033614 26.21287 L 25.0486 26.21287 L 25.064619 26.210803 L 25.167972 26.197884 L 25.272875 26.170495 L 25.358658 26.152408 L 25.377779 26.164294 L 25.511621 26.239742 L 25.725561 26.358597 L 25.761735 26.377201 L 25.813928 26.401489 L 25.828914 26.406656 L 25.894026 26.423193 L 25.932267 26.428877 L 26.209769 26.458333 L 26.260929 26.454199 L 26.359631 26.44438 L 26.573571 26.430944 L 26.6361 26.419059 L 26.754956 26.38857 L 26.758056 26.387019 L 26.754956 26.368416 L 26.750305 26.346195 L 26.745137 26.325008 L 26.747204 26.315706 L 26.77821 26.26868 L 26.787512 26.257311 L 26.803531 26.245426 L 26.863476 26.207702 L 26.875362 26.200984 L 26.896032 26.195817 L 26.916186 26.193233 L 26.932722 26.189615 L 26.944608 26.184448 L 26.950292 26.177213 L 26.971997 26.111584 L 26.981815 26.066625 L 26.985949 26.027351 L 26.985432 25.98446 L 26.98905 25.960689 L 26.99215 25.952937 L 27.00662 25.94777 L 27.025223 25.941568 L 27.064497 25.932267 L 27.106872 25.922448 L 27.132193 25.909529 L 27.505814 25.670267 L 27.654642 25.562263 L 27.665494 25.518855 L 27.625187 25.486299 L 27.471708 25.370027 L 27.454138 25.358142 L 27.430366 25.35039 L 27.409696 25.344706 L 27.390059 25.341605 L 27.369388 25.340055 L 27.294457 25.29923 L 27.266035 25.28011 L 27.136328 25.192777 L 27.017472 25.094592 L 26.897582 24.991239 L 26.863993 24.961783 L 26.849523 24.945764 L 26.842805 24.935428 L 26.823685 24.90649 L 26.821618 24.902872 L 26.776143 24.833109 L 26.694494 24.711153 L 26.67124 24.67963 L 26.655737 24.665677 L 26.636617 24.650691 L 26.545666 24.580411 L 26.507425 24.518916 L 26.492956 24.482743 L 26.485721 24.463106 L 26.487272 24.455871 L 26.495023 24.427966 L 26.499157 24.416597 L 26.504842 24.407295 L 26.524479 24.391276 L 26.545149 24.375256 L 26.549283 24.370088 L 26.550317 24.36182 L 26.5467 24.335982 L 26.527062 24.216609 L 26.522412 24.203173 L 26.439729 24.086901 L 26.433011 24.078116 L 26.417508 24.064681 L 26.406656 24.056929 L 26.363248 24.02489 L 26.345161 24.011971 L 26.2847 23.969596 L 26.220621 23.925154 L 26.194783 23.890531 L 26.158093 23.839371 L 26.122436 23.776326 L 26.096081 23.707596 L 26.083162 23.67194 L 26.074894 23.643001 L 26.067142 23.623364 L 26.045955 23.593908 L 26.0196 23.570137 L 25.975675 23.540165 L 25.925032 23.510192 L 25.91263 23.502441 L 25.891442 23.492106 L 25.849068 23.471435 L 25.72246 23.45955 L 25.63151 23.433195 L 25.616007 23.425443 L 25.611873 23.423376 L 25.605672 23.417692 L 25.523506 23.337593 L 25.470796 23.342244 L 25.345739 23.346895 L 25.337988 23.343794 L 25.191743 23.258528 L 25.179858 23.244059 L 25.178824 23.243025 L 25.175207 23.237858 L 25.198461 23.23424 L 25.20983 23.23269 L 25.223783 23.230623 L 25.191743 23.198067 L 25.128698 23.142773 L 25.099759 23.130887 L 25.027412 23.102465 L 25.011393 23.096781 L 24.896154 23.030118 L 24.847578 22.999629 L 24.787634 22.956738 L 24.761796 22.934517 L 24.740091 22.91488 L 24.706502 22.881807 L 24.696683 22.870955 L 24.680147 22.851835 L 24.645007 22.815661 L 24.619685 22.791373 L 24.581445 22.757267 L 24.561291 22.739697 L 24.515299 22.708174 L 24.460005 22.672001 L 24.402128 22.695255 L 24.350968 22.624458 L 24.324096 22.56503 L 24.314794 22.553662 L 24.245031 22.546944 L 24.195939 22.542293 L 24.163382 22.540743 L 24.141678 22.544877 L 24.117907 22.551595 L 24.088452 22.556245 L 23.922054 22.577433 L 23.748938 22.591902 L 23.695711 22.57795 L 23.694677 22.578466 L 23.426477 22.471496 L 23.332425 22.40535 L 23.159826 22.52834 L 23.161893 22.532474 L 23.171712 22.553145 L 23.177396 22.589318 L 23.171195 22.59707 L 23.164994 22.604305 L 23.16396 22.604821 L 23.162927 22.604821 L 23.169128 22.597587 L 23.175846 22.589835 L 23.170161 22.553662 L 23.159826 22.533508 L 23.157759 22.528857 L 23.330358 22.405867 L 23.326224 22.340755 L 23.33811 22.212597 L 23.337593 22.205363 L 23.331392 22.18986 L 23.216154 21.938195 L 23.207369 21.92631 L 23.172229 21.882902 L 23.130371 21.842594 L 23.115901 21.831225 L 23.101432 21.822957 L 23.080761 21.810038 L 23.064225 21.798152 L 23.036836 21.778515 L 23.032185 21.721154 L 23.031152 21.655009 L 23.055957 21.568192 L 23.075077 21.514449 L 23.073527 21.595581 L 23.093164 21.569742 L 23.112284 21.540287 L 23.120035 21.526334 L 23.284366 21.211625 L 23.28695 21.203873 L 23.28385 21.180102 L 23.249743 20.970813 L 23.303487 20.996134 L 23.305037 20.996651 L 23.316923 20.998718 L 23.331392 20.995617 L 23.337076 20.991483 L 23.337593 20.988899 L 23.335526 20.984248 L 23.331909 20.977014 L 23.325708 20.966162 L 23.312788 20.947558 L 23.30297 20.935156 L 23.295735 20.926888 L 23.377384 20.845239 L 23.39082 20.835937 L 23.404772 20.826119 L 23.438879 20.805448 L 23.474536 20.785811 L 23.493139 20.778576 L 23.503474 20.775476 L 23.511743 20.755839 L 23.518977 20.739819 L 23.561869 20.628715 L 23.617163 20.489188 L 23.624914 20.470585 L 23.626981 20.466451 L 23.632149 20.457149 L 23.681758 20.383252 L 23.78046 20.263362 L 23.872444 20.148124 L 23.879679 20.137272 L 23.883813 20.130037 L 23.88433 20.093347 L 23.883296 20.088696 L 23.867793 20.042187 L 23.859008 20.014799 L 23.849707 19.988444 L 23.838338 19.956921 L 23.829553 19.929016 L 23.824902 19.905245 L 23.823868 19.877339 L 23.824902 19.864937 L 23.882779 19.629292 L 23.915852 19.416386 L 23.909651 19.33267 L 23.780977 19.203479 L 23.647652 19.271692 L 23.6368 19.274792 L 23.609411 19.272725 L 23.491072 19.255672 L 23.471952 19.245853 L 23.4611 19.238102 L 23.435778 19.213814 L 23.430611 19.20813 L 23.420275 19.203479 L 23.291601 19.164205 L 23.265763 19.160587 L 23.25181 19.159037 L 23.243542 19.161104 L 23.172745 19.182808 L 23.082828 19.278409 L 23.077144 19.289262 L 23.065258 19.314066 L 23.062158 19.321301 L 23.061641 19.331119 L 23.063191 19.344039 L 23.064225 19.353857 L 23.045621 19.397265 L 23.037353 19.410701 L 22.952604 19.54661 L 22.946403 19.547644 L 22.909712 19.52904 L 22.865787 19.51302 L 22.730912 19.515604 L 22.672001 19.519738 L 22.664249 19.526973 L 22.660632 19.541442 L 22.659082 19.556945 L 22.659082 19.570381 L 22.653397 19.584334 L 22.641512 19.593119 L 22.627042 19.600354 L 22.609472 19.606038 L 22.586218 19.603971 L 22.485449 19.584334 L 22.446691 19.576582 L 22.423437 19.570381 L 22.409484 19.564697 L 22.401216 19.555912 L 22.396049 19.542476 L 22.392948 19.526456 L 22.386747 19.475813 L 22.388297 19.465478 L 22.38623 19.458243 L 22.249287 19.378145 L 22.125264 19.33267 L 22.058601 19.325435 L 22.047749 19.315616 L 21.965584 19.223632 L 21.955249 19.195727 L 21.925793 19.13785 L 21.854996 19.005558 L 21.847245 18.992639 L 21.837426 18.980753 L 21.827091 18.971451 L 21.794018 18.948197 L 21.786783 18.944063 L 21.777482 18.941479 L 21.76818 18.937345 L 21.754744 18.927526 L 21.715987 18.864998 L 21.718571 18.856213 L 21.765079 18.771464 L 21.770764 18.76733 L 21.87515 18.720821 L 21.886002 18.720304 L 21.895821 18.722888 L 21.926827 18.723921 L 21.958866 18.716687 L 21.961967 18.71617 L 21.988322 18.68413 L 21.995556 18.671728 L 22.086507 18.505847 L 22.134566 18.390608 L 22.139733 18.378206 L 22.142834 18.365287 L 22.17384 18.200956 L 22.173323 18.154964 L 22.173323 18.150313 L 22.109761 18.138944 L 22.074621 18.133776 L 22.028629 18.127575 L 22.013126 18.124992 L 22.005891 18.119824 L 21.992972 18.103287 L 21.99814 18.058846 L 21.968168 18.095536 L 21.952148 18.104838 L 21.932511 18.111556 L 21.913391 18.114139 L 21.833292 18.189587 L 21.755261 18.304825 L 21.747509 18.318778 L 21.657592 18.681547 L 21.649324 18.766813 L 21.559924 18.855696 L 21.542354 18.868615 L 21.524784 18.874817 L 21.50463 18.878951 L 21.507731 18.967317 L 21.509798 18.980236 L 21.507731 18.978686 L 21.50618 18.96525 L 21.50308 18.876884 L 21.523234 18.872749 L 21.540804 18.866548 L 21.558374 18.853629 L 21.647774 18.764746 L 21.656042 18.67948 L 21.745959 18.316711 L 21.753711 18.302758 L 21.831742 18.18752 L 21.91184 18.112072 L 21.930961 18.109489 L 21.950598 18.102771 L 21.966617 18.093469 L 21.996073 18.056779 L 22.003308 18.043343 L 22.001241 17.965828 L 21.994006 17.95601 L 21.990905 17.951875 L 21.985738 17.937406 L 21.989872 17.927071 L 22.049816 17.872811 L 22.065836 17.860925 L 22.083406 17.855757 L 22.180558 17.85214 L 22.196061 17.858858 L 22.213631 17.865576 L 22.229134 17.867643 L 22.24257 17.862992 L 22.439457 17.764807 L 22.483898 17.7307 L 22.486999 17.718815 L 22.485449 17.701245 L 22.489066 17.683158 L 22.494751 17.670239 L 22.618774 17.504874 L 22.620324 17.503324 L 22.629626 17.492472 L 22.653914 17.487304 L 22.66735 17.487821 L 22.68647 17.498156 L 22.697839 17.503324 L 22.711275 17.508492 L 22.98826 17.381884 L 23.030635 17.354496 L 23.045105 17.336926 L 23.068876 17.287317 L 23.071976 17.281632 L 23.074043 17.278532 L 23.101949 17.238224 L 23.116935 17.220137 L 23.158793 17.177246 L 23.244059 17.145723 L 23.309171 17.121952 L 23.324157 17.113167 L 23.381518 17.04237 L 23.414074 16.955554 L 23.448697 16.93695 L 23.506575 16.89871 L 23.715348 16.725077 L 23.740669 16.672367 L 23.787695 16.616556 L 23.841955 16.570048 L 23.854357 16.567464 L 23.871927 16.570564 L 23.893115 16.574699 L 23.911718 16.570564 L 23.969596 16.526123 L 23.975797 16.518371 L 24.01042 16.466178 L 24.043493 16.40365 L 24.070882 16.348356 L 24.07915 16.324585 L 24.101371 16.151985 L 24.102921 16.101859 L 24.107055 16.082222 L 24.14788 16.03623 L 24.160282 16.028479 L 24.172684 16.022794 L 24.182503 16.017627 L 24.210925 15.986621 L 24.23728 15.942179 L 24.241931 15.922542 L 24.240897 15.901355 L 24.234696 15.809371 L 24.229012 15.757694 L 24.081734 15.663643 L 24.002669 15.615067 L 23.994401 15.610933 L 23.943758 15.600598 L 23.905517 15.606282 L 23.889497 15.598531 L 23.817667 15.568042 L 23.767541 15.587679 L 23.744803 15.601631 L 23.699328 15.626436 L 23.677624 15.637288 L 23.609411 15.668294 L 23.575305 15.681213 L 23.556184 15.670878 L 23.53138 15.661059 L 23.501924 15.653308 L 23.311238 15.606282 L 23.288501 15.606799 L 23.248193 15.615584 L 23.257495 15.581994 L 23.241475 15.571659 L 23.228556 15.565458 L 23.186181 15.57631 L 23.174812 15.583545 L 23.16086 15.596464 L 23.148974 15.609383 L 23.139156 15.621785 L 23.121586 15.636771 L 23.087996 15.661576 L 23.019783 15.68483 L 22.936067 15.658475 L 22.91643 15.641939 L 22.911263 15.620235 L 22.913846 15.531351 L 22.919014 15.510681 L 22.869405 15.329813 L 22.772253 15.262117 L 22.752616 15.248681 L 22.65133 15.186153 L 22.557796 15.162382 L 22.503019 15.164966 L 22.485449 15.165999 L 22.431705 15.183569 L 22.435323 15.079183 L 22.427571 15.067814 L 22.417753 15.067814 L 22.33197 15.083834 L 22.307165 15.094169 L 22.286495 15.102954 L 22.274609 15.111222 L 22.26324 15.122591 L 22.248771 15.13396 L 22.223449 15.134476 L 22.142317 15.129826 L 22.077205 15.122591 L 22.051884 15.112256 L 22.03173 15.103471 L 22.005375 15.090551 L 21.998657 15.086934 L 21.99659 15.082283 L 21.99659 15.080733 L 21.997623 15.076082 L 21.99814 15.072981 L 22.002791 15.070398 L 22.007959 15.068331 L 22.019327 15.061613 L 22.024495 15.057995 L 21.995556 15.015104 L 21.976953 15.005285 L 21.827608 14.964461 L 21.780065 14.959293 L 21.753194 14.95671 L 21.460188 14.930871 L 21.342366 14.952059 L 21.296891 14.976863 L 21.299991 14.983064 L 21.30826 15.007869 L 21.338232 15.102954 L 21.341333 15.113806 L 21.337198 15.124658 L 21.322729 15.159281 L 21.316011 15.173234 L 21.304642 15.177368 L 21.101554 15.241963 L 21.009053 15.289506 L 20.839038 15.183052 L 20.824052 15.155147 L 20.815783 15.136543 L 20.818884 15.116906 L 20.827152 15.10192 L 20.833353 15.092619 L 20.85144 15.089001 L 20.86746 15.084867 L 20.896915 15.068331 L 20.988899 14.83837 L 20.996134 14.788761 L 20.988899 14.779976 L 20.918103 14.727783 L 20.857124 14.704012 L 20.846272 14.704012 L 20.827669 14.688509 L 20.775992 14.627014 L 20.675223 14.449247 L 20.664371 14.419275 L 20.609594 14.227038 L 20.594091 14.094747 L 20.593058 14.079244 L 20.592024 14.057023 L 20.590474 14.032735 L 20.585306 13.986743 L 20.507275 13.830163 L 20.484537 13.79554 L 20.476269 13.784688 L 20.465417 13.79399 L 20.446814 13.814144 L 20.42821 13.81466 L 20.416841 13.808976 L 20.403922 13.788822 L 20.395654 13.773319 L 20.379634 13.710274 L 20.366198 13.648779 L 20.565153 13.631726 L 20.732067 13.617256 L 20.749121 13.584183 L 20.764624 13.54801 L 20.775992 13.526306 L 20.783744 13.515971 L 20.906217 13.444657 L 20.900533 13.363525 L 20.903116 13.350606 L 20.932572 13.300997 L 20.938256 13.292728 L 21.039542 13.21418 L 21.091219 13.218831 L 21.154264 13.224516 L 21.171317 13.229683 L 21.192504 13.2302 L 21.211108 13.226066 L 21.218343 13.219348 L 21.302058 13.070003 L 21.330997 12.967684 L 21.265368 12.751676 L 21.229711 12.698966 L 21.206974 12.667444 L 21.189404 12.646256 L 21.200256 12.565641 L 21.211108 12.549105 L 21.218343 12.54187 L 21.338232 12.495361 L 21.348567 12.493294 L 21.394043 12.49071 L 21.493778 12.49226 L 21.511348 12.494328 L 21.576977 12.513965 L 21.585762 12.5243 L 21.596097 12.530501 L 21.609017 12.532051 L 21.636405 12.525333 L 21.711853 12.483992 L 21.726322 12.472107 L 21.781099 12.417846 L 21.788334 12.410095 L 21.792985 12.395626 L 21.795568 12.384774 L 21.809521 12.38374 L 21.88962 12.371854 L 21.962483 12.359452 L 22.016227 12.34705 L 22.256005 12.245764 L 22.270475 12.236979 L 22.276159 12.226644 L 22.272542 12.199255 L 22.26479 12.13466 L 22.320601 12.113472 L 22.523689 12.084533 L 22.555729 12.073681 L 22.710241 11.964127 L 22.792924 11.892297 L 22.824963 11.856124 L 22.837882 11.853023 L 22.869921 11.847855 L 22.890592 11.849922 L 22.898343 11.85199 L 22.908162 11.860775 L 22.91643 11.863358 L 22.934 11.848889 L 22.95157 11.828218 L 22.971724 11.801347 L 23.007897 11.747603 L 23.048205 11.673189 L 23.067325 11.57242 L 23.088513 11.445296 L 23.094714 11.35848 L 23.110734 11.339876 L 23.275581 11.181229 L 23.347412 11.130587 L 23.353096 11.130587 L 23.362398 11.134204 L 23.3717 11.14764 L 23.381001 11.146606 L 23.631115 11.103715 L 23.870894 11.050488 L 24.018172 11.010697 L 24.030574 11.00863 L 24.045043 11.014831 L 24.101888 11.046354 L 24.107055 11.056172 L 24.107572 11.076843 L 24.50083 11.161076 L 24.511682 11.163143 L 24.57266 11.119734 L 24.584029 11.108366 L 24.602632 11.087695 L 24.638806 11.045837 L 24.707019 10.822595 L 24.706502 10.814327 L 24.695133 10.770402 L 24.670328 10.70684 L 24.663094 10.606071 L 24.707019 10.559562 L 24.813989 10.438639 L 24.830525 10.417969 L 24.83776 10.408667 L 24.845511 10.398332 L 24.852229 10.383862 L 24.853263 10.37456 L 24.814506 10.340971 L 24.808821 10.335803 L 24.780916 10.202995 L 24.757661 10.067602 L 24.760762 10.055717 L 24.770581 10.02161 L 24.778332 10.014376 L 24.797452 10.001973 L 24.857397 9.965283 L 24.8729 9.9570148 L 24.891503 9.9513304 L 24.909073 9.947713 L 24.926643 9.9425454 L 24.944213 9.928076 L 24.949381 9.9146401 L 24.956616 9.8107705 L 24.951965 9.7869993 L 24.950415 9.7807981 L 24.910107 9.6335203 L 24.884269 9.647473 L 24.862048 9.6660765 L 24.839827 9.6691771 L 24.809855 9.6712441 L 24.596431 9.6645262 L 24.499796 9.6521238 L 24.411946 9.6304197 L 24.16855 9.5327513 L 23.91947 9.4154458 L 23.914302 9.4133787 L 23.801131 9.3518838 L 23.776843 9.3265623 L 23.767541 9.3136432 L 23.74532 9.3043415 L 23.666255 9.2888385 L 23.340694 9.2288939 L 23.272998 9.2211424 L 23.207369 9.2516315 L 23.193933 9.2598997 L 23.168611 9.2914223 L 23.158793 9.3089923 L 23.159309 9.3322467 L 23.073527 9.3663532 L 23.07301 9.3663532 L 23.049755 9.3637693 L 23.006864 9.3570514 L 22.976892 9.351367 L 22.96759 9.3477497 L 22.961389 9.3384479 L 22.963456 9.3270791 L 22.971724 9.3182941 L 22.977408 9.3120929 L 22.975858 9.298657 L 22.962422 9.2283771 L 22.952604 9.2087401 L 22.890592 9.1301919 L 22.875089 9.1234739 L 22.857519 9.1203734 L 22.687504 9.0950519 L 22.607922 9.088334 L 22.574849 9.1007363 L 22.557796 9.1183063 L 22.521622 9.145178 L 22.492167 9.162748 L 22.342822 9.1953042 L 22.304581 9.2071898 L 22.281844 9.2009886 L 22.244637 9.1839354 L 22.222933 9.1637816 L 22.204846 9.1353595 L 22.136116 8.9849811 L 22.122163 8.9333047 L 22.100459 8.8816282 L 22.092708 8.8656085 L 22.043615 8.8697427 L 22.020361 8.8723265 L 21.862748 8.9389891 L 21.700484 9.0190876 L 21.68033 9.0216714 L 21.379573 8.9942829 L 21.23953 9.015987 L 21.06073 9.0165037 L 21.036442 9.0118528 L 20.834387 8.9550088 L 20.801314 8.9451903 L 20.788395 8.9265867 L 20.788395 8.9074665 L 20.792529 8.8769774 L 20.799764 8.8320189 L 20.805448 8.8020465 L 20.812166 8.7777586 L 20.583756 8.6909422 L 20.569803 8.6857746 L 20.531046 8.6728555 L 20.328475 8.6284137 L 20.318139 8.6470172 L 20.27163 8.7276325 L 20.288167 8.757088 L 20.300052 8.7865436 L 20.306254 8.8206501 L 20.302636 8.8439044 L 20.209619 8.7948118 L 20.123836 8.8144489 L 19.958988 8.7953286 L 19.948653 8.7979124 L 19.843233 8.9090168 L 19.789489 8.9684446 L 19.680969 9.0635293 L 19.622574 9.1012531 L 19.574515 9.1043537 L 19.551778 9.1048704 L 19.514054 9.0935016 L 19.478914 9.0826496 L 19.45566 9.0697305 L 19.440157 9.0599119 L 19.411218 9.0387246 L 19.381762 9.0170205 L 19.213297 8.9787799 L 18.98282 8.954492 L 18.942513 8.9513914 L 18.71617 8.9643105 L 18.675862 8.9844643 L 18.580778 9.0433755 L 18.510498 9.0960854 L 18.445385 9.0888507 L 18.449519 9.0469928 L 18.442802 8.9973834 L 18.440218 8.9870482 L 18.367871 8.9038491 L 18.250048 8.7906777 L 18.053161 8.7591551 L 18.033007 8.7622557 L 17.993217 8.7653563 L 17.966345 8.7669066 L 17.943607 8.7581216 L 17.919319 8.7488198 L 17.734834 8.6542519 L 17.723466 8.6470172 L 17.594275 8.5100747 L 17.58704 8.4723509 L 17.583939 8.4594318 L 17.551383 8.4547809 L 17.380334 8.4609821 L 17.002579 8.4170571 L 16.978291 8.4113727 L 16.961238 8.4062051 L 16.948836 8.3948363 L 16.918864 8.3741657 L 16.899743 8.3638304 L 16.790706 8.3348916 L 16.77417 8.3467772 L 16.750398 8.3596963 L 16.733862 8.3534951 L 16.644979 8.3178384 L 16.629992 8.3111204 L 16.605704 8.2971678 L 16.585551 8.2795978 L 16.565397 8.257377 L 16.535941 8.2475584 L 16.47393 8.233089 L 16.457393 8.2294717 L 16.443957 8.2274046 L 16.205212 8.2739134 L 16.151985 8.2982013 L 16.081189 8.305436 L 15.979386 8.3379922 L 15.958716 8.3431598 L 15.938562 8.3431598 L 15.811954 8.3219725 L 15.691548 8.2894163 L 15.633671 8.2346393 L 15.621268 8.2268879 L 15.609383 8.222237 L 15.548405 8.2274046 L 15.497762 8.2429076 L 15.346867 8.2232705 L 15.327746 8.2170693 L 15.30966 8.2196532 L 15.225944 8.2429076 L 15.20734 8.2677122 L 15.156181 8.2702961 L 15.139127 8.2661619 L 15.007352 8.2294717 L 14.891597 8.1953652 L 14.738635 8.1473062 L 14.71383 8.1622923 L 14.699878 8.1741779 L 14.680241 8.187097 L 14.644067 8.2088011 L 14.635799 8.213452 L 14.614612 8.2072508 L 14.58774 8.1969155 L 14.529345 8.1700438 L 14.443563 8.1121662 L 14.430643 8.1018309 L 14.306103 8.0925291 L 14.276648 8.0976968 L 14.238924 8.1018309 L 14.048238 8.1199176 L 13.907161 8.1075153 L 13.821378 8.1369709 L 13.712858 8.1199176 L 13.633276 8.1106159 L 13.572298 8.1075153 L 13.448274 8.1405882 L 13.40435 8.1633258 L 13.37386 8.1679767 L 13.333553 8.169527 L 13.26689 8.1566079 L 13.208496 8.1385212 L 13.143384 8.1131997 L 13.111344 8.0914956 L 13.087573 8.0697915 L 13.085506 8.0470539 L 13.086539 7.9628213 L 13.091707 7.8873737 L 13.097392 7.862569 L 13.110311 7.8418984 L 13.129948 7.7933226 L 13.135632 7.7767861 L 13.136666 7.770585 L 13.050366 7.7137409 L 13.018843 7.7106403 L 12.98112 7.7313109 L 12.917558 7.7488809 L 12.890686 7.7555988 L 12.761495 7.7023721 L 12.763045 7.7039224 L 12.674678 7.6589639 L 12.654524 7.6408771 L 12.599231 7.5871336 L 12.590446 7.5674966 L 12.579077 7.5370075 L 12.579077 7.5189208 L 12.569775 7.5023843 L 12.404927 7.4501911 L 12.327929 7.4331379 L 12.295373 7.4259032 L 12.124324 7.4078164 z M 14.969629 14.64355 L 14.970145 14.655436 L 14.976347 14.673006 L 14.976863 14.677657 L 14.950508 14.666805 L 14.933455 14.663187 L 14.969629 14.64355 z M 21.560957 19.007108 L 21.562508 19.007625 L 21.55889 19.152319 L 21.566125 19.224666 L 21.567159 19.231901 L 21.567675 19.246887 L 21.561474 19.257739 L 21.544421 19.26239 L 21.528918 19.261873 L 21.508247 19.256189 L 21.496362 19.249987 L 21.494812 19.24792 L 21.506697 19.254638 L 21.526851 19.259806 L 21.542871 19.260323 L 21.559924 19.255672 L 21.566125 19.24482 L 21.565092 19.229834 L 21.564575 19.222599 L 21.55734 19.150252 L 21.560957 19.007108 z M 21.481376 19.234484 L 21.482926 19.236552 L 21.397143 19.27996 L 21.20594 19.447908 L 21.191988 19.463928 L 21.187337 19.47478 L 21.185787 19.472713 L 21.190437 19.461861 L 21.20439 19.445841 L 21.395593 19.277893 L 21.481376 19.234484 z M 21.225577 19.518188 L 21.227128 19.519738 L 21.232295 19.535241 L 21.236946 19.551778 L 21.267952 19.695438 L 21.270019 19.709391 L 21.270019 19.726961 L 21.263818 19.742464 L 21.204907 19.766235 L 21.188887 19.768819 L 21.077783 19.859253 L 20.967195 20.019966 L 20.966162 20.038053 L 20.969779 20.069059 L 20.97443 20.216853 L 20.971846 20.226672 L 20.963578 20.248893 L 20.957377 20.263362 L 20.837487 20.39152 L 20.805965 20.421492 L 20.724316 20.475236 L 20.685042 20.494873 L 20.65507 20.505725 L 20.590474 20.523295 L 20.51761 20.530013 L 20.51451 20.527946 L 20.588924 20.521228 L 20.653003 20.503658 L 20.683492 20.492806 L 20.722766 20.473169 L 20.804414 20.419425 L 20.835937 20.389453 L 20.955826 20.261295 L 20.962028 20.246826 L 20.970296 20.224605 L 20.97288 20.214786 L 20.968229 20.066992 L 20.964611 20.035986 L 20.965645 20.017899 L 21.076232 19.857185 L 21.187337 19.766752 L 21.203357 19.764168 L 21.262268 19.740397 L 21.268469 19.724894 L 21.268469 19.707324 L 21.266402 19.693371 L 21.235396 19.549711 L 21.230745 19.533174 L 21.225577 19.518188 z M 20.648868 20.607527 L 20.650935 20.608561 L 20.691243 20.840071 L 20.716048 20.875728 L 20.715014 20.875211 L 20.691243 20.840071 L 20.689693 20.838004 L 20.648868 20.607527 z M 20.959444 21.10052 L 20.960994 21.102587 L 20.956343 21.125325 L 20.947558 21.167183 L 20.938256 21.200256 L 20.936706 21.198706 L 20.946008 21.165116 L 20.954793 21.123258 L 20.959444 21.10052 z M 21.031791 21.306709 L 21.033341 21.308776 L 21.043676 21.332031 L 21.040576 21.345983 L 21.031274 21.353218 L 21.019905 21.356319 L 20.798213 21.544421 L 20.796663 21.542354 L 21.018355 21.354252 L 21.029724 21.351151 L 21.039025 21.343916 L 21.042126 21.329964 L 21.031791 21.306709 z M 20.92172 21.677746 L 20.92327 21.679813 L 20.919653 21.700484 L 20.915002 21.718054 L 20.907767 21.727872 L 20.900533 21.738208 L 20.895882 21.753711 L 20.895882 21.776448 L 20.894331 21.774898 L 20.894331 21.751643 L 20.898982 21.736141 L 20.906217 21.725805 L 20.913452 21.715987 L 20.918103 21.698417 L 20.92172 21.677746 z M 21.082434 21.848278 L 21.083984 21.848795 L 21.073649 21.928894 L 21.051945 21.937679 L 21.045743 21.940779 L 21.045227 21.958349 L 21.04626 21.999174 L 21.047294 22.031213 L 21.048327 22.115962 L 21.049361 22.273575 L 21.049361 22.310782 L 21.075199 22.391398 L 21.089152 22.416719 L 21.120674 22.481831 L 21.15013 22.54591 L 21.145996 22.547977 L 21.125842 22.555729 L 21.108789 22.56193 L 21.117574 22.585701 L 21.134627 22.629626 L 21.141862 22.644095 L 21.140311 22.642028 L 21.13256 22.627559 L 21.116023 22.583634 L 21.107238 22.559863 L 21.123775 22.553662 L 21.144445 22.54591 L 21.148579 22.543843 L 21.119124 22.479764 L 21.087601 22.414652 L 21.073649 22.389331 L 21.04781 22.308715 L 21.04781 22.271508 L 21.046777 22.113895 L 21.045743 22.029146 L 21.04471 21.997107 L 21.043676 21.956282 L 21.044193 21.938712 L 21.050394 21.935612 L 21.071582 21.926827 L 21.082434 21.848278 z M 21.194572 22.72006 L 21.196122 22.722127 L 21.236946 22.802742 L 21.173901 22.892142 L 21.092252 22.978959 L 21.023523 23.095747 L 20.960477 23.305037 L 20.964095 23.316923 L 20.962544 23.314855 L 20.95841 23.30297 L 21.021972 23.09368 L 21.090702 22.976892 L 21.172351 22.890075 L 21.235396 22.800675 L 21.194572 22.72006 z M 21.334615 23.39237 L 21.336165 23.394437 L 21.337198 23.406323 L 21.338232 23.416141 L 21.340299 23.440429 L 21.340299 23.449214 L 21.342366 23.458516 L 21.348567 23.468334 L 21.347534 23.467818 L 21.342366 23.458516 L 21.340816 23.456449 L 21.338749 23.447147 L 21.338749 23.438362 L 21.336682 23.414074 L 21.335648 23.404256 L 21.334615 23.39237 z M 21.52375 23.399605 L 21.525817 23.400122 L 21.5191 23.437329 L 21.516516 23.446114 L 21.50463 23.454899 L 21.490161 23.46265 L 21.375956 23.49779 L 21.367171 23.499857 L 21.36097 23.49934 L 21.354252 23.49934 L 21.235396 23.51691 L 21.00802 23.558768 L 20.946525 23.576338 L 20.872627 23.586157 L 20.861259 23.591324 L 20.744987 23.640417 L 20.773409 23.717415 L 20.771858 23.715348 L 20.743436 23.63835 L 20.859708 23.589257 L 20.871077 23.58409 L 20.944974 23.573754 L 21.006469 23.556701 L 21.233846 23.514327 L 21.352701 23.496757 L 21.359419 23.497273 L 21.365621 23.49779 L 21.374406 23.495723 L 21.48861 23.460583 L 21.50308 23.452832 L 21.514965 23.444047 L 21.517549 23.435262 L 21.52375 23.399605 z M 17.226338 23.461617 L 17.213936 23.469368 L 17.209285 23.471952 L 17.203084 23.478153 L 17.201017 23.484354 L 17.204634 23.493656 L 17.204634 23.508642 L 17.205668 23.522078 L 17.213419 23.536547 L 17.224271 23.538098 L 17.229439 23.529313 L 17.23254 23.521044 L 17.235123 23.517427 L 17.248559 23.51381 L 17.251143 23.502441 L 17.25011 23.48177 L 17.243392 23.472985 L 17.235123 23.4642 L 17.226338 23.461617 z M 17.260445 23.515877 L 17.253727 23.51691 L 17.244942 23.524662 L 17.237707 23.530346 L 17.240291 23.536547 L 17.247009 23.544299 L 17.253727 23.551534 L 17.260445 23.557735 L 17.261995 23.56652 L 17.271814 23.575821 L 17.279048 23.579439 L 17.276465 23.570137 L 17.268196 23.562386 L 17.268196 23.555151 L 17.271814 23.549983 L 17.26923 23.543782 L 17.261995 23.539131 L 17.261995 23.528279 L 17.260445 23.515877 z M 19.539892 23.566003 L 19.512504 23.593908 L 19.507336 23.621813 L 19.494417 23.639383 L 19.476847 23.652303 L 19.484598 23.672456 L 19.461861 23.687443 L 19.441707 23.69261 L 19.446875 23.712764 L 19.444291 23.747904 L 19.441707 23.758239 L 19.421553 23.747904 L 19.403983 23.738085 L 19.398816 23.750488 L 19.380729 23.760823 L 19.345589 23.747904 L 19.333186 23.735502 L 19.322851 23.717932 L 19.302697 23.707596 L 19.285127 23.717932 L 19.274792 23.702429 L 19.26239 23.687443 L 19.246887 23.679691 L 19.231901 23.695194 L 19.203995 23.697261 L 19.186425 23.705013 L 19.161104 23.707596 L 19.155936 23.687443 L 19.146118 23.672456 L 19.155936 23.647135 L 19.153869 23.6368 L 19.143534 23.629048 L 19.133199 23.624397 L 19.12338 23.641967 C 19.12338 23.641967 19.125532 23.649808 19.12493 23.653853 L 19.12493 23.65437 L 19.124414 23.654886 L 19.124414 23.655403 L 19.123897 23.655403 L 19.12338 23.655403 L 19.12338 23.65592 L 19.122863 23.65592 L 19.122347 23.65592 L 19.12183 23.65592 L 19.121313 23.655403 C 19.119935 23.654935 19.118004 23.653759 19.115629 23.651786 C 19.100469 23.639156 19.095475 23.626464 19.095475 23.626464 L 19.083073 23.624397 L 19.08514 23.639383 L 19.08514 23.647135 L 19.075321 23.652303 L 19.060335 23.659537 L 19.057751 23.669873 L 19.044832 23.669873 L 19.05 23.684859 L 19.05 23.715348 L 19.05 23.725166 L 19.020027 23.740669 L 19.009692 23.725166 L 19.01486 23.740669 L 19.022611 23.760823 L 19.027262 23.778393 L 19.035013 23.801131 L 19.042765 23.826452 L 19.075321 23.834204 L 19.100643 23.838855 L 19.113562 23.859525 L 19.125964 23.899833 L 19.125964 23.919987 L 19.136299 23.947892 L 19.098059 23.95771 L 19.040181 23.985616 L 19.002457 23.995434 L 18.954398 24.005769 L 18.916158 24.018172 L 18.908923 24.025923 L 18.89342 24.031091 L 18.883602 24.013521 L 18.866032 24.020756 L 18.835542 24.020756 L 18.807637 24.005769 L 18.779732 23.985616 L 18.754927 23.960294 L 18.73684 23.955126 L 18.729606 23.92257 L 18.716687 23.919987 L 18.693949 23.919987 L 18.688781 23.929805 L 18.686198 23.947375 L 18.686198 23.970113 L 18.699117 23.998018 L 18.716687 24.023339 L 18.729089 24.048661 L 18.744592 24.071398 L 18.744592 24.101371 L 18.742008 24.129276 L 18.792651 24.142195 L 18.916158 24.146846 L 18.956465 24.162349 L 18.999873 24.190254 L 19.042765 24.210408 L 19.118213 24.225394 L 19.206579 24.248132 L 19.247404 24.260534 L 19.292362 24.270869 L 19.27996 24.260534 L 19.224666 24.245548 L 19.135783 24.217643 L 19.06757 24.192321 L 19.024678 24.179919 L 18.99729 24.169584 L 18.992122 24.157181 L 19.022094 24.157181 L 19.075321 24.169584 L 19.120796 24.179919 L 19.183842 24.194905 L 19.209163 24.212992 L 19.239652 24.192321 C 19.239627 24.192045 19.239234 24.190728 19.239135 24.190254 C 19.238981 24.189712 19.238404 24.188292 19.238102 24.18767 C 19.236523 24.185145 19.233048 24.182503 19.226733 24.182503 C 19.214103 24.182503 19.194177 24.179919 19.194177 24.179919 L 19.189009 24.159765 L 19.163688 24.147363 L 19.130615 24.157181 L 19.10581 24.152014 L 19.103226 24.116874 C 19.103226 24.116874 19.128266 24.119441 19.138366 24.122041 C 19.148466 24.124541 19.171158 24.137145 19.181258 24.142195 C 19.191358 24.147295 19.211465 24.154715 19.221565 24.159765 C 19.231665 24.164865 19.244646 24.169584 19.259806 24.169584 C 19.274966 24.169584 19.312516 24.164933 19.312516 24.164933 C 19.312516 24.164933 19.335479 24.162349 19.345589 24.162349 C 19.355689 24.162349 19.380729 24.174751 19.380729 24.174751 L 19.398816 24.20524 L 19.421553 24.225394 L 19.448942 24.233146 L 19.482015 24.250716 L 19.522322 24.270869 L 19.567797 24.298775 L 19.623608 24.316345 C 19.623608 24.316345 19.656453 24.341784 19.669083 24.346834 C 19.681713 24.351934 19.699291 24.362001 19.709391 24.369571 C 19.719491 24.377171 19.747115 24.402128 19.747115 24.402128 C 19.747115 24.402128 19.774018 24.428403 19.784838 24.430033 C 19.794938 24.430033 19.815328 24.439851 19.815328 24.439851 C 19.815328 24.439851 19.821738 24.446134 19.82618 24.44812 C 19.826393 24.448198 19.827526 24.448581 19.82773 24.448636 L 19.828247 24.448636 L 19.828763 24.448636 L 19.82928 24.448636 L 19.82928 24.44812 L 19.829797 24.44812 L 19.829797 24.447603 L 19.830314 24.447603 L 19.830314 24.447086 L 19.830314 24.446569 L 19.830314 24.446053 C 19.830342 24.445786 19.830314 24.445333 19.830314 24.445019 C 19.830314 24.444703 19.830802 24.443798 19.830831 24.443469 C 19.831801 24.43731 19.83685 24.428259 19.838065 24.422798 C 19.838109 24.422512 19.838049 24.421516 19.838065 24.421248 C 19.838052 24.421 19.83811 24.420441 19.838065 24.420214 L 19.838065 24.419698 L 19.837548 24.419181 L 19.837548 24.418664 L 19.837032 24.418664 L 19.837032 24.418147 L 19.836515 24.418147 L 19.835998 24.417631 C 19.835265 24.417341 19.834083 24.417631 19.832898 24.417631 L 19.81016 24.417631 C 19.81016 24.417631 19.792472 24.414778 19.787422 24.402128 C 19.782322 24.389498 19.764685 24.366988 19.764685 24.366988 L 19.741947 24.364404 L 19.709391 24.356652 L 19.686653 24.339082 C 19.686653 24.339082 19.689122 24.32309 19.68562 24.316345 C 19.685458 24.316104 19.684771 24.315003 19.684586 24.314794 L 19.684069 24.314794 L 19.684069 24.314278 L 19.683553 24.314278 L 19.683036 24.314278 L 19.682519 24.313761 L 19.682002 24.313761 L 19.681486 24.313761 C 19.671386 24.313761 19.656164 24.293607 19.656164 24.293607 L 19.633427 24.263118 L 19.621024 24.250716 L 19.61844 24.212992 L 19.605521 24.164933 C 19.605521 24.164933 19.608105 24.147074 19.608105 24.134444 C 19.608105 24.133654 19.608437 24.132499 19.608622 24.13186 L 19.608622 24.131343 L 19.609139 24.130826 C 19.609484 24.130325 19.610725 24.129137 19.611206 24.128759 C 19.617951 24.124748 19.633427 24.129276 19.633427 24.129276 L 19.641178 24.081217 L 19.641178 24.061063 L 19.610689 24.055896 L 19.567797 24.078633 L 19.530074 24.086385 L 19.497001 24.073982 C 19.497001 24.073982 19.474805 24.074842 19.468062 24.069331 L 19.467545 24.069331 L 19.467545 24.068815 L 19.467545 24.068298 L 19.467028 24.067781 L 19.467028 24.067264 L 19.467028 24.066748 L 19.467028 24.066231 C 19.467028 24.056131 19.464445 24.046077 19.464445 24.046077 L 19.441707 24.046077 L 19.416386 24.055896 L 19.401399 24.081217 L 19.426204 24.09672 L 19.441707 24.111706 L 19.439123 24.119458 L 19.408634 24.134444 L 19.391064 24.134444 L 19.373494 24.11429 L 19.357991 24.094136 L 19.337837 24.066231 L 19.325435 24.063647 L 19.294946 24.053828 L 19.287711 24.066231 L 19.257222 24.051245 L 19.242236 24.038326 L 19.242236 24.015588 L 19.264974 24.013521 L 19.282544 24.005769 L 19.3151 23.99285 L 19.337837 23.983032 L 19.345589 23.97528 L 19.376078 23.990266 L 19.396232 23.998018 L 19.408634 23.990266 L 19.400883 23.972696 L 19.378662 23.960294 L 19.380729 23.94014 L 19.413802 23.929805 L 19.436539 23.922054 L 19.504752 23.917403 L 19.54506 23.917403 L 19.56263 23.94014 L 19.572965 23.983032 L 19.565214 23.995434 L 19.530074 24.003186 L 19.511987 24.010937 L 19.499585 24.033675 L 19.511987 24.048661 L 19.530074 24.056412 L 19.537308 24.068815 L 19.555395 24.068815 L 19.565214 24.061063 L 19.575549 24.043493 L 19.565214 24.035742 L 19.565214 24.015588 L 19.5802 24.020756 L 19.605521 24.013004 L 19.621024 23.998018 L 19.630843 23.977864 L 19.67115 23.960294 L 19.676318 23.934973 L 19.699056 23.904484 L 19.691821 23.892081 L 19.630843 23.874511 L 19.605521 23.879162 L 19.54506 23.877095 L 19.514571 23.881746 C 19.514571 23.881746 19.489477 23.869172 19.476847 23.861592 C 19.464217 23.853992 19.456693 23.84919 19.456693 23.84919 L 19.428788 23.861592 L 19.398816 23.856941 L 19.418969 23.829036 C 19.418969 23.829036 19.425799 23.814189 19.434472 23.811466 C 19.435082 23.811337 19.435909 23.811466 19.436539 23.811466 C 19.446639 23.811466 19.479431 23.793379 19.479431 23.793379 L 19.491833 23.775809 L 19.504752 23.747904 L 19.519738 23.735502 L 19.532657 23.730334 L 19.552811 23.69261 L 19.565214 23.682275 L 19.575549 23.647135 L 19.572965 23.624397 L 19.56263 23.591324 L 19.539892 23.566003 z M 19.171439 23.571171 L 19.151285 23.581506 L 19.143534 23.599076 L 19.153869 23.61923 L 19.168855 23.61923 L 19.183842 23.611478 L 19.191593 23.599076 L 19.191593 23.571171 L 19.171439 23.571171 z M 19.868554 23.672456 L 19.8484 23.674523 L 19.863387 23.705013 L 19.878373 23.707596 L 19.903694 23.712764 L 19.893876 23.684859 L 19.868554 23.672456 z M 20.195666 23.810949 L 20.194116 23.828519 L 20.181713 23.853841 L 20.16156 23.856424 L 20.134688 23.853841 L 20.147607 23.881746 C 20.147607 23.881746 20.163694 23.895782 20.168794 23.898282 L 20.169311 23.898282 C 20.174631 23.9027 20.18669 23.92231 20.192049 23.926704 L 20.192566 23.927221 L 20.193082 23.927221 L 20.193599 23.927221 L 20.193599 23.927738 L 20.194116 23.927738 L 20.194633 23.927738 C 20.201159 23.926526 20.21427 23.914819 20.21427 23.914819 L 20.225638 23.889497 L 20.257161 23.867793 L 20.245792 23.838855 L 20.227189 23.821285 L 20.195666 23.810949 z M 20.870044 23.838855 L 20.836971 23.855391 C 20.835611 23.854174 20.831692 23.850909 20.828186 23.84919 L 20.827669 23.848673 L 20.827152 23.848673 L 20.826635 23.848673 L 20.826119 23.848673 L 20.826119 23.84919 L 20.825602 23.84919 L 20.825602 23.849707 L 20.825602 23.850223 C 20.825746 23.852757 20.827152 23.85769 20.827152 23.860559 L 20.827152 23.872961 L 20.819401 23.874511 L 20.814233 23.889497 C 20.814233 23.889497 20.816901 23.905935 20.819401 23.912235 C 20.821931 23.918525 20.828337 23.921088 20.835937 23.926188 C 20.843507 23.931188 20.858675 23.928772 20.858675 23.928772 C 20.858675 23.928772 20.871995 23.903944 20.873661 23.895699 L 20.873661 23.895182 L 20.873661 23.894665 C 20.873692 23.894465 20.8736 23.893316 20.873661 23.893115 L 20.874178 23.892598 C 20.877381 23.886875 20.890902 23.880316 20.895365 23.878129 L 20.895882 23.877612 L 20.896399 23.877095 C 20.899997 23.872742 20.901566 23.861592 20.901566 23.861592 L 20.895365 23.844022 L 20.870044 23.838855 z M 20.398754 23.839888 L 20.388936 23.856424 L 20.376017 23.867793 C 20.376017 23.867793 20.382286 23.876662 20.387386 23.879162 C 20.392486 23.881662 20.395137 23.889497 20.395137 23.889497 L 20.410123 23.886914 L 20.421492 23.879162 L 20.425626 23.88433 L 20.429244 23.90345 L 20.440612 23.894148 L 20.439062 23.885363 L 20.429244 23.875545 L 20.417875 23.862626 L 20.415291 23.839888 L 20.398754 23.839888 z M 18.85828 23.876578 L 18.845361 23.881746 L 18.832959 23.894148 L 18.815389 23.899316 L 18.805053 23.912235 L 18.820556 23.912235 L 18.843294 23.912235 L 18.853112 23.922054 L 18.870682 23.934973 L 18.898588 23.944791 L 18.908923 23.967529 L 18.923909 23.970113 L 18.944063 23.952543 L 18.954398 23.944791 L 18.977136 23.927221 L 18.971968 23.922054 L 18.944063 23.927221 L 18.923909 23.942207 L 18.906339 23.942207 L 18.883602 23.924637 L 18.870682 23.904484 L 18.85828 23.876578 z M 18.536853 23.893632 L 18.535819 23.912235 L 18.532202 23.923087 L 18.520833 23.926704 L 18.519799 23.938073 L 18.518249 23.953059 L 18.502746 23.955126 L 18.502746 23.945308 L 18.501196 23.925671 L 18.493961 23.915852 L 18.483109 23.913785 L 18.467089 23.915852 L 18.444869 23.920503 L 18.432466 23.926704 L 18.412829 23.944274 L 18.394226 23.958744 L 18.377172 23.961328 L 18.350301 23.95771 L 18.336865 23.955126 L 18.322395 23.958744 L 18.315678 23.970113 L 18.305859 23.970113 L 18.292423 23.967529 L 18.288806 23.97373 L 18.280538 23.991817 L 18.270719 23.999568 L 18.260384 23.995434 L 18.242297 23.990783 C 18.242297 23.990783 18.235991 23.986649 18.231445 23.985616 C 18.231139 23.985576 18.230176 23.985616 18.229895 23.985616 C 18.225385 23.985616 18.218009 23.982515 18.218009 23.982515 C 18.218001 23.982507 18.213509 23.978044 18.209741 23.975797 C 18.209139 23.975493 18.207669 23.974881 18.207157 23.974764 L 18.20664 23.974764 L 18.206124 23.974764 C 18.205622 23.974856 18.204626 23.97504 18.204056 23.97528 C 18.200532 23.977052 18.195788 23.980965 18.195788 23.980965 L 18.196822 23.990783 L 18.184419 24.000602 L 18.172534 24.012487 L 18.159098 24.021789 L 18.144112 24.02489 L 18.136877 24.023856 L 18.147729 24.016621 L 18.151346 24.003186 L 18.144112 23.988199 C 18.144112 23.988199 18.130881 23.976235 18.125508 23.974764 L 18.124992 23.974764 L 18.124475 23.974764 C 18.120141 23.975159 18.113623 23.978381 18.113623 23.978381 L 18.120857 23.989233 L 18.126542 23.999568 L 18.116723 24.00887 L 18.106905 24.014038 C 18.106905 24.014038 18.077949 24.022963 18.074349 24.023856 C 18.070779 24.024749 18.027323 24.023856 18.027323 24.023856 L 18.001485 24.023856 C 18.001485 24.023856 17.956509 24.023199 17.952909 24.022306 C 17.949339 24.021413 17.928104 24.021272 17.928104 24.021272 L 17.914668 24.014038 L 17.892448 24.013004 L 17.876428 24.022823 L 17.85059 24.020239 L 17.838187 24.02489 L 17.828886 24.044527 L 17.817517 24.046077 L 17.798913 24.039876 L 17.778243 24.048144 L 17.763773 24.054345 L 17.765324 24.061063 L 17.777209 24.069331 L 17.792195 24.082767 L 17.812866 24.094136 L 17.840254 24.097753 L 17.859891 24.102921 L 17.890381 24.103955 L 17.946708 24.096203 L 18.002002 24.085351 L 18.050061 24.078116 L 18.093986 24.068298 L 18.128092 24.068298 L 18.18752 24.057963 L 18.267102 24.051245 L 18.341516 24.044527 L 18.41903 24.041426 L 18.465539 24.038842 L 18.48776 24.031091 L 18.504813 24.021272 L 18.514632 24.006803 L 18.541504 23.994401 L 18.552872 23.985616 L 18.566308 23.978898 L 18.571993 23.985616 L 18.596797 23.988199 L 18.600415 23.978381 L 18.604032 23.962361 L 18.610233 23.960294 L 18.613851 23.94014 L 18.6092 23.913785 L 18.597831 23.90345 L 18.583361 23.900349 L 18.566308 23.897766 L 18.546154 23.898799 L 18.542537 23.893632 L 18.536853 23.893632 z M 19.007108 23.909651 L 19.006591 23.910168 L 19.006591 23.910685 L 19.006591 23.911202 L 19.006591 23.911718 L 19.006591 23.912235 L 19.006591 23.912752 L 19.007108 23.913269 C 19.007284 23.913552 19.007915 23.914536 19.008142 23.914819 C 19.010355 23.917024 19.014991 23.91947 19.020027 23.91947 C 19.030087 23.91947 19.035013 23.932389 19.035013 23.932389 L 19.060335 23.94014 L 19.055167 23.91947 L 19.024678 23.909651 L 19.007108 23.909651 z M 17.716748 24.007836 L 17.69401 24.030574 L 17.668689 24.063647 L 17.650602 24.098787 C 17.650602 24.098787 17.646133 24.087984 17.639233 24.083284 C 17.632293 24.078571 17.623146 24.079933 17.618046 24.078633 C 17.607936 24.076113 17.577503 24.096287 17.567403 24.098787 C 17.557293 24.101317 17.529679 24.11429 17.529679 24.11429 C 17.529679 24.11429 17.481848 24.116874 17.469218 24.116874 C 17.456588 24.116874 17.443896 24.121525 17.443896 24.121525 C 17.443896 24.121525 17.425809 24.159484 17.425809 24.169584 C 17.425809 24.170212 17.425941 24.171097 17.425809 24.171651 C 17.425713 24.17191 17.425418 24.172958 17.425293 24.173201 L 17.424776 24.173718 C 17.424596 24.173931 17.423946 24.175069 17.423742 24.175268 C 17.418296 24.179751 17.405996 24.181262 17.398421 24.185087 L 17.397904 24.185087 L 17.397387 24.185603 L 17.396871 24.185603 L 17.396354 24.18612 L 17.396354 24.186637 C 17.390392 24.196626 17.398421 24.230562 17.398421 24.230562 L 17.425809 24.268286 L 17.44648 24.276554 L 17.526578 24.279654 L 17.611328 24.269319 L 17.711063 24.213509 L 17.732767 24.211442 L 17.743103 24.205757 L 17.739485 24.164416 L 17.727083 24.128243 L 17.721399 24.086385 L 17.723982 24.055896 L 17.731734 24.023339 L 17.716748 24.007836 z M 20.421492 24.016621 L 20.399788 24.033158 L 20.385835 24.039876 L 20.369816 24.040393 L 20.350179 24.040393 L 20.340877 24.052795 L 20.342944 24.073982 L 20.332092 24.086901 L 20.317622 24.100854 L 20.292818 24.109639 C 20.292818 24.109639 20.264261 24.115056 20.257161 24.113256 C 20.256934 24.113228 20.25584 24.113259 20.255611 24.113256 L 20.255094 24.113256 C 20.254862 24.113299 20.253777 24.11371 20.253544 24.113773 C 20.247495 24.115913 20.241141 24.124108 20.241141 24.124108 L 20.257161 24.140128 C 20.257161 24.140128 20.269698 24.14763 20.276798 24.14943 L 20.277315 24.14943 L 20.277832 24.14943 L 20.277832 24.149947 L 20.278348 24.149947 L 20.278865 24.150463 C 20.278996 24.150665 20.279784 24.15179 20.279899 24.152014 L 20.279899 24.15253 C 20.281924 24.158808 20.280415 24.170617 20.280415 24.170617 C 20.280415 24.170617 20.2856 24.186769 20.2892 24.197489 C 20.2928 24.208249 20.291268 24.215059 20.291268 24.215059 L 20.310905 24.217126 L 20.332092 24.213509 L 20.374983 24.207824 L 20.39307 24.179402 L 20.416324 24.175785 L 20.42666 24.156148 L 20.421492 24.124108 L 20.419425 24.116874 L 20.441129 24.127726 L 20.460766 24.13496 L 20.473169 24.120491 L 20.476786 24.088452 L 20.462316 24.082767 L 20.428727 24.081217 L 20.437512 24.059513 L 20.453531 24.038326 L 20.464384 24.020239 L 20.439062 24.020239 L 20.421492 24.016621 z M 20.999235 24.103438 L 21.000268 24.113256 L 21.010087 24.111189 L 21.016288 24.116874 L 21.010087 24.124108 L 20.999235 24.127726 L 20.993033 24.132893 L 20.993033 24.148913 L 20.998201 24.159765 L 21.00802 24.156148 L 21.010087 24.147363 L 21.014738 24.142712 L 21.025073 24.147363 L 21.042126 24.15098 L 21.040576 24.138061 L 21.036958 24.134444 L 21.031274 24.122041 L 21.031274 24.108605 L 21.031274 24.108089 L 21.031274 24.107572 L 21.030757 24.107055 L 21.030757 24.106538 L 21.03024 24.106538 L 21.029724 24.106022 L 21.029207 24.106022 L 21.02869 24.106022 C 21.027903 24.105965 21.026697 24.105923 21.026106 24.106022 L 21.02559 24.106022 L 21.025073 24.106022 L 21.006986 24.104471 L 20.999235 24.103438 z M 20.995617 24.196455 L 20.984765 24.201623 L 20.97598 24.206791 L 20.978047 24.212992 L 20.988383 24.218676 L 21.001818 24.218676 L 21.010603 24.215059 L 21.009053 24.20524 L 20.995617 24.196455 z M 21.026106 24.216609 L 21.017838 24.21971 L 20.999235 24.227461 L 20.992 24.228495 L 21.003885 24.232112 L 21.01267 24.242447 L 21.020422 24.25795 L 21.033341 24.253299 L 21.042126 24.243481 L 21.035925 24.225911 L 21.026106 24.216609 z M 20.962544 24.219193 L 20.95531 24.221777 L 20.947041 24.226428 L 20.938773 24.23573 L 20.935673 24.245548 C 20.935673 24.245548 20.935156 24.253383 20.935156 24.255883 L 20.935156 24.2564 L 20.934639 24.256917 L 20.934639 24.257434 C 20.93357 24.259557 20.931022 24.262084 20.931022 24.262084 L 20.923787 24.266219 L 20.917586 24.271903 L 20.910351 24.278621 L 20.90415 24.282755 L 20.898466 24.287923 L 20.901566 24.293607 L 20.910351 24.292057 L 20.917586 24.285339 L 20.924304 24.277587 L 20.930505 24.273453 L 20.939807 24.264668 L 20.944974 24.257434 L 20.949625 24.252783 L 20.957893 24.241931 L 20.966162 24.234179 L 20.970296 24.229012 L 20.969262 24.220743 L 20.962544 24.219193 z M 20.248376 24.251749 L 20.216337 24.262084 C 20.217975 24.267352 20.220988 24.289468 20.220988 24.293607 L 20.220988 24.294124 L 20.220988 24.294641 L 20.221504 24.294641 L 20.222021 24.294641 L 20.222538 24.294641 C 20.228479 24.294212 20.244759 24.285856 20.244759 24.285856 L 20.261295 24.269319 L 20.248376 24.251749 z M 20.216337 24.262084 L 20.216337 24.261568 L 20.21582 24.261568 L 20.21582 24.262084 L 20.216337 24.262084 z M 20.610628 24.285856 L 20.602876 24.286889 L 20.590991 24.293607 L 20.588407 24.305493 L 20.592024 24.319445 L 20.593058 24.329264 L 20.592024 24.3427 L 20.585823 24.350968 L 20.577555 24.359753 L 20.56877 24.365954 L 20.543965 24.364921 L 20.538281 24.368538 L 20.537247 24.380424 C 20.537247 24.380424 20.535697 24.395427 20.535697 24.399027 L 20.535697 24.412463 L 20.536731 24.429516 C 20.536731 24.429516 20.538548 24.436768 20.540348 24.440368 L 20.540865 24.440885 L 20.541381 24.441402 C 20.54499 24.44417 20.55275 24.447086 20.55275 24.447086 L 20.564119 24.450187 L 20.577555 24.460005 L 20.587373 24.460522 C 20.587373 24.460522 20.593726 24.468808 20.598226 24.472408 C 20.602726 24.476008 20.604427 24.477575 20.604427 24.477575 L 20.617863 24.48636 L 20.632332 24.483776 C 20.632332 24.483776 20.631956 24.491679 20.632849 24.496179 C 20.632905 24.49646 20.633283 24.496972 20.633365 24.497212 L 20.633365 24.497729 L 20.633882 24.498246 L 20.634399 24.498763 L 20.634916 24.499279 L 20.635433 24.499279 L 20.635433 24.499796 L 20.635949 24.499796 L 20.636466 24.499796 C 20.636746 24.499823 20.637798 24.50032 20.638016 24.500313 L 20.638533 24.499796 L 20.639567 24.489461 L 20.647318 24.483776 L 20.663338 24.482743 L 20.672123 24.480159 L 20.67574 24.466723 L 20.681425 24.463106 L 20.688659 24.453287 L 20.691243 24.443469 L 20.686592 24.438301 L 20.67574 24.437268 L 20.665405 24.43365 L 20.650935 24.437268 L 20.643701 24.436234 L 20.6375 24.439335 L 20.633882 24.442952 L 20.628198 24.442952 L 20.62148 24.433133 L 20.610628 24.426932 L 20.603393 24.421248 L 20.60236 24.405228 L 20.60236 24.389209 L 20.601843 24.375773 L 20.599776 24.366988 L 20.594608 24.364921 L 20.590991 24.356136 L 20.594608 24.349934 C 20.594608 24.349934 20.59876 24.352785 20.60236 24.354585 C 20.60281 24.35481 20.603565 24.354979 20.60391 24.355102 L 20.604427 24.355102 L 20.604943 24.355102 L 20.60546 24.355102 L 20.605977 24.355102 L 20.605977 24.354585 L 20.608561 24.3427 L 20.608561 24.334948 L 20.608561 24.32668 L 20.615279 24.320479 L 20.620446 24.312211 L 20.62148 24.305493 L 20.617863 24.295674 L 20.610628 24.285856 z M 20.893815 24.297224 L 20.883996 24.300325 L 20.873144 24.302909 L 20.859191 24.308593 L 20.84989 24.315828 L 20.838521 24.324096 L 20.831803 24.330814 L 20.83542 24.333915 L 20.841621 24.329781 L 20.848339 24.32668 L 20.855574 24.321512 L 20.861259 24.316862 L 20.875211 24.312727 L 20.883996 24.308593 L 20.896399 24.302392 L 20.893815 24.297224 z M 20.258711 24.336499 L 20.220988 24.340116 L 20.201867 24.353035 L 20.186881 24.369571 L 20.165177 24.38094 L 20.142439 24.389725 L 20.127453 24.403678 L 20.133654 24.412463 L 20.155358 24.427449 L 20.185331 24.45122 L 20.204451 24.464139 C 20.204451 24.464139 20.223122 24.479209 20.228222 24.481709 C 20.233272 24.484239 20.244759 24.494628 20.244759 24.494628 L 20.257161 24.489461 L 20.264913 24.473958 L 20.264913 24.456388 L 20.271114 24.441402 L 20.28765 24.428483 L 20.28765 24.408329 C 20.28765 24.403279 20.283699 24.396892 20.279899 24.391792 L 20.279899 24.391276 L 20.279382 24.390759 C 20.277983 24.38311 20.285066 24.36182 20.285066 24.36182 L 20.285066 24.346317 L 20.278865 24.336499 L 20.258711 24.336499 z M 19.885608 24.418664 L 19.862353 24.443469 L 19.868038 24.465173 C 19.868038 24.465173 19.88936 24.475775 19.89646 24.477575 C 19.903789 24.480555 19.917647 24.50238 19.917647 24.50238 L 19.939351 24.522017 L 19.966223 24.513232 L 19.993094 24.505997 L 19.999812 24.482743 L 19.993094 24.454321 L 19.989477 24.476025 L 19.960538 24.489978 L 19.917647 24.472408 L 19.901627 24.431066 L 19.885608 24.418664 z M 20.718632 24.444502 L 20.707263 24.446569 L 20.698995 24.459488 L 20.692277 24.471891 L 20.687626 24.483776 C 20.687626 24.483776 20.679723 24.490895 20.675223 24.493595 C 20.674661 24.493932 20.674104 24.494272 20.673673 24.494628 L 20.673156 24.495145 L 20.67264 24.495662 L 20.672123 24.496179 C 20.671683 24.496864 20.670731 24.498246 20.670573 24.498763 L 20.670573 24.499279 L 20.670573 24.499796 L 20.671606 24.505997 L 20.687626 24.514265 L 20.705196 24.512198 C 20.705196 24.512198 20.716199 24.50508 20.720699 24.50238 C 20.725189 24.49978 20.734651 24.493595 20.734651 24.493595 L 20.740336 24.470341 L 20.734135 24.461556 L 20.718632 24.444502 z M 20.755322 24.515299 L 20.743953 24.515816 C 20.743953 24.515816 20.725849 24.526035 20.722249 24.528735 C 20.718679 24.531335 20.70778 24.53752 20.70778 24.53752 L 20.700028 24.549922 L 20.704679 24.55819 L 20.709847 24.565425 C 20.709847 24.565425 20.715501 24.573945 20.719148 24.57576 L 20.719665 24.576277 L 20.720182 24.576277 L 20.720699 24.576794 L 20.721215 24.577311 C 20.724652 24.581108 20.729484 24.590747 20.729484 24.590747 C 20.729484 24.590747 20.729624 24.597482 20.730517 24.601082 C 20.731423 24.604682 20.732067 24.614518 20.732067 24.614518 L 20.735685 24.623303 L 20.748604 24.619169 L 20.755322 24.616585 L 20.76514 24.619169 L 20.777543 24.622786 L 20.78116 24.621752 L 20.788395 24.618135 L 20.794079 24.614518 L 20.805448 24.609867 L 20.809065 24.605733 L 20.822501 24.599015 L 20.829736 24.595397 L 20.838521 24.594881 L 20.847306 24.592297 L 20.856091 24.580411 L 20.859191 24.569042 L 20.860742 24.562325 L 20.869527 24.556123 L 20.874178 24.550956 L 20.88503 24.552506 L 20.878829 24.541137 L 20.866943 24.529252 L 20.852474 24.5215 L 20.835937 24.520467 L 20.824052 24.516849 L 20.824052 24.517366 C 20.823687 24.518032 20.822766 24.519579 20.821984 24.520467 C 20.821761 24.520685 20.820687 24.521809 20.820434 24.522017 C 20.819023 24.52297 20.816452 24.524084 20.814233 24.524084 C 20.812902 24.524084 20.811597 24.524241 20.810616 24.524601 C 20.810324 24.524748 20.809323 24.525465 20.809065 24.525634 C 20.808839 24.525819 20.807711 24.526474 20.807515 24.526668 C 20.806512 24.527849 20.805637 24.529768 20.805448 24.530285 L 20.793046 24.525118 C 20.793046 24.525118 20.782176 24.526668 20.778576 24.526668 C 20.774155 24.526173 20.761523 24.522017 20.761523 24.522017 L 20.755322 24.515299 z " /></g></svg>
