<?xml version="1.0" encoding="UTF-8" standalone="no"?>
<!-- Created with Inkscape (http://www.inkscape.org/) -->

<svg
   width="128"
   height="128"
   viewBox="0 0 33.866665 33.866667"
   version="1.1"
   id="svg1"
   inkscape:version="1.4.4 (dcaf3e7d9e, 2026-05-05)"
   sodipodi:docname="tipologiedelega.svg"
   xml:space="preserve"
   xmlns:inkscape="http://www.inkscape.org/namespaces/inkscape"
   xmlns:sodipodi="http://sodipodi.sourceforge.net/DTD/sodipodi-0.dtd"
   xmlns="http://www.w3.org/2000/svg"
   xmlns:svg="http://www.w3.org/2000/svg"><sodipodi:namedview
     id="namedview1"
     pagecolor="#ffffff"
     bordercolor="#000000"
     borderopacity="0.25"
     inkscape:showpageshadow="false"
     inkscape:pageopacity="0.0"
     inkscape:pagecheckerboard="0"
     inkscape:deskcolor="#d1d1d1"
     inkscape:document-units="px"
     inkscape:zoom="3.2869417"
     inkscape:cx="230.00103"
     inkscape:cy="35.595398"
     inkscape:window-width="3394"
     inkscape:window-height="1404"
     inkscape:window-x="2606"
     inkscape:window-y="0"
     inkscape:window-maximized="1"
     inkscape:current-layer="layer1" /><defs
     id="defs1" /><g
     inkscape:label="Layer 1"
     inkscape:groupmode="layer"
     id="layer1"><g
       style="fill:#75caeb;fill-opacity:1"
       id="g1"
       transform="matrix(1.190625,0,0,1.190625,7.408333,7.408333)"><path
         d="M 9.5,0 H 4 A 2,2 0 0 0 2,2 v 12 a 2,2 0 0 0 2,2 h 8 a 2,2 0 0 0 2,-2 V 4.5 Z m 0,1 V 3 A 1.5,1.5 0 0 0 11,4.5 h 2 V 14 a 1,1 0 0 1 -1,1 H 4 A 1,1 0 0 1 3,14 V 2 A 1,1 0 0 1 4,1 Z"
         id="path2"
         style="fill:#75caeb;fill-opacity:1" /></g><g
       style="fill:#999999;fill-opacity:1"
       id="g10"
       transform="matrix(1.190625,0,0,1.190625,13.897072,7.408333)"><path
         d="m 0.05014084,7 c -0.666666,0 -0.666666,1 0,1 H 5.0501408 c 0.666666,0 0.666666,-1 0,-1 z m -0.5,2.5 c 0,-0.2761424 0.223858,-0.5 0.5,-0.5 H 5.0501408 c 0.666666,0 0.666666,1 0,1 H 0.05014084 c -0.276142,0 -0.5,-0.2238576 -0.5,-0.5"
         id="path9"
         style="fill:#999999;fill-opacity:1"
         sodipodi:nodetypes="ssssscssssc" /></g><g
       style="fill:#ff4136;fill-opacity:1"
       id="g11"
       transform="matrix(1.190625,0,0,1.190625,7.4083334,7.408333)"><path
         d="M 5,11.5 C 5,11.223858 5.2238576,11 5.5,11 h 2 c 0.6666664,0 0.6666664,1 0,1 h -2 C 5.2238576,12 5,11.776142 5,11.5"
         id="path10"
         style="fill:#ff4136;fill-opacity:1"
         sodipodi:nodetypes="cssssc" /></g></g></svg>
