<?xml version="1.0" encoding="UTF-8" standalone="no"?>
<!-- Created with Inkscape (http://www.inkscape.org/) -->

<svg
   width="128"
   height="128"
   viewBox="0 0 33.866665 33.866667"
   version="1.1"
   id="svg1"
   inkscape:version="1.4.4 (dcaf3e7d9e, 2026-05-05)"
   sodipodi:docname="tipologieiscrizione.svg"
   xml:space="preserve"
   xmlns:inkscape="http://www.inkscape.org/namespaces/inkscape"
   xmlns:sodipodi="http://sodipodi.sourceforge.net/DTD/sodipodi-0.dtd"
   xmlns="http://www.w3.org/2000/svg"
   xmlns:svg="http://www.w3.org/2000/svg"><sodipodi:namedview
     id="namedview1"
     pagecolor="#ffffff"
     bordercolor="#000000"
     borderopacity="0.25"
     inkscape:showpageshadow="false"
     inkscape:pageopacity="0.0"
     inkscape:pagecheckerboard="0"
     inkscape:deskcolor="#d1d1d1"
     inkscape:document-units="px"
     inkscape:zoom="1.1621094"
     inkscape:cx="712.49747"
     inkscape:cy="220.28907"
     inkscape:window-width="3394"
     inkscape:window-height="1404"
     inkscape:window-x="2606"
     inkscape:window-y="0"
     inkscape:window-maximized="1"
     inkscape:current-layer="layer1" /><defs
     id="defs1" /><g
     inkscape:label="Layer 1"
     inkscape:groupmode="layer"
     id="layer1"><g
       id="g7"
       transform="matrix(1.3170719,0,0,1.3170719,-50.335498,-1.2493634)"><path
         style="fill:#239cc8;fill-opacity:1;stroke:none;stroke-width:1.32292;stroke-linecap:round;stroke-linejoin:round;paint-order:stroke markers fill"
         d="M 49.249993,8.1298358 52.37608,11.255925 H 49.021632 Z"
         id="path6" /><g
         id="g6"
         transform="translate(61.699942)"><path
           d="m -17.983793,8.2761639 c 0,-0.939157 0.763564,-1.702721 1.702721,-1.702721 h 3.977449 c 0.452286,0 0.885947,0.178254 1.205208,0.497514 l 2.8307724,2.836094 c 0.31926,0.3192601 0.497514,0.7529221 0.497514,1.2052071 v 2.593989 l -3.5118614,3.511862 -0.758241,1.27172 c -0.02394,0.08247 -0.04523,0.167611 -0.06119,0.252748 l -0.289995,1.449973 h -3.889653 c -0.939157,0 -1.702721,-0.763564 -1.702721,-1.702721 V 8.2735029 Z m 5.533843,-0.146328 v 2.4875691 c 0,0.353847 0.284674,0.63852 0.63852,0.63852 h 2.4875684 z"
           id="path3"
           style="fill:#75caeb;fill-opacity:1;stroke-width:0.026605"
           sodipodi:nodetypes="cssccscccccsscccsscc" /><path
           d="m -10.842056,18.988741 c 0.06651,-0.329902 0.228803,-0.633199 0.465587,-0.869984 l 3.1633359,-3.163336 2.1284,2.128401 -3.163336,3.163336 c -0.236784,0.236784 -0.540082,0.399075 -0.869983,0.465588 l -1.5856579,0.316599 c -0.02395,0.0053 -0.05055,0.008 -0.07716,0.008 -0.21284,0 -0.388433,-0.172933 -0.388433,-0.388433 0,-0.02661 0.0027,-0.05055 0.008,-0.07715 l 0.3166,-1.58566 z"
           id="path4"
           style="fill:#ff851b;fill-opacity:1;stroke-width:0.026605"
           sodipodi:nodetypes="csccsccssccc" /><path
           d="m -3.708005,15.712844 -0.766224,0.766225 -2.128402,-2.128401 0.766224,-0.766225 c 0.587971,-0.587971 1.540431,-0.587971 2.128402,0 0.587971,0.587971 0.587971,1.540431 0,2.128401 z"
           id="path5"
           style="fill:#ff4136;fill-opacity:1;stroke-width:0.026605"
           sodipodi:nodetypes="sccsss" /></g></g></g></svg>
