<?xml version="1.0" encoding="UTF-8" standalone="no"?>
<!-- Created with Inkscape (http://www.inkscape.org/) -->

<svg
   width="128"
   height="128"
   viewBox="0 0 33.866665 33.866667"
   version="1.1"
   id="svg1"
   inkscape:version="1.4.4 (dcaf3e7d9e, 2026-05-05)"
   sodipodi:docname="zoning-logo-new.svg"
   xml:space="preserve"
   xmlns:inkscape="http://www.inkscape.org/namespaces/inkscape"
   xmlns:sodipodi="http://sodipodi.sourceforge.net/DTD/sodipodi-0.dtd"
   xmlns:xlink="http://www.w3.org/1999/xlink"
   xmlns="http://www.w3.org/2000/svg"
   xmlns:svg="http://www.w3.org/2000/svg"><sodipodi:namedview
     id="namedview1"
     pagecolor="#ffffff"
     bordercolor="#000000"
     borderopacity="0.25"
     inkscape:showpageshadow="false"
     inkscape:pageopacity="0.0"
     inkscape:pagecheckerboard="0"
     inkscape:deskcolor="#d1d1d1"
     inkscape:document-units="px"
     inkscape:zoom="9.296875"
     inkscape:cx="46.789916"
     inkscape:cy="69.163025"
     inkscape:window-width="3394"
     inkscape:window-height="1404"
     inkscape:window-x="2606"
     inkscape:window-y="0"
     inkscape:window-maximized="1"
     inkscape:current-layer="layer1"
     showgrid="false" /><defs
     id="defs1"><linearGradient
       id="linearGradient5"
       inkscape:collect="always"><stop
         style="stop-color:#33c537;stop-opacity:1"
         offset="0"
         id="stop5" /><stop
         style="stop-color:#2fc633;stop-opacity:1;"
         offset="1"
         id="stop6" /></linearGradient><linearGradient
       inkscape:collect="always"
       xlink:href="#linearGradient5"
       id="linearGradient6"
       x1="17.929411"
       y1="32.728291"
       x2="17.929411"
       y2="14.52417"
       gradientUnits="userSpaceOnUse" /></defs><g
     inkscape:label="Layer 1"
     inkscape:groupmode="layer"
     id="layer1"><path
       id="rect1"
       style="fill:#2ab12e;fill-opacity:1;stroke-width:1.36826;stroke-linecap:round;stroke-linejoin:round;paint-order:stroke markers fill"
       d="M 2.6458333,29.51238 H 31.220832 c 1.465791,0 2.645833,-0.876602 2.645833,-1.965476 V 6.3197619 c 0,-1.0888732 -1.180042,-1.9654758 -2.645833,-1.9654758 H 2.6458333 C 1.1800416,4.3542861 0,5.2308887 0,6.3197619 V 27.546904 c 0,1.088874 1.1800416,1.965476 2.6458333,1.965476 z" /><path
       id="rect4"
       style="fill:url(#linearGradient6);fill-opacity:1;stroke-width:1.5875;stroke-linecap:round;stroke-linejoin:round;paint-order:stroke markers fill"
       sodipodi:type="inkscape:offset"
       inkscape:radius="-1.0245378"
       inkscape:original="M 2.6464844 0 C 1.1806928 0 0 1.1806928 0 2.6464844 L 0 31.220703 C 0 32.686495 1.1806928 33.867188 2.6464844 33.867188 L 31.220703 33.867188 C 32.686495 33.867188 33.867188 32.686495 33.867188 31.220703 L 33.867188 2.6464844 C 33.867188 1.1806928 32.686495 0 31.220703 0 L 2.6464844 0 z "
       d="m 2.6464844,1.0253906 c -0.9156159,0 -1.6210938,0.7054779 -1.6210938,1.6210938 V 31.220703 c 0,0.915617 0.705478,1.621094 1.6210938,1.621094 H 31.220703 c 0.915616,0 1.621094,-0.705478 1.621094,-1.621094 V 2.6464844 c 0,-0.9156158 -0.705477,-1.6210938 -1.621094,-1.6210938 z"
       transform="matrix(1.0483209,0,0,0.7230679,-0.56207817,3.6128591)" /><path
       d="m 20.929004,17.070563 c -0.502576,1.01858 -1.183547,2.033323 -1.879864,2.944482 a 30.691666,30.691666 0 0 1 -2.115807,2.464924 30.691666,30.691666 0 0 1 -2.115807,-2.464924 c -0.696317,-0.911159 -1.377288,-1.925902 -1.879864,-2.944482 -0.508331,-1.02913 -0.799902,-1.99304 -0.799902,-2.819797 a 4.795573,4.795573 0 0 1 9.591146,0 c 0,0.826757 -0.29253,1.790667 -0.799902,2.819797 m -3.995671,6.771349 c 0,0 5.754687,-5.453526 5.754687,-9.591146 a 5.7546874,5.7546874 0 0 0 -11.509374,0 c 0,4.13762 5.754687,9.591146 5.754687,9.591146"
       id="path1"
       style="fill:#ffffff;fill-opacity:1;stroke-width:0.959115" /><path
       d="m 16.933333,16.168995 a 1.9182291,1.9182291 0 1 1 0,-3.836458 1.9182291,1.9182291 0 0 1 0,3.836458 m 0,0.959115 a 2.8773437,2.8773437 0 1 0 0,-5.754687 2.8773437,2.8773437 0 0 0 0,5.754687"
       id="path2"
       style="fill:#ffffff;fill-opacity:1;stroke-width:0.959115" /></g></svg>
