<?xml version="1.0" encoding="UTF-8" standalone="no"?>
<!-- Created with Inkscape (http://www.inkscape.org/) -->

<svg
   width="128"
   height="128"
   viewBox="0 0 33.866665 33.866667"
   version="1.1"
   id="svg1"
   inkscape:version="1.4.4 (dcaf3e7d9e, 2026-05-05)"
   sodipodi:docname="zoning-logo-edit.svg"
   xml:space="preserve"
   xmlns:inkscape="http://www.inkscape.org/namespaces/inkscape"
   xmlns:sodipodi="http://sodipodi.sourceforge.net/DTD/sodipodi-0.dtd"
   xmlns:xlink="http://www.w3.org/1999/xlink"
   xmlns="http://www.w3.org/2000/svg"
   xmlns:svg="http://www.w3.org/2000/svg"><sodipodi:namedview
     id="namedview1"
     pagecolor="#ffffff"
     bordercolor="#000000"
     borderopacity="0.25"
     inkscape:showpageshadow="false"
     inkscape:pageopacity="0.0"
     inkscape:pagecheckerboard="0"
     inkscape:deskcolor="#d1d1d1"
     inkscape:document-units="px"
     inkscape:zoom="9.296875"
     inkscape:cx="50.339496"
     inkscape:cy="53.781513"
     inkscape:window-width="3394"
     inkscape:window-height="1404"
     inkscape:window-x="2606"
     inkscape:window-y="0"
     inkscape:window-maximized="1"
     inkscape:current-layer="layer1"
     showgrid="false" /><defs
     id="defs1"><linearGradient
       id="linearGradient5"
       inkscape:collect="always"><stop
         style="stop-color:#ff851b;stop-opacity:1;"
         offset="0"
         id="stop5" /><stop
         style="stop-color:#ff9e47;stop-opacity:1;"
         offset="1"
         id="stop6" /></linearGradient><linearGradient
       inkscape:collect="always"
       xlink:href="#linearGradient5"
       id="linearGradient6"
       x1="17.929411"
       y1="32.728291"
       x2="17.929411"
       y2="14.52417"
       gradientUnits="userSpaceOnUse" /></defs><g
     inkscape:label="Layer 1"
     inkscape:groupmode="layer"
     id="layer1"><path
       id="rect1"
       style="fill:#f57100;fill-opacity:1;stroke-width:1.36826;stroke-linecap:round;stroke-linejoin:round;paint-order:stroke markers fill"
       d="M 2.6458333,29.51238 H 31.220832 c 1.465791,0 2.645833,-0.876602 2.645833,-1.965476 V 6.3197619 c 0,-1.0888732 -1.180042,-1.9654758 -2.645833,-1.9654758 H 2.6458333 C 1.1800416,4.3542861 0,5.2308887 0,6.3197619 V 27.546904 c 0,1.088874 1.1800416,1.965476 2.6458333,1.965476 z" /><path
       id="rect4"
       style="fill:url(#linearGradient6);fill-opacity:1;stroke-width:1.5875;stroke-linecap:round;stroke-linejoin:round;paint-order:stroke markers fill"
       sodipodi:type="inkscape:offset"
       inkscape:radius="-1.0245378"
       inkscape:original="M 2.6464844 0 C 1.1806928 0 0 1.1806928 0 2.6464844 L 0 31.220703 C 0 32.686495 1.1806928 33.867188 2.6464844 33.867188 L 31.220703 33.867188 C 32.686495 33.867188 33.867188 32.686495 33.867188 31.220703 L 33.867188 2.6464844 C 33.867188 1.1806928 32.686495 0 31.220703 0 L 2.6464844 0 z "
       d="m 2.6464844,1.0253906 c -0.9156159,0 -1.6210938,0.7054779 -1.6210938,1.6210938 V 31.220703 c 0,0.915617 0.705478,1.621094 1.6210938,1.621094 H 31.220703 c 0.915616,0 1.621094,-0.705478 1.621094,-1.621094 V 2.6464844 c 0,-0.9156158 -0.705477,-1.6210938 -1.621094,-1.6210938 z"
       transform="matrix(1.0483209,0,0,0.7230679,-0.56207817,3.6128591)" /><g
       style="fill:#ffffff;fill-opacity:1"
       id="g6"
       transform="matrix(0.95911456,0,0,0.95911456,9.2604165,8.4960789)"><path
         d="m 12.166,8.94 c -0.524,1.062 -1.234,2.12 -1.96,3.07 A 32,32 0 0 1 8,14.58 32,32 0 0 1 5.794,12.01 C 5.068,11.06 4.358,10.002 3.834,8.94 3.304,7.867 3,6.862 3,6 a 5,5 0 0 1 10,0 c 0,0.862 -0.305,1.867 -0.834,2.94 M 8,16 c 0,0 6,-5.686 6,-10 A 6,6 0 0 0 2,6 c 0,4.314 6,10 6,10"
         id="path1"
         style="fill:#ffffff;fill-opacity:1" /><path
         d="M 8,8 A 2,2 0 1 1 8,4 2,2 0 0 1 8,8 M 8,9 A 3,3 0 1 0 8,3 3,3 0 0 0 8,9"
         id="path2"
         style="fill:#ffffff;fill-opacity:1" /></g></g></svg>
