<?xml version="1.0" encoding="UTF-8" standalone="no"?>
<svg
   width="128"
   height="128"
   viewBox="0 0 33.866665 33.866667"
   version="1.1"
   xmlns:xlink="http://www.w3.org/1999/xlink"
   xmlns="http://www.w3.org/2000/svg"><defs><linearGradient
       id="linearGradient5"><stop
         style="stop-color:#ff851b;stop-opacity:1;"
         offset="0" /><stop
         style="stop-color:#ff9e47;stop-opacity:1;"
         offset="1" /></linearGradient><linearGradient
       xlink:href="#linearGradient5"
       id="linearGradient6"
       x1="17.929411"
       y1="32.728291"
       x2="17.929411"
       y2="14.52417"
       gradientUnits="userSpaceOnUse" /></defs><g
     id="layer1"><path
       id="rect1"
       style="fill:#f57100;fill-opacity:1;stroke-width:1.36826;stroke-linecap:round;stroke-linejoin:round;paint-order:stroke markers fill"
       d="M 2.6458333,29.51238 H 31.220832 c 1.465791,0 2.645833,-0.876602 2.645833,-1.965476 V 6.3197619 c 0,-1.0888732 -1.180042,-1.9654758 -2.645833,-1.9654758 H 2.6458333 C 1.1800416,4.3542861 0,5.2308887 0,6.3197619 V 27.546904 c 0,1.088874 1.1800416,1.965476 2.6458333,1.965476 z" /><path
       id="rect4"
       style="fill:url(#linearGradient6);fill-opacity:1;stroke-width:1.5875;stroke-linecap:round;stroke-linejoin:round;paint-order:stroke markers fill"
       d="m 2.6464844,1.0253906 c -0.9156159,0 -1.6210938,0.7054779 -1.6210938,1.6210938 V 31.220703 c 0,0.915617 0.705478,1.621094 1.6210938,1.621094 H 31.220703 c 0.915616,0 1.621094,-0.705478 1.621094,-1.621094 V 2.6464844 c 0,-0.9156158 -0.705477,-1.6210938 -1.621094,-1.6210938 z"
       transform="matrix(1.0483209,0,0,0.7230679,-0.56207817,3.6128591)" /><g
       style="fill:#ffffff;fill-opacity:1"
       transform="matrix(0.95911456,0,0,0.95911456,9.2604165,8.4960789)"><path
         fill-rule="evenodd"
         style="fill:#ffffff;fill-opacity:1"
         d="M1 11.5a.5.5 0 0 0 .5.5h11.793l-3.147 3.146a.5.5 0 0 0 .708.708l4-4a.5.5 0 0 0 0-.708l-4-4a.5.5 0 0 0-.708.708L13.293 11H1.5a.5.5 0 0 0-.5.5m14-7a.5.5 0 0 1-.5.5H2.707l3.147 3.146a.5.5 0 1 1-.708.708l-4-4a.5.5 0 0 1 0-.708l4-4a.5.5 0 1 1 .708.708L2.707 4H14.5a.5.5 0 0 1 .5.5" /></g></g></svg>
